<?xml version="1.0" encoding="utf-8"?>
<!-- Generator: Adobe Illustrator 19.2.1, SVG Export Plug-In . SVG Version: 6.00 Build 0)  -->
<svg version="1.1" id="Layer_1" xmlns="http://www.w3.org/2000/svg" xmlns:xlink="http://www.w3.org/1999/xlink" x="0px" y="0px"
	 viewBox="0 0 59.3 51.4" style="enable-background:new 0 0 59.3 51.4;" xml:space="preserve">
<style type="text/css">
	.st0{display:none;fill:#F1F2F2;}
	.st1{display:none;fill:#A7A9AC;}
	.st2{fill:#E81F63;}
</style>
<rect x="-377.6" y="-2613.7" class="st0" width="590" height="7550"/>
<rect x="-3.6" y="-8.7" class="st1" width="64" height="64"/>
<g>
	<g>
		<g>
			<g>
				<g>
					<path class="st2" d="M55.7,16.9c0.1,0.1,0.3,0,0.2-0.2l-0.3-0.2L55.7,16.9z"/>
					<path class="st2" d="M56.3,15.3c-0.2-0.3-0.5-0.5-0.8-0.3c0.3,0.2,0.2,0.3,0.6,0.6c0.1,0.2-0.1,0.4-0.2,0.4
						c0.1,0.1-0.1,0.4,0.2,0.5c0.2-0.3,0.2-0.7,0-1.1C56.1,15.2,56.2,15.3,56.3,15.3z"/>
					<path class="st2" d="M40.8,0.9H41C40.9,0.9,40.8,0.9,40.8,0.9z"/>
					<path class="st2" d="M28.4,6.9C28.5,7,28.5,6.9,28.4,6.9C28.5,6.9,28.4,6.9,28.4,6.9z"/>
					<path class="st2" d="M27.1,5.3l0.1,0.1C27.1,5.4,27.1,5.3,27.1,5.3z"/>
					<path class="st2" d="M40.8,0.9l-0.4-0.1C40.4,1,40.6,0.9,40.8,0.9z"/>
					<path class="st2" d="M54.9,12.4c0,0.1,0.1,0.1,0.1,0.2L54.9,12.4L54.9,12.4z"/>
					<path class="st2" d="M47.4,1.4L47.4,1.4l0.2-0.1L47.4,1.4z"/>
					<path class="st2" d="M51.8,4.1c-0.1-0.1-0.3,0.1-0.4,0.2c0.1,0,0.2,0,0.3,0C51.7,4.2,51.7,4.2,51.8,4.1z"/>
					<path class="st2" d="M55.7,11l0.1,0.1L55.7,11z"/>
					<path class="st2" d="M43.8,0.5L43.8,0.5C43.7,0.4,43.7,0.5,43.8,0.5z"/>
					<path class="st2" d="M54.2,22C54.3,22.1,54.3,22.1,54.2,22C54.3,22,54.3,22,54.2,22z"/>
					<path class="st2" d="M56.5,16.9L56.5,16.9c0.1,0.1,0.1,0.1,0.2,0.1L56.5,16.9z"/>
					<path class="st2" d="M23.6,2.2L23.6,2.2C23.7,2.3,23.6,2.2,23.6,2.2z"/>
					<path class="st2" d="M2.8,26.5C2.7,26,3.5,27,3.3,26.2C3.3,26.3,2.6,25.8,2.8,26.5z"/>
					<path class="st2" d="M54.9,12.3c0-0.1,0-0.1-0.1-0.2C54.9,12.2,54.9,12.2,54.9,12.3z"/>
					<polygon class="st2" points="3.3,26.2 3.3,26.2 3.3,26.1 					"/>
					<path class="st2" d="M12.7,0l0.1,0.1C12.8,0.1,12.8,0.1,12.7,0z"/>
					<path class="st2" d="M20.8,1.4l-0.2-0.1C20.7,1.3,20.7,1.4,20.8,1.4z"/>
					<path class="st2" d="M8.6,1.6c-0.1,0-0.2,0-0.3,0.1c0,0,0,0,0.1,0C8.4,1.7,8.5,1.6,8.6,1.6z"/>
					<path class="st2" d="M5,4.2C5.1,4.2,5.1,4.2,5,4.2l0.2-0.1L5,4.2z"/>
					<path class="st2" d="M46.8,31.2c0.1,0,0.2,0,0.3,0.1C46.9,31.2,47.3,30.8,46.8,31.2z"/>
					<path class="st2" d="M55.1,12.3c-0.1,0-0.1,0-0.1-0.1L55.1,12.3C55,12.4,55.1,12.4,55.1,12.3z"/>
					<path class="st2" d="M9.5,3.7C9.3,3.8,9.1,3.9,9,3.9C9.1,3.9,9.3,3.8,9.5,3.7z"/>
					<path class="st2" d="M26,43.2l0.1,0.1L26,43.2z"/>
					<path class="st2" d="M7.5,4.9c-0.1,0-0.3,0-0.4,0.1v0.1L7.5,4.9z"/>
					<path class="st2" d="M47.1,31.3L47.1,31.3L47.1,31.3z"/>
					<path class="st2" d="M49.9,28.1c-0.4,0.4,0,0.5,0.1,0.7c-0.5,0.6-0.4,0-0.7,0.1C49,29.3,49,29.8,48.7,30c-0.1,0-0.1,0-0.1-0.1
						c-0.2,0.5-1.1,0.9-1.3,1.6c-0.1,0-0.1,0-0.1,0c0.2,0.1,0.3,0.2,0.4,0.3c-0.2,0.2-0.3,0.5-0.5,0.4c0.1-0.1,0.1-0.2,0.1-0.3
						L47,32.2c-0.4-0.1,0.2-0.3,0.1-0.5c-0.4,0.4-0.8,1.1-1.2,1.2c-0.3-0.2,0.8-0.7,0.1-0.6l0.6-0.3c-0.7-0.1,0.4-0.2-0.4-0.4
						c-0.8,0.5-0.7,0.7-1.5,1.2c-0.1,0.3,0.2,0.2,0.2,0.5c-0.9,1-1.3-0.1-1.8,0.8c-0.1,0.3,0.1,0.7-0.6,0.9v-0.4
						c-0.7,0.5-0.1,0.7-1,1.1c0-0.2,0.5-0.5,0.4-0.5c-0.7,0.1-0.2,0.4-0.6,0.7L41,35.7c-0.7,0.6-1.4,1.4-2.3,2
						c0-0.1,0.1-0.3-0.2-0.2c-1,0.9-2.3,1.7-3.4,2.3l-0.2,0.5c-0.1,0.1-0.2,0-0.2-0.1c-0.5,0.2,0.1,0.2,0,0.4
						c-0.2,0.2-0.4,0.1-0.3-0.1c-0.5,0.8-1.5,2.1-2.4,2.5l0.1-0.2c-0.6,0.4-0.2,1-0.8,1.3l0.1-0.1c-0.6,0.5-1.1,1.2-1.6,1.8
						c-0.3,0.4-0.4,0.4-0.5,0.5s-0.2,0.1-0.3,0.1c0,0.2,0,0.3-0.1,0.4c-0.1-0.2-0.2-0.5-0.4-0.1c-0.1-0.4-0.1-0.5-0.1-0.6
						c0.1-0.1-0.1-0.4-0.4-0.9c-0.2-0.3-0.6-0.1-0.9-0.4l0.2-0.2l-0.6-0.2l0.1-0.5l-0.3-0.2c0.1,0.1,0.1,0.3,0.1,0.4
						c-0.5-0.3-0.9-1.2-0.8-1.3L24.6,42c0.1-0.1,0.3,0.1,0.5,0.1c-0.8-0.3,0.1-0.3-0.6-0.6c0,0.1-0.2,0.1-0.2,0.1
						c-0.1-0.4-0.7-0.9-1.3-1.2l0.2-0.1c-0.8-0.7-1.8-1.4-2.8-2.1c0.3,0.3,0,0.6-0.3,0.4l0.1-0.3c-0.3,0,0.2,0.3-0.3,0.2
						c-0.3-0.3,0-0.5,0.3-0.4l-0.5-0.2c0-0.1,0.2-0.1,0.3-0.1c-0.3,0-0.6-0.8-1-0.7V37c-1-0.7-1.5-0.9-2.3-1.5
						c-0.2,0.2-0.4-0.1-0.8,0c-0.5-0.5-1-1.1-1.7-1.6c-0.6-0.2-0.3,0.1-0.6,0.1c0.1-0.2-0.6-0.7-0.1-0.6c-0.8-0.6-1.1-0.7-2.2-1.3
						c0,0.2,0.1,0.3,0,0.3c-0.2-0.1-0.4-0.4-0.2-0.5h0.1c-1.4-0.6-2-2.6-3.2-3h0.1c-0.3-0.2-0.7-0.4-1-0.6c-0.3-0.4,0.4,0.1,0.2-0.3
						c-1.2-0.6-1.2-1.5-2-2.1c0.1-0.5-0.3-1.1-0.7-1.7c-0.4-0.6-0.8-1.2-0.7-1.8l-0.1,0.1c-0.3-0.2,0-0.3,0-0.5
						c-0.1,0.1-0.1,0.3-0.2,0.2c-1-2.1-0.7-4.7-0.3-6.9c0.1-0.8-0.9-0.6-0.3-1.6l0.3,0.4c-0.1-1.8,0.9-3.3,1.4-4.9
						c0,0.1,0.1,0.2,0,0.3c0.4-0.2,0.7-1.1,0.5-1.2c0.2-0.2,0.2,0.1,0.4,0c0.3-0.2,0.3-0.9,0.6-0.9c0,0,0,0.1,0,0.2
						c0-0.3,0.7-0.8,0.4-0.8c0.5-0.4,0.8-0.9,1.2-1.1c0-0.5,0.9-0.5,0.8-0.9C8.8,5.2,9.7,4.5,10,4.2c-0.1,0.2,0.4,0,0.3,0.2
						C10.7,4.2,11,4,10.9,3.8C11.8,4,12.4,2.9,13,3.4c1.2-0.5,2.5-0.7,3.8-0.7c-0.1,0.4-1.4,0-1.3,0.5c1.2-0.2,1.9-0.5,3-0.2
						c0.3,0.1-0.2,0.2-0.3,0.2c1.2,0,2.1,0.5,3.1,0.7c0,0-0.1,0-0.2,0C21.3,4,21.5,4.1,21.6,4h-0.2c-0.2-0.4,1-0.2,1.1-0.3
						c-0.6,0.3,0.8,0.6,0,1c0.1,0,0.3,0,0.4-0.1c0.2,0.1,0.2,0.2-0.1,0.3c0.7,0.3,0.6,0,1.1,0.4c-0.1,0.1-0.2,0-0.3,0.1
						c0.4,0,0.8,0.1,1.2,0.5c-0.1,0-0.1,0.1-0.2,0c0.8,0.6,1.7,0.7,2.4,1.5c-0.5,0.1,0.2,0.4,0,0.7l0.5,0.3l-0.1-0.3
						c0.4,0.3,1,0.5,1.5,1l-0.5-0.2l1.1,0.8l0,0l0,0l-0.6-0.6c0.5,0.2,0.1-0.5,0.6,0h0.1c-0.1,0.1,0.4-0.4,0.8-0.4l0,0
						c0.2-0.3,0.4-0.6,0.7-0.8c0.2,0,0.2,0.4,0.3,0.4c0-0.4,0.9-0.8,0.9-1.3c0,0.1,0.1,0.3,0.1,0.3V7c0.2-0.1,0.3-0.1,0.4,0.1
						c0.6-0.4-0.5-0.2,0.3-0.6c0,0.1,0,0.1-0.1,0.2c0.8-0.4,1.3-1.1,2-1.4c0.4,0.2-0.5,0.4-0.1,0.6c0.9-0.7,1.8-1.6,2.8-1.9h-0.2
						c-0.1-0.6,0.8-0.1,1.3-0.5c-0.1,0.1-0.1,0.3-0.1,0.3c0.7-0.1,1.4-0.6,2.5-0.9l-0.1,0.2c0.5,0.1,1.2-0.1,1.6,0
						C42.8,3,43.1,3,42.9,2.8C43.7,3.2,44.3,3.1,45,3c0.7,0,1.4,0,1.9,0.5c-0.1,0-0.4,0-0.3,0c0.4,0.1,0.7,0.1,1.1,0.2
						c0-0.2-0.1-0.2-0.2-0.4c0.2-0.1,0.5-0.1,0.8,0c-0.5-0.1-0.1,0.3,0,0.5c0-0.1,0.1-0.1,0.1-0.2c0.3,0.6,0.3-0.4,0.9,0.2l-0.1,0.1
						C49.5,4,49.8,4,50.1,4.2c0,0.3-0.3-0.1-0.5,0.1c0.4,0.2,1,0.1,1.2,0.5c-0.2-0.1-0.4-0.2-0.6-0.3C50.4,5,50.5,5,50.7,5.2l0,0
						c0.2,0.2,0.3,0.4,0.5,0.6l-0.1-0.2C52,5.4,52,6.3,52.9,6.5c-0.8-0.3-0.3,0.1-0.5,0.2c0.1,0.2,0.2,0.5,0.1,0.5
						c0.4,0.1,0.2,0.6,0.8,0.7c-0.1,0.1,0.2,0.3,0,0.4c0.3,0.3,0.1-0.2,0.2-0.2c0.7,0.4,0.6,1.6,1.4,2.3c0.6,0.7,0.9,0.7,1.4,1.5
						c0,0.3-0.4-0.1-0.4-0.1c0,0.5,0.2,0.8,0.4,1.2c-0.1-0.1-0.1,0-0.2,0.2c0.1,0.3,0.4,0.1,0.4,0.6c-0.1,0-0.3-0.1-0.5-0.2
						c0.2,0.4,0.5,0.7,0.6,1.1c-0.1,0.1-0.3-0.2-0.4-0.3c0.2,0.4,0.4,1.1,0.7,1.3l0.1-0.3c0,0.2-0.2,0.1-0.3,0
						c-0.3-0.4,0-0.6,0.1-0.6l0.1,0.3c0.5-0.4-0.3-1.2-0.5-1.7l0.5,0.1c-0.2-0.2-0.3-0.3-0.5-0.5c0.1-0.2,0.3-0.3,0.4,0
						c0.1-0.5-0.3-0.3-0.2-0.8c0-0.1,0,0,0.1,0l-0.3-0.4c0.1,0,0.2-0.2,0.3,0.1c-0.1-0.8-0.8-1.1-0.6-1.4h0.1c-0.6-0.9-0.3,0-1-0.5
						c0.1-0.3,0.3-0.6,0.4-0.8l-0.3,0.1c0-0.1-0.1-0.3,0-0.3c-0.4-0.2-0.1,0.1-0.4,0c0-0.6-0.9-1.1-0.6-1.5C54,7.5,54.5,8,54,7.7
						c0.3-0.5-0.5-0.5-0.6-1c0.3-0.1,0.5,0.4,0.4-0.2c-0.5,0.1-0.6-0.8-1-1C52.5,5.8,52,5,51.4,4.7c0.1-0.1-1-0.9-1.5-1.3l0,0
						c-0.3,0.3-0.9-0.1-1.3-0.2C48.7,3,48.8,3,49.1,3l-0.4-0.2c-0.1,0.1-0.3,0.1-0.6,0l0.2-0.2c-0.6-0.2-1.3-0.1-2.1-0.4
						C46.1,2.4,46.7,3,45.9,3c0-0.1,0-0.4,0.2-0.4c-0.1,0-0.3,0.1-0.4,0l0.4-0.2c-0.3-0.2-0.2,0.2-0.5,0.1c0-0.2-0.2-0.2-0.1-0.3
						c0.1,0,0.2,0.1,0.4,0.1c-0.3-0.1-0.7-0.2-0.8-0.4c0,0.1,0,0.3-0.3,0.3c-0.6,0-0.2-0.2-0.6-0.4c-0.2,0.1-0.5,0-0.6,0.3
						c-0.2,0-0.2-0.1-0.3-0.2C43,2,41.8,2,42.2,2.3h0.1h-0.1l0,0l0,0c-1,0.4-2.2,0.1-3.1,0.6V2.8c-0.6,0.3-1.3,0.5-1.6,0.9
						c-0.2,0.1-0.5,0-0.4-0.1C36.7,3.9,36.7,4,36,4.2c0.3-0.4-0.2-0.1,0.4-0.3c-0.6,0.2-0.8,0.2-1.2,0.7c0.1-0.3-0.6,0-0.8,0.2
						l0.5-0.1c-0.3,0.2-0.5,0.3-0.8,0.5L34,4.8c-1.3,0.4-1.4,1.9-2.6,1.9C31.3,7.1,32,6.4,32,6.8c-0.5,0.3-1.2,0.3-1.4,0.4
						c-0.2,0.1-0.3,0.2-0.3,0.3s0,0.1,0,0.2c0,0.2,0,0.4-0.2,0.5c0,0.1,0.2,0.4-0.1,0.8c0,0,0,0-0.1,0c-0.4-0.4-0.3-0.9-0.1-0.9
						c0.1,0,0.1,0.1,0.1,0.1H30c0-0.1,0-0.1,0-0.2l0,0v0.1c-0.1-0.2-0.4-0.4-0.2-0.6c-0.2,0-0.2,0.1-0.1,0.3
						c-0.1-0.1-0.1-0.2-0.1-0.2s-0.2-0.2-0.3-0.2c-0.2-0.2-0.5-0.3-0.7-0.6c0,0.1,0,0.3,0,0.2c-0.8-0.8-0.5-0.1-1.1-0.6
						c-0.2-0.4,0.4-0.2-0.3-0.6c-0.3-0.4,0.1-0.3,0.3-0.3c-0.7-0.3-0.9-0.9-1.2-1.2l0.4,0.1c-0.2-0.1-0.4-0.2-0.5-0.3v0.3
						C26.1,4.2,25.9,4.1,26,4c-0.3,0-0.1,0.4-0.6,0.3c-0.2-0.3-0.8-0.4-0.7-0.7c0.7,0.6,0.1-0.3,0.8,0.1c-0.1-0.1-0.3-0.2-0.5-0.3
						h0.1c-0.6-0.7-0.5,0.1-1.3-0.4c0.2-0.1,0-0.4-0.2-0.4c0.3,0.2,0,0.3-0.3,0.3c-0.5-0.4-0.6-0.2-0.9-0.3l0.3,0.2
						c-0.2,0.1-0.4,0-0.8-0.1c0-0.1,0.4,0,0.3-0.1c-0.5,0.1-0.9-0.7-1.6-0.6c-0.3-0.2,0.1-0.3-0.2-0.5c-0.8,0.1-0.7-0.4-1.5-0.3
						c0.2,0.3,0.2,0.2-0.3,0.4c0.4,0,0.8,0,1.2,0c-0.3,0.1-0.6,0.1-0.8,0.2c0.4,0.1,0.8,0,1,0.1C19.6,2,19.6,2,19.8,2.2
						c-0.4-0.4-1,0-1.5-0.3l0.1-0.6c-0.9-0.3-1.6,0.2-2.7,0.1l0.4,0.1c-0.1,0.2-0.7,0-1.1,0.2c0-0.2-0.2-0.2-0.4-0.4
						c0,0.1-0.9,0.1-0.9,0.5c-0.2-0.1-0.4-0.1-0.6-0.1c-1,0.1-0.9,0.8-1.7,1.1c0.2-0.3-0.3-0.3,0.3-0.6c-0.3,0.1-0.6,0.2-0.5,0.3
						c-0.2,0-0.7,0.6-1,0.5c-0.1,0.1,0,0.3-0.3,0.5c-0.1,0,0-0.1,0-0.1c0,0.1-0.4,0.4,0,0.4c-0.5,0-1.1,0.3-1.6,0.7S7.4,5.3,6.9,5.4
						C6.5,5.9,6,6.5,5.7,7c0-0.1-0.1-0.1,0-0.1C5.1,7.4,5.8,7.6,5.2,8.2C4.7,8.4,5.3,7.7,5.1,7.9C4.5,7.6,4.6,8.9,4,9.2V9
						c-0.4,0.3-0.3,1.1-0.6,1.8c0,0,0-0.1-0.1,0c0.1,0.6-0.1,1.6-0.2,2.3c-0.2-0.3,0-0.4-0.3-0.3c0,0.3,0.4,0,0.3,0.7
						c-0.2,0.2-0.4,0.6-0.7,0.6l0.1-0.6c-0.4,0.2-0.2,0.8-0.3,1.1l-0.1-0.1c-0.1,1,0.3,1,0.2,2l0.1-0.1c0.4,0.6-0.2,0.5,0,1L2,17.6
						c0.1,0.4,0.4,1.3,0.6,1.9c-0.3-0.3-0.5-1.1-0.7-1.6c0,0.4,0.1,1.3,0.3,1.4C2.1,19.2,2,19,2.1,18.8c0.3,0.4,0.5,1,0.7,1.7
						c-0.8,0,0.2,1.9-0.2,2.6c0.7,1.2,0.8,2.5,1.7,3.8c0.2-0.8,0.2,0.4,0.7,0c0.2,0.3,0.3,0.4,0.3,0.4c0.1,0.4,0.2,0.7,0.3,1.1
						c0,0.3-0.3-0.2-0.4-0.1c0.4,0.7,0,0.4,0.2,0.9c0.1-0.2,0.4,0,0.6,0.4l-0.2-0.7C6.7,29.5,6,30,7,30.5l-0.4-0.1
						c0.5,0.3,1.5,1.5,2.2,1.5c0,0.1,0,0.3-0.2,0.2c0.9,0.9,2.6,1.5,3.2,2.3l-0.2,0.1c0.2,0.1,0.5,0,0.7,0.3c0,0-0.2,0.1-0.1,0.1
						c0.1,0,0.7,0.2,0.9,0.4h-0.3c0.9,0.9,1.8,0.8,2.7,1.3c-0.3,0.4,0.5,1,0.8,1.4l0,0c1.1,0.9,2.2,1.1,3.4,1.8
						c0.4,0.9,2.1,1.8,2.9,2.9c-0.1-0.2,0.2-0.2,0.5-0.1c0.2,0.3,0.9,0.3,0.5,0.6l-0.1-0.1c-0.1,0.5,0.5,0.8,0.8,1.1l0.4-0.3
						c0.4,1.4,2.6,2.2,2.6,3.2c0.3,0.1,0.6,0.4,0.9,0.6L28,47.9l0.4,0.5l0.6,0.8c0.4,0.5,0.8,1.1,1.4,1.8c-0.1,0-0.2,0-0.3,0
						c0.2,0.3,0.4,0.4,0.6,0.4c0.3-0.8,0.4-1.6,0.7-2c0.1,0.1,0.2,0.2,0.3,0.3c0.3-0.4,0.5-0.7,0.8-1l0.4-0.5l0.3-0.3
						c0.4-0.4,0.7-0.8,0.9-1.3c0,0.1,0.1,0.2,0,0.3c0.3-0.4,1.5-1.2,1-1.4c0.3,0.3,0.8-0.7,1.1-1.2l0.1,0.3c0.1-0.6,0.1-0.7,0.5-1.2
						c0.1-0.1,0.3,0.1,0,0.2c0.5-0.2,0.1-0.5,0.7-0.8l-0.1,0.3c0.4-0.3,0.3-0.4,0.4-0.7c0.2-0.3,0.9-0.6,1.1-0.5
						c0-0.2,0.1-0.5,0.4-0.7c0.1,0,0,0.2,0,0.2c0.8-0.4,0.9-1.1,1.6-1.2c0.1,0.1,0.1,0.1,0.2,0.1c-0.6,0.4-1.1,0.8-1,0.7
						c0.2,0.2,0.6-0.1,0.5,0.4c0.3-0.4,0.7-1.3,1.2-1.5h0.1V40c0.1-0.1,0.2-0.1,0.3-0.2c0.2-0.1,0.3-0.1,0.4-0.2
						c0.2,0.1,0.6-0.3,0.9-0.5c-0.2-0.2,0.2-0.4-0.3-0.4c0,0,0,0.1-0.2,0.2L42.9,39l0,0l-0.6,0.4c0.1-0.3,0.2-0.5,0.6-0.6
						c0-0.2,0-0.5,0.1-0.6c0.6,0.1,1.3-0.2,1.5,0c0.7-0.6,1.7-1.3,1.9-2.1c0.2-0.2,0.3,0,0.5,0c-0.1,0.1-0.2,0.2-0.3,0.3
						c0.3-0.4,1.2-0.9,1.1-1.3c0.6-0.2-0.1,0.5,0.6-0.1v0.2c1.8-0.6,1.7-2.4,3.7-3.1c-0.1,0.1-0.2,0.1-0.3,0.1c2-1.2,3.2-3.4,4.8-5
						c0.4-0.5,0.3-0.7,0.3-1.1h0.3c0-0.3,0-0.5,0-0.8c0.2-0.9,1.4-1.2,1.2-2.6l-0.2,0.1c0.2-0.4,0.2-1.3,0.4-1.2
						c0-0.1-0.2-0.2,0-0.3h0.2c0-0.4-0.1-0.7-0.1-1.1c0.2-0.8,0.6,0.2,0.7-1c0-0.5-0.4-1.3-0.5-1.1c0,0.2-0.1,0.5-0.3,0.5l-0.1-0.4
						c-0.5-0.1-0.9-0.4-1.3,0.6l0.2,0.7l-0.2,0.2c0-0.2,0-0.4,0-0.5c-0.2,0.3-0.1,0.5,0.1,0.7c-0.1,0-0.2,0.1-0.3,0.2l0.4,0.7
						c-0.2,0-0.3-0.3-0.5,0.1c0.2,0.3,0.5-0.2,0.5,0.3c-0.3,0.3-0.4,0.1-0.3,0.5c-0.1,0-0.2-0.1-0.2-0.2c0.1,0.3-0.1,0.8,0.1,1
						c-0.3,0.2-0.3,1-0.7,0.9c0.1,0.1,0.1,0.6,0,0.9c-0.3-0.7-0.5,1-0.9,0.6c0.3,0.6-0.5,1.3-0.7,2c0-0.1,0-0.2,0-0.2
						c-0.3,0.3-0.4,0.3-0.7,0.5c0.3,0.3,0,0.8-0.1,1.2c-0.6,0.1-0.2-0.5-0.5-0.6c0.3,0.2-0.3,0.8,0,0.9c-0.4,0.1-0.3,0.2-0.7,0.1
						c0.3,0.4-0.2,0.3-0.2,0.7c-0.6,0.2-0.4-0.2-0.7,0.3C49.6,28.6,49.9,28.1,49.9,28.1z M38.7,37.5L38.7,37.5l0.2-0.2L38.7,37.5z
						 M37.7,38.3c0.1-0.1,0.3-0.2,0.4-0.3c0.1,0.1,0.1,0.2,0,0.2C38.2,38.1,37.9,38.2,37.7,38.3z M41,38.3c-0.1,0.1-0.2,0.1-0.3,0.1
						C40.8,38.3,40.9,38.3,41,38.3L41,38.3C41,38.2,41,38.2,41,38.3z"/>
					<path class="st2" d="M41,37.8C41,37.8,41.1,37.7,41,37.8C41,37.7,41,37.7,41,37.8L41,37.8L41,37.8z"/>
					<path class="st2" d="M41,0.9L41,0.9L41,0.9L41,0.9z"/>
					<polygon class="st2" points="27.1,44.2 27,44.2 27.2,44.3 					"/>
					<path class="st2" d="M47.5,2.8L47.5,2.8L47.5,2.8z"/>
					<path class="st2" d="M49.9,4.3l0.3,0.3C50,4.5,50,4.4,49.9,4.3z"/>
					<path class="st2" d="M51.4,5.9C51.5,5.9,51.5,5.9,51.4,5.9L51.4,5.9L51.4,5.9z"/>
					<path class="st2" d="M20.2,3.2C20.2,3.2,20.1,3.2,20.2,3.2C19.9,3.2,20,3.2,20.2,3.2z"/>
					<path class="st2" d="M29.5,7.7c-0.1,0.1-0.2,0.3-0.3,0.4C29.4,8,29.6,7.9,29.5,7.7z"/>
					<polygon class="st2" points="9.5,3.6 9.5,3.6 9.5,3.7 					"/>
					<path class="st2" d="M28.7,8.6c0.2-0.1,0.4-0.3,0.5-0.4C29,8.3,28.9,8.4,28.7,8.6z"/>
					<path class="st2" d="M55.3,14.3v0.1l0,0V14.3z"/>
					<path class="st2" d="M55.4,14.4v0.1C55.4,14.4,55.4,14.4,55.4,14.4z"/>
					<path class="st2" d="M55.5,14.7l-0.1-0.2C55.4,14.6,55.4,14.7,55.5,14.7z"/>
					<path class="st2" d="M54.7,11.5L54.7,11.5L54.7,11.5z"/>
					<path class="st2" d="M54.4,10.6c0.1,0.2,0,0.6,0.1,0.8h0.1C54.4,11.4,54.6,10.8,54.4,10.6z"/>
					<path class="st2" d="M53.7,6.7c0.1,0.2,0.3,0.5,0.4,0.7c0-0.2,0-0.4,0.3-0.1C54,6.3,54.2,7.6,53.7,6.7z"/>
					<path class="st2" d="M52.2,4.7c0.3,0.3,0.1-0.1,0.2-0.1C52.1,4.5,52.1,4.4,52.2,4.7z"/>
					<path class="st2" d="M35.6,2.2L35.5,2C35.2,2.1,35.5,2,35.6,2.2z"/>
					<polygon class="st2" points="33.4,5 33.8,5 33.7,4.7 					"/>
					<polygon class="st2" points="30.8,4.7 30.9,4.6 30.5,5 					"/>
					<path class="st2" d="M5.4,3.4l0.3,0.2C5.9,3.4,5.7,3.1,5.4,3.4z"/>
					<path class="st2" d="M0.2,15.2c-0.2,0.1-0.3,0.5-0.1,0.7C0.1,15.6,0.2,15.4,0.2,15.2z"/>
					<polygon class="st2" points="23,43.6 22.7,43.5 23.1,43.8 					"/>
				</g>
			</g>
		</g>
	</g>
</g>
<g>
	<g>
		<g>
			<g>
				<g>
					<path class="st2" d="M6.8,10.6c0.1,0,0.2,0.1,0.2,0.1L6.8,10.6L6.8,10.6z"/>
					<path class="st2" d="M7.4,10.8c-0.1-0.1-0.4-0.3-0.6-0.4C7.1,10.6,6.9,10.5,7.4,10.8c-0.1-0.1-0.2-0.1-0.3-0.2
						c0.1,0-0.1,0,0.1,0.1s0.3,0.1,0.1,0C7.3,10.7,7.4,10.8,7.4,10.8z"/>
					<path class="st2" d="M8.7,9.7L8.7,9.7L8.7,9.7z"/>
					<path class="st2" d="M9.5,9C9.5,9,9.5,9.1,9.5,9C9.6,9.1,9.5,9,9.5,9z"/>
					<path class="st2" d="M9.9,9.2L9.9,9.2L9.9,9.2z"/>
					<path class="st2" d="M8.7,9.7L8.7,9.7C8.8,9.6,8.8,9.7,8.7,9.7z"/>
					<path class="st2" d="M6.8,10.2C6.8,10.2,6.9,10.2,6.8,10.2L6.8,10.2L6.8,10.2z"/>
					<polygon class="st2" points="8.7,10.2 8.7,10.2 8.8,10.3 					"/>
					<path class="st2" d="M8.6,10.5c0,0-0.2-0.2-0.3-0.2C8.4,10.4,8.4,10.4,8.6,10.5L8.6,10.5z"/>
					<path class="st2" d="M7.9,10.7L7.9,10.7L7.9,10.7z"/>
					<path class="st2" d="M8.9,10L8.9,10L8.9,10z"/>
					<path class="st2" d="M17.3,5L17.3,5L17.3,5z"/>
					<polygon class="st2" points="17.4,6.5 17.4,6.5 17.3,6.6 					"/>
					<path class="st2" d="M10.4,9.2L10.4,9.2L10.4,9.2z"/>
					<path class="st2" d="M12.4,7.7c-0.1-0.2-0.1-0.3-0.2-0.6C12.2,7.2,12.3,7.5,12.4,7.7z"/>
					<path class="st2" d="M6.9,10.2L6.9,10.2L6.9,10.2z"/>
					<path class="st2" d="M12.1,7.1L12.1,7.1L12.1,7.1z"/>
					<path class="st2" d="M10.7,8.7L10.7,8.7L10.7,8.7z"/>
					<path class="st2" d="M10.1,8.7L10.1,8.7L10.1,8.7z"/>
					<path class="st2" d="M10.7,8.2L10.7,8.2L10.7,8.2L10.7,8.2z"/>
					<path class="st2" d="M10.9,8L10.9,8L10.9,8z"/>
					<path class="st2" d="M16.3,4.9v0.3C16.3,5,16.3,4.9,16.3,4.9z"/>
					<path class="st2" d="M7,10.3C6.9,10.2,6.9,10.2,7,10.3C6.9,10.2,6.9,10.2,7,10.3L7,10.3z"/>
					<path class="st2" d="M9.4,6.4L9.4,6.4L9.4,6.4z"/>
					<path class="st2" d="M13.8,5L13.8,5C13.8,4.9,13.8,4.9,13.8,5z"/>
					<path class="st2" d="M9.6,6.3c0.1,0.1,0.1,0.1,0.1,0.1L9.6,6.3L9.6,6.3z"/>
					<path class="st2" d="M16.2,5.2L16.2,5.2L16.2,5.2z"/>
					<path class="st2" d="M16.7,4.6c-0.1,0-0.1,0.4-0.1,0.6c-0.1,0.1,0-0.3,0-0.5c-0.1,0.1-0.1,0.4-0.2,0.4c0-0.1,0-0.1,0-0.2
						c-0.1,0.3-0.1,0-0.2,0.4V5.2l-0.1,0.5c0,0-0.1,0.2,0,0c0,0,0-0.1,0-0.2v0.1c0-0.3,0-0.1,0.1-0.4C16.1,5.3,16,5.6,16,5.5
						c0-0.3,0.1-0.1,0.1-0.4v0.1c0-0.5,0,0,0.1-0.5c-0.1-0.1-0.1,0.2-0.2,0.1c0,0.2,0,0.3-0.1,0.5c-0.1,0.3,0-0.9-0.1-0.4
						c0,0.2-0.1,0.6-0.1,0.4l0.1-0.4c-0.1,0-0.1,0.5-0.1,0.3c0-0.1,0.1-0.1,0.1-0.2c0-0.3-0.1,0.2-0.1,0.2V4.9
						c-0.1,0-0.2,0.3-0.3,0.3c0-0.1,0-0.2,0-0.3c-0.1,0.2-0.2-0.1-0.3-0.3v0.3c0,0,0-0.1,0-0.2s0,0.2,0,0.3c0,0,0-0.2,0-0.3
						c-0.1,0.2-0.2,0.5-0.3,0.2V4.8c-0.1-0.1-0.1,0.6-0.1,0.3V5c-0.1-0.1-0.3,0.2-0.4-0.3c0,0.4-0.1-0.2-0.1,0.4
						c-0.1-0.3-0.1-0.4-0.2-0.6v0.4V4.6v0.3l-0.1-0.4v0.1c0,0,0,0.1,0.1,0.2c0,0.1-0.1-0.2-0.2-0.4l-0.1,0.3c0-0.1,0-0.2,0-0.2
						c0,0.3-0.1-0.3-0.1,0c0,0.1,0,0.2,0,0.2c-0.1-0.2-0.1-0.2-0.2-0.1V4.4c-0.1,0-0.2,0.1-0.3,0.1C13.2,4.6,13.2,5,13.2,5l-0.1-0.3
						c0,0.2,0.1,0.1,0.1,0.4c0,0-0.1-0.4-0.1-0.5v0.1c0-0.1,0-0.1,0-0.3c0,0.2-0.1-0.3-0.1,0V4.3c-0.1,0-0.1,0.1-0.2,0.2
						c0.1,0.3,0,0.2,0,0.4c-0.1-0.1-0.2-0.3-0.3-0.2c0,0.1,0,0.2,0.1,0.4c-0.1-0.2-0.1-0.2-0.1-0.4c-0.1,0.1-0.1,0.1-0.1,0.3
						c0,0.1,0.1,0.1,0.1,0.2c0,0-0.1-0.1-0.1-0.2l0,0c0,0.4-0.5-0.6-0.4-0.1l0,0v0.3c-0.1,0,0-0.2-0.1-0.3c0,0.4-0.2,0-0.2,0.3
						c-0.3-0.7-0.2,0.1-0.5-0.3l0.1,0.2c0,0.2-0.1-0.1-0.1-0.1c0.1,0.1,0.1,0.1,0.1,0.2c-0.1,0.3-0.5-0.1-0.8-0.1
						c-0.1,0,0.4,0.8,0.1,0.5l-0.1-0.3c0.1,0.4-0.3,0.2-0.2,0.5c0-0.1-0.1-0.2-0.1-0.2c-0.2-0.2-0.1,0.1,0,0.2c0,0-0.1-0.1-0.2-0.2
						c-0.1-0.1,0.1,0.3,0,0.1V5.6c0,0.1-0.1,0,0.1,0.2C10,5.7,10.1,6,10,5.9c0.2,0.3-0.2-0.1,0.1,0.3C9.8,5.8,9.8,6,9.9,6.2
						C9.8,6.1,9.8,6.1,9.7,5.9c0,0,0,0.1,0.1,0.3C9.4,5.8,9.9,6.6,9.5,6.1c0.1,0.3,0.1,0.5,0.1,0.6C9.3,6.4,9.7,6.6,9.4,6.2
						c0,0.2,0.2,0.5,0.1,0.5c-0.1,0-0.1-0.2-0.2-0.2c0,0.2-0.2,0.1-0.1,0.3L9.1,6.7c0,0-0.1,0,0.1,0.1V6.7c0.2,0.2,0.4,0.5,0.5,0.6
						C9.3,6.9,9.5,7.2,9.1,6.7c0,0,0.1,0.1,0.2,0.2c0,0-0.1-0.1-0.2-0.2C9.1,6.8,9.3,7,9.3,7C9.2,6.9,9.2,6.9,9.1,6.8
						C9.2,7,9.3,7.1,9.2,7.1L9.1,7c0,0.1,0.3,0.5,0.1,0.4C8.9,7.1,9.1,7.3,8.8,7.1v0.1l0.1,0.1c0,0,0.1,0.2,0,0.2L8.8,7.4v0.1
						l0.1,0.1C9,7.8,9.2,7.9,9.1,7.9c0,0,0,0-0.2-0.1l0,0C9,7.9,9.1,8,9,8L8.6,7.7c0.2,0.2,0,0.1,0.2,0.4C8.7,8,8.6,7.9,8.6,7.9
						l0.2,0.2C8.7,8.1,8.7,8,8.6,7.9C8.5,7.9,9,8.2,8.8,8.1c0,0,0,0-0.1-0.1c-0.1,0,0,0.2-0.1,0.2C8.3,8,8.6,8.1,8.3,7.9
						c0,0.1,0.2,0.4,0.1,0.4l0,0c0.4,0.3-0.2-0.1-0.1,0.1L8.1,8.2c-0.1,0,0,0.2,0.1,0.4L8.1,8.5c-0.1,0-0.1,0-0.2,0
						C8,8.6,8,8.6,8.1,8.7C7.4,8.3,8.3,9.1,7.7,8.8L7.6,8.7l0.1,0.1C7.9,8.9,7.8,8.9,8,9c0.1,0.1,0.2,0.2,0.2,0.2
						C8.1,9.1,7.9,9,7.8,8.9L8,9C7.6,8.8,8.4,9.3,8.1,9.2L8,9.1c0,0.1,0.2,0.2,0.1,0.2C7.9,9.2,8,9.2,7.8,9.1c0,0,0.4,0.3,0.1,0.2
						c-0.1-0.1,0-0.1-0.1-0.1C7.5,9.1,7.6,9.1,7.5,9.1l0,0H7.3h0.1C8,9.5,7.5,9.2,7.8,9.5C7.5,9.2,7.6,9.4,7.3,9.2
						c-0.1,0-0.2-0.1-0.2-0.1C7.3,9.3,6.9,9,7.2,9.3c-0.1-0.1,0,0-0.2-0.1c0,0.1,0.1,0.1,0.3,0.1c0.3,0.2-0.4-0.1-0.1,0.2
						C7.3,9.7,7.6,9.8,7.7,10C7.6,9.9,7.4,9.8,7.4,9.8c-0.1,0-0.1,0-0.1,0.1c-0.1,0-0.1-0.1-0.2-0.1c0,0,0.3,0.2,0.2,0.1L7,9.7
						L7.3,10C7.1,9.9,7.1,9.9,7,9.8c0,0.1,0.1,0.2,0.3,0.3h0.1L7.2,10C7,9.9,7.3,10,7.4,10.1v0.1c0.5,0.3,0-0.1,0-0.1l0.4,0.2
						l-0.3-0.2c0.1,0,0.3,0.2,0.3,0.2c0.2,0.1-0.1-0.1,0.1,0c0,0,0,0,0.1,0l-0.1-0.1c0.1,0.1,0.3,0.1,0.2,0.1
						c0.2,0.1-0.2-0.2,0.1-0.1l0,0C8.1,10.1,7.9,10,7.7,9.8l0.7,0.4L8.1,10c0,0,0,0,0.1,0.1C8,10,8.1,10,7.9,9.9
						C8.2,10,7.8,9.7,8.3,10C8.1,9.9,8.1,9.9,8,9.8c0.5,0.3-0.1-0.1,0.2,0C8.4,10,8.3,9.9,8.5,10c-0.4-0.3,0.1,0,0.1-0.1
						C8.3,9.7,8.5,9.8,8.4,9.7c0.1,0.1,0.2,0,0.4,0.1l0,0C8.5,9.6,8.6,9.6,8.5,9.5c0.2,0.1,0.2,0.2,0.3,0.2l0,0
						C8.7,9.6,8.7,9.6,8.6,9.5l0.2,0.2c0,0-0.2-0.3,0-0.2C8.6,9.3,8.2,9.1,8.1,9c0.1,0.1,0.3,0.2,0.3,0.3c0,0-0.1-0.1,0-0.1l0.2,0.2
						c0.1,0-0.2-0.1-0.1-0.1c0.2,0.1,0.1,0.1,0.2,0.2c0,0-0.1,0,0,0c0,0,0.2,0.1,0.3,0.1C8.9,9.5,8.8,9.4,8.8,9.4S9,9.5,9.1,9.6
						c-0.1-0.1,0,0-0.2-0.2c0,0,0.1,0.1,0.2,0.1C9,9.4,9.1,9.4,8.9,9.2l0,0l0,0l0,0l0,0C8.7,9,9.1,9.2,9.1,9.1l0.1,0.1
						c-0.1-0.1,0-0.1-0.1-0.3c0,0,0.2,0.1,0.2,0.2C9.3,9,9.2,9,9.3,9c0.1,0.1,0.1,0.1,0.1,0.1c0.1,0,0.2,0.1,0-0.1
						c0.2,0.2,0.3,0.2,0.2,0.1L9.4,9l0,0l0.2,0.2C10,9.4,9.2,8.6,9.7,9C9.5,8.8,9.5,8.9,9.4,8.7C9.5,8.7,9.8,9,9.8,9
						C10,9.1,9.5,8.6,9.6,8.7C9.5,8.6,9.3,8.4,9.2,8.3c0.1,0,0.4,0.3,0.4,0.4c0,0,0,0-0.1,0c0,0,0,0.1,0.2,0.2L9.6,8.8
						c0.1,0.1,0.1,0,0.3,0.2C9.8,8.9,9.8,8.9,9.7,8.8c0.2,0.1,0.1-0.1,0.2,0c-0.1,0-0.2-0.1-0.2-0.1c0.2,0.1-0.1-0.2-0.1-0.3
						c0.1,0.1,0.3,0.3,0.2,0.2c0.1,0.1,0.2,0.2,0.3,0.3C10,8.7,10.3,9,10.3,9l0.1,0.1c0-0.1,0-0.1,0-0.1l-0.2-0.2c0,0,0,0,0.1,0.1
						C10.2,8.8,10,8.6,9.9,8.5c0.1,0.1,0-0.1,0.2,0.1c-0.1,0,0.2,0.2,0.2,0.3l0,0c0,0,0,0,0.1,0.1c0.2,0.2-0.2-0.3-0.2-0.3
						c0.1,0.1,0.2,0.2,0.2,0.2s-0.2-0.2-0.3-0.3c0.1,0.1,0-0.1,0-0.1H10C9.9,8.4,9.9,8.4,9.9,8.3c0.1,0.1,0,0.1,0.1,0.1
						c-0.2-0.3,0.3,0.2,0.2,0c0.1,0.1,0.2,0.2,0.3,0.3c-0.1-0.2,0.2,0.2,0.1,0c-0.2-0.2-0.1-0.1-0.3-0.3l0.1,0.2l-0.2-0.3
						c0,0,0.1,0.1,0,0.1c-0.1-0.2-0.1-0.1-0.2-0.3c0.3,0.2-0.1-0.2,0.1,0l0.4,0.4c0.2,0.2-0.1-0.3,0-0.2l-0.1-0.1
						c-0.1-0.2,0-0.1,0-0.1c0.1,0.2,0.2,0.2,0.3,0.3c-0.1-0.1,0,0-0.2-0.3l0.2,0.2c0.1,0-0.3-0.5-0.2-0.5c0.1,0.2,0.2,0.3,0.3,0.4
						c0,0,0,0,0-0.1c0.1,0.1-0.1-0.2,0-0.1c0-0.1-0.2-0.2-0.1-0.2l0.1,0.1c-0.1-0.1-0.1-0.1-0.2-0.3c0.4,0.5,0.1-0.1,0.5,0.3
						c0-0.1,0-0.2,0-0.2c0,0.1,0.1,0.1,0,0.1c0.1,0.1-0.3-0.5-0.1-0.4c0.2,0.3,0.1,0.2,0.1,0.3c0.4,0.5,0-0.1,0.2,0.2l0,0
						c0.1,0.2-0.1-0.2,0-0.2l0.1,0.1c-0.1-0.3-0.1-0.4-0.1-0.5c0.1,0.2,0,0.1,0.2,0.3l-0.2-0.4c0.1,0.1,0.2,0.2,0.3,0.4l0,0
						c0.2,0.3,0,0,0.1,0l0.1,0.1c0-0.1-0.2-0.4-0.1-0.4l-0.1-0.1c-0.1-0.4,0.1,0.2,0-0.1l0.2,0.3c0-0.1-0.1-0.4-0.1-0.5
						c0.1,0.3,0.1,0.4,0.2,0.6c0,0,0.1-0.1,0-0.2v0.1c-0.1-0.3-0.1-0.4-0.1-0.5C12.1,7.6,12,7,12.3,7.5c0-0.3,0.2,0,0.3,0
						c-0.3-0.5,0,0-0.2-0.6l0,0l0.2,0.3c0.1,0.2,0,0.1,0.1,0.3c0.1,0,0.1,0.2,0.2,0.4c-0.1-0.2-0.1-0.3,0-0.2l-0.1-0.3
						C12.7,7.1,13,7.9,13,7.5v0.2c0-0.1,0.1,0,0-0.5c0,0.1,0.1,0.2,0.1,0.3c0.1,0,0-0.6,0.2-0.3v0.1c0,0-0.1-0.3,0-0.1
						c0,0.1,0,0.1,0,0.2c0-0.1,0-0.3,0-0.2v0.2c0.1,0.2,0-0.4,0-0.5c0.1,0.4,0.2,0.6,0.2,0.6v0.1c0.1,0,0.1-0.4,0.1-0.6
						c0.1,0.5,0.2,0.2,0.3,0.4c0-0.1-0.1-0.3,0-0.4c0,0.1,0-0.3,0.1,0.1l0,0c0.1,0.4,0.1,0.3,0.1,0.3L14,6.9
						c0.2,0.8,0.2-0.3,0.3,0.4c0-0.1,0-0.1,0-0.3v0.3c0.1,0.1,0.1,0.1,0.1,0v0.2V6.7v0.4c0.1,0,0.1,0.4,0.2,0c0,0.1,0,0.2,0,0.2
						s0.1,0.3,0.1-0.3c0,0.4,0.1,0,0.1-0.1v0.3c0-0.4,0-0.5,0.1-0.6v0.2c0,0.1,0-0.3,0.1-0.1v0.2c0,0,0-0.1,0.1-0.3
						c0-0.1,0.1,0.1,0.1,0.3c0-0.2,0-0.4,0.1-0.3c0,0.1,0,0.2,0,0.2c0.1,0.2,0.1-0.3,0.1,0c0,0.1,0,0.1,0,0.2h-0.1
						c0,0.3,0,0.3,0,0.7c0-0.2,0.1-0.6,0.1-0.5v0.1l0,0l0,0v0.1c0,0.2,0,0.1,0.1,0.1c0-0.3,0-0.2,0-0.5l0,0l0,0l0,0l0,0
						c0-0.1,0-0.3,0.1-0.1l0.1-0.4c0,0.4,0,0.6,0,0.9c0.1-0.2,0.1-0.1,0.2-0.6c0-0.1,0,0.2,0,0.2c0,0.1,0,0,0,0.1
						c0-0.1,0.1,0,0.2-0.4c0,0.2-0.1,0.3,0,0.3v0.1c0,0.6,0.3-0.9,0.3-0.1V6.9c0.1,0.4,0.4-0.3,0.4,0.3c0,0.1,0.1-0.1,0.1-0.3
						l-0.1,0.3l0.1-0.3C17,6.7,16.8,7.6,17,7.2V7c0,0,0.1-0.1,0.1,0.1c0,0,0.1-0.2,0-0.1v0.2L17.2,7c0,0.1-0.2,0.6-0.1,0.6
						c0-0.1,0.2-0.4,0.2-0.5c0,0,0-0.1,0.1-0.3l0.1-0.1c0.2-0.4,0.4-0.9,0.4-1.2l-0.1,0.3V5.6h0.1c0-0.2,0,0-0.1,0.1
						c0-0.1,0-0.2,0-0.2l-0.2,0.4c0-0.2,0.1-0.3,0.1-0.4c-0.1,0.2-0.1,0.4-0.2,0.5c0-0.2,0.1-0.4,0-0.2c0-0.1,0.1-0.2,0.1-0.2
						c-0.1,0.1-0.1,0-0.2,0.3c0-0.3-0.1,0,0-0.4c0,0.1-0.1,0.3-0.2,0.3c0.2-0.5-0.1-0.1,0.1-0.6c-0.1,0.5-0.2,0.2-0.3,0.4V5.5
						c0,0,0-0.2,0-0.3c-0.1,0.4-0.2,0.5-0.2,0.7c0-0.4,0.1-0.4,0.2-0.8c-0.1,0.3-0.1,0.3-0.2,0.6c0-0.2,0-0.1,0-0.4
						c-0.1,0.5,0,0.1-0.1,0.4c0-0.2,0.1-0.5,0-0.3C16.6,4.8,16.7,4.6,16.7,4.6z M15.4,5.3L15.4,5.3L15.4,5.3L15.4,5.3z M15.3,5.3
						L15.3,5.3c0,0.1,0,0.2,0,0.2C15.3,5.4,15.3,5.4,15.3,5.3z M15.4,7.3C15.4,7.3,15.4,7.2,15.4,7.3C15.4,7.2,15.4,7.2,15.4,7.3
						L15.4,7.3L15.4,7.3z"/>
					<path class="st2" d="M15.4,6.9L15.4,6.9L15.4,6.9L15.4,6.9L15.4,6.9z"/>
					<path class="st2" d="M8.7,9.6L8.7,9.6L8.7,9.6z"/>
					<path class="st2" d="M13.9,4.8L13.9,4.8L13.9,4.8z"/>
					<path class="st2" d="M7.6,9.5L7.6,9.5L7.6,9.5z"/>
					<path class="st2" d="M7.4,9.6L7.4,9.6L7.4,9.6z"/>
					<polygon class="st2" points="7.2,9.7 7.3,9.8 7.3,9.8 					"/>
					<path class="st2" d="M8.8,7.3L8.8,7.3C8.8,7.2,8.8,7.3,8.8,7.3z"/>
					<path class="st2" d="M8.7,8.4L8.7,8.4C8.6,8.2,8.6,8.3,8.7,8.4z"/>
					<path class="st2" d="M9.4,6.4L9.4,6.4L9.4,6.4z"/>
					<path class="st2" d="M8.6,8.2L8.6,8.2C8.6,8.3,8.6,8.3,8.6,8.2z"/>
					<polygon class="st2" points="6.7,10.3 6.7,10.3 6.8,10.3 					"/>
					<path class="st2" d="M6.8,10.3L6.8,10.3C6.8,10.4,6.8,10.4,6.8,10.3z"/>
					<path class="st2" d="M6.8,10.4L6.8,10.4L6.8,10.4z"/>
					<path class="st2" d="M7,10.2L7,10.2L7,10.2z"/>
					<path class="st2" d="M7,10.1c0,0-0.2-0.1-0.2,0H7C6.7,10,7.1,10.2,7,10.1z"/>
					<path class="st2" d="M8.2,10.5L8.2,10.5c0,0.1,0.1,0.1,0.1,0.2C8.6,10.8,8.1,10.5,8.2,10.5z"/>
					<path class="st2" d="M8.4,10.4c0,0.1,0.1,0.1,0.2,0.1C8.5,10.5,8.5,10.5,8.4,10.4z"/>
					<path class="st2" d="M9.1,9.5l0.2,0.2C9.3,9.6,9.2,9.6,9.1,9.5z"/>
					<polygon class="st2" points="8.2,8.5 8.1,8.4 8.3,8.5 					"/>
					<polygon class="st2" points="9.7,9.6 9.7,9.6 9.7,9.5 					"/>
					<path class="st2" d="M11,8.3L10.8,8C10.8,8.1,11,8.4,11,8.3z"/>
					<path class="st2" d="M11.5,7.6C11.6,7.7,11.7,7.8,11.5,7.6C11.6,7.6,11.5,7.5,11.5,7.6z"/>
					<polygon class="st2" points="13.9,7.3 13.9,7.4 14,7.4 					"/>
				</g>
			</g>
		</g>
	</g>
</g>
</svg>
