<?xml version="1.0" encoding="utf-8"?>
<!-- Generator: Adobe Illustrator 19.2.1, SVG Export Plug-In . SVG Version: 6.00 Build 0)  -->
<svg version="1.1" id="Layer_1" xmlns="http://www.w3.org/2000/svg" xmlns:xlink="http://www.w3.org/1999/xlink" x="0px" y="0px"
	 viewBox="0 0 65.9 57" style="enable-background:new 0 0 65.9 57;" xml:space="preserve">
<style type="text/css">
	.st0{display:none;fill:#F1F2F2;}
	.st1{display:none;fill:#A7A9AC;}
	.st2{fill:#E81F63;}
</style>
<rect x="-41.7" y="-2972.6" class="st0" width="590" height="7550"/>
<rect x="2.3" y="-4.7" class="st1" width="64" height="64"/>
<g>
	<g>
		<g>
			<g>
				<g>
					<path class="st2" d="M58.2,13c0.1,0,0.2-0.2-0.1-0.3l-0.3,0.2L58.2,13z"/>
					<path class="st2" d="M57.1,11.7c-0.3,0-0.7,0.1-0.7,0.5c0.4-0.2,0.4,0,0.8-0.2c0.2,0.1,0.3,0.3,0.2,0.4c0.1,0,0.3,0.2,0.5,0.1
						C57.8,12.1,57.4,12,57,12C57,11.9,57.1,11.7,57.1,11.7z"/>
					<path class="st2" d="M37.9,1.5L38,1.6C38,1.6,38,1.6,37.9,1.5z"/>
					<path class="st2" d="M25.2,3.7c0.1,0,0.1-0.1,0.1-0.1L25.2,3.7z"/>
					<path class="st2" d="M23,4.3L23,4.3C23.1,4.2,23,4.2,23,4.3z"/>
					<path class="st2" d="M37.9,1.5l-0.3-0.3C37.6,1.5,37.8,1.5,37.9,1.5z"/>
					<path class="st2" d="M54.1,11.1c0.1,0,0.1,0,0.2,0H54.1L54.1,11.1z"/>
					<path class="st2" d="M43.4,4L43.4,4c0.1,0,0.2,0,0.2,0H43.4z"/>
					<path class="st2" d="M47.5,6c-0.1-0.1-0.2,0.2-0.3,0.3c0.1-0.1,0.2-0.1,0.3-0.1C47.4,6.1,47.5,6,47.5,6z"/>
					<path class="st2" d="M53.7,9.6L53.7,9.6L53.7,9.6z"/>
					<path class="st2" d="M40.5,2.5L40.5,2.5L40.5,2.5z"/>
					<path class="st2" d="M57.2,34.6L57.2,34.6L57.2,34.6z"/>
					<path class="st2" d="M58.6,29.3L58.6,29.3c0.1,0.1,0.1,0.1,0.2,0.1L58.6,29.3z"/>
					<path class="st2" d="M19,5.6L19,5.6C19.1,5.6,19,5.6,19,5.6z"/>
					<path class="st2" d="M8.3,39c0.3-0.4,0.3,0.7,0.6,0.1C8.8,39.1,8.5,38.5,8.3,39z"/>
					<path class="st2" d="M54,11c-0.1,0-0.1-0.1-0.2-0.1C53.9,11,54,11,54,11z"/>
					<polygon class="st2" points="8.9,39 8.9,39 9,39 					"/>
					<path class="st2" d="M10.2,9.7l0.1,0.1C10.3,9.9,10.3,9.7,10.2,9.7z"/>
					<path class="st2" d="M17,7.2h-0.2C16.8,7.2,16.9,7.2,17,7.2z"/>
					<path class="st2" d="M8.7,13.9c0,0.1-0.1,0.1,0,0.3l0,0C8.7,14,8.6,14,8.7,13.9z"/>
					<path class="st2" d="M8.7,17.7C8.7,17.7,8.7,17.6,8.7,17.7v-0.2V17.7z"/>
					<path class="st2" d="M55.2,43.6c0.1,0,0.2,0.1,0.3,0.1C55.3,43.6,55.8,43.3,55.2,43.6z"/>
					<path class="st2" d="M54.2,11c-0.1,0.1-0.1,0.1-0.2,0.1h0.1C54.2,11,54.2,11,54.2,11z"/>
					<path class="st2" d="M10.9,14v0.6C10.9,14.5,10.9,14.2,10.9,14z"/>
					<path class="st2" d="M31.2,52.6h0.1C31.3,52.6,31.3,52.5,31.2,52.6z"/>
					<path class="st2" d="M10.9,16.5c-0.1,0.1-0.2,0.2-0.2,0.3c0,0,0,0.1,0.1,0.1L10.9,16.5z"/>
					<path class="st2" d="M55.4,43.9L55.4,43.9L55.4,43.9z"/>
					<path class="st2" d="M56.9,42.2c0,0.1,0.4,0.1,0.6,0.2c0.1,0.3-0.3,0-0.5,0v0.1c0.1,0.1,0.2,0.4,0,0.4l-0.1-0.1
						c0,0.1-0.1,0.2-0.2,0.3c-0.1,0.1-0.3,0.2-0.4,0.3c-0.3,0.2-0.6,0.3-0.8,0.6c-0.1,0-0.1,0-0.1-0.1c0.2,0.1,0.3,0.3,0.3,0.4
						c-0.2,0.1-0.3,0.4-0.5,0.2c0.1-0.1,0.1-0.2,0.2-0.3l-0.2,0.2c-0.4-0.2,0.3-0.3,0.2-0.5c-0.4,0.3-0.9,0.9-1.3,1
						c-0.2-0.3,0.8-0.5,0.2-0.6l0.6-0.2c-0.7-0.3,0.4-0.1-0.3-0.5c-0.8,0.3-0.8,0.6-1.6,0.8c-0.1,0.3,0.2,0.2,0.1,0.5
						c-0.9,0.8-1.2-0.4-1.8,0.4c-0.1,0.3,0,0.7-0.7,0.8v-0.4c-0.8,0.3-0.2,0.7-1.1,0.8c0.1-0.2,0.5-0.4,0.4-0.4
						c-0.6,0-0.3,0.4-0.6,0.6l-0.2-0.3c-0.8,0.4-1.5,1.1-2.4,1.5c0-0.1,0.1-0.3-0.1-0.3c-1,0.7-2.4,1.1-3.5,1.4l-0.3,0.5
						c-0.1,0-0.2,0-0.2-0.1c-0.5,0.1,0.1,0.2-0.1,0.4c-0.2,0.1-0.4,0-0.3-0.2c-0.6,0.6-1.8,1.5-2.7,1.6l0.1-0.1
						C39,51.3,39.2,52,38.5,52l0.1-0.1c-1.3,0.5-2.7,1.4-3.8,1.5c0,0.2-0.3,0.3-0.7,0.5c-0.1,0-0.2,0.1-0.2,0.1s-0.1,0-0.1,0.1
						s-0.1,0.1,0,0.3c-0.1,0-0.2-0.1-0.2-0.1c-0.1-0.1-0.1-0.2-0.1-0.3l-0.1-0.1c0,0,0,0,0-0.1l-0.2-0.2c-0.2-0.2-0.6,0.1-0.9-0.1
						l0.2-0.3h-0.6v-0.5l-0.3-0.1c0.1,0.1,0.2,0.3,0.1,0.3c-0.5-0.2-1-0.9-1-1l-1.3-0.5c0.1-0.1,0.3,0,0.5,0
						c-0.8-0.1,0.1-0.3-0.6-0.4c0,0.1-0.1,0.1-0.2,0.2c-0.2-0.3-0.8-0.7-1.3-0.9l0.2-0.1c-0.8-0.6-1.8-1-2.7-1.6
						c0.3,0.3,0,0.6-0.3,0.4l0.1-0.3c-0.3,0.1,0.2,0.3-0.3,0.3c-0.3-0.2,0-0.5,0.2-0.4l-0.5-0.2c0-0.1,0.2-0.1,0.2-0.2
						c-0.3,0.1-0.6-0.7-1-0.6v-0.1c-0.9-0.6-1.4-0.8-2.2-1.2c-0.2,0.2-0.4,0-0.8,0c-0.5-0.4-1-1-1.7-1.4c-0.5-0.2-0.3,0.1-0.6,0.1
						c0.1-0.2-0.6-0.6-0.1-0.6c-0.8-0.5-1.1-0.6-2.2-1.1c0.1,0.2,0.2,0.3,0,0.3c-0.2-0.1-0.4-0.4-0.3-0.4h0.1
						c-1.4-0.4-2.2-2.3-3.4-2.4h0.1l-1.1-0.4c-0.4-0.3,0.4,0,0.1-0.3c-0.2,0-0.3-0.1-0.5-0.1l-0.2-0.1c0,0,0,0-0.1,0
						s-0.2-0.1-0.2-0.2s0-0.2,0-0.2v-0.1c0-0.1,0-0.2-0.1-0.3c0.8-0.8-0.1-2.7,0.4-3.8l-0.2,0.1c-0.2-0.3,0.1-0.3,0.1-0.5
						c-0.1,0-0.2,0.3-0.3,0.1c-0.2-2.3,0.3-4.7,0.4-7c0-0.9-0.9-0.5-0.5-1.6l0.3,0.3c-0.4-1.7,0-3.5-0.3-5.2
						c0.1,0.1,0.2,0.1,0.2,0.3c0.2-0.4,0-1.3-0.2-1.3c0-0.3,0.2-0.1,0.3-0.2c0.1-0.4-0.3-0.9-0.1-1.1c0,0,0.1,0.1,0.1,0.2
						c-0.1-0.2,0-1.1-0.2-0.9c0.1-0.6-0.1-1.2,0-1.7c-0.3-0.3,0.1-1.1-0.3-1.2c0.5,0,0.4-1.1,0.2-1.5c0.1,0.1,0.1-0.3,0.3-0.2
						c0-0.5-0.1-0.9-0.3-0.8c0.2-0.3,0.2-0.7,0.1-0.7c-0.1-0.1-0.2-0.3-0.1-0.3c0.1,0,0.2,0,0.3,0.1c0,0,0-0.1,0.1-0.1
						c0,0,0,0,0-0.1l0.2-0.1l0.8-0.5c0.5-0.3,1.1-0.6,1.6-0.9c0.1,0.4-1.2,0.6-1,1c1-0.6,1.4-1.3,2.5-1.6c0.3-0.1-0.1,0.2-0.1,0.4
						c1-0.6,2.1-0.9,2.9-1.5c0,0-0.1,0.1-0.1,0.2c0.2-0.1,0.5-0.1,0.4-0.3l-0.2,0.1c-0.4-0.1,0.5-0.9,0.5-1.1
						c-0.1,0.7,1-0.3,0.8,0.6c0.1-0.1,0.2-0.2,0.1-0.4c0.2,0,0.3,0,0.2,0.2c0.6-0.4,0.3-0.5,0.9-0.7c0,0.1-0.1,0.2-0.1,0.3
						c0.2-0.3,0.5-0.6,1-0.8c0,0.1,0.1,0.1-0.1,0.2C22,6.7,22.4,6,23.4,5.7c-0.1,0.5,0.4,0,0.6,0.3l0.5-0.3l-0.3-0.1
						c0.5-0.2,0.7-0.6,1.2-0.7l-0.3,0.3l0.8-0.4l-0.5,0.1c0.4-0.4-0.2-0.4,0.4-0.6c-0.1,0.1,0.5-0.2,0.8-0.1l0,0
						C26.8,4,27,3.8,27.3,3.7c0.1,0.1,0.1,0.4,0.2,0.5c0.1-0.4,1-0.5,1.2-1c-0.1,0.1,0,0.3,0.1,0.3l0.1-0.3c0.2,0,0.3,0,0.3,0.2
						c0.6-0.2-0.4-0.3,0.4-0.5c0,0,0,0.1-0.1,0.2c0.8-0.2,1.4-0.8,2.1-1C32,2.4,31,2.4,31.4,2.6c0.5-0.2,0.9-0.6,1.4-0.9
						c0.4-0.3,1-0.6,1.3-0.7H34c0-0.3,0.2-0.3,0.4-0.3c0.2,0.2,0.3,0.4,0.5,0.4c-0.1,0-0.2,0.2-0.2,0.2c0.1,0.1,0.2,0.2,0.4,0.2
						c0.2,0.1,0.4,0.1,0.6,0.2l1.4,0.4l-0.2,0.1c0.3,0.3,1,0.6,1.3,0.8c0.2-0.1,0.4,0.1,0.4-0.2c0.9,1.3,2.6,0.8,3.4,2
						c-0.1-0.1-0.4-0.1-0.3,0l1,0.4c0-0.2-0.1-0.2-0.2-0.4c0.2-0.1,0.5,0,0.7,0.1c-0.5-0.1-0.2,0.3,0,0.5c0-0.1,0.1-0.1,0.1-0.2
						c0.3,0.6,0.3-0.4,0.8,0.2L44,5.5c0.3,0.1,0.6,0,0.8,0.2c0,0.3-0.3,0-0.4,0.2c0.4,0.2,1-0.1,1.2,0.3c-0.2,0-0.4-0.1-0.6-0.1
						c0.2,0.5,0.3,0.4,0.6,0.6l0,0l0.6,0.5L46.1,7c0.8-0.4,1,0.4,1.9,0.3c-0.8,0.1-0.2,0.2-0.4,0.4c0.1,0.2,0.3,0.4,0.2,0.4
						c0.4-0.1,0.4,0.4,1,0.3c0,0.1,0.3,0.2,0.1,0.4c0.4,0.1,0-0.2,0.1-0.3c0.8,0,1.3,1.1,2.4,1.1c0.8,0.2,1.1,0,1.9,0.2
						c0.2,0.3-0.4,0.2-0.4,0.2c0.3,0.3,0.6,0.4,1,0.5c-0.1,0-0.1,0.1,0,0.3c0.3,0.1,0.4-0.2,0.7,0.1c-0.1,0.1-0.3,0.2-0.5,0.2
						c0.4,0.1,0.8,0.1,1.2,0.2c0,0.2-0.3,0.1-0.5,0.2c0.4,0.1,1.1,0.4,1.3,0.2l-0.2-0.2c0.2,0.1,0,0.2-0.2,0.2
						c-0.4,0-0.5-0.3-0.4-0.4l0.3,0.1c0-0.6-1.1-0.4-1.6-0.7l0.4-0.3h-0.7c-0.1-0.2,0-0.4,0.2-0.3c-0.3-0.4-0.4,0-0.6-0.4V9.6
						l-0.4-0.1c0.1,0,0.1-0.3,0.3-0.1c-0.5-0.5-1.2-0.2-1.3-0.6H52C51,8.5,51.8,9,51,9l-0.1-0.9l-0.2,0.2c-0.1-0.1-0.3-0.2-0.2-0.3
						c-0.4,0,0,0.1-0.3,0.2c-0.3-0.5-1.3-0.5-1.2-1c-0.3,0.1,0.3,0.4-0.2,0.3c0.1-0.5-0.6-0.2-0.9-0.6c0.2-0.2,0.6,0.1,0.3-0.3
						c-0.4,0.3-0.7-0.5-1.1-0.6c-0.2,0.3-0.8-0.2-1.4-0.4c0.1-0.1-1-0.7-1.5-1.1l0,0c-0.3,0.3-0.8-0.1-1.2-0.2
						c0.1-0.2,0.2-0.2,0.5-0.2l-0.4-0.2C43,4,42.8,4,42.6,3.9l0.2-0.2c-0.5-0.2-1.1-0.2-1.7-0.7c-0.2,0.2,0.2,0.9-0.6,0.7
						c0-0.1,0.1-0.4,0.3-0.3c-0.1,0-0.3,0-0.3-0.1l0.4-0.1c-0.2-0.2-0.2,0.1-0.5,0c0.1-0.2-0.1-0.2,0-0.3c0.1,0,0.2,0.2,0.3,0.1
						c-0.2-0.2-0.5-0.4-0.6-0.6c0,0.1-0.1,0.2-0.3,0.2c-0.5-0.2-0.1-0.3-0.3-0.5c-0.2,0.1-0.4-0.2-0.6,0c-0.1-0.1-0.1-0.2-0.1-0.3
						c-0.3,0-1.2-0.6-1.1-0.1l0.1,0.1l0,0l0,0l0,0c-1-0.2-1.7-1-2.6-1.3V0.4c-0.3-0.1-0.7-0.3-1-0.4c-0.3,0.2-0.6,0.3-0.8,0.5
						c-0.2,0.1-0.4,0-0.4-0.1c-0.4,0.2-0.4,0.4-1,0.5c0.3-0.3-0.2-0.1,0.4-0.3c-0.5,0.1-0.7,0.1-1.2,0.5c0.1-0.3-0.5-0.1-0.7,0.1
						h0.4c-0.3,0.2-0.5,0.2-0.8,0.3V1.1c-1.2,0.1-1.6,1.5-2.7,1.2c-0.2,0.3,0.6-0.1,0.5,0.3c-0.5,0.2-1.2,0-1.3,0
						c-0.7,0.1-0.4,0.7-1.2,0.9c0.1,0.1,0.3,0.3-0.1,0.7c-0.5,0.2-0.8-0.2-0.5-0.4c0.1-0.1,0.2,0,0.2,0c0.1-0.1,0.3-0.2,0.1-0.3v0.1
						c-0.3,0-0.9,0.3-0.9,0c-0.3,0.3-0.1,0.2,0.2,0.2c-0.7,0.1-1,0.4-1.6,0.6c0.1,0,0.3,0.1,0.2,0.1c-1,0.3-0.3,0.4-0.9,0.7
						c-0.4,0,0-0.5-0.6,0c-0.4,0.1-0.2-0.3-0.1-0.4c-0.5,0.5-1.1,0.3-1.5,0.4L20.2,5c-0.2,0.1-0.3,0.2-0.5,0.3L20,5.4
						c-0.2,0-0.3,0.1-0.4,0c-0.1,0.2,0.3,0.3,0,0.7c-0.3,0-0.7,0.4-0.9,0.2c0.8-0.2-0.2-0.3,0.4-0.6c-0.1,0.1-0.3,0.2-0.5,0.2V5.8
						c-0.8,0.1-0.2,0.5-0.9,0.8c0-0.2-0.3-0.2-0.4-0.1c0.3-0.1,0.3,0.2,0,0.5c-0.5,0.1-0.5,0.3-0.7,0.4l0.3-0.1
						c0,0.2-0.3,0.3-0.6,0.5c-0.1-0.1,0.3-0.2,0.1-0.2c-0.2,0.4-1,0.1-1.4,0.5c-0.3,0-0.2-0.3-0.4-0.3c-0.5,0.5-0.7,0.1-1.2,0.5
						c0.3,0.1,0.3,0.1-0.1,0.5l0.9-0.6l-0.5,0.6c0.3-0.1,0.6-0.4,0.8-0.5c-0.2,0.3-0.2,0.2,0,0.4c-0.6-0.1-0.7,0.5-1.3,0.5L13,8.7
						c-0.8,0.1-1.1,0.8-2.1,1.1h0.3c0,0.3-0.6,0.3-0.8,0.5c-0.1-0.2-0.3-0.2-0.4-0.2c0,0,0,0.1-0.1,0.1c0,0-0.1,0.1-0.3,0.2
						c-0.3,0.1-0.5,0.3-0.5,0.5c-0.3,0-0.5,0-0.8,0.1H8.2c0,1.1,0.6,1.6,0.5,2.3c-0.2-0.2-0.4,0.1-0.5-0.4c0,0.3,0,0.5,0.1,0.5
						c-0.1,0.2,0.3,0.7,0.1,1c0.1,0.1,0.3,0.1,0.3,0.4H8.6c0.1,0,0.1,0.5,0.4,0.2c-0.6,0.8,0,2.3-0.5,3c0.1,0.6,0.1,1.3,0.1,1.8
						c-0.1,0-0.1,0-0.1-0.1c-0.2,0.7,0.6,0.4,0.4,1.3c-0.3,0.4-0.2-0.4-0.3-0.2c-0.6,0.1,0.1,1-0.3,1.5v-0.1c-0.2,0.4,0.2,1,0.2,1.7
						H8.4c0.3,0.5,0.4,1.4,0.5,2c-0.3-0.2-0.1-0.3-0.4-0.2c0,0.3,0.4-0.1,0.5,0.5c-0.1,0.2-0.3,0.6-0.5,0.7v-0.6c-0.4,0.3,0,0.7,0,1
						H8.3c0.1,0.9,0.4,0.9,0.4,1.8L8.8,29c0.4,0.5-0.2,0.4,0.1,0.9l-0.4,0.2c0.1,0.3,0.4,1.2,0.5,1.8c-0.3-0.3-0.4-1-0.6-1.5
						c0,0.3,0,1.1,0.2,1.3c0-0.1-0.1-0.3-0.1-0.4C8.8,31.7,9,32.2,9,32.9c-0.8-0.1-0.2,1.7-0.8,2.2c0.3,1.2-0.1,2.3-0.1,3.6
						c0.6-0.5,0,0.4,0.6,0.3c0,0.3,0,0.4,0,0.5c-0.1,0.3-0.2,0.7-0.4,1.3c-0.2,0.4-0.1-0.4-0.3-0.4c0,1.1-0.2,0.7-0.4,1.3l0.1,0.1
						c0.1-0.2,0.6,0,1.2,0.5c-0.2-0.2-0.4-0.5-0.6-0.7c1.6,0.6,0.8,1.1,1.8,1.4H9.7c0.5,0.2,1.5,1,2.2,0.8c0,0.1,0,0.3-0.2,0.2
						c1,0.7,2.5,1,3.1,1.7l-0.2,0.1c0.2,0.1,0.5,0,0.6,0.2c0,0-0.2,0.1-0.1,0.1c0.1,0,0.6,0.1,0.8,0.3h-0.3c0.9,0.8,1.7,0.6,2.6,1
						c-0.2,0.4,0.5,1,0.8,1.3l0,0c1.1,0.8,2.1,0.9,3.3,1.4c0.4,0.8,2.1,1.6,3,2.4c-0.1-0.2,0.2-0.3,0.4-0.2c0.2,0.2,0.8,0.2,0.6,0.5
						l-0.1-0.1c0,0.5,0.5,0.7,0.9,0.9l0.3-0.4c0.6,1.3,2.9,1.5,3.1,2.4c0.3,0,0.6,0.2,1,0.3l-0.2,0.2l1.4,0.9l0.9-0.4l0.5-0.3
						l0.4-0.2l-0.1,0.3c0.5-0.2,0.3-1,0.8-1.3l0.3,0.3c0.9-0.4,2-0.5,2.7-1.3c0,0.1,0,0.2-0.1,0.3c0.4-0.2,1.8-0.5,1.4-1
						c0.2,0.3,0.9-0.4,1.4-0.8v0.3c0.3-0.5,0.2-0.6,0.8-1c0.2,0,0.2,0.1,0,0.2c0.5-0.1,0.2-0.4,0.8-0.5l-0.1,0.3
						c0.5-0.2,0.4-0.3,0.6-0.6c0.2-0.2,0.9-0.4,1.1-0.2c0-0.2,0.2-0.5,0.5-0.5c0.1,0.1,0,0.2,0,0.2c0.9-0.2,1-0.8,1.7-0.9
						c0.1,0.1,0.1,0.1,0.2,0.1c-0.6,0.3-1.1,0.5-1.1,0.5c0.1,0.2,0.6,0,0.4,0.5c0.3-0.4,0.8-1.1,1.4-1.2c0,0,0.1,0,0.1,0.1l0,0
						c0.1,0,0.2-0.1,0.3-0.2c0.2,0,0.3-0.1,0.4-0.1c0.1,0.2,0.6-0.2,0.9-0.3c-0.1-0.2,0.2-0.4-0.2-0.4c0,0,0,0.1-0.2,0.1l-0.1,0.1
						l0,0l-0.6,0.3c0.1-0.2,0.3-0.4,0.6-0.4c0-0.2,0.1-0.5,0.2-0.6c0.5,0.2,1.3,0.1,1.5,0.2c0.7-0.5,1.7-1,2-1.7
						c0.2-0.2,0.3,0,0.4,0.1c-0.1,0.1-0.3,0.2-0.3,0.3c0.4-0.3,1.3-0.7,1.2-1c0.6-0.1-0.2,0.5,0.6,0l-0.1,0.1
						c0.9-0.1,1.4-0.6,1.9-1.1c0.3-0.2,0.5-0.5,0.9-0.7c0.3-0.2,0.6-0.3,1.4-0.4c-0.2,0-0.3,0.1-0.3,0c0.3-0.1,0.7-0.3,1.1-0.4
						c0-0.3,0-0.6,0-0.9v-0.8l-0.1-1.4c0-0.9,0-1.8,0.2-2.7c0.1-0.6-0.1-0.6-0.3-1l0.3-0.1l-0.3-0.6c-0.3-0.9,0.7-1.5,0.3-2.6
						l-0.2,0.1c0-0.4-0.1-1.2,0.1-1.2c0,0-0.2-0.1-0.1-0.3H59l-0.3-1c0.1-0.7,0.6,0.1,0.7-1c-0.1-0.4-0.5-1.1-0.6-1
						c0,0.2-0.1,0.4-0.3,0.4l-0.1-0.4c-0.5-0.1-0.9-0.4-1.3,0.6l0.3,0.6l-0.2,0.2v-0.5c-0.2,0.3,0,0.5,0.1,0.7
						c-0.1,0.1-0.2,0.1-0.2,0.3l0.4,0.6c-0.2,0.1-0.4-0.3-0.5,0.1c0.2,0.3,0.4-0.3,0.5,0.2c-0.2,0.3-0.4,0.2-0.2,0.6
						c-0.1,0-0.2,0-0.2-0.2c0.1,0.3,0.1,0.8,0.3,1c-0.3,0.3,0.1,1.1-0.4,1c0.1,0.1,0.3,0.6,0.4,0.8c-0.5-0.5,0,1.1-0.6,0.9
						c0.5,0.4,0.2,1.4,0.5,2.1c0,0-0.1-0.1-0.1-0.2c0,0.4-0.2,0.5-0.3,0.8c0.4,0,0.5,0.7,0.7,1c-0.4,0.5-0.5-0.3-0.8-0.1
						c0.3,0,0.3,0.8,0.6,0.7c-0.2,0.4-0.1,0.3-0.4,0.5c0.5,0.1,0.1,0.3,0.4,0.6c-0.1,0.3-0.2,0.3-0.3,0.3c0,0-0.1,0-0.1,0.1
						s0,0.1,0,0.1c-0.1,0-0.2,0-0.2,0C56.9,42.2,56.9,42.2,56.9,42.2z M46.8,48.1L46.8,48.1L47,48L46.8,48.1z M45.7,48.6
						c0.1-0.1,0.3-0.1,0.5-0.2c0.1,0.1,0.1,0.2,0,0.2C46.2,48.6,45.9,48.6,45.7,48.6z M48.8,49.3c-0.1,0.1-0.2,0.1-0.3,0.1
						c0.1,0,0.2-0.1,0.3-0.2l0,0V49.3z"/>
					<path class="st2" d="M48.9,48.9L48.9,48.9L48.9,48.9L48.9,48.9L48.9,48.9z"/>
					<path class="st2" d="M38.1,1.6L38.1,1.6C38.1,1.6,38.1,1.7,38.1,1.6C38.1,1.7,38.1,1.7,38.1,1.6z"/>
					<polygon class="st2" points="32.4,53.1 32.4,53.2 32.5,53.2 					"/>
					<path class="st2" d="M43.3,5.5L43.3,5.5C43.4,5.5,43.4,5.5,43.3,5.5z"/>
					<path class="st2" d="M45.8,6.6l0.3,0.3C46,6.9,45.9,6.7,45.8,6.6z"/>
					<path class="st2" d="M47.6,7.7C47.7,7.7,47.7,7.7,47.6,7.7L47.6,7.7L47.6,7.7z"/>
					<path class="st2" d="M17.8,8.9C17.8,8.9,17.8,9,17.8,8.9C17.6,9,17.7,9,17.8,8.9z"/>
					<path class="st2" d="M26.8,4.2c-0.1,0.1-0.2,0.2-0.2,0.3C26.7,4.5,26.8,4.3,26.8,4.2z"/>
					<path class="st2" d="M10.9,14L10.9,14L10.9,14z"/>
					<path class="st2" d="M26.1,4.6c0.2,0,0.3-0.1,0.4-0.2C26.4,4.5,26.2,4.5,26.1,4.6z"/>
					<path class="st2" d="M55.8,12L55.8,12C55.9,12,55.9,12,55.8,12L55.8,12z"/>
					<path class="st2" d="M55.9,12L55.9,12C56,12,55.9,12,55.9,12z"/>
					<path class="st2" d="M56.3,12h-0.2C56.1,12,56.2,12.1,56.3,12z"/>
					<path class="st2" d="M53.3,10.6L53.3,10.6L53.3,10.6z"/>
					<path class="st2" d="M52.6,10.2c0.2,0.1,0.4,0.4,0.6,0.5l0.1-0.1C53.1,10.7,52.8,10.1,52.6,10.2z"/>
					<path class="st2" d="M49.9,7.5l0.6,0.4c-0.1-0.2-0.1-0.4,0.2-0.2C50,7,50.7,8,49.9,7.5z"/>
					<path class="st2" d="M48,6.5c0.4,0.1,0.1-0.1,0.1-0.2C47.9,6.2,47.8,6.2,48,6.5z"/>
					<path class="st2" d="M33.1,0.2L33,0C32.8,0.1,33.1,0.1,33.1,0.2z"/>
					<polygon class="st2" points="30.9,2.7 31.2,2.7 31.2,2.5 					"/>
					<polygon class="st2" points="28.5,1.7 28.6,1.6 28.2,2 					"/>
					<path class="st2" d="M8.4,17l0.3-0.1C8.7,16.7,8.4,16.7,8.4,17z"/>
					<path class="st2" d="M8.8,28.6c-0.2,0.1-0.3,0.5-0.1,0.7C8.7,29,8.8,28.7,8.8,28.6z"/>
					<polygon class="st2" points="28.4,53.6 28.2,53.6 28.6,53.9 					"/>
				</g>
			</g>
		</g>
	</g>
</g>
<g>
	<g>
		<g>
			<g>
				<g>
					<path class="st2" d="M58.8,13c0-0.1-0.1-0.3-0.2-0.2L58.8,13L58.8,13z"/>
					<path class="st2" d="M58,12.6c0,0.2,0,0.5,0.2,0.7c0-0.3,0-0.2,0-0.6c0.1-0.1,0.2,0,0.2,0.2c0-0.1,0.1,0,0.1-0.2
						c-0.2-0.2-0.3-0.2-0.3,0.1C58.1,12.7,58.1,12.6,58,12.6z"/>
					<path class="st2" d="M51,15.1L51,15.1L51,15.1z"/>
					<path class="st2" d="M46.7,16.9L46.7,16.9C46.7,16.9,46.6,16.9,46.7,16.9z"/>
					<path class="st2" d="M45.8,16.9L45.8,16.9L45.8,16.9z"/>
					<path class="st2" d="M51,15.1h-0.2C50.9,15.2,50.9,15.1,51,15.1z"/>
					<path class="st2" d="M57.4,13.7v-0.1V13.7L57.4,13.7z"/>
					<polygon class="st2" points="52.7,14 52.8,14 52.8,14 					"/>
					<path class="st2" d="M54.2,13.5c0,0,0.1,0.3,0.1,0.4c0-0.1,0-0.2,0-0.2C54.2,13.5,54.2,13.5,54.2,13.5z"/>
					<path class="st2" d="M56.6,12.9L56.6,12.9L56.6,12.9z"/>
					<path class="st2" d="M51.7,14.5L51.7,14.5L51.7,14.5z"/>
					<path class="st2" d="M11.6,14.3L11.6,14.3L11.6,14.3z"/>
					<polygon class="st2" points="10.5,12.3 10.6,12.3 10.6,12.1 					"/>
					<path class="st2" d="M44.3,17.1L44.3,17.1C44.4,17,44.3,17,44.3,17.1z"/>
					<path class="st2" d="M33.2,22c0,0.3-0.4,0.2-0.3,0.5C33,22.3,33.3,22.1,33.2,22z"/>
					<path class="st2" d="M57.4,13.7C57.4,13.7,57.3,13.7,57.4,13.7C57.3,13.7,57.4,13.7,57.4,13.7z"/>
					<path class="st2" d="M32.9,22.5L32.9,22.5L32.9,22.5z"/>
					<path class="st2" d="M41.3,18.6C41.4,18.6,41.4,18.6,41.3,18.6C41.4,18.6,41.4,18.6,41.3,18.6z"/>
					<path class="st2" d="M43.8,18L43.8,18C43.7,18,43.8,18,43.8,18z"/>
					<path class="st2" d="M40.3,19.5C40.3,19.5,40.2,19.5,40.3,19.5C40.2,19.5,40.2,19.5,40.3,19.5C40.2,19.5,40.3,19.5,40.3,19.5z"
						/>
					<polygon class="st2" points="39.1,20 39.1,20 39.2,20 					"/>
					<path class="st2" d="M15.3,16c0-0.1,0-0.2,0.1-0.3C15.3,16,15.1,15.9,15.3,16z"/>
					<path class="st2" d="M57.4,13.6c0,0.1,0,0.1,0,0.1V13.6L57.4,13.6z"/>
					<path class="st2" d="M41.2,21.5H41C41,21.5,41.1,21.5,41.2,21.5z"/>
					<path class="st2" d="M24,20.1L24,20.1L24,20.1z"/>
					<path class="st2" d="M40.4,21.9c-0.1-0.1-0.1-0.1-0.2-0.1c0,0,0,0,0,0.1H40.4z"/>
					<path class="st2" d="M15.4,15.7L15.4,15.7L15.4,15.7z"/>
					<path class="st2" d="M13.8,15.7c0.2,0.1,0.2-0.3,0.4-0.5c0.3,0,0,0.3,0,0.5c0.2,0,0.4-0.3,0.5-0.2c0,0.1,0,0.1-0.1,0.1
						c0.3-0.2,0.4,0.2,0.8-0.1v0.1c0.1-0.2,0.1-0.4,0.2-0.5c0.1,0,0.3-0.1,0.2,0.1l-0.1,0.1l0.1-0.1c-0.1,0.4-0.2,0.1-0.3,0.3
						c0.2,0,0.5-0.2,0.6,0c-0.1,0.3-0.4,0-0.3,0.3l-0.1-0.2c-0.1,0.6-0.1-0.1-0.2,0.5c0.2,0.2,0.4,0,0.6,0.2
						c0.1-0.1,0.1-0.3,0.2-0.4c0.5-0.1-0.1,0.9,0.4,0.6c0.2-0.2,0.4-0.5,0.5-0.2L17,16.6c0.2,0.2,0.4-0.4,0.5-0.1
						c-0.1,0.1-0.3,0-0.2,0.1c0,0.4,0.2-0.1,0.3-0.1l-0.1,0.3c0.3,0.1,0.7,0,1,0.1c-0.1,0.1-0.2,0.2-0.1,0.3c0.5,0,0.8,0.4,1.1,0.8
						l0.3-0.2c0,0,0,0.1-0.1,0.2c0.1,0.2,0.1-0.2,0.2-0.2s0,0.2-0.1,0.3c0.4-0.1,0.9-0.1,1.1,0.3l-0.1,0.1c0.2,0.2,0.5-0.4,0.6-0.1
						h-0.1c0.4,0.3,1,0.3,1.2,0.9c0.2-0.4,0.4,0.4,0.6-0.1c0.1,0.4,0,0.4,0.3,0.8c0.1,0.1,0.3-0.3,0.4-0.3L23.7,20l0.3-0.2l-0.1,0.4
						H24V20c0.2,0,0.3,0.4,0.3,0.5h0.5c-0.1,0.1-0.2,0.1-0.2,0.2c0.4-0.2-0.1,0.3,0.2,0.1c0-0.1,0.1-0.2,0.1-0.2
						c0,0.2,0.2,0.3,0.5,0.3l-0.1,0.2c0.3,0.2,0.7,0.2,1,0.4c-0.1-0.1,0.1-0.5,0.2-0.5l-0.1,0.3c0.2-0.1-0.1-0.2,0.2-0.3
						c0.1,0.1-0.1,0.4-0.2,0.4h0.2c0,0.1-0.1,0.1-0.2,0.2c0.2-0.2,0.1,0.4,0.4,0.1v0.1c0.3,0.2,0.5,0.1,0.8,0.3
						c0.1-0.3,0.2-0.1,0.4-0.3c0.2,0.2,0.3,0.5,0.6,0.6c0.2,0,0.2-0.2,0.3-0.3c-0.1,0.2,0.2,0.3,0,0.4c0.3,0.1,0.4,0.1,0.9,0.1
						c0-0.1,0-0.2,0-0.2c0.1,0,0.1,0.2,0,0.3l0,0c0.6-0.1,0.6,1.1,1.2,0.8l0,0l0.5-0.1c0.1,0.1-0.2,0.1-0.1,0.3
						c0.6-0.2,0.6,0.3,1,0.2c-0.1,0.3,0.1,0.4,0.4,0.6c0.3,0.1,0.6,0.2,0.8,0.3c0.2-0.1,0.4-0.2,0.6-0.1l-0.1-0.2
						c0.1-0.2,0.2,0,0.3,0c-0.1-0.1-0.2-0.1-0.1-0.2s0.3-0.2,0.4-0.2c0.1,0,0.2-0.1,0.3-0.1c0.2-0.1,0.4-0.1,0.6-0.1
						c0.4-0.1,0.9-0.1,1.3-0.2c0.3-0.1-0.2-0.9,0.3-0.7v0.3c0.4-0.6,1.1-0.5,1.5-1c0,0.1,0,0.2,0,0.2c0.2,0.2,0.4-0.2,0.3-0.4
						c0.1,0,0.1,0.2,0.2,0.2c0.2,0.1,0.2-0.4,0.3-0.2v0.1c0-0.1,0.4-0.1,0.2-0.3c0.3,0,0.3-0.3,0.6-0.2c0-0.3,0.4,0,0.3-0.4
						c0.2,0.4,0.5,0.2,0.5-0.1c0,0.1,0.2,0.1,0.2,0.3c0.1-0.1,0.2-0.2,0.1-0.4c0.5,0.4,0.4-0.6,0.8-0.1c0.3-0.4,0.7-0.7,1-1
						c0.2,0.4-0.4,0.2-0.2,0.7c0.3-0.3,0.3-0.8,0.7-0.8c0.1,0,0,0.2,0,0.3c0.3-0.3,0.7-0.3,0.9-0.6v0.1c0.1,0,0.2,0,0.1-0.2v0.1
						c-0.2-0.2,0-0.7,0-0.8c0.1,0.6,0.4,0,0.5,0.8c0-0.1,0-0.2,0-0.3c0.1,0,0.1,0.1,0.1,0.2c0.2-0.2,0-0.4,0.2-0.5
						c0,0.1,0,0.1,0,0.3c0-0.2,0.1-0.4,0.3-0.4c0,0.1,0.1,0.1,0,0.1c0.3-0.2,0.3-0.7,0.7-0.7c0.1,0.4,0.2,0.1,0.3,0.4l0.1-0.2
						l-0.1-0.1c0.2-0.1,0.2-0.4,0.4-0.3l-0.1,0.2l0.3-0.2L47.2,18c0.1-0.2-0.2-0.4,0-0.4c0,0.1,0.2-0.1,0.3,0.1l0,0
						c0-0.1,0.1-0.3,0.2-0.3c0.1,0.1,0.1,0.4,0.2,0.5c-0.1-0.3,0.3-0.2,0.3-0.6c0,0.1,0.1,0.3,0.1,0.3v-0.3c0.1,0,0.1,0.1,0.2,0.2
						c0.2-0.1-0.3-0.4,0.1-0.3v0.1c0.3,0,0.4-0.4,0.7-0.4c0.2,0.3-0.2,0.2,0,0.4c0.3-0.2,0.5-0.7,0.9-0.8h-0.1
						c-0.2-0.5,0.4,0.1,0.4-0.2c0,0.1,0.1,0.3,0.1,0.2c0.3,0,0.4-0.3,0.7-0.6V16c0.2,0.1,0.4-0.1,0.5-0.1c0-0.1,0.1-0.2-0.1-0.3
						c0.8,0.5,0.7-0.8,1.3-0.3c0,0-0.1,0.2,0,0.1l0.3-0.3c-0.1-0.2-0.1-0.1-0.2-0.2c0-0.1,0-0.3,0.1-0.3c-0.1,0.2,0.2,0.3,0.3,0.4
						c0-0.1,0-0.1-0.1-0.2c0.3,0.3-0.2-0.4,0.2-0.3v0.1c0.1-0.1,0.1-0.3,0.2-0.3c0.1,0.2,0,0.2,0,0.4c0.1-0.1,0.1-0.6,0.3-0.4
						c0,0.1-0.1,0.1-0.1,0.2c0.3,0.2,0.2,0.1,0.4,0.1l0,0h0.3l-0.1-0.1c-0.1-0.7,0.3-0.3,0.3-0.8c0,0.5,0.1,0.2,0.2,0.5
						c0.1,0.1,0.2,0.1,0.2,0.2c0-0.3,0.3,0.1,0.3-0.3c0,0.1,0.1,0,0.2,0.2c0.1-0.1-0.1-0.1-0.1-0.3c0.1-0.4,0.7,0.1,0.8-0.4
						c0.2-0.3,0.1-0.6,0.3-0.9c0.1,0.1,0.1,0.4,0.1,0.4c0.2,0.1,0.3,0,0.4-0.2c0,0.1,0.1,0.1,0.1,0.2c0.1-0.1-0.1-0.4,0.1-0.3
						c0,0.1,0.1,0.3,0.1,0.4c0.1-0.1,0.1-0.4,0.2-0.5c0.1,0.1,0,0.3,0,0.4c0.1-0.1,0.3-0.3,0.2-0.6h-0.1c0,0,0.1,0.2,0.1,0.3
						c0,0.2-0.2,0-0.3-0.1l0.1-0.1c-0.3-0.5-0.3,0.2-0.5,0.3l-0.1-0.4v0.4c-0.1-0.1-0.2-0.3-0.1-0.4c-0.2-0.1-0.1,0.2-0.3,0
						c0,0,0,0,0-0.1l-0.1,0.2c0-0.1-0.1-0.3,0-0.2c-0.3-0.1-0.2,0.4-0.4,0.2l0,0c-0.3,0.3,0.1,0.3,0,0.7l-0.5-0.6l0.1,0.3
						c0,0-0.1,0-0.1-0.1c0,0.2,0.1,0.1,0.1,0.3c-0.3-0.2-0.4,0.3-0.6-0.1c0,0.2,0.2,0.1,0.1,0.3c-0.3-0.5-0.2,0.2-0.4,0
						c-0.1-0.3,0.1-0.2-0.1-0.4c0.1,0.5-0.3,0-0.4,0.2c0.1,0.3-0.2,0.3-0.4,0.5c0-0.1-0.5,0-0.7-0.1v-0.1c0.1,0.4-0.1,0.4-0.2,0.5
						c-0.1-0.2-0.1-0.3-0.1-0.4L53,13.7c0,0.1,0,0.2-0.1,0.3l-0.1-0.3c-0.2,0.1-0.2,0.5-0.5,0.4c0.1,0.2,0.5,0.6,0.3,0.8
						c-0.1-0.1-0.2-0.3-0.1-0.4c0,0,0,0.1-0.1,0.1v-0.3c-0.1,0,0,0.2-0.1,0.2c-0.1-0.2-0.1-0.1-0.2-0.3h0.1c-0.1,0-0.3,0-0.4-0.2
						c0.1,0.1,0.1,0.2,0,0.3c-0.2,0.1-0.2-0.2-0.3-0.2c0,0.1-0.2,0.1,0,0.3c-0.1,0-0.1-0.1-0.2-0.2c0,0.2-0.4,0.2-0.2,0.5l0,0l0,0
						l0,0l0,0c-0.2,0.4-0.7,0.1-0.9,0.4V15c-0.1,0.2-0.4,0.2-0.4,0.5c-0.1,0-0.2-0.1-0.2-0.2c-0.1,0.1-0.1,0.2-0.3,0.2
						c0.1-0.2-0.1-0.1,0.1-0.2c-0.2,0-0.3-0.1-0.4,0.2c0-0.3-0.3-0.2-0.3-0.1l0.2,0.1c-0.1,0.1-0.2,0.1-0.3,0.1l-0.1-0.3
						c-0.5-0.2-0.4,0.9-0.9,0.4c0,0.3,0.3,0.1,0.3,0.4c-0.2,0-0.5-0.3-0.6-0.3c-0.3-0.1,0,0.5-0.3,0.5c0.1,0.1,0.2,0.4,0.1,0.6
						c-0.2,0-0.4-0.4-0.3-0.5h0.1c0-0.1,0.1-0.1,0-0.2v0.1c-0.1-0.1-0.4,0-0.4-0.2c-0.1,0.2,0,0.2,0.1,0.2c-0.3-0.1-0.3,0.1-0.6,0.1
						c0.1,0,0.1,0.2,0.1,0.2c-0.4,0-0.1,0.3-0.2,0.4c-0.2-0.1-0.1-0.4-0.3-0.2c-0.2-0.1-0.2-0.3-0.1-0.4c-0.1,0.3-0.4,0-0.6,0
						l0.1-0.1c0,0.1-0.1,0.1-0.1,0.1l0.2,0.2c-0.1,0-0.1,0-0.2-0.1c0,0.2,0.2,0.3,0.2,0.6c-0.1-0.1-0.2,0.2-0.4,0
						c0.3,0-0.2-0.3,0-0.4c0,0.1-0.1,0.1-0.2,0.1v-0.1c-0.4-0.1,0,0.4-0.2,0.5c0-0.2-0.2-0.3-0.2-0.2c0.1,0,0.2,0.2,0.1,0.4
						c-0.2-0.1-0.1,0.2-0.2,0.2h0.1c0,0.2-0.1,0.2-0.1,0.3c-0.1-0.1,0.1-0.1,0-0.2c0,0.3-0.4-0.2-0.5,0.1c-0.1-0.1-0.1-0.3-0.2-0.3
						c-0.1,0.3-0.3-0.1-0.4,0.1c0.2,0.2,0.1,0.1,0.1,0.4l0.3-0.3l-0.1,0.4c0.1,0,0.2-0.2,0.2-0.2c0,0.2,0,0.2,0.1,0.3
						c-0.3-0.3-0.2,0.3-0.5,0.2l-0.2-0.5c-0.4-0.1-0.3,0.5-0.7,0.5h0.1c0.1,0.2-0.2,0.1-0.2,0.2c-0.1-0.2-0.2-0.2-0.3-0.3
						c0.1,0.1-0.2,0.1-0.1,0.5l-0.2-0.2c-0.3,0-0.1,0.6-0.3,0.7c0-0.2-0.2-0.3-0.1-0.5c-0.1,0-0.2,0-0.1,0.2
						c-0.1-0.1-0.1,0.3-0.3,0.2c0,0.1,0.1,0.3,0,0.3v-0.1c0,0.1-0.1,0.2,0.1,0.4c-0.5-0.5-0.7,0.4-1.1,0c-0.2,0.1-0.3,0.3-0.5,0.4
						c0-0.1,0-0.1,0-0.1c-0.3-0.1,0.1,0.6-0.2,0.5c-0.3-0.2,0.1-0.2-0.1-0.3c-0.3-0.6-0.3,0.2-0.6-0.1v-0.1C38,20,38,20.5,37.7,20.5
						v-0.1c0,0.4-0.2,0.6-0.4,0.8c0-0.3,0-0.2-0.1-0.4c-0.1,0.1,0.2,0.4,0,0.5c-0.1-0.1-0.3-0.2-0.4-0.4l0.2-0.1
						c-0.2-0.3-0.2,0.1-0.3,0.1l-0.1-0.1c-0.2,0.2-0.1,0.5-0.4,0.6l0.1,0.1c0,0.4-0.2-0.1-0.3,0.2l-0.2-0.3
						c-0.1,0.1-0.2,0.5-0.4,0.7c0-0.3,0.1-0.5,0.2-0.8c-0.1,0-0.3,0.2-0.3,0.4c0-0.1,0-0.2,0.1-0.1c0,0.3-0.1,0.6-0.3,0.6
						c-0.1-0.4-0.3-0.3-0.5-0.3c-0.1,0-0.2,0.1-0.3,0c-0.1,0-0.1-0.1-0.2-0.2c0,0.2-0.1,0.2-0.2,0.1c-0.1-0.1-0.1-0.2-0.2-0.2
						c-0.1,0.6-0.1,0-0.3,0.6c-0.1,0-0.1,0-0.1-0.1l-0.1-0.5c0-0.2,0.2-0.1,0.2-0.2c-0.2-0.1,0-0.3,0-0.5c-0.1,0.2-0.2,0.2-0.3,0.1
						l0.1,0.3c-0.4,0.2,0-0.6-0.5-0.4l0.2-0.1c-0.2,0-0.6-0.3-0.9,0.1c0-0.1,0-0.2,0.1-0.3c-0.3-0.2-1,0.1-1.2-0.3l0.1-0.1
						c-0.1,0-0.2,0.2-0.3,0c0-0.1,0.1-0.1,0.1-0.1c-0.1,0-0.3,0.1-0.3,0l0.1-0.1c-0.3-0.3-0.7,0.1-1.1,0.1c0.2-0.4,0-0.7-0.1-0.8
						v-0.1c-0.4-0.2-0.9,0-1.3,0c0-0.5-0.7-0.6-1-1c0,0.1-0.2,0.3-0.2,0.3c-0.1-0.1-0.4,0.2-0.2-0.2l0,0c0.1-0.4-0.1-0.4-0.3-0.5
						l-0.3,0.5c-0.1-0.9-1.1-0.2-1-0.9c-0.1,0.1-0.3,0-0.4,0.1l0.1-0.3c-0.2-0.2-0.3-0.3-0.7-0.4l0.2-0.2c-0.2-0.1-0.6,0.6-0.7,0.6
						l0.1-0.4c-0.3-0.1-0.5-0.6-0.9-0.4c0-0.1,0.1-0.2,0.2-0.1c-0.1-0.1-0.4-0.5-0.6,0c0.2-0.3-0.3-0.2-0.5-0.1L22,16
						c-0.3,0.3-0.3,0.3-0.6,0.3c0-0.1,0.1-0.2,0.1-0.1c-0.1-0.2-0.2,0.2-0.4,0l0.1-0.1c-0.2-0.1-0.2,0-0.4,0.1
						c-0.1,0.1-0.3-0.2-0.2-0.4c-0.1,0.1-0.3,0.3-0.3,0.2c0-0.1,0.1-0.1,0.1-0.1c-0.2-0.3-0.5,0.1-0.6-0.2c0-0.1,0-0.1,0-0.2
						c0.2,0.1,0.4,0.2,0.4,0.2c0.1-0.2,0-0.4,0.2-0.6c-0.2,0.1-0.6,0.4-0.8,0.2v-0.1l0,0h-0.1c0-0.1-0.1-0.1-0.1-0.1
						c0.1-0.2-0.1-0.2-0.2-0.2c-0.1,0.3-0.2,0.2-0.2,0.4c0,0,0,0,0.1,0l0,0l0,0l0.2,0.1c-0.1,0.1-0.3,0.2-0.3,0l-0.3,0.4
						c0.1-0.4-0.1-0.7,0-0.9c-0.3,0-0.7-0.2-1.1,0.2c-0.1,0,0-0.2,0-0.3c0.1,0,0.1,0,0.2-0.1c-0.2,0.1-0.5-0.2-0.7,0.2
						c-0.1-0.2,0.3-0.3,0-0.3l0.1-0.1C16.9,13.7,16,15,15.7,14c0,0.1,0,0.1,0,0.1c-0.5-0.6-1.5-0.4-1.9-1.1c-0.1-0.2-0.3,0-0.4,0.1
						l0.1-0.3L13.2,13c-0.4,0.1-0.1-0.9-0.7-0.6v0.2c-0.1-0.1-0.4-0.1-0.3-0.3c0,0-0.1,0.2-0.1,0.1l0.1-0.1l-0.4,0.1
						c-0.2-0.2,0.3-0.5,0-0.7c-0.2,0-0.6,0.2-0.6,0.4c0,0,0.1,0.1,0,0.3H11c-0.2,0.4-0.5,0.8-0.4,1.2l0.3-0.2v0.2l-0.2-0.1
						c0,0.2,0.1,0.1,0.3,0c0,0.1,0,0.2,0,0.3l0.4-0.3c-0.1,0.2-0.2,0.3-0.2,0.4c0.2-0.1,0.1-0.4,0.3-0.5c0,0.2-0.1,0.4,0.1,0.3
						c0,0.1-0.1,0.2-0.2,0.2c0.2-0.1,0.3,0.1,0.4-0.1c0,0.3,0.4,0.1,0.2,0.5c0.1-0.1,0.3-0.2,0.4-0.2c-0.4,0.4,0.3,0.2,0,0.7
						c0.3-0.4,0.5,0,0.9-0.1l-0.1,0.1c0.1,0.1,0.1,0.2,0.1,0.4c0.2-0.3,0.4-0.3,0.6-0.5c0,0.4-0.3,0.4-0.4,0.7
						c0.1-0.3,0.4-0.2,0.5-0.4c0,0.3,0,0.1,0,0.5c0.2-0.4,0.1,0,0.4-0.3c0.1,0.3-0.2,0.4,0.1,0.4C14,15.6,13.8,15.7,13.8,15.7z
						 M18.5,17L18.5,17L18.5,17L18.5,17z M18.8,17.1c0,0-0.1-0.1-0.2-0.1c0-0.1,0.1-0.2,0.1-0.2C18.8,17,18.8,17,18.8,17.1z
						 M18.9,15c0.1,0,0.1,0.1,0.1,0.1C18.9,15.1,18.9,15.1,18.9,15l-0.1,0.1C18.9,15.1,18.9,15,18.9,15z"/>
					<path class="st2" d="M18.6,15.3L18.6,15.3L18.6,15.3L18.6,15.3L18.6,15.3z"/>
					<path class="st2" d="M51.1,15.1L51.1,15.1C51.1,15.1,51.1,15.2,51.1,15.1L51.1,15.1z"/>
					<polygon class="st2" points="23.6,20 23.6,20 23.5,20 					"/>
					<path class="st2" d="M53.5,15.1C53.5,15.2,53.5,15.2,53.5,15.1C53.5,15.2,53.5,15.2,53.5,15.1z"/>
					<path class="st2" d="M54.4,14.9h0.2C54.4,14.9,54.4,14.9,54.4,14.9z"/>
					<path class="st2" d="M55.1,14.6v-0.1l0,0V14.6z"/>
					<path class="st2" d="M44.6,19.6L44.6,19.6C44.5,19.7,44.5,19.7,44.6,19.6z"/>
					<path class="st2" d="M47.5,17.6c0,0.1,0,0.1,0,0.2C47.5,17.9,47.5,17.9,47.5,17.6z"/>
					<path class="st2" d="M41.2,21.5L41.2,21.5L41.2,21.5z"/>
					<path class="st2" d="M47.3,18c0.1,0,0.1,0,0.1-0.1C47.4,17.9,47.3,17.9,47.3,18z"/>
					<path class="st2" d="M58,13.5L58,13.5C58.1,13.5,58.1,13.5,58,13.5L58,13.5z"/>
					<path class="st2" d="M58.1,13.5L58.1,13.5C58.1,13.5,58,13.5,58.1,13.5z"/>
					<path class="st2" d="M58.1,13.3L58.1,13.3C58.1,13.5,58.1,13.5,58.1,13.3z"/>
					<path class="st2" d="M57.1,13.9L57.1,13.9L57.1,13.9z"/>
					<path class="st2" d="M56.8,14c0.1,0,0.2,0.1,0.3,0v-0.1C57.1,14,56.8,13.7,56.8,14z"/>
					<path class="st2" d="M55.2,13.2h0.3c-0.1-0.1-0.2-0.2-0.1-0.3C54.9,12.9,55.5,13.2,55.2,13.2z"/>
					<path class="st2" d="M54.4,13.5c0.1-0.1-0.1-0.1-0.1-0.2C54.3,13.3,54.3,13.5,54.4,13.5z"/>
					<path class="st2" d="M49.4,15.6l-0.1-0.2C49.2,15.5,49.3,15.5,49.4,15.6z"/>
					<polygon class="st2" points="49,17.3 49.1,17.5 49.1,17.1 					"/>
					<polygon class="st2" points="47.6,15.9 47.7,15.9 47.6,16 					"/>
					<path class="st2" d="M39.2,19.7l0.2,0.3C39.4,20,39.3,19.5,39.2,19.7z"/>
					<path class="st2" d="M35.7,21.6c-0.1-0.1-0.2-0.2-0.2,0C35.5,21.5,35.6,21.6,35.7,21.6z"/>
					<polygon class="st2" points="25.6,18.2 25.7,18.1 25.6,18.1 					"/>
				</g>
			</g>
		</g>
	</g>
</g>
<g>
	<g>
		<g>
			<g>
				<g>
					<path class="st2" d="M32.8,54.3c0.1,0,0.3,0,0.2,0H32.8L32.8,54.3z"/>
					<path class="st2" d="M33.4,54c-0.2-0.1-0.4-0.1-0.7-0.1C33,54,32.9,54,33.4,54c-0.1,0-0.2,0.1-0.3,0.1c0.1,0-0.1,0.1,0.1,0.1
						C33.5,54.1,33.5,54.1,33.4,54L33.4,54z"/>
					<path class="st2" d="M34,49.6L34,49.6C33.9,49.6,34,49.6,34,49.6z"/>
					<path class="st2" d="M34.1,47C34.2,47,34.2,47,34.1,47C34.2,47,34.2,47,34.1,47z"/>
					<path class="st2" d="M34.5,46.5L34.5,46.5L34.5,46.5z"/>
					<path class="st2" d="M34,49.6L34,49.6C34,49.5,34,49.6,34,49.6z"/>
					<path class="st2" d="M32.6,53.5C32.7,53.5,32.7,53.5,32.6,53.5C32.7,53.5,32.7,53.5,32.6,53.5L32.6,53.5z"/>
					<polygon class="st2" points="34.2,50.9 34.2,50.9 34.4,51 					"/>
					<path class="st2" d="M34.3,51.7c0,0-0.3,0-0.4,0c0.1,0,0.2,0,0.2,0C34.1,51.9,34.2,51.7,34.3,51.7z"/>
					<path class="st2" d="M33.8,53.2L33.8,53.2L33.8,53.2z"/>
					<path class="st2" d="M34.3,50.2L34.3,50.2L34.3,50.2z"/>
					<path class="st2" d="M32.2,24.5L32.2,24.5L32.2,24.5z"/>
					<polygon class="st2" points="33.6,23.3 33.6,23.3 33.7,23.3 					"/>
					<path class="st2" d="M34.9,45.6L34.9,45.6L34.9,45.6z"/>
					<path class="st2" d="M34.7,37.9c-0.3,0.1-0.3-0.1-0.6,0C34.2,37.7,34.5,38,34.7,37.9z"/>
					<path class="st2" d="M32.7,53.5L32.7,53.5L32.7,53.5z"/>
					<polygon class="st2" points="34.1,37.9 34.1,37.9 34,37.9 					"/>
					<path class="st2" d="M34.7,43.6L34.7,43.6C34.6,43.6,34.6,43.6,34.7,43.6z"/>
					<path class="st2" d="M34.3,45.1L34.3,45.1L34.3,45.1z"/>
					<path class="st2" d="M34.3,43C34.3,42.9,34.4,42.9,34.3,43L34.3,43C34.3,42.9,34.3,42.9,34.3,43z"/>
					<path class="st2" d="M34.3,42.1L34.3,42.1L34.3,42.1z"/>
					<path class="st2" d="M32.3,26.9c0.1,0,0.2,0,0.3,0C32.4,26.9,32.3,26.6,32.3,26.9z"/>
					<path class="st2" d="M32.8,53.5C32.7,53.5,32.7,53.5,32.8,53.5L32.8,53.5L32.8,53.5z"/>
					<path class="st2" d="M32.1,42.9L32.1,42.9L32.1,42.9z"/>
					<path class="st2" d="M32.4,32.5L32.4,32.5C32.3,32.5,32.3,32.5,32.4,32.5z"/>
					<path class="st2" d="M32.1,42.3c0.1,0,0.2,0,0.2-0.1c0,0,0,0-0.1,0L32.1,42.3z"/>
					<path class="st2" d="M32.6,26.7L32.6,26.7L32.6,26.7z"/>
					<path class="st2" d="M31.9,26c0,0.1,0.4,0.1,0.6,0.1c0.1,0.1-0.3,0.1-0.5,0.1c0.1,0.1,0.4,0.2,0.4,0.2c-0.1,0-0.1,0-0.2,0
						c0.3,0.1,0,0.3,0.4,0.4h-0.1c0.2,0,0.4,0,0.5,0c0,0.1,0.2,0.1,0,0.1c0,0-0.1,0-0.2-0.1l0.1,0.1c-0.3,0.1-0.1-0.1-0.4-0.1
						c0.1,0.1,0.4,0.2,0.3,0.3c-0.3,0-0.1-0.2-0.4-0.1l0.1-0.1c-0.5,0.1,0-0.1-0.5,0c-0.1,0.2,0.2,0.2,0.1,0.4c0.2,0,0.3,0,0.5,0
						c0.3,0.2-0.9,0.2-0.4,0.4c0.2,0,0.7,0.1,0.4,0.2h-0.4c0,0.2,0.6,0.1,0.3,0.3c-0.2,0-0.1-0.1-0.2-0.1c-0.3,0.1,0.2,0.1,0.2,0.2
						h-0.3c0.1,0.2,0.3,0.4,0.4,0.6c-0.1,0-0.2,0-0.3,0c0.2,0.2,0,0.5-0.2,0.8l0.3,0.1c0,0-0.1,0-0.2,0c-0.1,0.1,0.2,0,0.3,0
						c0,0.1-0.2,0.1-0.3,0c0.2,0.2,0.5,0.5,0.2,0.6h-0.1c-0.1,0.1,0.6,0.2,0.3,0.3h-0.1c-0.1,0.3,0.1,0.6-0.3,0.8
						c0.4,0-0.2,0.3,0.4,0.3c-0.3,0.2-0.4,0.1-0.6,0.4c0,0.1,0.4,0.1,0.4,0.2h-0.3l0.3,0.1L32,32.6l0.1,0.1c0,0,0.1-0.1,0.2-0.1
						c0.1,0.1-0.2,0.3-0.4,0.3l0.3,0.3c-0.1,0-0.2-0.1-0.2-0.1c0.3,0.1-0.3,0,0,0.2c0.1,0,0.2,0,0.2,0c-0.2,0.1-0.2,0.2-0.1,0.3
						h-0.2C31.8,33.8,32,34,32,34.2c0.1-0.1,0.5-0.1,0.5,0h-0.3c0.2,0,0.1-0.1,0.4,0c0,0.1-0.4,0.1-0.5,0l0.1,0.1
						c-0.1,0-0.1,0-0.3,0c0.2,0-0.3,0.2,0,0.2h-0.1c0,0.2,0.1,0.3,0.1,0.5c0.3,0,0.2,0.1,0.4,0.1c-0.1,0.1-0.3,0.3-0.3,0.4
						c0.1,0.1,0.2,0,0.4,0.1c-0.3,0-0.2,0.2-0.4,0.1c0,0.2,0.1,0.2,0.3,0.5c0.1,0,0.2-0.1,0.2,0c0,0-0.1,0.1-0.2,0.1l0,0
						c0.4,0.3-0.7,0.6-0.2,0.8l0,0l0.3,0.2c0,0.1-0.2-0.1-0.4,0c0.4,0.2-0.1,0.4,0.2,0.6c-0.8,0.2,0.1,0.6-0.4,0.8H32
						c0.2,0.1-0.1,0.1-0.1,0.1c0.1,0,0.2-0.1,0.3,0c0.2,0.5-0.3,0.9-0.4,1.4c0,0.2,0.9,0.1,0.5,0.3L32,40.4c0.4,0.3,0,0.7,0.3,1
						c-0.1,0-0.2,0-0.2-0.1c-0.2,0.1,0,0.3,0.2,0.3c0,0.1-0.2,0-0.3,0c-0.1,0.1,0.3,0.2,0.1,0.2H32c0.1,0,0,0.2,0.2,0.2
						c-0.1,0.1,0.1,0.2,0,0.3c0.3,0.1-0.1,0.2,0.3,0.2c-0.5,0-0.4,0.2-0.2,0.3c-0.1,0-0.1,0.1-0.3,0c0,0.1,0.1,0.2,0.3,0.2
						c-0.5,0.2,0.4,0.3-0.3,0.4c0.2,0.3,0.4,0.5,0.5,0.8c-0.5,0,0-0.3-0.5-0.3c0.2,0.2,0.6,0.4,0.5,0.6c-0.1,0.1-0.2,0-0.3-0.1
						c0.2,0.2,0,0.5,0.2,0.7h-0.1c0,0-0.1,0.1,0.1,0.1h-0.1c0.3-0.1,0.6,0.2,0.8,0.2c-0.6-0.1-0.1,0.2-0.9,0.1c0,0,0.1,0.1,0.3,0.1
						c0,0-0.1,0.1-0.3,0c0.1,0.1,0.3,0.1,0.3,0.2c-0.1,0-0.1,0-0.3,0c0.2,0.1,0.4,0.1,0.3,0.2c-0.1,0-0.1,0-0.1,0
						c0,0.2,0.5,0.3,0.3,0.5c-0.4-0.1-0.1,0.1-0.5,0.1l0.1,0.1h0.2c0,0.1,0.3,0.2,0.1,0.3l-0.2-0.1l0.1,0.2l0.1-0.1
						c0.2,0.1,0.5,0,0.4,0.1c0,0,0,0.1-0.2,0.2l0,0c0.1,0,0.2,0.1,0.2,0.2c-0.1,0-0.4,0-0.5,0c0.3,0,0.1,0.2,0.4,0.3
						c-0.1,0-0.3,0-0.3,0h0.3c-0.1,0-0.1,0.1-0.3,0c0,0.1,0.5,0,0.3,0.1h-0.1c-0.1,0.2,0.2,0.3,0,0.5c-0.4,0-0.1-0.1-0.4-0.1
						c0.1,0.2,0.4,0.5,0.4,0.7l0,0c0.5,0-0.3,0.2,0,0.3c0,0-0.3,0-0.2,0c-0.1,0.1,0.1,0.3,0.3,0.5h-0.1c-0.1,0.1-0.1,0.2-0.1,0.3
						c0.1,0,0.1,0.1,0.3,0c-0.8,0.3,0.4,0.5-0.2,0.8c0,0-0.1-0.1-0.1,0l0.1,0.2c0.2,0,0.1,0,0.3-0.1c0.1,0,0.2,0.1,0.2,0.1
						c-0.2-0.1-0.4,0-0.5,0c0.1,0,0.1,0,0.2,0c-0.4,0.1,0.5,0,0.2,0.2h-0.1c0.1,0.1,0.2,0.1,0.2,0.2c-0.3,0-0.1-0.1-0.3-0.1
						c0,0.1,0.5,0.2,0.2,0.3c-0.1,0-0.1-0.1-0.1-0.1c-0.3,0.1-0.2,0.1-0.3,0.2l0,0l-0.1,0.1h0.1c0.7,0.1,0.1,0.2,0.6,0.4
						c-0.4-0.1-0.2,0-0.6,0c-0.1,0-0.2,0.1-0.3,0.1c0.2,0.1-0.2,0.1,0.2,0.2c-0.1,0,0,0.1-0.3,0.1c0.1,0.1,0.2,0,0.3,0
						c0.3,0.1-0.4,0.3,0.1,0.5c0.2,0.2,0.5,0.2,0.7,0.4c-0.2,0.1-0.4,0-0.4,0c-0.1,0.1-0.1,0.2,0,0.2c-0.1,0-0.2,0-0.3,0
						c0,0.1,0.4,0,0.2,0.1c-0.1,0-0.3,0-0.4-0.1c0.1,0.1,0.3,0.2,0.4,0.2c-0.2,0-0.3,0-0.4-0.1c0.1,0.1,0.2,0.2,0.4,0.3l0.1-0.1
						c0,0-0.2,0-0.3,0C32.6,54,32.9,54,33,54l0.1,0.1c0.6-0.1-0.1-0.2-0.1-0.3h0.4l-0.3-0.1c0.1,0,0.3,0,0.4,0
						c0.2-0.1-0.1-0.1,0.1-0.1h0.1l-0.1-0.1c0.1,0,0.3,0,0.2,0c0.2-0.1-0.3-0.2,0-0.3l0,0c-0.1-0.2-0.3,0-0.7-0.2l0.8-0.1h-0.3
						c0,0,0-0.1,0.2-0.1c-0.2-0.1-0.1,0-0.3,0c0.3-0.1-0.1-0.3,0.4-0.3c-0.2,0-0.2,0.1-0.3,0c0.5,0-0.1-0.1,0.2-0.2
						c0.3,0,0.1,0.1,0.4,0c-0.5-0.1,0.1-0.2,0-0.3c-0.4,0-0.2-0.2-0.3-0.3c0.1,0,0.2-0.2,0.3-0.4h0.1c-0.4,0-0.3-0.1-0.4-0.2
						c0.2,0,0.3,0,0.4,0.1v-0.1c-0.1,0-0.2,0-0.2-0.1h0.3c0-0.1-0.3-0.2-0.1-0.4c-0.3,0-0.7,0.1-0.9,0c0.1,0,0.4,0,0.4,0
						s-0.1,0-0.1-0.1l0.2,0.1c0.1-0.1-0.2,0-0.2-0.1c0.2,0,0.1,0,0.3,0c0,0-0.1,0,0,0.1c0-0.1,0.2-0.1,0.3-0.2c-0.1,0-0.3,0-0.3,0
						c0-0.1,0.2,0,0.3-0.1c-0.1,0,0-0.1-0.3-0.1c0,0,0.1,0,0.2-0.1c-0.1-0.1,0-0.3-0.4-0.2l0,0l0,0l0,0l0,0c-0.3-0.2,0.2-0.4,0-0.6
						h0.1c-0.1-0.1-0.1-0.3-0.3-0.3c0,0,0.2-0.1,0.3-0.1c-0.1-0.1-0.2-0.1,0-0.2c0.2,0.1,0.2,0,0.1,0.1c0.1-0.1,0.2-0.1,0-0.3
						c0.3,0,0.3-0.1,0.2-0.1L34,48.5c0-0.1,0-0.1,0-0.2h0.3c0.4-0.2-0.7-0.4,0-0.6c-0.2-0.1-0.2,0.1-0.4,0.1c0-0.1,0.5-0.2,0.5-0.2
						c0.2-0.1-0.5-0.1-0.4-0.3c-0.1,0-0.4,0-0.5-0.1c0-0.1,0.5-0.1,0.6-0.1c0,0,0,0-0.1,0c0,0,0.1,0.1,0.2,0h-0.1
						c0.1-0.1,0.1-0.2,0.3-0.2c-0.1-0.1-0.2,0-0.3,0c0.2-0.1,0-0.2,0.1-0.4c-0.1,0-0.2,0-0.2,0c0.1-0.2-0.2-0.1-0.3-0.2
						c0.2-0.1,0.4,0,0.3-0.1c0.1-0.1,0.3,0,0.4,0c-0.2-0.1,0.2-0.2,0.2-0.3l0.1,0.1c-0.1,0-0.1-0.1-0.1-0.1h-0.2c0,0,0-0.1,0.1-0.1
						c-0.2,0-0.4,0-0.6,0c0.1-0.1-0.1-0.2,0.2-0.2c-0.1,0.2,0.3,0,0.4,0.1v-0.1h0.1c0.3-0.2-0.4-0.1-0.3-0.2c0.2,0,0.3,0,0.3-0.1
						c0,0.1-0.3,0-0.4,0c0.1-0.1-0.1-0.1-0.1-0.2L34,45.2c-0.2,0-0.2-0.1-0.2-0.1c0.1,0,0.1,0.1,0.2,0c-0.3-0.1,0.3-0.2,0.1-0.3
						c0.1-0.1,0.3,0,0.4-0.1c-0.2-0.1,0.2-0.1,0.1-0.3c-0.2,0-0.2,0-0.4,0l0.2,0.2l-0.3-0.1c0,0.1,0.2,0.1,0.1,0.2
						c-0.2-0.1-0.1-0.1-0.3,0c0.4-0.1-0.2-0.2,0-0.3h0.6c0.3-0.2-0.3-0.3-0.2-0.5L34.2,44c-0.2,0,0-0.1-0.1-0.2c0.2,0,0.3,0,0.4-0.1
						c-0.1,0,0-0.1-0.4-0.2l0.3-0.1c0.1-0.2-0.6-0.2-0.5-0.3c0.2,0,0.4,0,0.5,0.1c0-0.1,0-0.1-0.1-0.1c0.1,0-0.3-0.1-0.1-0.2
						c-0.1,0-0.3,0-0.3-0.1H34c-0.1,0-0.1-0.1-0.4,0c0.6-0.2,0-0.5,0.5-0.6C34,42.1,34,41.9,34,41.8c0.1,0,0.1,0,0.1,0
						c0.2-0.1-0.6-0.1-0.4-0.3c0.3-0.1,0.2,0.1,0.3,0c0.6,0-0.1-0.2,0.3-0.3l0,0c0.2-0.1-0.2-0.2-0.2-0.3h0.1
						c-0.3-0.1-0.4-0.3-0.5-0.4c0.3,0,0.1,0.1,0.4,0c0-0.1-0.4,0-0.5-0.1c0.1,0,0.3-0.1,0.5-0.1v0.1c0.4-0.1,0-0.1,0.1-0.2h0.2
						C34.3,40,34,40,34,39.8h-0.1c-0.4-0.1,0.2-0.1-0.1-0.2h0.4c-0.1-0.1-0.4-0.2-0.5-0.4c0.3,0.1,0.4,0.2,0.6,0.3
						c0-0.1,0-0.2-0.2-0.3l0.1,0.1c-0.3-0.1-0.5-0.2-0.5-0.3c0.8,0,0.2-0.3,0.8-0.4c-0.3-0.2,0.1-0.5,0.1-0.7
						c-0.6,0.1,0-0.1-0.6-0.1c0-0.1,0-0.1,0-0.1l0.4-0.2c0.2,0,0.1,0.1,0.3,0.1c0-0.1,0.3-0.1,0.4-0.1c-0.2,0-0.3,0-0.2-0.1
						l-0.3,0.1c-0.3-0.2,0.5-0.2,0.2-0.4l0.2,0.1c-0.1-0.1,0-0.4-0.5-0.5c0.1,0,0.2,0,0.3,0c0.1-0.2-0.5-0.5-0.2-0.7h0.1
						c0,0-0.3-0.1-0.1-0.1c0.1,0,0.1,0,0.2,0c-0.1,0-0.3-0.1-0.2-0.2l0.2,0.1c0.2-0.2-0.4-0.4-0.5-0.6c0.4,0,0.6-0.2,0.7-0.3h0.1
						c0.1-0.3-0.4-0.5-0.5-0.7c0.5-0.2,0.2-0.5,0.5-0.8c-0.1,0-0.3,0-0.4-0.1c0.1-0.1-0.3-0.2,0.1-0.2l0,0c0.4,0,0.3-0.2,0.3-0.3
						h-0.5c0.8-0.2-0.3-0.6,0.4-0.8c-0.1-0.1-0.1-0.1-0.3-0.2H35c0.1-0.2,0.1-0.2,0-0.5h0.2c0-0.1-0.8-0.1-0.8-0.3h0.4
						c0-0.2,0.4-0.4,0-0.6c0.1,0,0.2,0,0.2,0c0-0.1,0.3-0.4-0.3-0.3c0.4,0,0-0.2-0.1-0.3h0.3c-0.4-0.1-0.5-0.1-0.6-0.2h0.2
						c0.1-0.1-0.3-0.1-0.1-0.2h0.2c0-0.1-0.1-0.1-0.3-0.2c-0.1-0.1,0.1-0.2,0.3-0.2c-0.2,0-0.4-0.1-0.3-0.1c0.1,0,0.2,0,0.2,0
						c0.2-0.2-0.3-0.3-0.1-0.4c0.1,0,0.1,0,0.2,0c0,0.1,0,0.2,0,0.2c0.3,0,0.3-0.1,0.7,0c-0.2-0.1-0.6-0.2-0.5-0.4h0.1l0,0
						c0,0,0,0,0-0.1l0.1-0.1c0.2,0,0.1-0.1,0.1-0.2c-0.3,0-0.2-0.1-0.5,0l0,0l0,0l0,0V28c-0.1,0-0.3-0.1-0.1-0.2L34,27.7
						c0.4-0.1,0.6-0.2,0.8-0.2c-0.2-0.2-0.1-0.4-0.6-0.5c-0.1,0,0.2-0.1,0.2-0.1c0.1,0,0,0.1,0.1,0.1c-0.1-0.1-0.1-0.3-0.4-0.3
						c0.2-0.1,0.3,0.1,0.3-0.1h0.1c0.6-0.3-0.9-0.5-0.2-0.9h-0.1c0.3-0.4-0.3-0.9,0.2-1.3c0.1-0.1-0.1-0.1-0.3-0.2h0.3l-0.3-0.1
						c-0.3-0.2,0.7-0.3,0.3-0.5h-0.2c0-0.1-0.1-0.2,0.1-0.2c0,0-0.2,0-0.1-0.1h0.2l-0.3-0.2c0.1-0.1,0.6,0,0.7-0.2
						c-0.1-0.1-0.5-0.2-0.6-0.2c0,0-0.1,0.1-0.3,0.1l-0.1-0.1c-0.5,0-0.9-0.1-1.3,0.1l0.3,0.1h-0.2v-0.1c-0.2,0.1,0,0.1,0.1,0.1
						c-0.1,0-0.2,0-0.2,0.1l0.4,0.1c-0.2,0-0.4-0.1-0.5,0c0.2,0.1,0.4-0.1,0.5,0c-0.2,0.1-0.4,0-0.2,0.1c-0.1,0-0.2,0-0.2,0
						c0.1,0.1,0.1,0.2,0.3,0.2c-0.3,0.1,0.1,0.2-0.4,0.2c0.1,0,0.3,0.1,0.4,0.2c-0.5-0.1,0,0.2-0.6,0.2c0.5,0.1,0.2,0.3,0.5,0.4
						h-0.1c0,0.1-0.2,0.1-0.3,0.2c0.4,0,0.5,0.1,0.7,0.2c-0.4,0.1-0.5-0.1-0.8,0c0.3,0,0.3,0.2,0.6,0.1C32.6,25,32.7,25,32.4,25
						c0.5,0,0.1,0.1,0.4,0.1c-0.2,0.1-0.5,0-0.3,0.1C32.1,26,31.9,26,31.9,26z M32.7,28.7L32.7,28.7L32.7,28.7L32.7,28.7z M32.8,29
						v-0.1c0.1,0,0.2,0,0.2,0C32.9,29,32.8,29,32.8,29z M34.7,28.5L34.7,28.5C34.6,28.5,34.6,28.5,34.7,28.5L34.7,28.5
						C34.6,28.5,34.7,28.5,34.7,28.5z"/>
					<path class="st2" d="M34.3,28.5L34.3,28.5L34.3,28.5L34.3,28.5L34.3,28.5z"/>
					<path class="st2" d="M33.9,49.7L33.9,49.7L33.9,49.7L33.9,49.7z"/>
					<path class="st2" d="M32.2,32.2L32.2,32.2L32.2,32.2z"/>
					<path class="st2" d="M33,51C32.9,51,32.9,51,33,51C32.9,51,32.9,51,33,51z"/>
					<path class="st2" d="M32.9,51.5L32.9,51.5C32.8,51.5,32.9,51.5,32.9,51.5z"/>
					<polygon class="st2" points="32.7,52 32.9,52 32.9,52 					"/>
					<path class="st2" d="M32.4,45.1L32.4,45.1L32.4,45.1z"/>
					<path class="st2" d="M33.1,47.1C33,47.1,33,47.1,33.1,47.1C32.9,47.1,32.9,47.1,33.1,47.1z"/>
					<path class="st2" d="M32.1,42.9L32.1,42.9L32.1,42.9z"/>
					<path class="st2" d="M32.9,47L32.9,47C33,47,33,47,32.9,47z"/>
					<polygon class="st2" points="32.6,53.9 32.6,53.9 32.7,53.9 					"/>
					<path class="st2" d="M32.7,53.9L32.7,53.9L32.7,53.9z"/>
					<path class="st2" d="M32.8,54L32.8,54C32.7,54,32.7,54,32.8,54z"/>
					<path class="st2" d="M32.8,53.2L32.8,53.2C32.7,53.2,32.7,53.2,32.8,53.2z"/>
					<path class="st2" d="M32.7,53.1c0,0-0.2,0.1-0.2,0.2h0.1C32.5,53.2,32.9,53.1,32.7,53.1z"/>
					<path class="st2" d="M34,52.3L34,52.3c0,0.1,0.2,0,0.2,0.1C34.5,52.3,33.9,52.5,34,52.3z"/>
					<path class="st2" d="M34.1,52c0.1,0.1,0.2,0,0.2,0C34.3,51.9,34.2,51.9,34.1,52z"/>
					<path class="st2" d="M34.1,48.6h0.3C34.4,48.6,34.3,48.7,34.1,48.6z"/>
					<polygon class="st2" points="32.8,48 32.7,48.1 32.9,48.1 					"/>
					<polygon class="st2" points="34.6,47.7 34.7,47.7 34.6,47.6 					"/>
					<path class="st2" d="M34.5,42.2h-0.3C34.3,42.3,34.6,42.3,34.5,42.2z"/>
					<path class="st2" d="M34.2,40C34.4,40,34.5,39.9,34.2,40C34.3,39.9,34.2,39.9,34.2,40z"/>
					<polygon class="st2" points="34.7,32.9 34.8,33 34.8,32.9 					"/>
				</g>
			</g>
		</g>
	</g>
</g>
<g>
	<g>
		<g>
			<g>
				<g>
					<path class="st2" d="M33.8,17.3c0.1,0,0.3,0,0.2,0H33.8L33.8,17.3z"/>
					<path class="st2" d="M34.4,17.2c-0.2,0-0.4,0-0.7,0H34.4c-0.1,0-0.2,0-0.3,0c0.1,0-0.1,0,0.1,0c0.3,0,0.3,0,0.1-0.1
						C34.3,17.2,34.4,17.2,34.4,17.2z"/>
					<path class="st2" d="M35,15.7L35,15.7C34.9,15.7,35,15.7,35,15.7z"/>
					<path class="st2" d="M35.1,14.7C35.2,14.7,35.2,14.7,35.1,14.7C35.2,14.7,35.2,14.7,35.1,14.7z"/>
					<path class="st2" d="M35.5,14.5L35.5,14.5L35.5,14.5z"/>
					<path class="st2" d="M35,15.7L35,15.7C35,15.6,35,15.6,35,15.7z"/>
					<path class="st2" d="M33.6,17C33.7,17,33.7,17,33.6,17L33.6,17L33.6,17z"/>
					<polygon class="st2" points="35.2,16.1 35.2,16.1 35.4,16.1 					"/>
					<path class="st2" d="M35.3,16.5c0,0-0.3,0-0.4,0c0.1,0,0.2,0,0.2,0H35.3z"/>
					<path class="st2" d="M34.8,17L34.8,17L34.8,17z"/>
					<path class="st2" d="M35.3,15.9L35.3,15.9L35.3,15.9z"/>
					<path class="st2" d="M33.2,6.7L33.2,6.7L33.2,6.7z"/>
					<polygon class="st2" points="34.6,6.3 34.6,6.3 34.7,6.3 					"/>
					<path class="st2" d="M35.9,14.2L35.9,14.2L35.9,14.2z"/>
					<path class="st2" d="M35.7,11.5c-0.3,0-0.3-0.1-0.6,0C35.2,11.5,35.5,11.5,35.7,11.5z"/>
					<path class="st2" d="M33.7,17L33.7,17L33.7,17z"/>
					<polygon class="st2" points="35.1,11.5 35.1,11.5 35,11.5 					"/>
					<path class="st2" d="M35.7,13.5L35.7,13.5L35.7,13.5z"/>
					<path class="st2" d="M35.3,14L35.3,14L35.3,14z"/>
					<path class="st2" d="M35.3,13.3C35.3,13.2,35.4,13.2,35.3,13.3L35.3,13.3C35.3,13.2,35.3,13.2,35.3,13.3z"/>
					<path class="st2" d="M35.3,13L35.3,13L35.3,13z"/>
					<path class="st2" d="M33.3,7.6h0.3C33.4,7.5,33.3,7.5,33.3,7.6z"/>
					<path class="st2" d="M33.8,17C33.7,17,33.7,17,33.8,17L33.8,17L33.8,17z"/>
					<path class="st2" d="M33.1,13.2L33.1,13.2L33.1,13.2z"/>
					<path class="st2" d="M33.4,9.6L33.4,9.6C33.3,9.6,33.3,9.6,33.4,9.6z"/>
					<path class="st2" d="M33.1,13.1c0.1,0,0.2,0,0.2,0H33.1L33.1,13.1z"/>
					<path class="st2" d="M33.6,7.5L33.6,7.5L33.6,7.5z"/>
					<path class="st2" d="M32.9,7.2c0,0,0.4,0,0.6,0C33.6,7.3,33.2,7.2,32.9,7.2c0.2,0,0.5,0.1,0.5,0.1c-0.1,0-0.1,0-0.2,0
						c0.3,0,0,0.1,0.4,0.1h-0.1H34c0,0,0.2,0,0,0c0,0-0.1,0-0.2,0h0.1c-0.3,0-0.1,0-0.4,0c0.1,0,0.4,0.1,0.3,0.1
						c-0.3,0-0.1-0.1-0.4,0h0.1c-0.5,0,0,0-0.5,0c-0.1,0.1,0.2,0.1,0.1,0.1h0.5c0.3,0.1-0.9,0.1-0.4,0.1c0.2,0,0.7,0,0.4,0.1h-0.4
						c0,0.1,0.6,0,0.3,0.1c-0.2,0-0.1,0-0.2,0c-0.3,0,0.2,0,0.2,0.1h-0.3c0.1,0.1,0.3,0.1,0.4,0.2c-0.1,0-0.2,0-0.3,0
						c0.2,0.1,0,0.2-0.2,0.3h0.3c0,0-0.1,0-0.2,0s0.2,0,0.3,0c0,0-0.2,0-0.3,0c0.2,0.1,0.5,0.2,0.2,0.2h-0.1c-0.1,0,0.6,0.1,0.3,0.1
						h-0.1c-0.1,0.1,0.1,0.2-0.3,0.3c0.4,0-0.2,0.1,0.4,0.1c-0.3,0.1-0.4,0-0.6,0.1c0,0,0.4,0,0.4,0.1h-0.3h0.3H33h0.1
						c0,0,0.1,0,0.2,0c0.1,0-0.2,0.1-0.4,0.1l0.3,0.1c-0.1,0-0.2,0-0.2,0c0.3,0.1-0.3,0,0,0.1c0.1,0,0.2,0,0.2,0
						c-0.2,0-0.2,0.1-0.1,0.1h-0.2C32.8,9.9,33,9.9,33,10c0.1,0,0.5,0,0.5,0h-0.3c0.2,0,0.1,0,0.4,0c0,0-0.4,0-0.5,0h0.1h-0.3
						c0.2,0-0.3,0.1,0,0.1h-0.1c0,0.1,0.1,0.1,0.1,0.2c0.3,0,0.2,0,0.4,0c-0.1,0-0.3,0.1-0.3,0.2c0.1,0,0.2,0,0.4,0
						c-0.3,0-0.2,0.1-0.4,0c0,0.1,0.1,0.1,0.3,0.2c0.1,0,0.2,0,0.2,0s-0.1,0-0.2,0l0,0c0.4,0.1-0.7,0.2-0.2,0.3l0,0l0.3,0.1
						c0,0-0.2,0-0.4,0c0.4,0.1-0.1,0.1,0.2,0.2c-0.8,0.1,0.1,0.2-0.4,0.3H33c0.2,0-0.1,0-0.1,0c0.1,0,0.2,0,0.3,0
						c0.2,0.2-0.3,0.3-0.4,0.5c0,0.1,0.9,0,0.5,0.1H33c0.4,0.1,0,0.3,0.3,0.4c-0.1,0-0.2,0-0.2,0c-0.2,0,0,0.1,0.2,0.1
						c0,0-0.2,0-0.3,0s0.3,0.1,0.1,0.1H33c0.1,0,0,0.1,0.2,0.1c-0.1,0,0.1,0.1,0,0.1c0.3,0-0.1,0.1,0.3,0.1c-0.5,0-0.4,0.1-0.2,0.1
						c-0.1,0-0.1,0-0.3,0c0,0,0.1,0.1,0.3,0.1c-0.5,0.1,0.4,0.1-0.3,0.2c0.2,0.1,0.4,0.2,0.5,0.3c-0.5,0,0-0.1-0.5-0.1
						c0.2,0.1,0.6,0.1,0.5,0.2c-0.1,0-0.2,0-0.3,0c0.2,0.1,0,0.2,0.2,0.2h-0.1c0,0-0.1,0,0.1,0h-0.1c0.3,0,0.6,0.1,0.8,0.1
						c-0.6,0-0.1,0.1-0.9,0c0,0,0.1,0,0.3,0c0,0-0.1,0-0.3,0c0.1,0.1,0.3,0,0.3,0.1h-0.3c0.2,0,0.4,0,0.3,0.1c-0.1,0-0.1,0-0.1,0
						c0,0.1,0.5,0.1,0.3,0.2c-0.4,0-0.1,0-0.5,0h0.1h0.2c0,0,0.3,0.1,0.1,0.1h-0.2l0.1,0.1h0.1c0.2,0,0.5,0,0.4,0c0,0,0,0-0.2,0.1
						l0,0c0.1,0,0.2,0,0.2,0.1h-0.5c0.3,0,0.1,0.1,0.4,0.1c-0.1,0-0.3,0-0.3,0h0.3c-0.1,0-0.1,0-0.3,0c0,0,0.5,0,0.3,0h-0.1
						c-0.1,0.1,0.2,0.1,0,0.2c-0.4,0-0.1,0-0.4,0c0.1,0.1,0.4,0.2,0.4,0.2l0,0c0.5,0-0.3,0.1,0,0.1c0,0-0.3,0-0.2,0
						c-0.1,0.1,0.1,0.1,0.3,0.2h-0.1c-0.1,0-0.1,0.1-0.1,0.1c0.1,0,0.1,0,0.3,0c-0.8,0.1,0.4,0.2-0.2,0.3h-0.1l0.1,0.1
						c0.2,0,0.1,0,0.3,0c0.1,0,0.2,0,0.2,0.1c-0.2,0-0.4,0-0.5,0H34c-0.4,0,0.5,0,0.2,0.1h-0.1c0.1,0,0.2,0,0.2,0.1
						c-0.3,0-0.1,0-0.3,0c0,0,0.5,0.1,0.2,0.1c-0.1,0-0.1,0-0.1,0c-0.3,0-0.2,0-0.3,0.1l0,0l-0.1,0.1h0.1c0.7,0,0.1,0.1,0.6,0.1
						c-0.4-0.1-0.2,0-0.6,0c-0.1,0-0.2,0-0.3,0c0.2,0-0.2,0,0.2,0.1c-0.1,0,0,0-0.3,0c0.1,0,0.2,0,0.3,0c0.3,0.1-0.4,0.1,0.1,0.2
						c0.2,0.1,0.5,0.1,0.7,0.1c-0.2,0-0.4,0-0.4,0c-0.1,0-0.1,0.1,0,0.1c-0.1,0-0.2,0-0.3,0c0,0,0.4,0,0.2,0h-0.4l0.4,0.1
						c-0.2,0-0.3,0-0.4,0c0.1,0,0.2,0.1,0.4,0.1h0.1c0,0-0.2,0-0.3,0c-0.2,0,0.1,0,0.2,0h0.1c0.6,0-0.1-0.1-0.1-0.1h0.4h-0.3
						c0.1,0,0.3,0,0.4,0c0.2,0-0.1,0,0.1-0.1h0.1h-0.1c0.1,0,0.3,0,0.2,0c0.2-0.1-0.3-0.1,0-0.1l0,0c-0.1-0.1-0.3,0-0.7-0.1h0.8
						h-0.3c0,0,0,0,0.2,0c-0.2,0-0.1,0-0.3,0c0.3,0-0.1-0.1,0.4-0.1c-0.2,0-0.2,0-0.3,0c0.5,0-0.1,0,0.2-0.1c0.3,0,0.1,0,0.4,0
						c-0.5,0,0.1-0.1,0-0.1c-0.4,0-0.2-0.1-0.3-0.1c0.1,0,0.2-0.1,0.3-0.1h0.1c-0.4,0-0.3-0.1-0.4-0.1c0.2,0,0.3,0,0.4,0l0,0
						c-0.1,0-0.2,0-0.2,0h0.3c0,0-0.3-0.1-0.1-0.1c-0.3,0-0.7,0-0.9,0c0.1,0,0.4,0,0.4,0h-0.1h0.2c0.1,0-0.2,0-0.2,0
						c0.2,0,0.1,0,0.3,0c0,0-0.1,0,0,0c0,0,0.2,0,0.3-0.1c-0.1,0-0.3,0-0.3,0s0.2,0,0.3,0c-0.1,0,0,0-0.3,0c0,0,0.1,0,0.2,0
						c-0.1,0,0-0.1-0.4-0.1l0,0l0,0l0,0l0,0c-0.3-0.1,0.2-0.1,0-0.2h0.1c-0.1,0-0.1-0.1-0.3-0.1c0,0,0.2,0,0.3,0c-0.1,0-0.2,0,0-0.1
						c0.2,0,0.2,0,0.1,0c0.1,0,0.2,0,0-0.1c0.3,0,0.3,0,0.2,0H35c0,0,0,0,0-0.1h0.3c0.4-0.1-0.7-0.1,0-0.2c-0.2,0-0.2,0-0.4,0
						l0.5-0.1c0.2-0.1-0.5,0-0.4-0.1c-0.1,0-0.4,0-0.5,0c0,0,0.5,0,0.6,0c0,0,0,0-0.1,0c0,0,0.1,0,0.2,0h-0.1c0.1,0,0.1-0.1,0.3-0.1
						c-0.1,0-0.2,0-0.3,0c0.2,0,0-0.1,0.1-0.1c-0.1,0-0.2,0-0.2,0c0.1-0.1-0.2,0-0.3-0.1c0.2,0,0.4,0,0.3,0c0.1,0,0.3,0,0.4,0
						c-0.2,0,0.2-0.1,0.2-0.1h0.1c-0.1,0-0.1,0-0.1,0h-0.2c0,0,0,0,0.1,0c-0.2,0-0.4,0-0.6,0c0.1,0-0.1-0.1,0.2-0.1
						c-0.1,0.1,0.3,0,0.4,0l0,0h0.1c0.3-0.1-0.4,0-0.3-0.1c0.2,0,0.3,0,0.3,0s-0.3,0-0.4,0c0.1,0-0.1,0-0.1-0.1H35
						c-0.2,0-0.2,0-0.2-0.1c0.1,0,0.1,0,0.2,0c-0.3,0,0.3-0.1,0.1-0.1c0.1,0,0.3,0,0.4,0c-0.2,0,0.2,0,0.1-0.1c-0.2,0-0.2,0-0.4,0
						l0.2,0.1h-0.3c0,0,0.2,0,0.1,0.1c-0.2,0-0.1,0-0.3,0c0.4,0-0.2-0.1,0-0.1h0.6c0.3-0.1-0.3-0.1-0.2-0.2h-0.1c-0.2,0,0,0-0.1-0.1
						c0.2,0,0.3,0,0.4,0c-0.1,0,0-0.1-0.4-0.1h0.3c0.1-0.1-0.6-0.1-0.5-0.1c0.2,0,0.4,0,0.5,0c0,0,0,0-0.1,0c0.1,0-0.3-0.1-0.1-0.1
						c-0.1,0-0.3,0-0.3,0H35c-0.1,0-0.1,0-0.4,0c0.6-0.1,0-0.2,0.5-0.2c-0.1,0-0.1-0.1-0.1-0.1c0.1,0,0.1,0,0.1,0
						c0.2-0.1-0.6,0-0.4-0.1c0.3,0,0.2,0,0.3,0c0.6,0-0.1-0.1,0.3-0.1l0,0c0.2,0-0.2-0.1-0.2-0.1h0.1c-0.3,0-0.4-0.1-0.5-0.1
						c0.3,0,0.1,0,0.4,0c0,0-0.4,0-0.5,0c0.1,0,0.3,0,0.5,0l0,0c0.4,0,0-0.1,0.1-0.1h0.2C35.3,13,35,13,35,13h-0.1
						c-0.4,0,0.2,0-0.1-0.1h0.4c-0.1,0-0.4-0.1-0.5-0.1c0.3,0,0.4,0.1,0.6,0.1c0,0,0-0.1-0.2-0.1h0.1c-0.3,0-0.5-0.1-0.5-0.1
						c0.8,0,0.2-0.1,0.8-0.2c-0.3-0.1,0.1-0.2,0.1-0.3c-0.6,0,0,0-0.6,0l0,0l0.4-0.1c0.2,0,0.1,0,0.3,0c0,0,0.3,0,0.4-0.1
						c-0.2,0-0.3,0-0.2,0h-0.3c-0.3-0.1,0.5-0.1,0.2-0.1H36c-0.1,0,0-0.1-0.5-0.2c0.1,0,0.2,0,0.3,0c0.1-0.1-0.5-0.2-0.2-0.3h0.1
						c0,0-0.3,0-0.1,0c0.1,0,0.1,0,0.2,0c-0.1,0-0.3,0-0.2-0.1h0.2c0.2-0.1-0.4-0.1-0.5-0.2c0.4,0,0.6-0.1,0.7-0.1h0.1
						c0.1-0.1-0.4-0.2-0.5-0.3c0.5-0.1,0.2-0.2,0.5-0.3c-0.1,0-0.3,0-0.4,0c0.1,0-0.3-0.1,0.1-0.1l0,0c0.4,0,0.3-0.1,0.3-0.1h-0.5
						c0.8-0.1-0.3-0.2,0.4-0.3c-0.1,0-0.1,0-0.3-0.1H36c0.1-0.1,0.1-0.1,0-0.2h0.2l-0.8-0.1h0.4c0-0.1,0.4-0.1,0-0.2
						c0.1,0,0.2,0,0.2,0s0.3-0.1-0.3-0.1c0.4,0,0-0.1-0.1-0.1h0.3c-0.4,0-0.5,0-0.6-0.1h0.2c0.1,0-0.3,0-0.1-0.1h0.2
						c0,0-0.1,0-0.3-0.1c-0.1,0,0.1-0.1,0.3-0.1c-0.2,0-0.4,0-0.3,0c0.1,0,0.2,0,0.2,0c0.2-0.1-0.3-0.1-0.1-0.1c0.1,0,0.1,0,0.2,0
						c0,0.1,0,0.1,0,0.1c0.3,0,0.3,0,0.7,0c-0.2,0-0.6-0.1-0.5-0.1h0.1l0,0l0,0H36c0.2,0,0.1,0,0.1-0.1c-0.3,0-0.2,0-0.5,0l0,0l0,0
						l0,0l0,0c-0.1,0-0.3,0-0.1-0.1H35c0.4,0,0.6-0.1,0.8-0.1c-0.2-0.1-0.1-0.1-0.6-0.2c-0.1,0,0.2,0,0.2,0c0.1,0,0,0,0.1,0
						c-0.1,0-0.1-0.1-0.4-0.1c0.2,0,0.3,0,0.3,0h0.1c0.6-0.1-0.9-0.2-0.2-0.3h-0.1c0.3-0.1-0.3-0.3,0.2-0.5c0.1,0-0.1,0-0.3-0.1h0.3
						h-0.3C34.8,7,35.8,7,35.4,6.9h-0.2c0,0-0.1-0.1,0.1-0.1c0,0-0.2,0-0.1,0h0.2l-0.3-0.1c0.1-0.1,0.6,0,0.7-0.1
						c-0.1,0-0.5-0.1-0.6-0.1c0,0-0.1,0-0.3,0h-0.1c-0.5,0-0.9,0-1.3,0h0.3h-0.2l0,0c-0.2,0,0,0,0.1,0.1c-0.1,0-0.2,0-0.2,0h0.4
						c-0.2,0-0.4,0-0.5,0c0.2,0,0.4,0,0.5,0c-0.2,0-0.4,0-0.2,0c-0.1,0-0.2,0-0.2,0c0.1,0,0.1,0.1,0.3,0.1c-0.3,0,0.1,0.1-0.4,0.1
						c0.1,0,0.3,0,0.4,0.1c-0.5,0,0,0.1-0.6,0.1c0.5,0,0.2,0.1,0.5,0.2h-0.1c0,0-0.2,0-0.3,0.1c0.4,0,0.5,0,0.7,0.1
						c-0.4,0-0.5,0-0.8,0c0.3,0,0.3,0.1,0.6,0c-0.2,0-0.1,0-0.4,0c0.5,0,0.1,0,0.4,0c-0.2,0-0.5,0-0.3,0.1
						C33.1,7.3,32.9,7.2,32.9,7.2z M33.7,8.2L33.7,8.2L33.7,8.2L33.7,8.2z M33.8,8.3L33.8,8.3c0.1,0,0.2,0,0.2,0
						C33.9,8.3,33.8,8.3,33.8,8.3z M35.7,8.1C35.7,8.2,35.7,8.2,35.7,8.1C35.6,8.1,35.6,8.1,35.7,8.1L35.7,8.1L35.7,8.1z"/>
					<path class="st2" d="M35.3,8.1L35.3,8.1L35.3,8.1L35.3,8.1L35.3,8.1z"/>
					<path class="st2" d="M34.9,15.7L34.9,15.7L34.9,15.7z"/>
					<path class="st2" d="M33.2,9.5L33.2,9.5L33.2,9.5z"/>
					<path class="st2" d="M34,16.1L34,16.1L34,16.1z"/>
					<path class="st2" d="M33.9,16.3L33.9,16.3C33.8,16.3,33.9,16.3,33.9,16.3z"/>
					<polygon class="st2" points="33.7,16.5 33.9,16.5 33.9,16.5 					"/>
					<path class="st2" d="M33.4,14.1C33.4,14.1,33.4,14,33.4,14.1C33.4,14,33.4,14,33.4,14.1z"/>
					<path class="st2" d="M34.1,14.9L34.1,14.9C33.9,14.9,33.9,14.9,34.1,14.9z"/>
					<path class="st2" d="M33.1,13.2L33.1,13.2L33.1,13.2z"/>
					<path class="st2" d="M33.9,14.7L33.9,14.7C34,14.7,34,14.7,33.9,14.7z"/>
					<polygon class="st2" points="33.6,17.1 33.6,17.1 33.7,17.1 					"/>
					<path class="st2" d="M33.7,17.1L33.7,17.1L33.7,17.1z"/>
					<path class="st2" d="M33.8,17.2L33.8,17.2C33.7,17.2,33.7,17.2,33.8,17.2z"/>
					<path class="st2" d="M33.8,17L33.8,17L33.8,17z"/>
					<path class="st2" d="M33.7,17c0,0-0.2,0-0.2,0.1L33.7,17C33.5,17,33.9,17,33.7,17z"/>
					<path class="st2" d="M35,16.6L35,16.6c0,0,0.2,0,0.2,0.1C35.5,16.6,34.9,16.7,35,16.6z"/>
					<path class="st2" d="M35.1,16.5c0.1,0,0.2,0,0.2,0S35.2,16.5,35.1,16.5z"/>
					<path class="st2" d="M35.1,15.3h0.3C35.4,15.3,35.3,15.3,35.1,15.3z"/>
					<polygon class="st2" points="33.8,15.1 33.7,15.1 33.9,15.1 					"/>
					<path class="st2" d="M35.6,15L35.6,15L35.6,15z"/>
					<path class="st2" d="M35.5,13h-0.3C35.3,13,35.6,13,35.5,13z"/>
					<path class="st2" d="M35.2,12.2C35.4,12.2,35.5,12.2,35.2,12.2L35.2,12.2z"/>
					<polygon class="st2" points="35.7,9.7 35.8,9.7 35.8,9.7 					"/>
				</g>
			</g>
		</g>
	</g>
</g>
<g>
	<g>
		<g>
			<g>
				<g>
					<path class="st2" d="M59.9,12.1c-0.1,0-0.3,0.1-0.2,0.2L59.9,12.1L59.9,12.1z"/>
					<path class="st2" d="M59.6,12.9c0.2,0,0.5,0,0.7-0.2c-0.3,0.1-0.2,0-0.6,0.1c-0.1-0.1,0-0.2,0.2-0.2c-0.1,0,0-0.1-0.2-0.1
						c-0.2,0.2-0.1,0.3,0.1,0.3C59.7,12.7,59.6,12.9,59.6,12.9z"/>
					<path class="st2" d="M62.4,19.7L62.4,19.7C62.4,19.6,62.4,19.6,62.4,19.7z"/>
					<path class="st2" d="M64.2,23.7L64.2,23.7L64.2,23.7z"/>
					<path class="st2" d="M64,24.1L64,24.1L64,24.1z"/>
					<path class="st2" d="M62.4,19.7v0.2C62.5,19.9,62.4,19.7,62.4,19.7z"/>
					<path class="st2" d="M60.7,13.3L60.7,13.3L60.7,13.3L60.7,13.3z"/>
					<polygon class="st2" points="61.3,18 61.3,18 61.1,18 					"/>
					<path class="st2" d="M60.5,16.6c0,0,0.3-0.1,0.4-0.1c-0.1,0-0.2,0-0.2,0S60.6,16.5,60.5,16.6z"/>
					<path class="st2" d="M59.9,14.2L59.9,14.2L59.9,14.2z"/>
					<path class="st2" d="M61.7,19C61.7,19,61.6,19,61.7,19L61.7,19z"/>
					<path class="st2" d="M35.2,26.6L35.2,26.6C35.2,26.5,35.2,26.5,35.2,26.6z"/>
					<polygon class="st2" points="35.4,24.3 35.4,24.3 35.6,24.2 					"/>
					<path class="st2" d="M63.5,24.2L63.5,24.2C63.4,24.2,63.4,24.2,63.5,24.2z"/>
					<path class="st2" d="M52.2,29.6c0.2,0.2-0.1,0.4,0.2,0.6C52.4,30,52.4,29.6,52.2,29.6z"/>
					<path class="st2" d="M60.7,13.5C60.7,13.5,60.8,13.5,60.7,13.5C60.8,13.5,60.7,13.5,60.7,13.5z"/>
					<polygon class="st2" points="52.4,30.1 52.4,30.1 52.5,30.1 					"/>
					<path class="st2" d="M61.2,25.5L61.2,25.5L61.2,25.5z"/>
					<path class="st2" d="M63.6,24.9L63.6,24.9C63.5,24.9,63.5,24.9,63.6,24.9z"/>
					<path class="st2" d="M60.2,26.3C60.1,26.3,60.1,26.3,60.2,26.3C60.1,26.3,60.1,26.5,60.2,26.3C60.1,26.3,60.1,26.3,60.2,26.3z"
						/>
					<path class="st2" d="M59,27L59,27L59,27z"/>
					<path class="st2" d="M37.5,30c0.1-0.1,0.1-0.1,0.2-0.2C37.5,29.9,37.3,29.7,37.5,30z"/>
					<path class="st2" d="M60.6,13.5C60.7,13.5,60.7,13.5,60.6,13.5L60.6,13.5C60.7,13.5,60.6,13.5,60.6,13.5z"/>
					<path class="st2" d="M61,28.5l-0.2,0.1C60.9,28.5,61,28.5,61,28.5z"/>
					<path class="st2" d="M45,35.5L45,35.5L45,35.5z"/>
					<path class="st2" d="M60.3,28.7c-0.1-0.1-0.1-0.1-0.2-0.1c0,0,0,0,0,0.1H60.3z"/>
					<path class="st2" d="M37.7,29.7L37.7,29.7L37.7,29.7z"/>
					<path class="st2" d="M36.3,29c0.1,0.2,0.4-0.1,0.6-0.2c0.2,0.1-0.2,0.2-0.3,0.4c0.2,0.1,0.5,0,0.6,0.1l-0.1,0.1
						c0.3,0,0.3,0.4,0.7,0.3c0,0,0,0.1-0.1,0.1c0.1-0.1,0.3-0.2,0.4-0.3c0.1,0.1,0.3,0,0.1,0.2c0,0-0.1,0-0.2,0h0.1
						c-0.2,0.3-0.2,0-0.4,0.1c0.2,0.1,0.6,0.1,0.5,0.3c-0.3,0.2-0.3-0.2-0.4,0.1v-0.3c-0.4,0.4,0-0.1-0.4,0.3
						c0.1,0.3,0.3,0.2,0.4,0.5c0.2,0,0.2-0.2,0.4-0.2c0.5,0.2-0.5,0.7,0,0.7c0.2-0.1,0.6-0.3,0.5,0l-0.4,0.1
						c0.1,0.3,0.6-0.2,0.5,0.2c-0.2,0-0.2-0.1-0.2-0.1c-0.2,0.3,0.3,0,0.3,0.1l-0.3,0.2c0.2,0.2,0.6,0.4,0.8,0.6
						c-0.1,0-0.2,0-0.3,0.2c0.4,0.3,0.4,0.8,0.5,1.2h0.3l-0.1,0.1c0,0.2,0.2-0.1,0.3-0.1c0.1,0.1-0.1,0.2-0.2,0.2
						c0.2,0.1,0.4,0.1,0.6,0.3c0.1,0.1,0.1,0.1,0.2,0.2c0.1,0.1,0.1,0.3,0.1,0.4h-0.1c0.1,0.4,0.6-0.1,0.6,0.4h-0.1
						c0.2,0.4,0.5,0.8,0.7,1.1c0.3-0.1,0.5-0.1,0.7,0C42.7,36,42.8,36,43,36s0.3-0.1,0.3-0.4c0.2,0.1,0.3,0.1,0.4,0.2
						c0.1,0.1,0.3,0,0.5,0c0.1,0,0-0.4,0.1-0.5l0.1,0.3v-0.4l0.2,0.3l0.1-0.1c-0.1,0-0.2-0.1-0.2-0.2c0.1-0.2,0.5,0,0.6,0.1l0.3-0.4
						c0,0.1,0,0.2,0,0.3c0.1-0.4,0.2,0.3,0.3-0.1c-0.1-0.1-0.1-0.2-0.1-0.2c0.2,0.1,0.4,0,0.5-0.1l0.1,0.2c0.3-0.1,0.6-0.4,0.9-0.5
						c-0.2,0-0.3-0.4-0.2-0.5l0.2,0.3c0-0.2-0.2-0.1-0.1-0.3c0.1,0,0.2,0.3,0.2,0.4l0.1-0.2c0,0.1,0,0.1,0.1,0.3
						c0-0.2,0.4,0.2,0.4-0.2v0.1c0.3-0.2,0.5-0.3,0.7-0.5c-0.1-0.3,0-0.3,0-0.5c0.2,0,0.6,0.1,0.8,0c0.1-0.2,0-0.2,0-0.4
						c0.1,0.2,0.4,0.1,0.3,0.3c0.3-0.2,0.4-0.2,0.6-0.6c-0.1-0.1-0.1-0.1-0.2-0.2c0.1-0.1,0.2,0,0.2,0.1l0,0
						c0.3-0.5,1.3,0.2,1.4-0.4l0,0l0.2-0.4c0.2,0,0,0.2,0.2,0.3c0.2-0.6,0.6-0.2,0.8-0.6c0.6,0.6,0.8-0.4,1.3-0.1L54,31.2
						c0-0.2,0.1,0,0.2,0.1c-0.1-0.1-0.2-0.1-0.1-0.2c0.6-0.5,1.6-0.4,2.4-0.6c0.3-0.1-0.2-0.9,0.3-0.7v0.3c0.4-0.6,1.1-0.5,1.5-1
						c0,0.1,0,0.2,0,0.2c0.2,0.2,0.4-0.2,0.3-0.4c0.1,0,0.1,0.2,0.2,0.2c0.2,0.1,0.2-0.4,0.3-0.2V29c0-0.1,0.3-0.1,0.2-0.3
						c0.3,0,0.3-0.3,0.5-0.2c0-0.3,0.4,0,0.2-0.4c0.2,0.4,0.5,0.2,0.5-0.1c0,0.1,0.2,0.1,0.2,0.3c0.1-0.1,0.2-0.2,0.1-0.4
						c0.5,0.4,0.3-0.6,0.8-0.1c0.3-0.4,0.6-0.7,1-1c0.2,0.4-0.4,0.2-0.2,0.7c0.3-0.3,0.3-0.8,0.7-0.8c0.1,0,0,0.2,0,0.3
						c0.1-0.2,0.3-0.2,0.5-0.3c0.2-0.1,0.3-0.1,0.5-0.4c0,0,0,0.1,0,0.2c0.1-0.1,0.3-0.1,0.1-0.2l-0.1,0.1c-0.3-0.2,0-0.7-0.1-0.8
						c0.3,0.5,0.5-0.1,0.8,0.6c0-0.1,0-0.2-0.1-0.3c0.1,0,0.2,0,0.3,0.2c0.3-0.2-0.1-0.3,0.2-0.5c0.1,0.1,0.1,0.1,0.2,0.2
						c0-0.2-0.1-0.4,0.2-0.4c0.1,0,0.2,0.1,0.1,0.1c0.2-0.1,0.2-0.2,0.2-0.3c-0.3-0.3-0.6-0.5-0.6-0.7c0.6,0.2,0.1-0.1,0.5-0.1
						l-0.3-0.3l-0.2,0.1c-0.1-0.2-0.5-0.4-0.4-0.6l0.2,0.1l-0.3-0.4v0.3c-0.3-0.2-0.5,0.1-0.5-0.1c0.1,0-0.1-0.2,0.1-0.4l0,0
						c-0.2,0-0.3,0-0.3-0.2c0.1-0.1,0.4-0.2,0.4-0.2c-0.3,0.1-0.3-0.3-0.6-0.3c0.1,0,0.3-0.1,0.3-0.1l-0.3,0.1
						c0-0.1,0.1-0.1,0.2-0.2c-0.1-0.2-0.4,0.3-0.3-0.1h0.1c0-0.3-0.4-0.4-0.4-0.7c0.3-0.2,0.2,0.2,0.4-0.1c-0.2-0.3-0.7-0.5-0.8-0.8
						v0.1c-0.5,0.2,0.1-0.4-0.2-0.4c0.1,0,0.3-0.1,0.2-0.1c0-0.3-0.3-0.4-0.7-0.6h0.1c0-0.2-0.1-0.4-0.1-0.5c-0.1,0-0.2-0.1-0.3,0.1
						c0.5-0.8-0.8-0.6-0.4-1.3c0,0,0.2,0.1,0.1,0l-0.3-0.3c-0.2,0.1-0.1,0.1-0.2,0.3c-0.1,0-0.3,0-0.3-0.1c0.2,0.1,0.3-0.2,0.4-0.3
						c-0.1,0-0.1,0.1-0.2,0.1c0.3-0.4-0.4,0.2-0.3-0.2H61c-0.1-0.1-0.3-0.1-0.3-0.2c0.2-0.2,0.2,0,0.4-0.1c-0.1-0.1-0.6,0-0.4-0.3
						c0.1,0,0.1,0.1,0.2,0.1c0.2-0.3,0.1-0.2,0.1-0.4l0,0v-0.3v0.1c-0.7,0.1-0.3-0.3-0.8-0.3c0.5,0,0.2-0.1,0.5-0.2
						c0-0.1,0.1-0.2,0.2-0.2c-0.3,0,0.1-0.3-0.3-0.2c0.1-0.1,0-0.1,0.2-0.2c-0.1-0.1-0.1,0.1-0.3,0.1c-0.4-0.1,0.1-0.7-0.4-0.8
						c-0.3-0.2-0.6-0.1-0.9-0.2c0.1-0.2,0.4-0.1,0.4-0.1c0.1-0.2,0-0.3-0.2-0.4c0.1,0,0.1-0.1,0.2-0.2c-0.1-0.1-0.4,0.1-0.3-0.1
						c0.1,0,0.3-0.1,0.4-0.1c-0.1-0.1-0.4-0.1-0.5-0.2c0.1-0.1,0.3,0,0.4,0c-0.1-0.1-0.3-0.3-0.6-0.2V13c0,0,0.2-0.1,0.3-0.1
						c0.2,0,0,0.2-0.1,0.3l-0.1-0.1c-0.5,0.3,0.3,0.3,0.3,0.5L59,13.7h0.4c-0.1,0.1-0.3,0.2-0.4,0.2c-0.1,0.2,0.2,0,0,0.3
						c0,0,0,0-0.1,0l0.2,0.1c-0.1,0-0.3,0.2-0.2,0.1c-0.1,0.3,0.5,0.2,0.2,0.4l0,0c0.3,0.2,0.3-0.1,0.7,0l-0.6,0.5l0.3-0.1
						c0,0,0,0.1-0.1,0.2c0.2,0,0.1-0.1,0.3-0.1c-0.2,0.3,0.3,0.4-0.1,0.6c0.2-0.1,0.1-0.2,0.3-0.1c-0.4,0.3,0.2,0.1,0,0.4
						c-0.3,0.1-0.2-0.1-0.3,0.1c0.5-0.1,0,0.3,0.2,0.4c0.3-0.2,0.3,0.2,0.5,0.3c-0.1,0,0,0.5,0,0.7h-0.1c0.3-0.1,0.4,0.1,0.5,0.2
						C60.5,18,60.4,18,60.3,18l0.1,0.1c0.1,0,0.2,0,0.3,0.1l-0.3,0.1c0.1,0.2,0.5,0.2,0.4,0.5c0.2-0.1,0.6-0.5,0.8-0.3
						c-0.1,0.1-0.3,0.2-0.4,0.1c0,0,0.1,0,0.1,0.1H61c0,0.1,0.2,0,0.2,0.1C61,18.9,61.1,18.9,61,19v-0.1c0,0.1,0,0.3-0.2,0.4
						c0.1-0.1,0.2-0.1,0.3-0.1c0.1,0.2-0.2,0.2-0.2,0.3c0.1,0,0.1,0.2,0.3,0c0,0.1-0.1,0.1-0.2,0.2c0.2,0,0.2,0.4,0.5,0.2l0,0l0,0
						l0,0l0,0c0.4,0.2,0.1,0.7,0.4,0.9h-0.1c0.2,0.1,0.2,0.4,0.5,0.4c0,0.1-0.1,0.2-0.2,0.2c0.1,0.1,0.2,0.1,0.2,0.3
						c-0.2-0.1-0.1,0.1-0.2-0.1c0,0.2-0.1,0.3,0.2,0.4c-0.3,0.1-0.2,0.3-0.1,0.3l0.1-0.2c0.1,0.1,0.1,0.2,0.1,0.3l-0.3,0.1
						c-0.2,0.5,0.9,0.3,0.5,0.9c0.3,0,0.1-0.3,0.3-0.3c0,0.2-0.3,0.6-0.3,0.6c-0.1,0.3,0.5,0,0.5,0.2c0.1-0.1,0.4-0.2,0.6-0.1
						c0,0.2-0.4,0.2-0.6,0.2c0,0,0,0,0.1,0c-0.1,0-0.1,0-0.2,0h0.1c-0.1,0.1,0,0.2-0.3,0.2c0.1,0,0.2,0,0.3,0
						c-0.1,0.1,0.1,0.2,0,0.2c0.1,0,0.2,0,0.2,0c-0.1,0.1,0.3,0.1,0.5,0.3c-0.2,0-0.6-0.2-0.3,0c0,0-0.1,0-0.2,0h-0.1l-0.3-0.1
						c0.1,0,0.1,0,0.1,0.1s-0.4-0.1-0.4-0.1l-0.1-0.1c0.1,0,0,0,0,0l0.3,0.1c-0.1,0-0.1,0-0.2-0.1c0.1,0.1,0.4,0.2,0.6,0.4
						c-0.2-0.1,0,0.2-0.3-0.1c0.2,0-0.3-0.2-0.3-0.3l0,0c0,0-0.1,0-0.1-0.1c-0.3-0.2,0.3,0.3,0.2,0.3c-0.1-0.1-0.2-0.3-0.2-0.2
						c0,0,0.2,0.2,0.2,0.4c-0.2-0.1,0,0.1-0.1,0.1h0.1c0.1,0.2,0,0.2-0.1,0.3c-0.1-0.1,0.1-0.1,0-0.2c0,0.3-0.4-0.2-0.5,0.1
						c-0.1-0.1-0.1-0.3-0.3-0.3c-0.1,0.3-0.3-0.1-0.4,0.1c0.2,0.2,0.1,0.1,0.1,0.4l0.3-0.3l-0.1,0.4c0.1,0,0.2-0.2,0.2-0.2
						c0,0.2,0,0.2,0.1,0.3c-0.3-0.3-0.2,0.3-0.5,0.2l-0.2-0.5c-0.4-0.1-0.3,0.5-0.7,0.5h0.1c0.1,0.2-0.2,0.1-0.2,0.3
						c-0.1-0.2-0.2-0.2-0.3-0.3c0.1,0.1-0.2,0.1-0.1,0.5l-0.2-0.2c-0.3,0-0.1,0.6-0.3,0.7c0-0.2-0.2-0.3-0.1-0.5
						c-0.1,0-0.2,0-0.1,0.2c-0.1-0.1-0.1,0.3-0.3,0.2c0,0.1,0.1,0.3,0,0.3v-0.1c0,0.1-0.1,0.2,0.1,0.3c-0.5-0.4-0.7,0.4-1.1,0
						c-0.2,0.1-0.3,0.3-0.5,0.4c0-0.1,0-0.1,0-0.1c-0.3-0.1,0.1,0.6-0.2,0.5c-0.3-0.2,0.1-0.2-0.1-0.3c-0.3-0.6-0.3,0.2-0.6,0v-0.1
						c-0.2-0.1-0.2,0.4-0.4,0.4v-0.1c0,0.4-0.2,0.6-0.4,0.8c0-0.3,0-0.2-0.1-0.4c-0.1,0.1,0.2,0.4,0,0.5c-0.1-0.1-0.3-0.1-0.4-0.4
						l0.2-0.1c-0.2-0.3-0.2,0.1-0.3,0.1l-0.1-0.1c-0.2,0.2-0.1,0.5-0.4,0.6l0.1,0.1c0,0.4-0.2-0.1-0.3,0.2l-0.2-0.3
						c-0.1,0.1-0.2,0.5-0.4,0.7c0-0.3,0.1-0.5,0.2-0.8c-0.1,0-0.3,0.2-0.3,0.4c0-0.1,0-0.2,0.1-0.1c0,0.3-0.1,0.6-0.3,0.6
						c-0.3-0.7-0.6,0.1-1-0.4c-0.2,0.4-0.8,0.2-1.2,0.4c0.4,0.5-0.1,0.1,0.2,0.6c-0.1,0.1-0.1,0.1-0.1,0.1l-0.4-0.2
						c-0.1-0.1,0-0.2,0-0.3C51,30,51,29.7,50.8,29.6c0.1,0.2,0.1,0.3-0.1,0.3l0.3,0.2c-0.2,0.4-0.5-0.4-0.6,0.1V30
						c-0.1,0.2-0.6,0.3-0.5,0.8c-0.1-0.1-0.2-0.2-0.1-0.3c-0.4,0.1-0.6,0.9-1,0.7v-0.1c-0.1,0.1,0,0.3-0.2,0.2c0-0.1,0-0.1-0.1-0.1
						c0,0.1-0.1,0.3-0.2,0.3v-0.2c-0.4,0-0.4,0.6-0.6,0.9c-0.2-0.4-0.5-0.4-0.7-0.4v-0.1c-0.4,0.1-0.6,0.7-0.9,1
						c-0.4-0.3-0.9,0.2-1.4,0.1c0.1,0,0.1,0.3,0.1,0.4c-0.1,0-0.1,0.4-0.3,0l0,0c-0.2-0.3-0.4-0.1-0.5-0.1l0.2,0.5
						c-0.7-0.5-0.9,0.7-1.4,0.2c0,0.2-0.2,0.2-0.2,0.4l-0.1-0.3c-0.2,0-0.1-0.1-0.2,0.1v-0.2c0,0-0.1,0.9-0.2,1v-0.5
						c0,0-0.1,0-0.1-0.1c0-0.2,0-0.2-0.2-0.1c0-0.1,0.1-0.2,0.1-0.2c0-0.1,0.1-0.3-0.3,0.1c0.3-0.3,0-0.1-0.3-0.2l0.2-0.1
						c-0.4,0.1-0.5,0.1-0.7,0c0-0.1,0.2-0.2,0.1-0.1c0-0.2-0.3,0-0.3-0.2h0.2c-0.1-0.2-0.1-0.1-0.4-0.1c-0.2,0-0.1-0.3,0.1-0.5
						c-0.1,0.1-0.4,0.1-0.4,0c0.1-0.1,0.1-0.1,0.2-0.1c0-0.4-0.5-0.2-0.4-0.5c0.1-0.1,0.1-0.1,0.1-0.1c0.1,0.2,0.2,0.4,0.2,0.4
						c0.2-0.1,0.2-0.3,0.5-0.4c-0.2,0-0.7,0-0.7-0.2c0,0,0,0,0.1-0.1l0,0c0,0,0-0.1-0.1-0.1c0-0.1,0-0.1,0-0.2
						c0.2-0.1,0-0.2-0.1-0.3c-0.2,0.2-0.3,0-0.4,0.3c0,0,0,0,0.1,0l0,0l0,0l0.1,0.2c-0.2,0-0.3,0-0.2-0.2L39,31.6
						c0.3-0.3,0.3-0.6,0.5-0.8c-0.3-0.2-0.5-0.5-1-0.4c-0.1,0,0.1-0.2,0.1-0.2c0.1,0,0.1,0.1,0.2,0c-0.2-0.1-0.3-0.4-0.6-0.2
						c0-0.3,0.3-0.1,0.1-0.3h0.1c0.2-0.8-1.3-0.3-1-1.2c0,0.1,0,0.1-0.1,0.1c-0.1-0.8-1-1.1-1-1.9c0-0.2-0.2-0.1-0.4-0.1l0.2-0.2
						h-0.4c-0.4-0.1,0.4-0.8-0.3-0.9l-0.1,0.2c0-0.1-0.3-0.3-0.1-0.4c0,0-0.2,0.1-0.1,0l0.1-0.1l-0.4-0.1c0-0.3,0.5-0.3,0.4-0.6
						c-0.1-0.1-0.6-0.1-0.7,0c0,0.1,0,0.2-0.1,0.3l-0.1-0.1c-0.4,0.2-0.9,0.4-1,0.8h0.4l-0.2,0.2l-0.1-0.1c-0.1,0.2,0.1,0.2,0.2,0.1
						c-0.1,0.1-0.1,0.1-0.2,0.2l0.5-0.1c-0.1,0.1-0.4,0.1-0.4,0.3c0.2,0,0.3-0.3,0.5-0.2c-0.1,0.2-0.3,0.3-0.1,0.3
						c-0.1,0.1-0.2,0.1-0.2,0.1c0.2,0,0.2,0.2,0.4,0.1c-0.2,0.2,0.3,0.3-0.1,0.5c0.1,0,0.4,0,0.5,0c-0.5,0.1,0.2,0.3-0.3,0.6
						c0.5-0.1,0.4,0.3,0.8,0.4h-0.1c0,0.1-0.1,0.2-0.1,0.4c0.3-0.2,0.5-0.1,0.8-0.1c-0.2,0.3-0.4,0.2-0.7,0.4
						c0.3-0.2,0.4,0.1,0.6-0.1c-0.1,0.2,0,0.2-0.3,0.4c0.4-0.2,0.1,0.1,0.4,0c-0.1,0.3-0.4,0.3-0.1,0.4C36.6,29,36.3,29,36.3,29z
						 M39.6,32.5L39.6,32.5L39.6,32.5L39.6,32.5z M39.8,32.7C39.8,32.7,39.8,32.6,39.8,32.7c0-0.2,0.1-0.2,0.1-0.2
						C39.8,32.5,39.8,32.6,39.8,32.7z M41,31c0.1,0,0,0.1,0,0.1S40.9,31.1,41,31l-0.1,0.1C40.9,31,41,31,41,31z"/>
					<path class="st2" d="M40.6,31.1L40.6,31.1L40.6,31.1L40.6,31.1L40.6,31.1z"/>
					<path class="st2" d="M62.4,19.6L62.4,19.6L62.4,19.6L62.4,19.6z"/>
					<path class="st2" d="M44.6,35.7L44.6,35.7L44.6,35.7z"/>
					<path class="st2" d="M62.3,17.2C62.3,17.2,62.4,17.2,62.3,17.2C62.4,17.2,62.3,17.2,62.3,17.2z"/>
					<path class="st2" d="M62,16.3v-0.2C62,16.2,62,16.3,62,16.3z"/>
					<path class="st2" d="M61.8,15.6L61.8,15.6L61.8,15.6L61.8,15.6z"/>
					<path class="st2" d="M64.5,26.5L64.5,26.5C64.4,26.5,64.4,26.5,64.5,26.5z"/>
					<path class="st2" d="M65.1,23c0.1,0,0.1,0,0.2,0.1C65.2,23,65.2,23,65.1,23z"/>
					<polygon class="st2" points="61.1,28.5 61.1,28.3 61,28.5 					"/>
					<path class="st2" d="M65.4,23.3c0-0.1,0-0.1-0.1-0.2C65.3,23.2,65.3,23.2,65.4,23.3z"/>
					<path class="st2" d="M60.5,12.9L60.5,12.9C60.5,12.7,60.4,12.7,60.5,12.9L60.5,12.9z"/>
					<path class="st2" d="M60.4,12.7L60.4,12.7L60.4,12.7z"/>
					<path class="st2" d="M60.3,12.7L60.3,12.7C60.4,12.7,60.4,12.7,60.3,12.7z"/>
					<path class="st2" d="M60.8,13.7L60.8,13.7C60.9,13.6,60.8,13.7,60.8,13.7z"/>
					<path class="st2" d="M60.9,14c0-0.1,0.1-0.3,0-0.3h-0.1C61,13.6,60.8,14,60.9,14z"/>
					<path class="st2" d="M60.4,15.6v-0.3c-0.1,0.1-0.2,0.2-0.3,0.1C59.9,15.9,60.3,15.3,60.4,15.6z"/>
					<path class="st2" d="M60.6,16.3c-0.1-0.1-0.1,0.1-0.2,0.1C60.5,16.5,60.5,16.5,60.6,16.3z"/>
					<path class="st2" d="M63,21.2l-0.2,0.1C62.8,21.5,62.8,21.3,63,21.2z"/>
					<polygon class="st2" points="64.6,21.6 64.7,21.5 64.5,21.5 					"/>
					<polygon class="st2" points="63.3,23 63.2,23 63.4,23 					"/>
					<path class="st2" d="M59.1,26.5l0.2,0.3C59.3,26.7,59.1,26.5,59.1,26.5z"/>
					<path class="st2" d="M55.6,28.5c-0.1-0.1-0.2-0.2-0.2,0H55.6z"/>
					<path class="st2" d="M44.5,33L44.5,33L44.5,33z"/>
				</g>
			</g>
		</g>
	</g>
</g>
<g>
	<g>
		<g>
			<g>
				<g>
					<path class="st2" d="M8.5,18c0-0.1-0.1-0.3-0.1-0.2L8.5,18L8.5,18z"/>
					<path class="st2" d="M8.2,17.5c0,0.2,0,0.5,0.1,0.7c0-0.3,0-0.2,0-0.6c0,0,0.1,0.1,0.1,0.2c0-0.1,0.1,0.1,0-0.1s-0.1-0.2-0.1,0
						C8.2,17.6,8.2,17.5,8.2,17.5z"/>
					<path class="st2" d="M6.6,17.5L6.6,17.5L6.6,17.5z"/>
					<path class="st2" d="M6,17.5l0.1-0.1L6,17.5z"/>
					<path class="st2" d="M6.4,17L6.4,17C6.4,16.9,6.4,16.9,6.4,17z"/>
					<path class="st2" d="M6.6,17.5l0.1-0.1C6.6,17.5,6.6,17.3,6.6,17.5z"/>
					<path class="st2" d="M8,18.3L8,18.3L8,18.3L8,18.3z"/>
					<polygon class="st2" points="7.1,17 7.2,17 7.2,16.9 					"/>
					<path class="st2" d="M7.4,16.9l-0.1,0.4c0-0.1,0.1-0.2,0.1-0.2V16.9z"/>
					<path class="st2" d="M7.8,17.2L7.8,17.2L7.8,17.2z"/>
					<path class="st2" d="M7,17l0.1-0.1L7,17z"/>
					<path class="st2" d="M6.9,11L6.9,11C7,11,6.9,11,6.9,11z"/>
					<polygon class="st2" points="8.4,11.5 8.4,11.5 8.5,11.5 					"/>
					<path class="st2" d="M6.9,16.3L6.9,16.3L6.9,16.3z"/>
					<path class="st2" d="M6.5,16.2c-0.4,0.2-0.5,0.2-1,0.4C5.7,16.5,6.2,16.3,6.5,16.2z"/>
					<path class="st2" d="M7.9,18.3L7.9,18.3L7.9,18.3z"/>
					<path class="st2" d="M5.5,16.5L5.5,16.5L5.5,16.5z"/>
					<path class="st2" d="M6.2,16.7l-0.3,0.2L6.2,16.7z"/>
					<path class="st2" d="M5.7,17.3L5.7,17.3L5.7,17.3z"/>
					<path class="st2" d="M5.2,17.5C5.2,17.5,5.3,17.3,5.2,17.5L5.2,17.5C5.3,17.5,5.3,17.3,5.2,17.5z"/>
					<polygon class="st2" points="5.3,17.3 5.2,17.3 5.2,17.3 					"/>
					<path class="st2" d="M6.4,12l0.2,0.1C6.5,12,6.4,12,6.4,12z"/>
					<path class="st2" d="M7.9,18.2c0,0.1,0,0.1,0,0.1l0,0C8,18.2,8,18.2,7.9,18.2z"/>
					<path class="st2" d="M0,21.2L0.2,21C0,21.1,0,21.2,0,21.2z"/>
					<path class="st2" d="M5,14.2L5,14.2L5,14.2z"/>
					<polygon class="st2" points="0.2,21 0.7,20.5 0.5,20.6 					"/>
					<path class="st2" d="M6.6,12.1L6.6,12.1L6.6,12.1z"/>
					<path class="st2" d="M6.3,11.5c0,0,0.3,0.2,0.5,0.4c0.1,0.1-0.2-0.1-0.4-0.2C6.5,11.8,6.7,12,6.7,12c-0.1,0-0.1,0-0.1-0.1
						c0.2,0.2-0.1,0.1,0.2,0.4H6.7l0.4,0.3c0,0,0.2,0.2,0,0L7,12.5l0.1,0.1c-0.3-0.2-0.1-0.1-0.3-0.2c0.1,0.1,0.3,0.3,0.2,0.3
						c-0.3-0.2,0-0.1-0.3-0.3h0.1c-0.5-0.3,0.1,0-0.4-0.3c-0.1,0,0.1,0.2,0,0.2c0.1,0.1,0.2,0.1,0.4,0.3C7,12.9,6,12.2,6.4,12.5
						c0.2,0.1,0.5,0.4,0.3,0.3l-0.3-0.2c-0.1,0,0.4,0.3,0.2,0.3c-0.1-0.1-0.1-0.1-0.1-0.1C6.2,12.7,6.7,13,6.6,13l-0.3-0.2
						c0,0.1,0.2,0.3,0.2,0.4c-0.1-0.1-0.2-0.1-0.3-0.2c0.1,0.2-0.2,0.2-0.4,0.2L6,13.4c0,0-0.1-0.1-0.2-0.1S6,13.4,6,13.5l-0.2-0.1
						c0.2,0.2,0.3,0.5,0,0.4l-0.1-0.1c-0.1,0,0.5,0.4,0.2,0.3l0,0c-0.2,0,0,0.3-0.5,0.1c0.3,0.3-0.2,0,0.3,0.3
						c-0.3-0.1-0.4-0.2-0.6-0.2c0,0,0.3,0.2,0.3,0.3l-0.3-0.2l0.2,0.2L5,14.3v0.1c0,0,0.1,0.1,0.2,0.1c0.1,0.1-0.3,0-0.4-0.1
						c0,0.1,0.1,0.2,0.1,0.3c-0.1-0.1-0.1-0.1-0.2-0.2c0.2,0.2-0.3-0.1-0.1,0.1c0.1,0,0.2,0.1,0.2,0.1c-0.2,0-0.3,0.1-0.2,0.2
						l-0.2-0.1c-0.1,0.1-0.1,0.3-0.2,0.5c0.1,0,0.5,0.1,0.5,0.1l-0.4-0.1c0.2,0.1,0.2,0,0.4,0.1c-0.1,0-0.4,0-0.5-0.1l0.1,0.1
						c-0.1,0-0.2,0-0.3-0.1c0.2,0.1-0.4,0.1-0.1,0.2H3.8c-0.1,0.2,0,0.2-0.1,0.4C4,15.9,3.9,16,4.2,16c-0.2,0.1-0.5,0.2-0.5,0.3
						c0.1,0.1,0.3,0,0.5,0c-0.3,0-0.4,0.1-0.6,0.1c0,0.1,0,0.2,0.1,0.3c0.2,0,0.2-0.1,0.3-0.1c0,0-0.2,0.1-0.3,0.1l0,0
						c0.2,0-0.1,0.2-0.4,0.3c-0.3,0.1-0.6,0.3-0.2,0.3l0,0c0.1,0,0.2,0,0.3,0c-0.1,0.1-0.3,0.1-0.5,0.2c0.6-0.1-0.3,0.3,0.1,0.3
						c-1.3,0.6-0.1,0.3-1.1,0.8l0.3-0.1c0.3-0.1-0.2,0.1-0.3,0.2c0.2-0.1,0.3-0.2,0.5-0.2c0.2,0.1-0.9,0.8-1.4,1.4
						c-0.2,0.2,1.8-1,0.8-0.3l-0.6,0.3c0.6-0.2-0.4,0.5,0.2,0.3c-0.2,0.1-0.4,0.2-0.3,0.2c-0.5,0.4-0.1,0.2,0.3-0.1
						c-0.1,0.1-0.4,0.3-0.6,0.4c-0.3,0.3,0.6-0.3,0,0.1c-0.1,0.1-0.2,0.1-0.2,0.1c0.2-0.1-0.2,0.2,0.5-0.3c-0.4,0.3,0.2,0-0.2,0.3
						c0.7-0.5-0.4,0.4,0.6-0.3c-1,0.7-0.9,0.8-0.5,0.4l-0.8,0.6l0,0c0.1-0.1,0.4-0.2,0.8-0.5c-1.1,0.9,1.2-0.8-0.3,0.4l1.6-1
						C1.4,21.2,2,20.6,1,21.4c0.6-0.4,1.5-1,1.4-0.9S2,20.8,1.8,21c0.5-0.3,0.2,0,0.8-0.5l-0.3,0.2c0.1,0-0.1,0.1,0.3-0.2l-0.1,0.1
						c0.5-0.5,1.2-1,1.5-1.3c-1.1,0.9-0.2,0.2-1.5,1.4c0.1-0.1,0.3-0.2,0.5-0.4c0,0.1-0.2,0.2-0.5,0.4c0.3-0.2,0.6-0.5,0.7-0.5
						l-0.5,0.4c0.4-0.3,0.8-0.6,0.7-0.5s-0.2,0.2-0.2,0.2c0.2-0.1,1-0.8,0.9-0.6c-0.7,0.7-0.2,0.2-0.7,0.8l0.2-0.2L3.8,20
						c0.1,0,0.5-0.4,0.4-0.3l-0.3,0.2l0.2-0.1l0.1-0.2c0.3-0.3,0.7-0.7,0.6-0.6s0,0-0.2,0.3l0,0c0.2-0.2,0.4-0.4,0.3-0.2l-0.7,0.7
						c0.4-0.5,0.3-0.2,0.7-0.6l-0.4,0.4l0.3-0.4c-0.1,0.1-0.1,0.2-0.3,0.4c0,0,0.6-0.7,0.4-0.4l-0.1,0.1c0,0.1,0.4-0.3,0.3-0.1
						c-0.4,0.5-0.2,0.1-0.5,0.6c0.2-0.1,0.8-0.7,0.8-0.6l0,0c0.5-0.7-0.2,0.3,0.1,0c-0.1,0.1-0.3,0.4-0.2,0.3c0,0.1,0.3-0.2,0.6-0.5
						l-0.1,0.2c-0.1,0.1,0.1,0.1,0.1,0.1C6,19.1,6,19.1,6.2,18.9c-0.2,0.5,0,0.3,0.1,0.1c0.2-0.2,0.3-0.4,0.2,0l-0.1,0.2L6.6,19
						c0.1-0.3,0.1-0.2,0.1-0.4c0.1-0.2,0.2-0.3,0.2-0.3c-0.1,0.2-0.2,0.4-0.2,0.6l0.1-0.3C6.7,19.1,7,18,7,18.4l-0.1,0.1
						c0.1-0.1,0.2-0.3,0.2-0.2C7,18.6,7,18.5,6.9,18.7c0.1,0,0.3-0.6,0.2-0.3c0,0.1-0.1,0.1-0.1,0.2c-0.1,0.4,0,0.3,0,0.3l0,0V19
						v-0.1c0.3-0.8,0.2-0.2,0.4-0.7c-0.2,0.5-0.1,0.3-0.2,0.6c0,0.1,0,0.2,0,0.3c0.1-0.3,0,0.2,0.2-0.2c0,0.1,0,0,0,0.3
						c0.1-0.1,0-0.2,0-0.3c0.1-0.4,0.1,0.4,0.3-0.1c0.1-0.2,0.1-0.6,0.2-0.8c0,0.2,0,0.4,0,0.4c0,0.1,0.1,0.1,0.1,0
						c0,0.1,0,0.2,0,0.3c0,0,0-0.4,0.1-0.2c0,0.1,0,0.3,0,0.4c0-0.1,0.1-0.3,0.1-0.4c0,0.2,0,0.3,0,0.4c0-0.1,0.1-0.2,0.1-0.5v-0.1
						c0,0,0,0.2,0,0.3c0,0.2-0.1-0.1-0.1-0.2v-0.1c-0.1-0.6-0.1,0.1-0.2,0.1V18v0.4c0-0.1,0-0.3,0-0.4c0-0.2,0,0.2-0.1-0.1v-0.1v0.1
						c0-0.1,0-0.3,0-0.2c0-0.2-0.1,0.4-0.1,0l0,0c-0.1,0.2,0,0.3-0.1,0.7v-0.8v0.3c0,0,0,0,0-0.2c-0.1,0.2,0,0.1-0.1,0.4
						c0-0.3-0.1,0.2-0.1-0.4c-0.1,0.3,0,0.2-0.1,0.4c0.1-0.6-0.1,0.1-0.1-0.1c0.1-0.3,0.1-0.2,0.1-0.4c-0.1,0.5,0-0.1-0.1,0
						c-0.1,0.4-0.1,0.2-0.2,0.3c0-0.1,0-0.2,0-0.4v-0.1c-0.2,0.4-0.2,0.4-0.3,0.5C6.9,17.6,7,17.5,7,17.4l0,0
						c-0.1,0.1-0.1,0.2-0.1,0.3l0.2-0.3c0,0-0.3,0.4-0.2,0.2c-0.2,0.3-0.4,0.9-0.6,1.1c0.1-0.2,0.2-0.5,0.3-0.5l-0.1,0.1L6.7,18
						c0-0.1-0.1,0.2-0.1,0.2l0.2-0.4c0,0,0,0.1,0,0c0,0,0.1-0.2,0.2-0.4c-0.1,0.1-0.2,0.3-0.2,0.4c0,0,0.2-0.3,0.2-0.4
						c-0.1,0.2,0,0-0.2,0.4c0,0,0.1-0.2,0.2-0.3c-0.1,0.2-0.1,0.1-0.3,0.5l0,0l0,0l0,0l0,0c-0.3,0.4,0-0.2-0.2,0l0.1-0.1
						c-0.1,0.2-0.1,0.1-0.4,0.4c0,0,0.2-0.2,0.3-0.4C6.4,18,6.3,18.2,6.4,18c0.2-0.2,0.2-0.2,0.2-0.2c0.1-0.1,0.2-0.3-0.1,0.1
						c0.3-0.4,0.3-0.4,0.2-0.3l-0.2,0.2c-0.1,0.1,0,0,0,0l0.4-0.5c0.5-0.6-1,1-0.1,0.1c-0.3,0.3-0.2,0.2-0.5,0.6
						c0-0.1,0.6-0.7,0.6-0.7C7.1,17,6.2,18,6.3,17.8c-0.2,0.2-0.6,0.6-0.8,0.8c0-0.1,0.7-0.7,0.8-0.9c0,0,0,0-0.1,0.1
						c0.1-0.1,0.2-0.1,0.3-0.3l-0.2,0.2c0.2-0.2,0.1-0.1,0.4-0.4c-0.2,0.2-0.3,0.3-0.4,0.4c0.2-0.2,0,0,0.1-0.2l-0.3,0.3
						c0.2-0.2-0.4,0.3-0.5,0.4c0.3-0.3,0.7-0.7,0.4-0.4c0.2-0.2,0.5-0.5,0.7-0.6C6.3,17.6,6.9,17,7,16.9l0.2-0.1
						c-0.1,0.1-0.1,0.1-0.1,0.1l-0.4,0.4l0.2-0.2L5.8,18c0.2-0.2-0.3,0.2,0.3-0.3c-0.2,0.2,0.6-0.5,0.7-0.6c-0.1,0.1-0.1,0.1,0,0
						L6.9,17c0.5-0.4-0.6,0.6-0.7,0.6c0.3-0.3,0.6-0.5,0.5-0.5l-0.8,0.7c0.2-0.2-0.2,0.2-0.2,0.1L5.6,18c-0.3,0.3-0.3,0.3-0.4,0.3
						L5.5,18c-0.6,0.5,0.6-0.5,0.1-0.2l0.8-0.7c-0.5,0.4,0.5-0.4,0.1-0.1l-0.8,0.7l0.4-0.3L5.4,18c0,0,0.3-0.3,0.3-0.2L5,18.3
						c0.7-0.6-0.5,0.4,0,0l1.2-1c0.5-0.4-0.7,0.5-0.4,0.3l-0.2,0.2c-0.5,0.4-0.1,0.1-0.3,0.2l0.8-0.7L5.2,18l0.6-0.4
						c0.2-0.2-1.3,1-1.2,0.9l1.2-0.9c0,0,0.1-0.1-0.3,0.2c0.1-0.1,0,0-0.2,0.1c-0.1,0.1-0.3,0.2,0,0c-0.2,0.1-0.7,0.5-0.6,0.4
						l0.2-0.2l-0.8,0.6c1.5-1.1,0-0.1,1.2-0.9c-0.1,0.1-0.2,0.1-0.3,0.1c0.1-0.1,0.2-0.1,0.2-0.1c0.4-0.3-1.2,0.8-0.7,0.5
						c0.7-0.5,0.4-0.2,0.6-0.4C6.5,17,4.9,18,5.8,17.4h0.1c0.5-0.3-0.5,0.3-0.4,0.2l0.2-0.1c-0.7,0.4-0.9,0.5-1,0.6l0.8-0.5
						c-0.1,0-0.8,0.5-1,0.6l1.1-0.7l0,0c0.7-0.4,0,0,0.1-0.1L6,17.2c-0.1,0-0.8,0.5-0.8,0.4L5,17.7c-0.7,0.4,0.4-0.3-0.1,0l0.8-0.4
						c-0.2,0.1-0.7,0.3-0.8,0.4L6,17.2c0,0,0,0-0.4,0.2c0.1,0,0.2-0.1,0.1-0.1c-0.6,0.3-0.8,0.4-0.8,0.3c1.4-0.7,0.4-0.3,1.5-0.8
						c-0.5,0.2,0.3-0.2,0.2-0.1c-1,0.4,0,0-1,0.4c-0.1,0,0,0,0,0l0.6-0.3l0.4-0.1c0.1,0,0.4-0.2,0.7-0.2c-0.3,0.1-0.5,0.2-0.4,0.1
						l-0.4,0.2c-0.5,0.1,0.8-0.3,0.3-0.1l0.3-0.1l-0.7,0.2l0.4-0.1c0.1,0-0.7,0.1-0.2,0h0.2c-0.1,0-0.4,0-0.2,0h0.2
						c-0.1,0-0.3,0-0.2,0h0.2c0.3,0-0.5,0-0.6,0H7h0.1c0.1,0-0.4-0.1-0.5-0.1c0.5,0.1,0.3,0,0.5,0c-0.1,0-0.3-0.1-0.4-0.1
						c0.1,0-0.3-0.1,0.1,0l0,0c0.4,0.2,0.3,0.1,0.3,0.1l-0.5-0.2c0.4,0.2,0.3,0.1,0.2,0c0-0.1-0.1-0.2,0.2,0
						c-0.1-0.1-0.1-0.1-0.2-0.2L7,16.4c0.1,0,0.2,0,0.2-0.1l0.2,0.1c0,0-0.6-0.5-0.6-0.6L7.2,16c0-0.1,0.4,0,0.1-0.2l0.2,0.1
						c0,0,0.3,0-0.2-0.3c0.3,0.2,0.1-0.1,0-0.2l0.2,0.2c-0.3-0.2-0.4-0.3-0.4-0.4c0,0,0.2,0.1,0.1,0.1c0.1,0-0.2-0.2,0-0.1l0.1,0.1
						c0,0,0-0.1-0.2-0.2c-0.1-0.1,0.1,0,0.3,0.1C7.3,15.1,7.1,15,7.2,15c0.1,0.1,0.1,0.1,0.1,0.1c0.2,0-0.2-0.3,0.1-0.2
						C7.5,15,7.5,15,7.5,15l-0.1,0.1c0.2,0.1,0.3,0.1,0.6,0.4c-0.1-0.1-0.4-0.4-0.3-0.4h0.1l0,0c0,0,0,0,0-0.1h0.1
						c0.2,0.1,0.1,0,0.2,0c-0.2-0.2-0.2-0.2-0.4-0.3l0,0l0,0l0,0c0,0,0,0,0,0.1c-0.1-0.1-0.2-0.2-0.1-0.1l-0.4-0.3
						c0.3,0.2,0.6,0.3,0.8,0.4c-0.1-0.2,0-0.2-0.4-0.5c0-0.1,0.1,0.1,0.2,0.1c0,0,0,0,0.1,0.1c-0.1-0.1,0-0.1-0.3-0.4
						c0.2,0,0.3,0.2,0.3,0.1L8,14.3c0.6,0.2-0.6-0.7,0.1-0.4c0,0-0.1,0-0.1-0.1c0.4,0,0-0.5,0.5-0.4c0.1,0-0.1-0.1-0.2-0.2l0.3,0.2
						l-0.3-0.2C8.1,13,9,13.5,8.6,13.1L8.4,13c0.1,0,0-0.2,0.2,0c0,0-0.2-0.1-0.1-0.1L8.6,13l-0.2-0.2c0.1,0,0.5,0.4,0.6,0.3
						c0-0.1-0.3-0.3-0.4-0.4c0,0-0.1,0-0.2-0.1v-0.1c-0.4-0.3-0.8-0.6-1.1-0.7L7.5,12l-0.2-0.1l0,0c-0.2-0.1,0,0,0.1,0.1
						c-0.1-0.1-0.2-0.1-0.2-0.1l0.3,0.3C7.3,12.1,7.2,12,7.1,12c0.2,0.1,0.4,0.2,0.4,0.3c-0.2-0.1-0.3-0.2-0.2-0.1
						c-0.1-0.1-0.2-0.1-0.2-0.2c0.1,0.1,0,0.1,0.2,0.2c-0.2-0.1,0,0.1-0.4-0.1c0.1,0.1,0.3,0.2,0.3,0.3c-0.4-0.3-0.1,0.1-0.5-0.3
						c0.4,0.3,0.1,0.2,0.3,0.4l-0.1-0.1c-0.1,0-0.2-0.1-0.3-0.1c0.3,0.2,0.4,0.3,0.5,0.5c-0.3-0.2-0.4-0.3-0.7-0.5
						c0.3,0.2,0.2,0.2,0.4,0.4c-0.2-0.1-0.1,0-0.4-0.2c0.4,0.3,0.1,0.1,0.3,0.3c-0.2-0.1-0.4-0.2-0.3-0.1
						C6.4,11.6,6.3,11.5,6.3,11.5z M6.3,13L6.3,13L6.3,13L6.3,13z M6.2,13.1C6.3,13.1,6.3,13.1,6.2,13.1c0.1,0,0.2,0.1,0.2,0.1
						C6.4,13.1,6.3,13.1,6.2,13.1z M8,14L8,14C7.9,14,7.9,14,8,14l-0.1-0.1L8,14z"/>
					<path class="st2" d="M7.7,13.7L7.7,13.7L7.7,13.7L7.7,13.7L7.7,13.7z"/>
					<path class="st2" d="M6.6,17.5L6.6,17.5L6.6,17.5z"/>
					<path class="st2" d="M5,14v0.1V14z"/>
					<path class="st2" d="M6.5,18.5L6.5,18.5L6.5,18.5z"/>
					<path class="st2" d="M6.8,18.5v0.1C6.8,18.5,6.8,18.5,6.8,18.5z"/>
					<polygon class="st2" points="7,18.5 7.1,18.5 7.1,18.5 					"/>
					<path class="st2" d="M2.2,20.2L2.2,20.2C2.1,20.5,2.1,20.3,2.2,20.2z"/>
					<path class="st2" d="M4.5,19l-0.2,0.2C4.3,19.1,4.3,19.1,4.5,19z"/>
					<path class="st2" d="M0,21.2L0,21.2L0,21.2z"/>
					<path class="st2" d="M4.3,19.1C4.2,19.2,4.3,19.2,4.3,19.1C4.3,19.1,4.4,19,4.3,19.1z"/>
					<path class="st2" d="M8.2,18.3L8.2,18.3L8.2,18.3z"/>
					<path class="st2" d="M8.2,18.3L8.2,18.3C8.2,18.2,8.2,18.2,8.2,18.3z"/>
					<path class="st2" d="M8.2,18.1L8.2,18.1C8.2,18.2,8.2,18.2,8.2,18.1z"/>
					<path class="st2" d="M7.8,18.3v0.1V18.3z"/>
					<path class="st2" d="M7.7,18.3c0,0,0.1,0.2,0.1,0.1L7.7,18.3C7.8,18.5,7.8,18.1,7.7,18.3z"/>
					<path class="st2" d="M7.5,17.1L7.5,17.1l0.1-0.2C7.6,16.5,7.6,17.1,7.5,17.1z"/>
					<path class="st2" d="M7.4,17c0-0.1,0-0.2,0.1-0.2C7.4,16.9,7.4,16.9,7.4,17z"/>
					<path class="st2" d="M6.5,17.2l0.3-0.3C6.7,17,6.6,17,6.5,17.2z"/>
					<polygon class="st2" points="4.7,19.1 4.6,19.3 4.9,19 					"/>
					<polygon class="st2" points="6.8,16.6 6.9,16.5 6.7,16.7 					"/>
					<path class="st2" d="M5.8,17l-0.7,0.5C5.2,17.3,6.1,16.7,5.8,17z"/>
					<path class="st2" d="M5.5,17c0.3-0.2,0.5-0.3,0.2-0.1C5.6,16.9,5.4,17,5.5,17z"/>
					<path class="st2" d="M7,15.6L7,15.6L7,15.6z"/>
				</g>
			</g>
		</g>
	</g>
</g>
</svg>
