<?xml version="1.0" encoding="utf-8"?>
<!-- Generator: Adobe Illustrator 19.1.0, SVG Export Plug-In . SVG Version: 6.00 Build 0)  -->
<svg version="1.1" id="Layer_1" xmlns="http://www.w3.org/2000/svg" xmlns:xlink="http://www.w3.org/1999/xlink" x="0px" y="0px"
	 viewBox="712 -191.4 2020.2 1222.3" style="enable-background:new 712 -191.4 2020.2 1222.3;" xml:space="preserve">
<style type="text/css">
	.st0{fill:#E81F63;}
</style>
<g>
	<path class="st0" d="M911.1,134.7h3.2l52.1,154.1h201.3l-79.8-156.1c-7.3-14-17-21.7-24.8-28.7l0.6-3.8
		C1132.1,78.5,1165,48,1176.4-24.6c19.1-120.9-65.3-166.8-173.6-166.8H792l-75.9,480.3h170.7L911.1,134.7z M941.9-60.2h13.4
		c29.9,0,55.3,4.5,49.5,41.4c-5.6,35.7-35,40.1-63.7,40.1H929L941.9-60.2z"/>
	<polygon class="st0" points="1544.4,157.7 1392.2,157.7 1399.6,110.5 1534,110.5 1553.8,-14.3 1419.4,-14.3 1426.6,-60.2 
		1573.7,-60.2 1594.5,-191.4 1271.6,-191.4 1195.7,288.9 1523.7,288.9 	"/>
	<path class="st0" d="M1806.5,288.9c84.1,0,181.1-33.8,196.7-132.5c9.1-57.3-18-95.5-67.3-114l0.6-3.8
		c44.1-13.4,71.7-54.8,78.3-96.8c17.6-110.9-73.8-133.2-166.8-133.2h-203.2l-75.9,480.3H1806.5z M1788.3-75.5h12.1
		c25.5,0,58.4-2.5,52.7,33.1c-5.2,33.1-34.3,35.7-59.8,35.7h-15.9L1788.3-75.5z M1761.4,94.6h17.2c28,0,72.7-0.6,66.4,39.5
		c-6.2,39.5-47.7,40.1-76.4,40.1h-19.7L1761.4,94.6z"/>
	<polygon class="st0" points="2339,288.9 2359.7,157.7 2207.5,157.7 2214.9,110.5 2349.3,110.5 2369,-14.3 2234.7,-14.3 
		2241.9,-60.2 2389,-60.2 2409.8,-191.4 2086.8,-191.4 2010.9,288.9 	"/>
	<polygon class="st0" points="2706.5,288.9 2730.8,134.7 2584.3,134.7 2635.9,-191.4 2461.4,-191.4 2385.5,288.9 	"/>
</g>
<g>
	<path class="st0" d="M1165.3,438v4.6c0.6,3.7,0.6,7.1,0,10.2c-0.6,1.9-1.1,3.6-1.4,5.1c-0.3,1.5-0.5,3.2-0.5,5.1
		c-2.5,8.6-5.5,15.4-9.2,20.3c-1.9,4.3-2.5,8.3-1.9,12c0.6,5.5-0.3,11.1-2.8,16.6c-1.2,2.5-2,4.9-2.3,7.4c-0.3,2.5-0.8,5.2-1.4,8.3
		c-0.6,1.8-0.3,3.2,0.9,4.2c1.2,0.9,2.2,2,2.8,3.2c-0.6,0.6-1.9,0.9-3.7,0.9c-2.5,5.5-4.8,11-6.9,16.2c-2.2,5.2-4.5,10.6-6.9,16.2
		c-1.2,2.5-2.5,5.5-3.7,9.2c-1.2,3.7-2.9,7.4-5.1,11.1c-2.2,3.7-4.2,7.4-6,11.1c-0.6,1.2-1.2,2.3-1.9,3.2c-0.6,0.9-0.6,2,0,3.2
		c0.6,2.5-0.3,4.9-2.8,7.4c-5.5,1.8-8.3,5.5-8.3,11.1l-1.9,3.7c-1.2,2.5-2.5,4.8-3.7,6.9c-1.2,2.2-2.5,4.8-3.7,7.9
		c-1.2,2.5-1.1,4.6,0.5,6.5c1.5,1.8,3.8,2.5,6.9,1.8h4.6c0,0.6,0.1,1.1,0.5,1.4c0.3,0.3,0.5,0.8,0.5,1.4c-1.2,2.5-2.3,4.8-3.2,6.9
		c-0.9,2.2-2,4.5-3.2,6.9c-0.6,1.2-0.9,2.6-0.9,4.2c0,1.5-0.9,2.9-2.8,4.2c-1.2,3.7-1.9,6.5-1.9,8.3c1.2,3.1,0.6,7.7-1.9,13.9
		c-1.2,1.2-1.9,2.8-1.9,4.6c0.6,3.7,0.3,8.6-0.9,14.8c-0.6,0.6-0.8,1.2-0.5,1.8c0.3,0.6,0.1,1.5-0.5,2.8c-0.6,0.6-1.2,0.9-1.9,0.9
		c-0.6,0-1.5,0.3-2.8,0.9c0.6,0.6,0.9,1.2,0.9,1.9c0,0.6,0.3,1.2,0.9,1.8l1.9,3.7c-2.5,0-5.5,0.6-9.2,1.8c-0.6,1.2-0.9,2.2-0.9,2.8
		s-0.3,1.5-0.9,2.8c0,0.6,0.3,1.2,0.9,1.8c1.9,6.2,0.6,11.7-3.7,16.7c-1.9,3.1-2.8,6.2-2.8,9.2c0,1.8-0.3,3.7-0.9,5.5
		c-0.6,1.8-1.2,4-1.8,6.5c-0.6,0-0.9-1.2-0.9-3.7c1.2-5.6,1.2-9.9,0-13c-0.6-1.2-0.8-2.2-0.5-2.8c0.3-0.6,0.5-1.5,0.5-2.8
		c0-1.2,0.1-2.3,0.5-3.2c0.3-0.9,0.5-2,0.5-3.2c-3.1,1.9-4.6,4.3-4.6,7.4c0,4.3-0.6,7.4-1.9,9.2c-0.6,1.8-1.4,3.6-2.3,5.1
		s-0.8,3.2,0.5,5.1c-1.2,1.8-2.5,4.6-3.7,8.3c-1.9,3.1-2.2,5.5-0.9,7.4c-0.6,0-0.9,0.3-0.9,0.9v1.8c-2.5,1.2-4,2.2-4.6,2.8
		c-1.2,1.8-1.8,3.7-1.8,5.5s-0.6,4-1.9,6.5c0,0.6-1.2,1.5-3.7,2.8c0.6,2.5,0.5,4.9-0.5,7.4c-0.9,2.5-1.1,5.2-0.5,8.3h-0.9
		c-1.8,2.5-3.1,5.1-3.7,7.9c-0.6,2.8-1.5,5.4-2.8,7.9h-0.9c-1.2,0-1.9-0.6-1.9-1.8c0-1.2-0.2-2.2-0.5-2.8c-0.3-0.6-0.5-1.5-0.5-2.8
		c-1.9,1.2-3.7,2.3-5.6,3.2c-1.9,0.9-3.1,2.9-3.7,6c0,1.2-0.6,1.9-1.9,1.9c-2.5,1.2-3.7,4.3-3.7,9.2c0,1.2,0.1,2,0.5,2.3
		c0.3,0.3,0.5,1.1,0.5,2.3c-0.6,1.2-1.5,3.7-2.8,7.4c-3.7,0-5.5,1.5-5.5,4.6c-1.2,3.1-3.1,4.9-5.5,5.5c-3.1,2.5-6.5,4-10.2,4.6
		c-1.2-0.6-1.9-1.9-1.9-3.7c0-3.7,0.1-7.4,0.5-11.1c0.3-3.7,0.5-7.4,0.5-11.1s-0.2-7.4-0.5-11.1c-0.3-3.7-0.5-7.4-0.5-11.1v-14.8
		c0-1.9,0.6-4,1.9-6.5c0.6-1.8,0.6-4,0-6.5v-0.9c0-5.5,0.1-10.9,0.5-16.2c0.3-5.2,1.4-10.3,3.2-15.3c1.2-3.1,2.2-5.9,2.8-8.3
		c0.6-2.5,1.5-4.9,2.8-7.4c0.6-0.6,0.9-1.8,0.9-3.7c1.2-6.8,2.6-13.3,4.2-19.4c1.5-6.2,3.2-12.6,5.1-19.4c0-1.2,0.3-2.5,0.9-3.7
		c0.6-1.2,1.2-2.5,1.9-3.7c-0.6-0.6-0.9-1.1-0.9-1.4c0-0.3-0.3-0.8-0.9-1.4c-3.1-4.3-3.4-8.3-0.9-12c0.6-0.6,0.9-1.8,0.9-3.7
		c-1.2-2.5-1.2-5.2,0-8.3c1.2-4.9,2.2-9.9,2.8-14.8c0.6-4.9,1.2-9.9,1.9-14.8c0.6-3.1,1.1-6.2,1.4-9.2c0.3-3.1,0.8-6.2,1.4-9.2
		c1.2-8,2.5-15.7,3.7-23.1c1.2-7.4,2.5-15.1,3.7-23.1v-4.6c-4.9,1.9-8.3,5.2-10.2,10.2c-0.6,3.7-1.9,7.1-3.7,10.2
		c-1.8,3.1-3.7,6.2-5.5,9.2c-3.7,6.2-6.2,13.6-7.4,22.2c-0.6,1.8-0.9,3.6-0.9,5.1s-0.3,2.9-0.9,4.2l-1.9,3.7
		c-1.2,0.6-2.8,0.9-4.6,0.9s-3.7,0.3-5.6,0.9c-1.2,1.2-2.6,2.8-4.2,4.6c-1.5,1.9-2.9,3.4-4.2,4.6c-1.9,0-3.6-0.5-5.1-1.4
		s-3.2-2-5.1-3.2c-1.2,1.2-2.5,2.5-3.7,3.7c-1.2,1.2-2.5,2.5-3.7,3.7c-0.6-0.6-0.9-1.1-0.9-1.4c0-0.3-0.3-0.8-0.9-1.4
		c-1.2,0-2.5,0.2-3.7,0.5s-2.5,0.5-3.7,0.5c-1.2,0-3.1-0.6-5.6-1.8c-1.8,0.6-3.2,1.7-4.2,3.2c-0.9,1.5-2.6,2-5.1,1.4l-2.8-11.1
		c-0.6-3.1-1.5-5.2-2.8-6.5c-1.2-1.2-3.1-2.5-5.6-3.7c-1.8,1.9-3.7,3.6-5.5,5.1c-1.9,1.5-4,3.2-6.5,5.1c0,1.2-0.2,2.5-0.5,3.7
		c-0.3,1.2-0.5,2.5-0.5,3.7c-1.2,0.6-2.2,0.6-2.8,0c-0.6-0.6-1.5-1.2-2.8-1.8c-1.9-1.9-3.7-3.5-5.5-5.1c-1.9-1.5-4.3-2.6-7.4-3.2
		c-2.5-1.2-3.4-2.8-2.8-4.6l3.7-1.8v-3.7c-1.2-2.5-1.9-4.6-1.9-6.5c0-0.6-0.9-1.5-2.8-2.8c-0.6,0-1.5,0.6-2.8,1.8h-0.9
		c-2.5-3.1-4-6.5-4.6-10.2c-0.6-2.5-1.9-4.9-3.7-7.4c-2.5-4.9-4-8.6-4.6-11.1c0-3.1-0.8-5.7-2.3-7.9s-2.9-4.5-4.2-6.9
		c-0.6-1.2-0.9-2.8-0.9-4.6c0-1.2-0.6-3.1-1.9-5.5c0-0.6-0.6-2.2-1.8-4.6c0-2.5-0.3-4-0.9-4.6c-1.2-2.5-2.5-3.7-3.7-3.7
		c-1.9,0-3.4,1.2-4.6,3.7c-1.9,3.7-3.2,7.6-4.2,11.6c-0.9,4-2,7.9-3.2,11.6c0,1.2-0.3,2.2-0.9,2.8c-0.6,1.2-1.4,2.6-2.3,4.2
		c-0.9,1.5-1.7,3.2-2.3,5.1c0,2.5-0.6,5.5-1.9,9.2c-3.7,6.2-6.8,12.3-9.2,18.5c0,0.6-0.3,1.2-0.9,1.9c-1.8,1.2-2.9,2.6-3.2,4.2
		c-0.3,1.5-0.8,2.9-1.4,4.2c-1.2,1.9-1.8,3.9-1.8,6c0,2.2-0.6,3.9-1.9,5.1c-1.2,1.2-2,2.9-2.3,5.1c-0.3,2.2-1.1,3.9-2.3,5.1
		c0,0.6-0.2,1.1-0.5,1.4c-0.3,0.3-0.5,0.8-0.5,1.4c0,3.1-0.8,5.2-2.3,6.5c-1.5,1.2-2.9,2.8-4.2,4.6l-6.5,6.5
		c1.2,3.7,1.8,5.9,1.8,6.5c0,1.8-0.6,3.4-1.8,4.6c-1.2,1.8-2.5,2.5-3.7,1.8c-1.9-0.6-2.8,0.3-2.8,2.8c0.6,1.2,0.9,2.8,0.9,4.6
		c0.6,0.6,1.5,0.9,2.8,0.9v2.8c-3.1,3.1-3.7,6.2-1.8,9.2c-0.6,3.7-1.4,7.4-2.3,11.1c-0.9,3.7-2.9,7.1-6,10.2
		c-2.5,2.5-3.7,4.3-3.7,5.5c0,1.8-0.5,3.2-1.4,4.2c-0.9,0.9-1.7,2-2.3,3.2c-0.6,0.6-2.5,0.9-5.6,0.9v-5.6c1.2-6.2,2.2-10.5,2.8-12.9
		c0-2.5-0.3-4.3-0.9-5.6c-1.2-2.5-1.2-6.2,0-11.1c1.2-3.7,1.9-6.8,1.9-9.2c0.6,0,0.8-0.3,0.5-0.9c-0.3-0.6-0.8-0.9-1.4-0.9
		c-1.2,0-1.8,0.3-1.8,0.9c-1.2,2.5-2.5,6.2-3.7,11.1c-0.6,1.2-0.9,2.3-0.9,3.2s-0.3,2-0.9,3.2c0,0.6-0.2,0.9-0.5,0.9
		c-0.3,0-0.5,0.3-0.5,0.9c-0.6,4.9-1.7,9.4-3.2,13.4s-3.2,8.2-5.1,12.5c-1.2,2.5-1.9,4.9-1.9,7.4s-0.6,5.2-1.9,8.3
		c-1.2-2.5-1.9-4-1.9-4.6c-0.6-1.2-0.8-2.3-0.5-3.2c0.3-0.9,0.5-2,0.5-3.2c0-1.9-0.9-2.8-2.8-2.8c-1.2,0-1.9,0.9-1.9,2.8
		c0,3.7-0.5,7.3-1.4,10.6c-0.9,3.4-1.4,6.6-1.4,9.7c0,1.2-0.3,2.2-0.9,2.8c-0.6,0.6-1.2,1.5-1.9,2.8c-2.5,3.7-2.5,6.2,0,7.4
		c1.2,1.2,1.4,2.5,0.5,3.7c-0.9,1.2-1.4,2.5-1.4,3.7c-1.9,0-3.1-0.3-3.7-0.9c-1.2,3.1-2.2,6.2-2.8,9.2c-0.6,3.1-0.9,8.6-0.9,16.6
		l3.7,1.9c-0.6,1.2-0.9,2.3-0.9,3.2s-0.3,2-0.9,3.2c-0.6-0.6-1.1-0.9-1.4-0.9s-0.8-0.3-1.4-0.9c-1.2,0.6-1.9,2.2-1.9,4.6
		c0,3.1-0.8,5.7-2.3,7.9c-1.5,2.2-2.9,4.8-4.2,7.9h-2.8c0,0.6-0.3,1.2-0.9,1.9c1.2,4.3,1.1,8.2-0.5,11.6c-1.5,3.4-2,6.9-1.4,10.6
		c0,1.2-0.6,1.8-1.9,1.8c-1.2,0-1.9,0.3-1.9,0.9s-0.3,1.2-0.9,1.9c-0.6,1.8-1.1,3.5-1.4,5.1c-0.3,1.5-0.8,3.2-1.4,5.1l-5.2-2.7V882
		c0-2.5,0-4.3,0-5.5v-13c0-2.5,0.3-5.9,0.9-10.2c0-1.2,0.1-2.6,0.5-4.2c0.3-1.5,0.1-2.9-0.5-4.2c-0.6-3.1-0.6-6.5,0-10.2
		c0.6-3.1,0.9-6,0.9-8.8s0-5.7,0-8.8c0-2.5,0.3-4.3,0.9-5.5c0-1.2,0.1-2,0.5-2.3c0.3-0.3,0.1-1.1-0.5-2.3c-0.6-4.9-0.5-9.2,0.5-13
		c0.9-3.7,2-8,3.2-13c1.2-4.9,2.3-9.9,3.2-14.8c0.9-4.9,1.7-9.9,2.3-14.8c0-2.5,0.6-4.3,1.9-5.5c1.2-1.2,1.9-2.8,1.9-4.6
		c0-1.2-0.2-2.8-0.5-4.6s-0.2-3.7,0.5-5.5c1.2-3.1,2-6,2.3-8.8s1.1-5.7,2.3-8.8c0.6-0.6,0.9-1.5,0.9-2.8c-0.6-8.6,0.3-17.6,2.8-26.8
		c0-6.8,1.1-13.4,3.2-19.9c2.2-6.5,3.5-13.1,4.2-19.9c0.6-1.2,0.9-2.3,0.9-3.2s0.6-2,1.9-3.2c0.6-0.6,0.9-1.5,0.9-2.8
		c1.2-4.3,2.2-8.6,2.8-13c0.6-4.3,1.5-8.9,2.8-13.9v-1.9c-1.9-3.1-2.2-5.7-0.9-7.9c1.2-2.2,1.8-4.8,1.8-7.9c0-0.6,0.6-1.5,1.9-2.8
		c1.9-1.2,2.9-2.8,3.2-4.6s1.1-3.7,2.3-5.5c1.2-5.5,2.8-11.1,4.6-16.7c1.8-5.6,3.4-11.1,4.6-16.6c0.6-1.9,1.1-3.5,1.4-5.1
		c0.3-1.5,0.8-3.2,1.4-5.1v-1.8c-1.2-2.5-1.5-4.6-0.9-6.5c0.6-1.9,1.2-4,1.8-6.5l5.6-16.7c1.2-4.9,2.5-9.9,3.7-14.8
		c1.2-4.9,2.5-9.9,3.7-14.8c0.6-1.2,0.9-2,0.9-2.3s0.3-1.1,0.9-2.3c0-4.3,0.6-8.3,1.9-12c1.2-3.7,2.5-7.7,3.7-12
		c1.9-4.9,3.4-9.9,4.6-14.8c1.2-4.9,2.5-9.9,3.7-14.8c1.2-3.7,2.5-6.8,3.7-9.2c0-1.2,0.6-1.8,1.9-1.8c4.9-1.2,8.9-1.9,12-1.9
		c1.2,0,2.5,0,3.7,0c7.4,0,13.6,1.2,18.5,3.7c0.6,0.6,1.9,0.9,3.7,0.9c8,1.2,13,4.6,14.8,10.2c1.2,4.9,4.3,6.8,9.2,5.6
		c1.2,2.5,2.5,4.3,3.7,5.5c3.1,4.9,7.4,8.3,12.9,10.2c2.5,0.6,5.6,2.8,9.3,6.5c2.5,4.9,6.2,8.6,11.1,11.1c4.9,3.1,6.8,6.8,5.6,11.1
		c1.2,1.2,2.6,2.5,4.2,3.7c1.5,1.2,2.3,2.8,2.3,4.6c1.2,2.5,2.5,4.6,3.7,6.5c1.2,1.8,2.5,4.3,3.7,7.4l8.3,25c0,1.2-0.3,2.2-0.9,2.8
		c-1.8,3.7-1.2,6.2,1.9,7.4c3.1,0,5.2,1.9,6.5,5.5c0.6,1.2,1.5,3.7,2.8,7.4c1.2,0,2.5-0.6,3.7-1.8c3.7-3.7,6.8-6.5,9.2-8.3
		c3.1-4.3,6.5-7.4,10.2-9.2c1.2-1.2,2.5-2.3,3.7-3.2s2.5-2,3.7-3.2c3.1-3.1,5.7-6.3,7.9-9.7c2.2-3.4,4.8-6.6,7.9-9.7l4.6-4.6
		c6.8-4.9,12.8-10,18-15.3c5.2-5.2,10.6-10.6,16.2-16.2c3.1-3.1,5.9-5.7,8.3-7.9c2.5-2.2,5.2-4.8,8.3-7.9c2.5-1.8,4.3-4.6,5.6-8.3
		c0.6-3.7,3.1-6.5,7.4-8.3c2.5-0.6,4.3-2.5,5.6-5.5c0.6-0.6,0.9-1.1,0.9-1.4c0-0.3,0.3-0.8,0.9-1.4c2.5-0.6,4.3-2.5,5.6-5.5
		c1.9-3.1,4-3.4,6.5-0.9c3.1,1.8,5.9,2.5,8.3,1.8c1.2-0.6,3.4-0.9,6.5-0.9c1.9-0.6,3.1-0.6,3.7,0c2.5,1.9,5.2,2.2,8.3,0.9
		c3.7-1.2,6.8-1.8,9.2-1.8c3.1,0.6,6,1.2,8.8,1.8c2.8,0.6,5.7,1.5,8.8,2.8c2.5,0.6,3.7,2.2,3.7,4.6c3.7,1.2,6,2.2,6.9,2.8
		s2,2.8,3.2,6.5c3.1,1.2,6.3,1.7,9.7,1.4s6.6,1.1,9.7,4.2c0,1.2-0.2,2.2-0.5,2.8C1165.4,435.8,1165.3,436.7,1165.3,438z
		 M757.3,746.9c-1.2,0.6-1.9,1.9-1.9,3.7l0.9,0.9l0.9-0.9L757.3,746.9L757.3,746.9z M762,729.3c1.2-2.5,1.9-6.8,1.9-12.9l-2.8,1.8
		c-0.6,2.5-0.9,5.9-0.9,10.2c0,0.6,0.3,0.9,0.9,0.9H762z M781.4,685.9c1.2-1.2,1.5-3.1,0.9-5.5C781.1,682.2,780.8,684,781.4,685.9z
		 M843.4,628.5c1.2,0,1.9,0.9,1.9,2.8c3.1,7.4,2.8,14.2-0.9,20.3c-1.2,1.9-2.5,3.9-3.7,6c-1.2,2.2-1.9,4.8-1.9,7.9v2.8
		c1.9,2.5,2.6,4.6,2.3,6.5c-0.3,1.9-0.8,4-1.4,6.5c-0.6,1.8-0.9,3.7-0.9,5.5s-0.3,3.7-0.9,5.5c-1.2,4.9-2.2,8.3-2.8,10.2
		c-1.2,3.7-1.8,6.2-1.8,7.4c-0.6,1.2-0.9,2.2-0.9,2.8s-0.3,1.2-0.9,1.8c-1.9,1.2-3.2,2.9-4.2,5.1c-0.9,2.2-2,4.5-3.2,6.9
		c-2.5,2.5-3.1,4.9-1.9,7.4c0,0.6-0.2,1.1-0.5,1.4c-0.3,0.3-0.5,1.1-0.5,2.3c-2.5-1.2-4-1.8-4.6-1.8c-1.9-1.2-2.8-3.1-2.8-5.5
		c1.2-3.1,2-6.3,2.3-9.7s1.1-6.6,2.3-9.7c1.2-3.1,2.2-6.2,2.8-9.2c0.6-3.1,1.2-6.2,1.9-9.2c1.2-6.2,2.2-10.5,2.8-13
		c1.9-8,4-15.9,6.5-23.6c2.5-7.7,5.2-15.3,8.3-22.7c0.6-1.2,1.1-2,1.4-2.3C842.3,630.5,842.7,629.8,843.4,628.5z M908.1,643.3
		c0.6,0,1.1-0.3,1.4-0.9c0.3-0.6,0.1-0.9-0.5-0.9c0-1.2-0.6-1.8-1.9-1.8c-0.6-0.6-1.8-0.9-3.7-0.9c0.6,1.2,0.9,2.5,0.9,3.7
		C905.6,644.2,906.9,644.6,908.1,643.3z M1034.8,823.7c1.9-2.5,2.8-4.3,2.8-5.5s-0.3-2.2-0.9-2.8c0-0.6-0.3-0.6-0.9,0
		c-0.6,0.6-0.9,1.2-0.9,1.9L1034.8,823.7L1034.8,823.7z M1072.8,740.4v-0.9l-0.9,0.9l0.9,0.9V740.4z M1082,688.6
		c1.9-2.5,2.2-5.9,0.9-10.2c-1.2,0.6-2.2,0.9-2.8,0.9s-1.2,0.3-1.9,0.9C1079.5,684,1080.8,686.8,1082,688.6z M1092.2,623
		c1.2-1.2,1.9-2.5,1.9-3.7s0.3-2.8,0.9-4.6c-1.9,0-2.8,0.3-2.8,0.9c-1.2,2.5-2.3,4.8-3.2,6.9c-0.9,2.2-1.7,4.5-2.3,6.9
		c-1.2,2.5-1.7,4.9-1.4,7.4c0.3,2.5-0.2,4.9-1.4,7.4c-0.6,0.6-0.3,2.8,0.9,6.5c1.2-3.1,2.3-6,3.2-8.8s1.1-5.7,0.5-8.8
		C1088.5,628.8,1089.7,625.4,1092.2,623z M1096.8,660.9v1.9l0.9-0.9v-1.8L1096.8,660.9z M1112.5,602.6c0-1.2,0.1-2.5,0.5-3.7
		c0.3-1.2,0.5-2.5,0.5-3.7c-2.5-1.9-5.2-1.2-8.3,1.8c-3.1,3.1-3.7,6.8-1.9,11.1C1105.7,606.9,1108.8,605.1,1112.5,602.6z
		 M1108.8,562.8l-1.9,0.9c0,0.6,0.1,0.9,0.5,0.9c0.3,0,0.5,0.3,0.5,0.9c0.6,0,1.2-0.3,1.9-0.9
		C1109.8,564.1,1109.4,563.5,1108.8,562.8z M1118.1,580.4c0.6-0.6,1.1-1.2,1.4-1.8s0.8-1.2,1.4-1.8l-0.9-0.9c0-0.6-0.6-0.9-1.9-0.9
		c0,0.6-0.6,2.2-1.9,4.6c0.6,0,0.9,0.2,0.9,0.5C1117.2,580.3,1117.5,580.4,1118.1,580.4z M1129.2,535.1c0.6-0.6,1.1-0.9,1.4-0.9
		c0.3,0,0.8-0.3,1.4-0.9l-1.9-1.8c-0.6,0-1.5,0.6-2.8,1.8C1127.3,534.5,1127.9,535.1,1129.2,535.1z M1135.7,549
		c1.2-1.2,2-2.6,2.3-4.2c0.3-1.5,0.8-3.5,1.4-6c-3.1,1.9-4.6,3.6-4.6,5.1C1134.7,545.4,1135,547.1,1135.7,549z M1141.2,499
		c-1.9,1.8-2.8,3.1-2.8,3.7c-1.2,1.2-1.2,2.2,0,2.8c0,0.6,0.3,0.9,0.9,0.9c1.2-1.2,1.9-2.2,1.9-2.8V499z"/>
	<path class="st0" d="M1530.6,647.9c-2.5,2.5-4.3,4-5.5,4.6s-2.2,1.2-2.8,1.9c-0.6,0.6-1.5,1.2-2.8,1.8c-0.6,0.6-1.2,0.9-1.9,0.9
		c-0.6,0-1.2,0.3-1.9,0.9c-0.6,0-1.5,0.6-2.8,1.8c-1.2,0.6-1.9,1.5-1.9,2.8c0,1.2-0.6,0.9-1.8-0.9h-0.9c-1.2,1.2-3.7,2.5-7.4,3.7
		c-1.9,0-3.4,0.3-4.6,0.9c-1.2,0.6-2.8,1.2-4.6,1.9c-2.5,1.2-4.3,1.8-5.6,1.8l-2.8,0.9l-1.9,0.9l-8.3,2.8l-0.9,0.9h-1.9
		c-2.5,1.2-4,2.2-4.6,2.8h-1.7c-3.1,0-5.9,0.9-8.3,2.8c-1.2,0-3.1,0.6-5.6,1.8c-0.6,0.6-1.2,0.9-1.8,0.9s-1.5,0.3-2.8,0.9
		c-2.5,1.2-4.6,2.2-6.5,2.8c-1.8,1.2-5.2,2.5-10.2,3.7c-0.6,0-1.5,0.6-2.8,1.8c-2.5,0.6-4.3,0.9-5.6,0.9c-1.2,0-2.5,0.3-3.7,0.9
		c-1.2,0.6-2.2,0.9-2.8,0.9c-0.6,0-1.5,0.3-2.8,0.9h-3.7c-1.8,0-2.8,1.2-2.8,3.7v4.6c-0.6,1.2-0.9,2.8-0.9,4.6
		c0,1.9-0.3,3.7-0.9,5.5c-0.6,1.2-0.9,2.2-0.9,2.8s0,1.5,0,2.8c-1.2,2.5-1.9,4.6-1.9,6.5c-1.2,2.5-1.9,4.3-1.9,5.5s-0.3,2.8-0.9,4.6
		l-0.9,0.9v0.9c-0.6,4.9-2.2,10.8-4.6,17.6l-2.8,8.3c-0.6,1.2-0.9,3.7-0.9,7.4v0.9c-1.9,1.9-2.8,4-2.8,6.5l-0.9,0.9l-2.8,8.3
		c0,1.8-0.6,2.8-1.9,2.8c-0.6,1.2-0.9,2.5-0.9,3.7s-0.3,2.2-0.9,2.8c-1.2,3.7-1.8,6.5-1.8,8.3c-0.6,1.2-0.9,2.5-0.9,3.7
		s-0.3,2.8-0.9,4.6c0,1.2,0,2.5,0,3.7s-0.3,2.5-0.9,3.7v3.7v1.8c-0.6,1.9-2.2,2.8-4.6,2.8c0.6-0.6,0.9-1.5,0.9-2.8v-2.8
		c0-1.2,0.3-1.9,0.9-1.9c0-1.2-0.3-2.2-0.9-2.8h-0.9l-1.9,1.8c0,2.5-0.3,4.3-0.9,5.5v1.9v2.8l-0.9,1.9l-0.9,0.9v0.9h-0.9V835
		c1.2-2.5,1.9-4.9,1.9-7.4s0.3-4.9,0.9-7.4v-3.7c0.6-1.9,0.9-4,0.9-6.5s0-4.3,0-5.5s0.6-3.7,1.9-7.4c0-0.6-0.6-2.2-1.9-4.6
		c-0.6,0.6-0.9,1.2-0.9,1.8c-0.6,1.2-0.9,2.2-0.9,2.8s0,1.5,0,2.8l-2.8,2.8c-0.6,0.6-0.9,1.2-0.9,1.8c-0.6,0.6-0.9,2.2-0.9,4.6
		c-0.6,0.6-0.9,1.5-0.9,2.8c0,2.5-0.3,4.3-0.9,5.5c0,1.2-0.6,1.8-1.9,1.8h-0.9l-2.8,2.8l-0.9,0.9c-1.2,0-2.2,0.6-2.8,1.9
		c-0.6,1.2-0.6,2.5,0,3.7c0,0.6,0.6,0.9,1.9,0.9h1.8c-1.2,1.2-2.2,1.5-2.8,0.9h-0.9c-0.6,0-0.9,0.3-0.9,0.9c-1.2,1.2-1.2,2.5,0,3.7
		v1.8c0,1.9,0.6,2.5,1.9,1.9v1.8c0,0.6-0.3,0.9-0.9,0.9c-0.6,0-0.9-0.3-0.9-0.9s-0.6-0.3-1.9,0.9v0.9c0,0.6,0.3,1.2,0.9,1.8
		c1.9,0,2.5,0.9,1.9,2.8c-0.6-0.6-1.5-0.3-2.8,0.9c0,1.8-0.3,3.4-0.9,4.6c0,1.8,1.2,3.1,3.7,3.7c-1.2,0-2.2,0.3-2.8,0.9v1.8
		c0,0.6-0.3,0.9-0.9,0.9c-0.6,0.6-0.9,1.9-0.9,3.7v4.6v1.9c1.2,0.6,1.5,1.5,0.9,2.8c-0.6,1.2-1.2,2.5-1.9,3.7v0.9v6.5
		c-0.6,2.5-0.9,4.3-0.9,5.5s0,2.5,0,3.7v0.9l-0.9,0.9v0.9c-0.6,1.2-0.9,3.1-0.9,5.6v2.8v7.4c0,3.7,0,6.8,0,9.2
		c0,2.5-0.6,5.2-1.9,8.3c-0.6,3.1-0.9,5.9-0.9,8.3c0,2.5-0.3,4.6-0.9,6.5c-0.6,1.2-0.9,2.8-0.9,4.6c0,3.7-0.3,6.2-0.9,7.4
		c-0.6,1.2-0.9,2.5-0.9,3.7s-0.3,2.2-0.9,2.8c0,0.6-0.3,1.2-0.9,1.9c-1.9-0.6-2.8-2.5-2.8-5.6V952l-0.9-0.9c-1.2,0-1.9-0.9-1.9-2.8
		c0.6-3.1,0.9-7.4,0.9-13v-1.8l-0.9-0.9l-0.9-0.9V928v-5.6V915v-2.8v-0.9c-0.6,0-0.9,0.3-0.9,0.9v4.6l-0.9,0.9
		c-0.6,0.6-0.9,1.5-0.9,2.8c0,1.2-0.3,2.2-0.9,2.8v2.8l0.9,1.9v1.8c0,1.8-0.3,3.1-0.9,3.7v2.8c0,0.6,0,1.2,0,1.8c0,0.6,0,1.5,0,2.8
		v1.8l-0.9,2.8v0.9c0.6,1.2,0.9,2.5,0.9,3.7s-0.3,2.2-0.9,2.8l-0.9,0.9v0.9c-0.6,0-0.9-0.3-0.9-0.9c-0.6-2.5-0.9-4.3-0.9-5.5
		s0.6-2.8,1.9-4.6c0-0.6,0-1.5,0-2.8c0-1.2-0.3-2.5-0.9-3.7c0.6-1.2,0.9-2.5,0.9-3.7s0-2.5,0-3.7s0-2.5,0-3.7s-0.3-2.2-0.9-2.8v-2.8
		v-0.9c-0.6,0-0.9,0.3-0.9,0.9c-0.6,1.2-0.9,2.5-0.9,3.7v1.8c-1.2-2.5-1.5-4.3-0.9-5.5v-2.8v-1.8v-2.8l-0.9-0.9
		c0,0.6-0.3,0.9-0.9,0.9c-1.2,1.2-1.9,2.5-1.9,3.7c0.6,0.6,0.6,0.9,0,0.9c-1.2,0.6-1.5,1.2-0.9,1.9c0.6,0.6,0.9,1.5,0.9,2.8v1.9
		l0.9,1.8c0,1.9-0.3,3.1-0.9,3.7c-1.2,3.1-1.2,5.9,0,8.3l-0.9,0.9c-0.6-1.2-0.9-2.5-0.9-3.7s0-2.5,0-3.7v-19.4v-0.9
		c-1.2-1.2-1.2-3.1,0-5.5V903v-2.8v-2.8v-0.9l-0.9-1.9c0-1.2,0.3-2.2,0.9-2.8v-3.7c-1.2-1.2-2.2-1.9-2.8-1.9c-0.6,0.6-0.9,0.6-0.9,0
		v-0.9c0-1.8-0.3-3.1-0.9-3.7v-2.8c-1.2-1.2-1.9,0-1.9,3.7c-0.6-0.6-1.2-0.9-1.9-0.9c-0.6-1.2-0.9-2.5-0.9-3.7s0-2.5,0-3.7
		s0-2.5,0-3.7s0.3-2.5,0.9-3.7c0-1.8,0.3-3.4,0.9-4.6v-1.8c-0.6-0.6-0.9-2.2-0.9-4.6v-4.6v-2.8l0.9-0.9v-0.9c1.2,0,1.8-0.6,1.8-1.9
		c0-0.6-0.6-0.9-1.8-0.9s-1.9-0.3-1.9-0.9c-0.6-1.2-0.9-2.5-0.9-3.7s-0.3-2.5-0.9-3.7v-11.1c0-1.2,0-2.2,0-2.8s0.3-1.5,0.9-2.8
		v-25.9c0.6-1.2,0.9-2.5,0.9-3.7s0.3-2.5,0.9-3.7v-1.8c-0.6-1.2-0.9-2.5-0.9-3.7s0.3-2.8,0.9-4.6v-9.2c-0.6-1.2-0.9-2.5-0.9-3.7
		s0-2.5,0-3.7c0-1.8,0-3.4,0-4.6c0-1.2,0.3-2.5,0.9-3.7v-7.4v-0.9c0-1.2-0.6-1.8-1.9-1.8c-1.8,0.6-4,0.9-6.5,0.9
		c-1.2,0.6-3.1,0.9-5.5,0.9c-2.5,0-4.9,0.6-7.4,1.9c-1.9,0.6-4.3,0.9-7.4,0.9h-0.9c-1.2,1.2-2.5,1.8-3.7,1.8c-1.2,0-2.5,0.3-3.7,0.9
		c-0.6,0.6-1.5,0.9-2.8,0.9c-1.2,0-2.5,0.3-3.7,0.9c-0.6,0-2.8,0.6-6.5,1.9h-2.8c-1.2,0.6-3.7,1.5-7.4,2.8c-1.2,1.2-2.5,2.5-3.7,3.7
		s-2.5,2.5-3.7,3.7c-1.9,2.5-4,6.2-6.5,11.1c-0.6,1.2-1.5,3.1-2.8,5.5c-1.2,2.5-2.5,4.3-3.7,5.6c-0.6,1.2-0.9,2.2-0.9,2.8
		s-0.6,1.5-1.9,2.8c0,0.6-0.6,1.5-1.9,2.8c-1.2,0.6-2.2,1.5-2.8,2.8c-0.6,1.2-1.5,2.5-2.8,3.7c-0.6,1.2-1.2,1.8-1.9,1.8
		c-0.6,0-1.2,0.6-1.9,1.9c-0.6,1.2-1.2,1.8-1.8,1.8s-0.9,0.9-0.9,2.8c-0.6,1.2-1.9,2.8-3.7,4.6c-1.2,1.8-3.1,4-5.6,6.5
		c-1.2,1.2-2.5,2.8-3.7,4.6c-1.2,1.9-2.2,3.4-2.8,4.6c-0.6,0-1.5,0.6-2.8,1.9c-2.5,2.5-4.3,4-5.5,4.6c-2.5,1.2-4.3,2.5-5.6,3.7
		c-1.2,1.2-2.5,2.5-3.7,3.7c-1.2,1.2-2.5,2.2-3.7,2.8c-0.6,1.2-2.2,3.1-4.6,5.5c-1.2,0.6-2.8,1.9-4.6,3.7c-1.8,1.8-3.7,3.7-5.6,5.5
		c-1.9,1.9-3.7,3.4-5.5,4.6c-1.2,1.2-2.2,2.5-2.8,3.7s-1.5,2.2-2.8,2.8c-0.6,0-0.9,0.3-0.9,0.9c-2.5,0.6-4.3,1.8-5.6,3.7
		c-1.2,1.8-2.5,3.4-3.7,4.6c-3.7,3.7-6.5,6.2-8.3,7.4c-1.2,1.9-2.8,3.4-4.6,4.6c-1.9,1.2-3.7,2.5-5.5,3.7l-2.8,2.8
		c-2.5,1.8-4.9,3.1-7.4,3.7c-1.2,0.6-2.5,1.2-3.7,1.8c-1.2,0.6-2.2,1.2-2.8,1.9c-1.2,0.6-2.5,0.9-3.7,0.9c-1.2,0-2.5,0.3-3.7,0.9
		c-1.9,0.6-3.4,0.9-4.6,0.9c-1.2,0-2.8,0.3-4.6,0.9c-1.2,0-2.2-0.3-2.8-0.9c-1.2,0-2.5,0-3.7,0c-1.2,0-3.1-0.3-5.5-0.9
		c-2.5,0-4.9-0.9-7.4-2.8h-2.8l-5.5-5.5c-3.1-2.5-4.6-4.9-4.6-7.4s-0.6-4.6-1.9-6.5c0-1.8-0.6-4-1.9-6.5c0-0.6-0.6-2.2-1.9-4.6v-3.7
		v-0.9c0-3.7,0-6.8,0-9.3s0.3-5.2,0.9-8.3c0.6-2.5,1.2-4.6,1.9-6.5c0.6-1.8,1.2-4,1.9-6.5c0.6-1.2,0.9-2.8,0.9-4.6
		c0-1.9,0.6-3.4,1.8-4.6c0.6-0.6,1.2-1.5,1.9-2.8c0.6-1.2,1.2-2.5,1.9-3.7c0-1.2,0.6-2.5,1.9-3.7c0-0.6,0.3-0.9,0.9-0.9
		s0.9-0.6,0.9-1.8c1.2-1.2,1.8-2.5,1.8-3.7c0.6-1.8,2.2-4,4.6-6.5c1.2-1.2,3.1-3.7,5.6-7.4c0-0.6,0.3-0.9,0.9-0.9
		c1.9-1.9,1.5-2.8-0.9-2.8c0-0.6-0.6-0.9-1.9-0.9c-1.9-0.6-3.4-0.9-4.6-0.9c-1.2,0-2.5,0-3.7,0c-1.2-0.6-2.5-0.9-3.7-0.9
		c-1.2,0-2.5-0.3-3.7-0.9h-1.9l-0.9-0.9c-1.9-1.2-3.7-2.2-5.6-2.8c-1.8-0.6-3.4-1.5-4.6-2.8c0-0.6-0.6-1.5-1.8-2.8
		c-0.6,0-0.9-0.3-0.9-0.9c-0.6-0.6-0.9-1.5-0.9-2.8c0-0.6,0-1.2,0-1.8s-0.3-1.2-0.9-1.8v-1.9c0.6-2.5,0.6-4.3,0-5.5
		c-0.6-1.2-0.9-2.5-0.9-3.7c-0.6-0.6-0.9-1.2-0.9-1.8l0.9-4.6c0.6-3.1,2.8-6.5,6.5-10.2l2.8-2.8c0-1.2,0.6-1.9,1.9-1.9
		c1.2-1.2,1.9-2.2,1.9-2.8l5.5-5.5c0.6-0.6,2.2-1.5,4.6-2.8c0.6-0.6,1.5-1.2,2.8-1.8c1.2-0.6,2.5-1.2,3.7-1.9c3.7-2.5,6.5-4,8.3-4.6
		c1.9-1.2,3.4-1.8,4.6-1.8c1.2,0,2.5-0.9,3.7-2.8l5.6-2.8c0.6-0.6,1.2-0.9,1.9-0.9c0.6,0,1.5-0.3,2.8-0.9c1.9,0,4-0.6,6.5-1.8
		c1.2-0.6,2.5-0.9,3.7-0.9c1.2,0,2.5-0.3,3.7-0.9c0.6,0,1.2,0,1.9,0c0.6,0,1.2-0.3,1.9-0.9c0.6-0.6,1.2-0.9,1.9-0.9
		c0.6,0,1.2,0,1.8,0c1.2-0.6,2.5-1.2,3.7-1.9c1.2-0.6,2.8-0.9,4.6-0.9c1.2,0,3.7-0.6,7.4-1.8l0.9-0.9c1.2,0.6,2.5,0.6,3.7,0
		c1.2-0.6,2.2-1.2,2.8-1.9h1.8c1.9,0,3.4-1.2,4.6-3.7c1.2-1.2,2.2-2.5,2.8-3.7c1.9-1.2,2.8-2.5,2.8-3.7s0.6-2.5,1.9-3.7
		c1.2-1.2,2.2-2.5,2.8-3.7s1.5-2.2,2.8-2.8l5.6-8.3c1.2-1.2,2.2-2.5,2.8-3.7s1.5-2.5,2.8-3.7c1.2-1.8,2.5-3.7,3.7-5.5
		c1.2-1.9,2.5-4,3.7-6.5c1.2-1.8,2.5-3.7,3.7-5.5s2.5-4,3.7-6.5c2.5-2.5,4.3-5.5,5.5-9.2c1.2-3.7,2.8-7.1,4.6-10.2
		c1.9-0.6,2.8-1.5,2.8-2.8c0-1.2,0.6-2.5,1.9-3.7c1.9-2.5,4-6.2,6.5-11.1c0.6-1.9,1.5-3.7,2.8-5.6c1.2-1.8,2.5-3.7,3.7-5.5
		c1.2-2.5,2.8-4.9,4.6-7.4c1.9-2.5,3.4-4.9,4.6-7.4c1.2-2.5,2.5-4.3,3.7-5.5c2.5-5.6,5.9-10.8,10.2-15.7c0.6-0.6,1.2-1.5,1.9-2.8
		c0.6-1.2,1.2-2.5,1.9-3.7c2.5-3.1,4.6-6.2,6.5-9.2c1.9-3.1,4-6.2,6.5-9.2c0.6-1.2,1.5-2.5,2.8-3.7c1.2-1.2,2.2-2.5,2.8-3.7v-0.9
		c1.2-1.8,2.5-3.7,3.7-5.5c1.2-1.9,2.5-3.7,3.7-5.6c2.5-3.7,4.6-6.5,6.5-8.3c0.6-1.2,1.2-2.5,1.9-3.7c0.6-1.2,1.2-2.2,1.9-2.8
		c1.2-1.8,2.5-3.7,3.7-5.5s2.5-3.7,3.7-5.5c1.2-1.2,2.2-2.5,2.8-3.7s1.2-2.2,1.9-2.8c0.6-0.6,1.2-1.5,1.9-2.8l5.5-8.3
		c0.6-1.2,2.2-3.7,4.6-7.4c0.6-1.2,2.2-3.1,4.6-5.5c1.2-1.8,1.8-4.9,1.8-9.2c-0.6-1.2-0.9-2.5-0.9-3.7s0.3-2.8,0.9-4.6
		c0.6-1.8,0.9-3.4,0.9-4.6c0-1.2,0-2.8,0-4.6l2.8-8.3c0.6-0.6,0.9-1.9,0.9-3.7c0.6-2.5,1.9-4.9,3.7-7.4l3.7-3.7
		c0.6,0,0.9-0.3,0.9-0.9c0.6-3.1,2.5-5.6,5.6-7.4c2.5-2.5,4.9-3.7,7.4-3.7c0.6,0,1.5-0.3,2.8-0.9c1.2-0.6,2.5-0.9,3.7-0.9
		c1.9-0.6,3.7-1.5,5.5-2.8c1.9-1.2,4-1.5,6.5-0.9h13c3.1,0,5.2,0.6,6.5,1.8c1.2,1.9,2.5,2.8,3.7,2.8c1.2,0,2.2,0.6,2.8,1.8l3.7,1.9
		h1.9c-0.6,1.2-0.3,2.2,0.9,2.8c1.2,0.6,2.2,1.2,2.8,1.9c3.1,3.1,5.2,5.6,6.5,7.4c0,0.6,0.6,1.5,1.8,2.8c0.6,1.2,0.9,2.5,0.9,3.7
		s0.6,2.2,1.9,2.8c1.8,1.2,2.8,2.8,2.8,4.6s0.6,3.7,1.9,5.5c0.6,0.6,0.9,1.2,0.9,1.9c0,0.6,0.3,1.5,0.9,2.8c0,0.6,0,1.2,0,1.9
		c0,0.6,0.3,1.2,0.9,1.9c1.2,6.2,2.2,10.5,2.8,13c1.2,2.5,1.9,4.3,1.9,5.5c0.6,0.6,0.9,1.8,0.9,3.7c0,0.6,0.6,2.2,1.9,4.6
		c0.6,1.2,0.9,2.2,0.9,2.8s0,1.5,0,2.8c0,0.6,0.6,2.2,1.9,4.6c1.2,2.5,1.9,4.3,1.9,5.5c-0.6,1.2-0.6,2.2,0,2.8
		c0.6,0.6,0.9,1.5,0.9,2.8c1.2,3.7,1.8,6.2,1.8,7.4c1.2,6.2,2.2,10.5,2.8,13v6.5c0,2.5,0,4.3,0,5.6c0,1.2-0.3,2.8-0.9,4.6v5.5v2.8
		c0.6,2.5,1.2,4.6,1.9,6.5c0.6,1.8,0.9,4,0.9,6.5v3.7v13c0,1.8,0,3.7,0,5.5s-0.3,4-0.9,6.5v2.8c-0.6,1.2-0.9,2.5-0.9,3.7
		s0.3,2.5,0.9,3.7c-0.6,3.1-0.9,5.9-0.9,8.3c0,2.5,0,4.9,0,7.4c0,1.8,0,3.7,0,5.5c0,1.9-0.3,3.7-0.9,5.6c-0.6,1.2-0.9,2.5-0.9,3.7
		s0,2.5,0,3.7c-0.6,0.6-0.9,1.9-0.9,3.7c-0.6,2.5-0.9,5.9-0.9,10.2c-0.6,1.2-0.9,3.1-0.9,5.6c-0.6,1.2-0.9,2.5-0.9,3.7s0,2.2,0,2.8
		v3.7c0,3.1-0.3,5.5-0.9,7.4v1.9c0.6,1.8,1.9,2.5,3.7,1.8c1.2-0.6,2.2-0.9,2.8-0.9c0.6,0,1.5-0.3,2.8-0.9c1.9-0.6,3.4-1.2,4.6-1.9
		c1.2-0.6,3.1-1.2,5.5-1.8c1.2-0.6,2.5-0.9,3.7-0.9c1.2,0,2.2-0.3,2.8-0.9c3.7-1.2,5.9-1.9,6.5-1.9c3.1-1.2,7.1-2.5,12-3.7
		c1.2-0.6,2.2-0.9,2.8-0.9c0.6,0,1.5-0.3,2.8-0.9l1.9-0.9c1.9,0,3.4,0,4.6,0s2.8-0.3,4.6-0.9c0.6-0.6,1.2-0.9,1.9-0.9
		c0.6,0,1.2,0,1.8,0h7.4c0.6,0,0.9,0.3,0.9,0.9v0.9c0,1.8,1.2,2.8,3.7,2.8c0.6,0.6,1.5,0.9,2.8,0.9h0.9l1.9,0.9h8.3h2.8
		c0.6,0.6,1.2,0.9,1.9,0.9c2.5-0.6,4.3-0.6,5.5,0c1.2,0.6,2.8,0.9,4.6,0.9c0.6,0.6,1.2,0.9,1.9,0.9h12h-0.8V647.9z M1301.2,677.5
		c1.9,0,2.8-0.9,2.8-2.8v-7.4c-0.6-3.1-0.9-7.4-0.9-13c-0.6-1.2-0.9-3.1-0.9-5.5c0-1.9,0-4,0-6.5s-0.6-5.2-1.9-8.3v-15.7v-1.9
		l-0.9-2.8v-1.9h-0.9c0,0.6-0.6,1.5-1.9,2.8c-0.6,2.5-1.2,4.6-1.9,6.5c-0.6,1.9-1.5,4-2.8,6.5c-1.2,2.5-1.9,4.3-1.9,5.5l-0.9,1.9
		v0.9c0,0.6-0.6,2.2-1.9,4.6c0,1.2-0.3,2.2-0.9,2.8c-0.6,0.6-0.9,1.5-0.9,2.8c0,1.2-0.6,2.5-1.8,3.7l-2.8,8.3
		c-0.6,1.2-0.9,2.2-0.9,2.8s-0.3,1.5-0.9,2.8v2.8c-0.6,2.5-1.2,4.3-1.9,5.6c-0.6,1.2-1.2,2.8-1.9,4.6l-0.9,1.8
		c-0.6,0.6-0.9,1.5-0.9,2.8h2.8h4.6c0.6-0.6,2.2-0.9,4.6-0.9c3.7-1.2,6.5-1.9,8.3-1.9C1295.7,677.9,1298.1,677.5,1301.2,677.5z
		 M1308.6,862.5c-2.5,2.5-3.4,4.3-2.8,5.5c0,2.5-0.3,4-0.9,4.6c0,2.5,0.3,4.3,0.9,5.5c1.2-1.2,1.5-2.2,0.9-2.8
		c-0.6-0.6-0.6-1.5,0-2.8c1.2,0,1.9-0.9,1.9-2.8c-0.6-1.2-0.9-2.5-0.9-3.7s0.3-2.2,0.9-2.8L1308.6,862.5L1308.6,862.5z
		 M1308.6,897.7v1.8h-2.8v-3.7v-3.7C1305.8,894,1306.8,895.8,1308.6,897.7z M1306.8,892.1c1.2,0,1.9-0.3,1.9-0.9l0.9,0.9v0.9h-2.8
		V892.1L1306.8,892.1z M1309.5,886.6c1.2-1.2,2.2-1.8,2.8-1.8c-0.6-0.6-1.2-0.9-1.9-0.9l0.9-2.8v-1.8c0-1.9-0.3-3.1-0.9-3.7v0.9v1.8
		c-0.6,0.6-0.9,1.5-0.9,2.8s-0.3,2.5-0.9,3.7l0.9,0.9V886.6L1309.5,886.6z M1312.3,863.5h-1.9l0.9,0.9v0.9h0.9v-1.8H1312.3z
		 M1314.2,912.5c0.6-1.2,0.9-2.2,0.9-2.8c0-0.6,0-1.5,0-2.8l-0.9,0.9c-1.2,1.2-1.5,2.8-0.9,4.6h0.9V912.5z M1315.1,899.5
		c-1.9,0-2.2,0.6-0.9,1.9v1.8v0.9c0-0.6,0.3-0.9,0.9-0.9V899.5z M1314.2,889.4l0.9,0.9v1.8c0,0.6,0.3,0.9,0.9,0.9
		c0.6-0.6,0.9-1.5,0.9-2.8v-3.7c-1.2,0-1.8,0.3-1.8,0.9C1315.1,888.1,1314.8,888.7,1314.2,889.4z M1316.9,909.7v-2.8l0.9-0.9
		c0,0.6-0.9,0-2.8-1.9c0,1.2,0,2.2,0,2.8c0,0.6,0.3,1.5,0.9,2.8H1316.9z M1316.9,934.7v1.8l0.9,0.9h-1.8v-2.8L1316.9,934.7
		L1316.9,934.7z M1318.8,857.9c1.2,0,1.9-0.6,1.9-1.9c0-1.2-0.6-1.8-1.9-1.8c-0.6,0-1.2,0.9-1.9,2.8h0.9L1318.8,857.9z
		 M1334.5,860.7l0.9-1.8V858c-1.2-1.2-2.2-1.9-2.8-1.9C1332,857.9,1332.7,859.5,1334.5,860.7z M1352.1,815.4h-1.9
		c0.6,0.6,0.9,1.9,0.9,3.7h0.9L1352.1,815.4L1352.1,815.4z M1358.6,808c0-2.5-0.9-3.7-2.8-3.7v1.8c0,0.6-0.3,0.9-0.9,0.9l-0.9-0.9
		v-0.9h-1l-0.9,0.9c0,0.6-0.3,1.2-0.9,1.9v1.8v1.9c-0.6,0.6-0.6,1.2,0,1.8s1.2,0.9,1.8,0.9l1.9-1.8c0-0.6,0.3-1.2,0.9-1.9
		c1.2,1.2,1.8,1.2,1.8,0S1357.9,808.6,1358.6,808z M1353.9,845c-0.6-1.8-0.3-3.1,0.9-3.7C1355.5,842.5,1355.2,843.7,1353.9,845z
		 M1357.6,802.4v-0.9l0.9-0.9l-0.9-0.9c-0.6,0-1.2,0.3-1.8,0.9L1357.6,802.4z M1355.8,822.8c0.6,0.6,1.2,0.9,1.8,0.9
		c0,1.2-0.3,1.9-0.9,1.9C1356.1,825.5,1355.8,824.6,1355.8,822.8z M1364.1,807c0.6,0.6,0.9,1.5,0.9,2.8c-0.6,1.2-0.9,2.2-0.9,2.8
		s-0.3,1.5-0.9,2.8c0,1.2-0.3,1.9-0.9,1.9C1361,812.9,1361.6,809.5,1364.1,807z"/>
	<path class="st0" d="M1847,474c0,0.6-0.3,1.5-0.9,2.8c-1.8,0.6-3.4,1.5-4.6,2.8c-1.2,1.2-2.8,2.2-4.6,2.8l-16.7,11.1
		c-1.8,1.2-4,3.1-6.5,5.6c-0.6,0.6-0.9,1.2-0.9,1.8s0.6,0.9,1.8,0.9c3.7,0,6.5-1.5,8.3-4.6c0.6-1.8,3.1-3.4,7.4-4.6l1.9-0.9l0.9-0.9
		c1.8-0.6,3.4-1.2,4.6-1.9c1.2-0.6,2.5-1.2,3.7-1.8c-2.5,2.5-4.6,4-6.5,4.6c-2.5,0-3.1,1.5-1.8,4.6c1.2,3.1,0.3,5.5-2.8,7.4
		c-2.5,1.2-4.3,2.5-5.5,3.7s-2.8,2.2-4.6,2.8c-0.6,0.6-1.5,0.9-2.8,0.9c-1.2,0-2.5,0.6-3.7,1.9l-5.5,2.8c-0.6,0.6-1.5,0.9-2.8,0.9
		c-1.2-0.6-3.1-0.3-5.5,0.9c-1.9,0.6-3.1,0.3-3.7-0.9h-1.9h-0.9l-0.9,0.9l0.9,0.9l1.9,0.9l0.9,0.9h0.9l-1.8,1.9
		c-1.2,1.2-2.5,2.5-3.7,3.7s-2.2,2.2-2.8,2.8c-0.6,0.6-1.2,0.9-1.8,0.9c-0.6,0-1.2,0.6-1.9,1.9c-1.8,0-3.1,0.9-3.7,2.8
		c-0.6,1.9-1.2,2.8-1.9,2.8c-0.6,0-1.2,0.3-1.8,0.9c-4.3,1.9-7.1,4.3-8.3,7.4c-1.8,1.8-3.4,2.8-4.6,2.8c-4.9,1.2-7.7,3.7-8.3,7.4
		c-1.8,3.1-3.7,4-5.5,2.8c-1.8-0.6-3.7,0-5.5,1.8c0,0.6-0.3,0.9-0.9,0.9h-1.9c-1.2,1.2-2.5,1.9-3.7,1.9s-2.5,0.9-3.7,2.8
		c1.2,1.2,2.2,1.9,2.8,1.9c-1.2,3.1-3.1,4.9-5.5,5.5c-0.6,0-1.5,1.5-2.8,4.6c0,1.8-0.6,2.8-1.8,2.8l-0.9,1.9c-1.2,1.8-3.7,4-7.4,6.5
		v-0.9v-2.8c-3.1,0-5.2,2.2-6.5,6.5c-1.2,1.2-1.9,2.2-1.9,2.8c-3.1-3.1-5.2-2.8-6.5,0.9c0,3.7-2.2,6.2-6.5,7.4v-1.8
		c-2.5-0.6-5.2,0-8.3,1.8c-1.2,1.2-1.9,2.5-1.9,3.7s-0.9,2.8-2.8,4.6c-0.6,1.2-1.2,1.9-1.9,1.9c-0.6,0-1.2,0.6-1.9,1.8
		c-0.6,0.6-1.2,0.9-1.9,0.9c-1.9,0-3.1,0.3-3.7,0.9c-0.6,0.6-1.5,1.5-2.8,2.8c-1.2,1.2-1.2,2.5,0,3.7s2.2,1.8,2.8,1.8
		c1.2,1.9,2.2,3.4,2.8,4.6c0.6,1.2,1.5,3.1,2.8,5.6c0.6,0,0.9,0.6,0.9,1.8l0.9,1.8l0.9,0.9c3.1,1.8,4.6,4.6,4.6,8.3
		c0,0.6,0.6,1.5,1.9,2.8c1.2,0.6,1.9,1.8,1.9,3.7c-1.2,3.1-0.9,5.5,0.9,7.4v3.7v5.5l1.9,1.9l1.9-0.9c1.9-2.5,3.1-2.5,3.7,0
		c0,1.2,0,2.2,0,2.8s0,1.2,0,1.9c-0.6,3.1-0.6,5.5,0,7.4s0.9,4.3,0.9,7.4l-1.9,3.7v1.8c1.2,0,1.9-0.3,1.9-0.9c0.6,0,0.9-0.3,0.9-0.9
		c0-0.6,0.6-0.9,1.9-0.9c0,1.8,0,3.7,0,5.5s0.6,4,1.9,6.5c1.2,4.9,1.9,8.9,1.9,12c0,1.8-0.3,3.4-0.9,4.6l-2.8,8.3
		c-0.6,1.2-0.9,2.8-0.9,4.6c0.6,3.7-0.3,6.8-2.8,9.2c-1.9,1.2-2.2,2.5-0.9,3.7c1.2,1.2,1.9,2.8,1.9,4.6v1.8h2.8
		c1.2-1.2,1.9-2.2,1.9-2.8c1.2-4.9,1.5-8.6,0.9-11.1c0-2.5,0.9-4.6,2.8-6.5c0.6,1.2,0.9,3.1,0.9,5.5v20.3c0.6,1.2,0.9,2.5,0.9,3.7
		s0,2.2,0,2.8c0,1.2-0.6,1.8-1.8,1.8c-1.9,0.6-4.3,0.9-7.4,0.9c-0.6,0.6-0.9,1.2-0.9,1.9v4.6c0.6,0.6,0.9,1.5,0.9,2.8l1.9,1.9h1.9
		l1.9-0.9l0.9-0.9v2.8c1.9,0,3.1-0.3,3.7-0.9c-0.6,2.5-0.9,4.3-0.9,5.5s0,2.8,0,4.6c0,1.2,0,2.8,0,4.6c0,1.9,0.3,3.4,0.9,4.6h-2.4
		c-1.9,0-2.8,0.9-2.8,2.8c1.2,1.8,1.2,3.4,0,4.6c-1.2,1.2-2.2,2.5-2.8,3.7h-0.9v-0.9v-2.8l-0.9-1.9c-1.2,0-1.9,0.3-1.9,0.9l-5.5,5.5
		c-1.2,1.2-1.5,2.8-0.9,4.6c0,1.8-0.3,3.1-0.9,3.7c-0.6,1.2-0.9,2.8-0.9,4.6s-0.3,3.7-0.9,5.5c0,1.2,1.2,2.2,3.7,2.8v1.8
		c-0.6,1.2-1.2,2.5-1.9,3.7c-0.6,1.2-1.2,2.5-1.9,3.7c-1.9,1.8-1.9,2.8,0,2.8c0.6,2.5,0.3,4.9-0.9,7.4c-1.2,2.5-1.8,4-1.8,4.6
		c-1.2,4.9-2.5,8.3-3.7,10.2c-1.2,1.2-1.9,3.1-1.9,5.5c0,2.5,0.9,4.6,2.8,6.5c0,3.7,0.3,6.2,0.9,7.4l-0.9,0.9l-0.9-1.9l-0.9-0.9
		c0-2.5-0.6-3.7-1.9-3.7c-0.6-0.6-0.9-0.3-0.9,0.9c0,1.2,0,2.2,0,2.8c0,3.1,0,5.9,0,8.3c0,2.5,0.3,4.6,0.9,6.5l0.9,2.8l-0.9,1.8
		c-1.2,6.2-1.2,10.8,0,13.9v2.8l-0.9-0.9c-1.2-1.9-2.5-2.2-3.7-0.9c-1.2,2.5-2.5,4.3-3.7,5.5s-2.5,2.5-3.7,3.7
		c-0.6,0.6-0.9,2.2-0.9,4.6c1.2,3.7,1.9,6.5,1.9,8.3c0,3.1-0.9,4-2.8,2.8c-3.1-1.2-4.6,0-4.6,3.7c0,1.2,0.3,2.5,0.9,3.7l-3.7-1.9
		c-1.8-0.6-3.1-0.3-3.7,0.9c-0.6,1.2-1.5,1.8-2.8,1.8c-0.6,0-1.2-0.3-1.8-0.9c-1.2-0.6-2.5-1.2-3.7-1.9c-1.2-0.6-2.5-0.6-3.7,0
		l-2.8-2.8c-1.2-2.5-2.5-4.9-3.7-7.4s-2.8-4.9-4.6-7.4c-1.2-1.8-2.2-3.7-2.8-5.5c-0.6-1.8-1.5-3.7-2.8-5.5c-1.9-4.3-3.4-8.6-4.6-13
		c-1.2-4.3-2.8-8.9-4.6-13.9c-1.2-3.1-2.5-6.5-3.7-10.2c-1.2-3.7-2.5-6.8-3.7-9.2c0-2.5,0.3-4,0.9-4.6l0.9-0.9v-0.9
		c-0.6-1.8-0.9-3.4-0.9-4.6s0-2.8,0-4.6v-3.7c0-3.1-0.6-5.2-1.9-6.5v-2.8c0-4.9-0.3-8.3-0.9-10.2c0-1.8-0.3-3.1-0.9-3.7
		c-1.2-1.8-1.2-3.7,0-5.5c0-1.2-0.3-2.2-0.9-2.8l-1.9-3.7v-2.8c0.6-1.8,0.9-3.7,0.9-5.5c0-1.9,0-3.7,0-5.5v-0.9l-0.9-0.9
		c-0.6-0.6-0.9-1.2-0.9-1.8s0-1.2,0-1.9c1.2-3.1,1.2-6.2,0-9.2c0-1.2-0.6-2.5-1.9-3.7v-3.7c-1.2-3.7-3.1-4.6-5.6-2.8h-2.8
		c-0.6-3.1-0.9-6.2-0.9-9.2c0-3.1,0-6.2,0-9.2c-0.6-3.1-0.9-6.5-0.9-10.2s-0.3-7.1-0.9-10.2c0-5.5-0.3-9.6-0.9-12
		c-0.6-3.7-0.9-7.4-0.9-11.1c0-3.7,0-7.1,0-10.2v-12v-2.8c0-2.5-0.9-4-2.8-4.6c1.9-0.6,2.8-2.2,2.8-4.6c0-1.2,0-2.5,0-3.7
		s-0.3-2.5-0.9-3.7c0-1.8-0.3-3.1-0.9-3.7c-0.6,0.6-1.2,0.9-1.8,0.9s-1.2,0-1.9,0l-1.9,1.8l-0.9,2.8c-0.6,0.6-0.9,1.2-0.9,1.8
		c-1.9-1.8-1.9-3.1,0-3.7c-0.6,0,0-0.9,1.9-2.8v-0.9l-0.9-0.9h-1.9c-0.6,0-0.9,0.3-0.9,0.9c-1.9,1.9-3.7,2.5-5.5,1.9h-2.8
		c-2.5,2.5-4.6,4-6.5,4.6c-1.9,1.8-2.8,3.4-2.8,4.6c-1.2,1.2-1.8,2.5-1.8,3.7c0.6,1.8,0.3,3.4-0.9,4.6c-1.2,1.2-1.9,2.5-1.9,3.7
		s-0.6,1.9-1.8,1.9c-1.2,1.2-1.9,2.5-1.9,3.7s-0.6,2.2-1.9,2.8c0,0.6,1.2,1.5,3.7,2.8c-1.2,1.2-1.9,3.1-1.9,5.5
		c0,2.5-0.6,4.6-1.9,6.5c-1.2,3.7-1.9,6.8-1.9,9.2v0.9l0.9,0.9l0.9-0.9h0.9c0.6-1.2,1.2-2.5,1.9-3.7c0.6-1.2,1.5-2.5,2.8-3.7v0.9
		l-0.9,0.9l-0.9,1.8v2.8c0.6,2.5,0.6,4.6,0,6.5c-0.6,1.8-1.2,3.7-1.9,5.5c-0.6,1.2-0.9,2.5-0.9,3.7s-0.3,2.5-0.9,3.7
		c0,1.2,0,2.2,0,2.8s-0.3,1.2-0.9,1.8c-1.9,1.8-2.8,4-2.8,6.5c0,1.9,0,3.7,0,5.6c0,1.8,0,3.7,0,5.5c-0.6,1.2-1.8,1.5-3.7,0.9
		c-1.9-1.2-3.1-1.5-3.7-0.9l-0.9,1.8c-0.6,1.2-0.9,2.8-0.9,4.6c-0.6,2.5,0,3.7,1.9,3.7v0.9c3.1,0,4,1.2,2.8,3.7
		c-1.9,3.7-2.8,7.7-2.8,12c0,1.8-0.6,2.8-1.9,2.8l-0.9,0.9c-2.5,2.5-4,4.9-4.6,7.4c-1.9,2.5-3.1,4.9-3.7,7.4c0,1.2-0.6,3.1-1.9,5.5
		l0.9,1.8c0,0.6,0.3,1.2,0.9,1.9c-0.6,1.2-1.5,2.5-2.8,3.7l-0.9,0.9l-0.9,1.8c-0.6,1.9-1.5,4-2.8,6.5c-1.2,2.5-1.9,4.6-1.9,6.5
		c-0.6,3.7-2.8,5.9-6.5,6.5c1.2-1.2,1.9-2.5,1.9-3.7c0.6-1.9,1.2-3.4,1.9-4.6c0.6-1.2,1.2-3.1,1.9-5.5V837l-0.9-0.9v-1.8l-1.9,1.8
		c-1.2,3.7-1.8,6.2-1.8,7.4h-0.9v-1.9v-2.8c0-1.9-0.3-2.8-0.9-2.8c-1.9,0-2.8,0.6-2.8,1.9c-1.2,1.2-1.9,2.5-1.9,3.7
		c0,3.1-1.2,5.9-3.7,8.3c-2.5,2.5-3.7,4.6-3.7,6.5l-1.8,1.8c-3.1,0.6-4.3,2.8-3.7,6.5c0.6,1.2,0.9,2.5,0.9,3.7s-0.3,2.5-0.9,3.7
		l-0.9,0.9c-1.9-0.6-3.4,0.6-4.6,3.7c0,0.6-0.3,1.2-0.9,1.9v-1.9l-0.9-2.8c0-1.2-0.9-1.9-2.8-1.9c-3.1,0-4.9,0.6-5.5,1.9l-1.9,1.8
		c-0.6,0-0.9-0.3-0.9-0.9c-0.6-1.9-2.2-2.8-4.6-2.8h-11.1c-2.5,0-4.3,0-5.6,0c-1.2,0-2.5,0.9-3.7,2.8h-1.2c-1.8-1.2-3.4-1.2-4.6,0
		c-1.2,1.2-2.5,2.2-3.7,2.8c-3.1,0.6-5.9-0.3-8.3-2.8l-0.9-0.9c-4.3-3.7-6.5-8.9-6.5-15.7c-0.6-2.5-0.9-4.9-0.9-7.4
		s-0.6-4.9-1.9-7.4c0-1.9,0.3-3.1,0.9-3.7c0.6,0,0.9-0.6,0.9-1.8c0-1.9,0-3.7,0-5.6c0-1.8,0.3-3.7,0.9-5.5l2.8-8.3h0.9l0.9,0.9
		l0.9,1.9c1.2-1.2,1.9-2.2,1.9-2.8c1.9-1.8,2.8-4.6,2.8-8.3c0-1.2,0-2.5,0-3.7s0.3-2.8,0.9-4.6v-1.3c-1.9,0-2.8,0.6-2.8,1.9
		l-2.8,8.3v2.8c-1.2,1.8-2.5,2.5-3.7,1.8c1.2-2.5,1.9-4.6,1.9-6.5l0.9-1.8v-0.9c-1.2-1.8-1.2-3.4,0-4.6c1.2-1.2,1.9-3.1,1.9-5.5
		c0-1.2,0.6-1.8,1.8-1.8s1.9-0.9,1.9-2.8l1.9,0.9v2.8l0.9-0.9c0-1.9,0.3-3.7,0.9-5.5c0.6-1.9,1.2-3.7,1.9-5.6
		c0.6-0.6,0.9-1.8,0.9-3.7c0-3.1,0.6-5.2,1.9-6.5l2.8-8.3l2.8-16.7c0-2.5,0.3-4.3,0.9-5.5v-0.9c1.9-3.7,3.1-7.4,3.7-11.1
		c0.6-3.7,1.2-7.4,1.9-11.1v-1.8c0.6-3.1,1.2-6.2,1.9-9.2c0.6-3.1,1.2-6.2,1.9-9.2l5.5-19.4c1.2-3.7,2.2-7.4,2.8-11.1
		c0.6-3.7,1.5-7.1,2.8-10.2c0.6-3.1,2.2-7.1,4.6-12v-2.8c0.6-1.2,0.9-2.8,0.9-4.6l2.8-8.3c0.6-1.2,0.9-2.2,0.9-2.8s0-1.2,0-1.9
		c0.6-1.8,1.2-3.7,1.9-5.5c0.6-1.8,1.2-3.4,1.8-4.6c0.6-1.2,0.9-3.1,0.9-5.5c0.6-1.2,0.9-2.8,0.9-4.6c1.2-2.5,2.5-5.5,3.7-9.2
		s2.5-7.4,3.7-11.1c1.2-3.7,2.5-6.8,3.7-9.2l2.8-11.1l0.9-1.8v-0.9c0-1.2,0-2.2,0-2.8s0.3-1.2,0.9-1.9c1.2-2.5,1.9-4,1.9-4.6
		c0.6-1.8,1.5-4,2.8-6.5c1.2-2.5,2.2-4.9,2.8-7.4c0.6-2.5,2.5-5.9,5.5-10.2l0.9-1.8c-1.2-1.9-1.5-3.4-0.9-4.6
		c0.6-1.2,1.2-2.8,1.9-4.6l5.5-16.7c0.6-0.6,0.3-1.8-0.9-3.7c-3.7-3.7-3.7-7.4,0-11.1c1.2-1.9,2.2-4,2.8-6.5s1.2-4.3,1.9-5.5
		c0.6-2.5,0.9-4.3,0.9-5.5s0.6-2.8,1.9-4.6l0.9-0.9h0.9c1.2-1.2,1.5-3.1,0.9-5.6v-3.5c1.2-3.1,2.2-5.9,2.8-8.3
		c0.6-2.5,1.5-4.9,2.8-7.4c1.9-1.2,2.8-3.1,2.8-5.5c0-2.5,0.6-4.6,1.9-6.5c1.2-3.7,2.2-6.2,2.8-7.4c1.2-2.5,2.5-6.2,3.7-11.1
		c0.6-0.6,0.9-1.5,0.9-2.8c0-1.2,0.6-2.5,1.9-3.7c0.6-3.1,2.2-7.1,4.6-12c0.6-2.5,2.2-4.9,4.6-7.4c0-1.2,0.9-1.9,2.8-1.9
		c1.9-0.6,3.7-0.9,5.6-0.9s4-0.3,6.5-0.9h6.5h1.8l2.8,0.9l1.8,1.9c6.2,2.5,10.5,4.3,13,5.5c0.6,0.6,1.5,0.9,2.8,0.9
		c6.8,0.6,12.6,4,17.6,10.2l2.8,2.8c1.2,1.2,1.9,2.5,1.9,3.7l1.9,1.9c2.5,2.5,3.7,4.3,3.7,5.5c0,1.9,0.6,3.4,1.8,4.6
		c1.2,1.2,2.5,2.2,3.7,2.8c1.9,1.8,3.4,2.8,4.6,2.8c1.2,0,2.5,0.6,3.7,1.9v0.9c-1.2,1.9-0.6,3.1,1.9,3.7l0.9,1.8
		c-0.6,1.9-0.9,4-0.9,6.5s-0.3,4.3-0.9,5.5c0,2.5,1.2,3.7,3.7,3.7c1.9-0.6,2.8,0,2.8,1.8c0,1.9,0,3.4,0,4.6c0,1.2-0.3,2.5-0.9,3.7
		c-0.6,1.9-0.9,3.4-0.9,4.6c0,1.2,0,2.5,0,3.7v3.7c0,1.2,0,2.5,0,3.7s0.6,1.8,1.9,1.8c0.6,1.8,0.3,2.8-0.9,2.8l-1.9,3.7l-2.8,2.8
		c0,0.6-0.6,1.5-1.9,2.8c-0.6,3.7,0.9,5.9,4.6,6.5c0,3.1-0.3,5.5-0.9,7.4c0,1.8-0.9,2.8-2.8,2.8l-2.8,2.8v0.9v3.7
		c1.9,0,3.1-0.3,3.7-0.9c0.6,0,1.5-0.6,2.8-1.9v2.8c-1.9,1.8-2.8,3.7-2.8,5.5c0,1.9-0.3,3.7-0.9,5.6c-1.2,3.1-2.2,5.9-2.8,8.3
		c-0.6,2.5-1.5,4.6-2.8,6.5l-0.9,2.8l-0.9,1.9c-0.6,0.6-0.9,1.2-0.9,1.8s-0.3,1.2-0.9,1.9c-3.7,3.1-6.5,6.8-8.3,11.1v1.8
		c0.6,1.9,0.3,3.4-0.9,4.6c-0.6,0-0.9,0.9-0.9,2.8h1.8l0.9,0.9c3.7-1.2,6.2-2.2,7.4-2.8c1.9-1.2,4-2.5,6.5-3.7s4.9-2.5,7.4-3.7
		c3.1-2.5,6.5-4.9,10.2-7.4s7.1-4.6,10.2-6.5c1.9-0.6,3.7-1.5,5.6-2.8c1.9-1.2,3.7-2.5,5.5-3.7c2.5-1.2,4.3-2.5,5.6-3.7
		c1.2-1.2,2.8-2.5,4.6-3.7l13.9-8.3c2.5-1.2,4.3-2.2,5.5-2.8c1.2-0.6,2.8-1.5,4.6-2.8c1.2-1.2,3.4-2.5,6.5-3.7
		c0.6-0.6,1.2-0.9,1.9-0.9c0.6,0,1.5-0.3,2.8-0.9c3.1-1.9,5.9-3.7,8.3-5.6c2.5-1.8,5.5-3.7,9.2-5.5c2.5-2.5,5.5-4.6,9.2-6.5
		s7.1-4,10.2-6.5c4.9-3.1,10.8-6.2,17.6-9.2l8.3-5.5c1.2-0.6,2.8-1.8,4.6-3.7c2.5-1.8,4.9-3.4,7.4-4.6c2.5-1.2,5.2-2.5,8.3-3.7
		l16.6-8.3c0.6,0,1.2-0.3,1.9-0.9c1.8-1.2,4-0.9,6.5,0.9c-1.2,0.6-2.8,1.8-4.6,3.7c1.2,1.2,1.5,3.1,0.9,5.6
		c-1.2,0.6-1.8,1.5-1.8,2.8c0,1.2-0.6,2.5-1.9,3.7c-1.8,1.8-3.1,4-3.7,6.5v1.9c0.6,0.6,1.5,0.9,2.8,0.9c1.9-1.2,4.3-1.2,7.4,0
		c0.6,0,3.1-0.6,7.4-1.8C1846,472.2,1847,472.8,1847,474z M1514.9,692.3c0.6-1.2,0.9-2.5,0.9-3.7s0.6-2.2,1.8-2.8
		c0-0.6-0.3-0.9-0.9-0.9l-0.9,0.9l-1.8,3.8v2.8L1514.9,692.3L1514.9,692.3z M1534.3,620.2c0,0.6,0.6,1.5,1.9,2.8
		c0.6,0,1.5-0.6,2.8-1.9v-0.9c1.2-1.8,1.2-3.4,0-4.6c-0.6-0.6-1.9,0-3.7,1.9C1534.6,618,1534.3,619,1534.3,620.2z M1602.8,891.2
		l-1.9,1.9c-0.6,0-0.9-0.3-0.9-0.9l1.9-1.8L1602.8,891.2z M1603.7,886.6c-3.1-1.8-2.8-3.7,0.9-5.5
		C1604,882.3,1603.7,884.1,1603.7,886.6z M1608.3,858.8c-0.6,1.2-0.9,3.1-0.9,5.5C1605.5,863.2,1605.8,861.3,1608.3,858.8z
		 M1619.4,557.3c0.6-0.6,2.2-1.5,4.6-2.8c-1.9-1.9-4-2.2-6.5-0.9c-0.6,0.6-0.9,1.5-0.9,2.8C1617.2,557,1618.2,557.3,1619.4,557.3z
		 M1624,730.3c1.2,0,2.5-1.2,3.7-3.7c-1.2-1.9-2.5-4.6-3.7-8.3c0-0.6-0.9-0.9-2.8-0.9v0.9l-0.9,1.8c-0.6,1.2-0.9,2.2-0.9,2.8
		s0.3,1.5,0.9,2.8C1621.6,728.1,1622.8,729.7,1624,730.3z M1624,543.4l-0.9,0.9v0.9l0.9,1.8c0.6-0.6,0.9-1.2,0.9-1.8
		C1625,544.7,1624.6,544,1624,543.4z M1668.4,975.4c0-3.1,0.9-5.2,2.8-6.5C1671.8,972,1670.9,974.1,1668.4,975.4z M1686.9,734.9
		c-0.6,1.2-0.9,2.2-0.9,2.8s0,1.5,0,2.8c0,0.6,0.3,1.2,0.9,1.8c4.3,1.2,6.5-0.3,6.5-4.6l-1.9-3.7c0-1.2-0.9-1.8-2.8-1.8
		C1687.5,732.1,1686.9,733,1686.9,734.9z M1686,960.6c0-1.2,0.6-2.5,1.9-3.7c1.2-1.2,1.9-2.5,1.9-3.7c1.2,1.2,1.2,2.5,0,3.7
		C1688.5,958.1,1687.2,959.3,1686,960.6z M1688.8,820.9c0.6-1.2,0.9-2.2,0.9-2.8l-0.9-0.9c-0.6,0.6-0.9,1.8-0.9,3.7H1688.8z
		 M1696.2,715.5c-1.2,0-1.9,1.2-1.9,3.7c0,0.6,0.3,1.2,0.9,1.9c2.5,0,3.7-0.9,3.7-2.8L1696.2,715.5z M1696.2,756.2l2.8-1.8l-1.9-0.9
		h-0.9l-0.9,1.8L1696.2,756.2z M1700.8,798.7c0,0.6,0.3,1.2,0.9,1.8c0.6,0,1.2-0.3,1.9-0.9l-0.9-1.8v-0.9L1700.8,798.7z M1711,916.2
		l0.9-0.9c0,1.8-0.6,4-1.8,6.5c-1.2,2.5-2.5,4-3.7,4.6h-0.9c0.6-1.2,0.9-2.2,0.9-2.8c0-0.6,0.3-1.2,0.9-1.8
		C1708.5,919.3,1709.7,917.4,1711,916.2z M1712.8,914.3l0.9-1.8l1.9-2.8C1716.8,912.2,1715.9,913.7,1712.8,914.3z M1717.5,908.8
		c0-2.5,0.9-4.3,2.8-5.5c-0.6,1.2-0.9,2.2-0.9,2.8c0,0.6-0.3,1.5-0.9,2.8h-1V908.8z M1727.6,858.8c0.6-0.6,2.5-1.8,5.5-3.7h0.9
		c-0.6,1.9-0.9,4.3-0.9,7.4c-1.2,3.7-3.4,4.6-6.5,2.8C1726.7,862.2,1727,860.1,1727.6,858.8z M1735,844c0.6-1.2,1.2-1.9,1.8-1.9
		c0.6,0,1.2-0.3,1.8-0.9c1.2,1.9,1.2,3.4,0,4.6c-0.6,1.2-2.2,1.2-4.6,0c-0.6,0.6-0.9,1.5-0.9,2.8l-0.9,1.8c-0.6,0-1.2-0.3-1.8-0.9
		c-2.5-2.5-2.2-5.2,0.9-8.3C1732.6,843.7,1733.8,844.7,1735,844z M1799.8,510.1v-0.9h-3.7v0.9H1799.8z"/>
	<path class="st0" d="M2145.7,391.7c2.5-0.6,5.2,0.6,8.3,3.7c-1.2,1.9-2.3,3.6-3.2,5.1c-0.9,1.5-2,3.2-3.2,5.1
		c-6.2,2.5-12.2,5.2-18,8.3c-5.9,3.1-11.3,6.2-16.2,9.2c0,1.9,0.9,2.8,2.8,2.8h7.4l0.9,0.9v1.9c-1.2,1.2-2.5,1.8-3.7,1.8
		c-5.5,2.5-10.8,4-15.7,4.6c-3.1,1.2-6,2.5-8.8,3.7s-5.7,3.4-8.8,6.5l2.8,5.5c-6.2,1.2-11.4,2.5-15.7,3.7c-1.8,1.2-3.9,2.5-6,3.7
		c-2.2,1.2-4.5,2.5-6.9,3.7c0,1.2-0.6,3.1-1.8,5.6c-1.2,2.5-2.5,4-3.7,4.6c-3.1,1.2-5.5,2.8-7.4,4.6c-1.8,1.8-3.7,4-5.5,6.5
		s-4,3.7-6.5,3.7c-5.6,0.6-9.6,3.7-12,9.2c-0.6,1.8-2.8,4-6.5,6.5c-1.8,0.6-3.9,1.2-6,1.9c-2.2,0.6-4.2,1.8-6,3.7h-1.9
		c-3.1-0.6-5.7-0.1-7.9,1.4c-2.2,1.5-4.5,2.9-6.9,4.2c-4.9,3.7-10.5,5.5-16.7,5.5c-7.4,0-12.6,4-15.7,12c-1.2,3.1-2.9,5.9-5.1,8.3
		c-2.2,2.5-4.8,5.2-7.9,8.3h8.3c0,0.6,0.1,1.1,0.5,1.4c0.3,0.3,0.5,0.8,0.5,1.4c-1.2,2.5-2.6,4.8-4.2,6.9c-1.5,2.2-1.7,4.8-0.5,7.9
		c-1.8-0.6-3.7-0.9-5.5-0.9c-1.2,1.2-1.4,2-0.5,2.3s1.4,1.1,1.4,2.3v1.8c-4.3,2.5-7.1,6.8-8.3,13c1.2,0.6,2.8,1.9,4.6,3.7v1.8
		c-1.2,1.2-2.6,2.3-4.2,3.2c-1.5,0.9-3.2,1.7-5.1,2.3c-4.9,1.2-7.4,4-7.4,8.3c0,1.2-0.5,2.6-1.4,4.2c-0.9,1.5-1.7,2.9-2.3,4.2
		c1.2,1.2,2.8,1.2,4.6,0c1.2-1.2,2-2.3,2.3-3.2s1.1-2,2.3-3.2c1.2-1.2,2.5-3.1,3.7-5.5c1.2,1.2,1.7,2.5,1.4,3.7
		c-0.3,1.2-0.2,2.5,0.5,3.7l0.9,0.9c4.3-1.9,8.5-3.5,12.5-5.1c4-1.5,8.5-3.2,13.4-5.1c6.2-2.5,12.3-4.8,18.5-6.9
		c6.2-2.2,12.3-4.5,18.5-6.9c3.1-1.2,6-2.2,8.8-2.8s5.7-1.5,8.8-2.8c5.6-1.2,9.6-1.5,12-0.9c1.2,0,2.5-0.1,3.7-0.5
		c1.2-0.3,2.5-0.5,3.7-0.5c1.2,0.6,2.8,1.8,4.6,3.7c-5.6,3.1-10.5,6.2-14.8,9.2c-1.2,1.2-1.8,2.5-1.8,3.7c0,1.9,1.5,2.8,4.6,2.8
		c1.2-0.6,2.6-0.9,4.2-0.9c1.5,0,3.2-0.3,5.1-0.9c1.2,2.5,2.5,4.6,3.7,6.5c-0.6,0.6-0.9,1.1-0.9,1.4c0,0.3-0.6,1.1-1.8,2.3
		c-2.5,1.8-4.8,3.9-6.9,6c-2.2,2.2-3.9,4.8-5.1,7.9c-0.6,0.6-1.4,1.2-2.3,1.8s-1.7,1.2-2.3,1.9c-1.2,1.2-2.5,2-3.7,2.3
		s-2.5,1.1-3.7,2.3c0,3.1,0.3,5.2,0.9,6.5l-1.9,1.9c-2.5,1.2-4.8,2.5-6.9,3.7c-2.2,1.2-4.8,2.5-7.9,3.7c-5.6,2.5-9.6,5.9-12,10.2
		c-1.8,3.1-4,5.4-6.5,6.9s-5.2,2.9-8.3,4.2c-3.7,1.8-7.3,3.7-10.6,5.5c-3.4,1.8-6.9,3.4-10.6,4.6c-1.2,0.6-2.2,1.2-2.8,1.9
		c-0.6,0.6-1.5,1.2-2.8,1.8c-2.5,1.2-4.6,2.5-6.5,3.7s-4.3,1.5-7.4,0.9c-2.5,0-6.2,1.8-11.1,5.5c-2.5,2.5-5.1,4.2-7.9,5.1
		s-5.7,2-8.8,3.2c-3.1,1.2-5.9,2.3-8.3,3.2c-2.5,0.9-5.2,2-8.3,3.2c-2.5,1.2-4.3,1.9-5.6,1.9c-3.1,0.6-5.2,1.7-6.5,3.2
		c-1.2,1.5-2.5,3.9-3.7,6.9c1.2,0.6,2.2,0.9,2.8,0.9c0.6,0,1.5,0.3,2.8,0.9c-2.5,3.1-4.5,6.2-6,9.2c-1.5,3.1-2.6,6.5-3.2,10.2
		c1.2,1.2,3.1,1.2,5.6,0c3.1-1.2,6.2-2.6,9.2-4.2c3.1-1.5,6.2-2.9,9.2-4.2c0.6-0.6,2.2-1.5,4.6-2.8c4.9-0.6,9.1-1.8,12.5-3.7
		s7.2-3.4,11.6-4.6c5.5-2.5,10.8-5.1,15.7-7.9c4.9-2.8,9.9-5.1,14.8-6.9c3.1-1.2,6.2-2.3,9.3-3.2c3.1-0.9,6.2-2,9.2-3.2
		c4.9-1.2,9.6-2.9,13.9-5.1c4.3-2.2,8.9-4.8,13.9-7.9c4.3-1.8,8.5-3.7,12.5-5.5c4-1.9,8.2-3.4,12.5-4.6c2.5-1.2,4.3-1.9,5.6-1.9
		c3.7-2.5,7.4-4.5,11.1-6s7.7-2.9,12-4.2c3.1-1.2,6.2-2.6,9.2-4.2c3.1-1.5,6.2-2.9,9.2-4.2c4.9-1.8,9.6-3.5,13.9-5.1
		c4.3-1.5,8.9-3.2,13.9-5.1c1.8-0.6,3.7-1.2,5.5-1.8c1.9-0.6,3.7-1.2,5.6-1.9c3.1-1.2,4.9,0,5.6,3.7c-1.2,2.5-3.1,4.5-5.6,6
		s-4.9,2.9-7.4,4.2c-4.9,3.1-9.4,5.9-13.4,8.3c-4,2.5-7.9,5.5-11.6,9.2c-0.6,0.6-2.2,1.5-4.6,2.8c-1.8,1.2-2.8,2.5-2.8,3.7
		c1.2,3.1,3.1,4.3,5.6,3.7c0.6,0,3.4-0.6,8.3-1.8c-1.2,1.2-2.2,2.3-2.8,3.2s-1.2,1.7-1.8,2.3c-3.1,1.2-6.2,2.6-9.2,4.2
		c-3.1,1.5-6.2,3.2-9.2,5.1c-1.2,0.6-2.5,1.4-3.7,2.3c-1.2,0.9-2.5,2-3.7,3.2c0.6,1.2,1.4,2.3,2.3,3.2c0.9,0.9,0.8,2.3-0.5,4.2
		c-1.2,1.8-2.6,3.6-4.2,5.1c-1.5,1.5-3.9,2.9-6.9,4.2c-2.5,1.2-4.6,2.6-6.5,4.2c-1.8,1.5-3.7,2.9-5.6,4.2c0,3.1,1.2,4,3.7,2.8
		c1.2-0.6,2.2-1.1,2.8-1.4c0.6-0.3,1.5-0.8,2.8-1.4c-1.2,3.1-2,4.9-2.3,5.5s-1.4,1.5-3.2,2.8c-2.5,0-4.3,0.6-5.6,1.8
		c-1.2,2.5-3.1,4.2-5.6,5.1c-2.5,0.9-4.6,2-6.5,3.2c-1.8,1.2-4,2.2-6.5,2.8s-5.2,1.2-8.3,1.8c-4.9,2.5-8.3,4.3-10.2,5.5
		c-2.5,1.2-6.2,3.7-11.1,7.4h-1.8c-1.9,1.8-4.2,2.5-6.9,1.8c-2.8-0.6-4.8,0.6-6,3.7c-4.3,2.5-8.6,4.6-12.9,6.5
		c-1.9,1.2-3.6,2.2-5.1,2.8s-3.2,0.9-5.1,0.9s-3.1,0.3-3.7,0.9c-3.7,3.1-7.7,5.4-12,6.9s-8,3.9-11.1,6.9c-0.6,1.2-2.5,1.8-5.6,1.8
		c-0.6,1.2-1.1,2.3-1.4,3.2s-1.1,2-2.3,3.2c-8.6,4.9-17.3,9.4-25.9,13.4s-17.3,7.9-25.9,11.6c-1.8,1.2-3.7,1.8-5.6,1.8
		s-3.7,0.3-5.5,0.9c-3.1,1.2-6.5,2.2-10.2,2.8s-7.4,1.5-11.1,2.8c-1.2,0-1.8,0.6-1.8,1.8c-0.6,3.7-3.1,7.7-7.4,12
		c-1.2,0.6-2,1.4-2.3,2.3s-1.1,2-2.3,3.2c-1.8,4.9-4.3,9.9-7.4,14.8c-0.6,1.2-1.2,2-1.8,2.3c-0.6,0.3-1.2,0.8-1.9,1.4
		c-1.8-1.2-2.3-2.6-1.4-4.2c0.9-1.5,0.8-2.9-0.5-4.2c-2.5,0-3.7,1.5-3.7,4.6c-1.2,2.5-2.5,6.2-3.7,11.1c0,2.5-0.3,4.6-0.9,6.5
		s-1.5,4-2.8,6.5c-2.5-1.2-3.1-3.1-1.8-5.5c1.2-6.2,2.5-11.4,3.7-15.7c0-0.6-0.2-1.2-0.5-1.8c-0.3-0.6-0.5-1.5-0.5-2.8
		c-3.1,4.3-4.9,8.8-5.6,13.4c-0.6,4.6-2.5,8.8-5.6,12.5l-5.5-2.8l-1.8,1.9l-2.8,13.9c-1.2,0-2.5,0.1-3.7,0.5
		c-1.2,0.3-2.5,0.5-3.7,0.5c-0.6,1.2-1.2,2.3-1.8,3.2c-0.6,0.9-1.2,2-1.9,3.2c-1.8,4.3-4.9,6.8-9.2,7.4h-11.1
		c-1.2,0-2.8-0.8-4.6-2.3c-1.9-1.5-2.8-3.2-2.8-5.1c-0.6-3.1-0.9-6.2-0.9-9.2c0-3.1,0-6.2,0-9.2c0.6-4.9,1.2-9.9,1.8-14.8
		s0.6-9.9,0-14.8V860c1.9-3.1,2.5-6.6,1.9-10.6s0-7.9,1.8-11.6c0.6-4.9,1.9-9.7,3.7-14.3s2.5-9.4,1.8-14.3c1.9-4.3,2.2-8.3,0.9-12
		c-1.2-3.7-2.5-7.4-3.7-11.1c-0.6-0.6-0.9-1.5-0.9-2.8c2.5-3.7,5.5-5.9,9.2-6.5c2.5-0.6,4.3-2.5,5.5-5.5c1.2-5.5,2.6-11.1,4.2-16.7
		c1.5-5.5,3.2-11.1,5.1-16.7c1.2-3.1,2.5-6.2,3.7-9.2c1.2-3.1,2.2-6.2,2.8-9.2c0.6-4.9,2.2-10.2,4.6-15.7c-1.9-2.5-3.7-4.8-5.6-6.9
		c-1.8-2.2-4-4.8-6.5-7.9c2.5-1.2,4-2.2,4.6-2.8c3.1-1.2,5.7-2.5,7.9-3.7c2.2-1.2,4.8-2.5,7.9-3.7c2.5-1.8,4.6-4.3,6.5-7.4
		c1.2-4.9,2.9-9.4,5.1-13.4s4.2-8.5,6-13.4c1.2-2.5,2.5-4.9,3.7-7.4s2.2-5.2,2.8-8.3c0-1.8,0.6-3.4,1.8-4.6c1.8-1.8,2.8-3.7,2.8-5.5
		c0.6-4.3,2.8-8.3,6.5-12s5.2-7.1,4.6-10.2c0-0.6,0.6-2.2,1.8-4.6c1.2-1.8,2.3-3.7,3.2-5.5c0.9-1.9,2-3.7,3.2-5.5
		c0.6-0.6,0.9-1.9,0.9-3.7l1.8-6.5c3.1-3.1,4.9-6.6,5.6-10.6c0.6-4,1.8-7.5,3.7-10.6c3.7-6.8,7.1-13.6,10.2-20.4l1.8-3.7
		c3.1-4.3,5.6-8.6,7.4-13c1.8-4.3,3.7-8.6,5.5-13c0.6-0.6,0.9-1.2,0.9-1.9c0-0.6,0.3-1.2,0.9-1.8c3.1-3.7,4.6-8.9,4.6-15.7v-4.6
		c1.8-1.2,3.5-2.9,5.1-5.1c1.5-2.2,3.5-4.2,6-6c0.6-0.6,1.5-2.2,2.8-4.6c1.2-3.1,2.5-6,3.7-8.8s2.5-5.7,3.7-8.8
		c1.2-1.2,1.8-2.8,1.8-4.6s0.3-3.4,0.9-4.6c1.2-5.6,4.6-9.2,10.2-11.1h1.8c4.9-2.5,10.5-2.2,16.7,0.9c3.1,1.9,6.3,3.4,9.7,4.6
		c3.4,1.2,6.6,2.8,9.7,4.6c3.1,1.2,5.9,2,8.3,2.3c2.5,0.3,5.2,1.1,8.3,2.3c1.2,0.6,3.4,0.3,6.5-0.9c6.2-2.5,12.2-4.9,18-7.4
		c5.9-2.5,11.9-4.9,18-7.4c6.8-3.1,13.3-5.9,19.4-8.3c6.2-2.5,12.6-4.9,19.4-7.4c3.1-1.2,6.2-2.5,9.2-3.7c3.1-1.2,6.2-2.5,9.2-3.7
		c3.1-1.2,6.5-2.3,10.2-3.2s7.1-2,10.2-3.2l13.9-5.5c8-4.3,18.2-7.4,30.5-9.2c4.3-1.2,8-2,11.1-2.3s5.6-0.5,7.4-0.5c1.8,0,4,0,6.5,0
		c3.1,0,5.2,0.3,6.5,0.9c1.2,1.2,2.2,2.5,2.8,3.7c-1.2,0.6-2.6,1.2-4.2,1.8c-1.5,0.6-2.9,1.2-4.2,1.9c-1.2,0.6-2.5,0.9-3.7,0.9
		c-1.2,0-2.5,0.6-3.7,1.8c-1.2,0-1.8,0.9-1.8,2.8c0,0.6,0.6,1.5,1.8,2.8c1.2,0,2.5,0.2,3.7,0.5
		C2143.2,391.6,2144.5,391.7,2145.7,391.7z M1844.2,624.8c1.2,0,1.8-0.9,1.8-2.8c-1.2-1.2-1.8-2.2-1.8-2.8c-1.8,0.6-2.8,1.8-2.8,3.7
		C1841.4,625.4,1842.3,626.1,1844.2,624.8z M1867.3,712.7c0.6-0.6,0.9-2.2,0.9-4.6c-6.2,1.2-9.6,3.7-10.2,7.4
		c-0.6,2.5-0.9,4.6-0.9,6.5c0,1.8-0.6,3.7-1.9,5.5c-1.2,1.8-1.8,4-1.8,6.5s-0.6,4.6-1.8,6.5c-0.6,0-0.8,0.5-0.5,1.4s0.8,1.4,1.4,1.4
		c1.8,0,2.8-0.3,2.8-0.9c2.5-4.9,4.8-9.9,6.9-14.8C1864.4,722.6,1866,717.6,1867.3,712.7z M1875.6,626.7c1.2-2.5,0.6-3.7-1.9-3.7
		c-1.8,2.5-3.1,4.9-3.7,7.4c-0.6,0.6-0.9,1.9-0.9,3.7c1.9-1.2,3.1-2.5,3.7-3.7C1873.4,629.1,1874.4,627.9,1875.6,626.7z M1908,622
		c0.6-1.9,0.9-4.9,0.9-9.2c-1.8,1.8-3.1,3.7-3.7,5.5s-1.5,3.4-2.8,4.6C1906.1,624.8,1908,624.5,1908,622z"/>
	<path class="st0" d="M2391.8,975.4c2.5,0,4.5-0.2,6-0.5s3.8-0.2,6.9,0.5c-1.8,3.1-4.9,5.2-9.2,6.5c-4.3,0-7.4,2.2-9.2,6.5
		c-3.1,4.9-7.1,7.7-12,8.3c-0.6,0-1.1,0.1-1.4,0.5c-0.3,0.3-1.1,0.5-2.3,0.5c0,1.2-0.3,2.3-0.9,3.2c-0.6,0.9-0.9,2-0.9,3.2
		c-0.6,0-0.9,0.1-0.9,0.5c0,0.3-0.3,0.5-0.9,0.5c-1.9,1.2-3.9,2.2-6,2.8c-2.2,0.6-4.2,2.2-6,4.6c-1.8,1.2-3.7,2.2-5.5,2.8
		c-1.9,0.6-4.3,0.9-7.4,0.9c-1.2,0-2.8,0.1-4.6,0.5c-1.8,0.3-3.4,0.5-4.6,0.5c0,2.5,0.3,4,0.9,4.6c-1.8,1.2-5.2,1.9-10.2,1.9
		c-6.2-0.6-11.7,1.5-16.7,6.5c-7.4-1.2-14.5-0.9-21.3,0.9h-1.9c-9.2-1.2-18.5-3.1-27.8-5.5c-9.2-2.5-18.2-6.2-26.8-11.1
		c-3.1-2.5-6-4.9-8.8-7.4c-2.8-2.5-5.7-5.5-8.8-9.2c-1.8-2.5-3.7-4.9-5.5-7.4c-1.8-2.5-3.4-5.2-4.6-8.3c-1.2-1.2-2.5-2.9-3.7-5.1
		s-1.2-4.2,0-6c0-1.9-0.3-3.1-0.9-3.7c-2.5-8-3.9-16-4.2-24c-0.3-8,0.1-16,1.4-24.1c0.6-4.9,1.2-9.4,1.9-13.4
		c0.6-4,1.2-8.5,1.8-13.4c1.2-1.8,1.8-4.9,1.8-9.2c-1.2-4.9-1.5-10.2-0.9-15.7s1.2-10.8,1.9-15.7c0.6-5.5,1.2-11.2,1.8-17.1
		c0.6-5.9,0.9-11.6,0.9-17.1c1.2-10.5,3.1-20.4,5.6-29.6c2.5-9.2,5.2-18.5,8.3-27.8c1.2-5.5,2.8-10.6,4.6-15.3
		c1.9-4.6,3.4-9.4,4.6-14.3c1.9-6.8,3.8-13.7,6-20.8c2.2-7.1,3.8-14.3,5.1-21.7c1.2-6.8,1.1-10.8-0.5-12c-1.5-1.2-4.8-2.8-9.7-4.6
		c-9.9-3.7-19.1-5.2-27.8-4.6c-2.5,0.6-4.6,1.2-6.5,1.9c-1.8,0.6-4,0.9-6.5,0.9c-1.9,0.6-3.9,1.2-6,1.8c-2.2,0.6-4.8,0.6-7.9,0
		c-1.9,0-2.8,0.9-2.8,2.8c0,4.3,0.6,7.1,1.8,8.3c1.9-0.6,2.6-1.8,2.3-3.7c-0.3-1.8,1.1-3.1,4.2-3.7c0,3.7-0.8,7.1-2.3,10.2
		c-1.5,3.1-2.9,6.2-4.2,9.2c0-0.6-1.5,0.6-4.6,3.7c-1.2-1.2-2.2-1.8-2.8-1.8c-1.2-0.6-2.2,0-2.8,1.8c1.2,0.6,3.1,0.6,5.5,0
		c-2.5,1.9-4.3,4.3-5.5,7.4c-1.2,1.2-1.8,2.8-1.8,4.6c-0.6,3.7-2.8,7.4-6.5,11.1c-1.2,3.1-0.6,5.5,1.9,7.4c3.1,1.9,3.7,4,1.8,6.5
		c-1.2,3.7-2.2,6.8-2.8,9.2c-1.2,2.5-3.1,3.4-5.5,2.8c-0.6,0-1.5,0.6-2.8,1.9c-1.2,1.8-3.1,4-5.6,6.5c-1.8,1.9-2.5,4-1.8,6.5
		c-0.6,0-0.9,0.3-0.9,0.9c0,0.6-0.3,1.2-0.9,1.8c-0.6,1.2-1.2,2.5-1.9,3.7c-0.6,1.2-0.9,2.5-0.9,3.7s-0.2,2.5-0.5,3.7
		s0.5,2.2,2.3,2.8c0.6,0.6,0.8,1.4,0.5,2.3c-0.3,0.9-0.2,2,0.5,3.2c1.2,0,2.5-0.9,3.7-2.8c0,1.2,0.3,2,0.9,2.3
		c0.6,0.3,0.3,0.8-0.9,1.4c0,1.2-0.3,2.3-0.9,3.2c-0.6,0.9-0.9,2.3-0.9,4.2c-0.6,3.7-2.2,7.1-4.6,10.2c-1.2,1.2-2.2,2.5-2.8,3.7
		s-1.2,2.5-1.8,3.7c-6.2,1.2-10.5,4-13,8.3c-3.1-0.6-4.9-1.1-5.5-1.4c-0.6-0.3-2.2-1.7-4.6-4.2c-3.1,0-5.2,1.8-6.5,5.5
		c0,1.8-0.8,2.9-2.3,3.2s-2.9,1.1-4.2,2.3c0,1.2,0.1,2.3,0.5,3.2c0.3,0.9,0.5,2,0.5,3.2c-2.5,3.1-4,4.9-4.6,5.5
		c-0.6,0.6-2.2,1.2-4.6,1.8c0,2.5-0.6,4.3-1.8,5.6c-1.2,4.9-3.4,7.4-6.5,7.4c-1.8,0-3.4,0.6-4.6,1.9c-1.2-0.6-2.5-1.2-3.7-1.9
		c-1.2-0.6-2.5-1.2-3.7-1.8c-1.2,2.5-3.1,4.3-5.6,5.5s-4.3,3.4-5.5,6.5l-2.8,0.9c-1.8-0.6-3.2,0-4.2,1.8c-0.9,1.9-2.3,2.5-4.2,1.9
		c-1.2,1.2-2,2.2-2.3,2.8c-0.3,0.6-1.1,1.5-2.3,2.8c-1.2,2.5-2.8,3.7-4.6,3.7c0-3.1,0.9-5.6,2.8-7.4c-1.8,0-3.4-0.3-4.6-0.9
		c3.1-7.4,6.2-14.9,9.2-22.7c3.1-7.7,6.2-15.6,9.2-23.6c-2.5-3.7-5.2-6.8-8.3-9.2c-2.5-4.3-3.1-9.2-1.8-14.8
		c0.6-1.2,1.2-2.9,1.8-5.1c0.6-2.2,0.9-3.8,0.9-5.1c-0.6-3.1-0.1-5.9,1.4-8.3c1.5-2.5,2.9-5.2,4.2-8.3c0.6-1.2,1.5-1.8,2.8-1.8
		c1.2,0,2.2,0.6,2.8,1.8c1.2,1.2,2.5,2,3.7,2.3s2.5,0.8,3.7,1.4c2.5-3.1,4.2-6.5,5.1-10.2c0.9-3.7,2.3-7.4,4.2-11.1l2.8-8.3
		c1.2-3.1,2.2-5.9,2.8-8.3c0.6-2.5,1.5-4.9,2.8-7.4c1.2-3.7,2.3-7.4,3.2-11.1c0.9-3.7,2-7.1,3.2-10.2c1.2-2.5,2-4.8,2.3-6.9
		c0.3-2.2,1.1-4.8,2.3-7.9c-1.2,0-2-0.1-2.3-0.5c-0.3-0.3-1.1-0.5-2.3-0.5V687h-4.6c0-0.6-0.2-0.9-0.5-0.9s-0.2-0.6,0.5-1.9
		c2.5-1.8,4.5-3.8,6-6s3.8-4.2,6.9-6c1.8-1.9,3.4-4.6,4.6-8.3c2.5-6.8,4.6-13.7,6.5-20.8s4-14,6.5-20.8
		c4.3-14.8,10.5-30.2,18.5-46.3c0.6-0.6,0.9-1.8,0.9-3.7c0-3.1,0.3-5.6,0.9-7.4c0.6-1.8,1.5-4,2.8-6.5c0.6-1.2,1.1-2.5,1.4-3.7
		c0.3-1.2,0.8-2.5,1.4-3.7c0-1.2,0.1-1.8,0.5-1.8c0.3,0,0.8-0.6,1.4-1.9c1.2-1.8,2.3-3.5,3.2-5.1c0.9-1.5,1.1-3.5,0.5-6
		c0-1.2,0.3-2.2,0.9-2.8c3.1-4.3,5.5-9.2,7.4-14.8c0-2.5,1.2-5.5,3.7-9.2c2.5-2.5,3.1-5.5,1.9-9.2c3.1,0,4.9-0.3,5.5-0.9
		c1.2-1.9,2.2-3.4,2.8-4.6c0.6-1.2,0.3-2.5-0.9-3.7c0.6,0,0.9-0.3,0.9-0.9h-0.9v0.9c-1.8,0-3.7,0.3-5.5,0.9
		c-1.8,0.6-3.4,2.2-4.6,4.6c1.2,0,1.9,0.3,1.9,0.9c0,0.6,0.3,1.2,0.9,1.9c-1.9,0-2.8-0.9-2.8-2.8h-4.6c-0.6-4.3,0.5-6.9,3.2-7.9
		c2.8-0.9,5.1-2.3,6.9-4.2c0-2.5-1.2-3.1-3.7-1.8c-4.3,1.2-7.7,2.8-10.2,4.6c-1.2,0-1.8,0.5-1.8,1.4s-0.3,1.7-0.9,2.3
		c-1.2,1.2-2,2.2-2.3,2.8c-0.3,0.6-0.8,1.2-1.4,1.9c-1.8,2.5-3.6,4.6-5.1,6.5s-2.9,4.3-4.2,7.4c-0.6,1.2-1.2,2-1.8,2.3
		s-1.2,1.1-1.9,2.3c-1.2,1.2-2,2.2-2.3,2.8s-1.1,1.5-2.3,2.8c-2.5,1.2-4.6,1.4-6.5,0.5s-4-2-6.5-3.2s-4.9-2.9-7.4-5.1
		c-2.5-2.2-4.3-4.8-5.6-7.9c-0.6-0.6-1.4-1.1-2.3-1.4c-0.9-0.3-2-1.1-3.2-2.3v-3.7c0-1.8-0.3-3.5-0.9-5.1c-0.6-1.5-1.5-3.2-2.8-5.1
		c-3.1-2.5-5.4-5.2-6.9-8.3s-2.9-6.5-4.2-10.2c-1.2-2.5-2.2-4.8-2.8-6.9c-0.6-2.2-1.5-4.5-2.8-6.9c-3.1-4.3-2.5-7.7,1.8-10.2
		c4.3-3.7,8.5-7.4,12.5-11.1c4-3.7,7.9-7.4,11.6-11.1c1.2-0.6,2-1.1,2.3-1.4c0.3-0.3,1.1-0.8,2.3-1.4c5.6-3.1,10.8-7.1,15.7-12
		c4.3-1.9,8.6-4,13-6.5l2.8-2.8c6.8-4.9,13.9-8.6,21.3-11.1c7.4-2.5,14.8-5.2,22.2-8.3c3.1-1.2,6-2.5,8.8-3.7
		c2.8-1.2,5.7-2.5,8.8-3.7c16.7-7.4,33.3-13,50-16.7c4.3-1.2,8.6-2.5,13-3.7c4.3-1.2,8.6-2.5,13-3.7c1.2,0,2.6-0.1,4.2-0.5
		c1.5-0.3,2.9-0.5,4.2-0.5c11.1-1.2,22.8-1.9,35.2-1.9c9.2,0,18.8,0.3,28.7,0.9c9.9,0.6,19.6,2.2,29.1,4.6
		c9.6,2.5,18.6,5.2,27.3,8.3c6.8,3.1,13,6.8,18.5,11.1s10.2,9.9,13.9,16.6c2.5,4.9,5.1,9.6,7.9,13.9c2.8,4.3,5.4,8.9,7.9,13.9
		c3.1,6.8,4.9,12.6,5.5,17.6c1.8,6.8,4,12.9,6.5,18.5c3.7,6.2,5.6,13.9,5.6,23.1c0,2.5,0,4.9,0,7.4c-0.6,3.1-1.5,6.3-2.8,9.7
		c-1.2,3.4-2.5,6.6-3.7,9.7c-1.2,1.8-2.3,4-3.2,6.5c-0.9,2.5-2,4.6-3.2,6.5c-1.2,5.6-3.1,10.2-5.5,13.9c-2.5,2.5-4.5,5.1-6,7.9
		c-1.5,2.8-3.2,5.7-5.1,8.8c-0.6,1.2-1.2,2-1.8,2.3s-1.2,1.1-1.9,2.3c-2.5,2.5-4.8,4.9-6.9,7.4c-2.2,2.5-4.8,4.3-7.9,5.5
		c-1.2,0.6-2,1.4-2.3,2.3c-0.3,0.9-1.1,2-2.3,3.2c-0.6,1.2-1.2,2.5-1.8,3.7c-0.6,1.2-1.5,2.5-2.8,3.7c-2.5,1.2-3.7,2.5-3.7,3.7
		c1.2,2.5,1.2,4.3,0,5.5s-2.5,2.5-3.7,3.7l-1.8-3.7c-3.7,0.6-6.2,3.4-7.4,8.3c-3.1,0.6-6,1.4-8.8,2.3c-2.8,0.9-4.8,2.9-6,6
		c-1.8-1.8-2.8-3.7-2.8-5.5c-4.3,1.9-8.5,3.9-12.5,6c-4,2.2-8.2,4.2-12.5,6c-1.2-1.8-1.4-2.9-0.5-3.2c0.9-0.3,1.7-0.8,2.3-1.4
		c1.9-0.6,2.8-2.2,2.8-4.6c0-0.6-0.2-0.9-0.5-0.9c-0.3,0-0.5-0.3-0.5-0.9v-0.9c0-0.6-0.6-0.9-1.9-0.9c-2.5,1.2-4.3,2.5-5.5,3.7
		c-1.2,0.6-2,1.2-2.3,1.8s-1.1,0.6-2.3,0c-2.5,0-4.3,0.5-5.5,1.4s-2.5,1.7-3.7,2.3c-1.8,1.2-3.1,2.2-3.7,2.8s-1.5,2.2-2.8,4.6h-2.8
		h-2.8v3.7c0.6,4.9,2.5,9.6,5.6,13.9c1.2,3.7,2.2,7.4,2.8,11.1c0.6,3.7,1.2,7.4,1.9,11.1c0,6.2,0.1,12,0.5,17.6
		c0.3,5.6-0.2,11.4-1.4,17.6c-1.2,6.8-2.5,13.6-3.7,20.4c-1.2,6.8-2.2,13.6-2.8,20.3c-1.2,4.9-2,9.9-2.3,14.8
		c-0.3,4.9-0.8,9.9-1.4,14.8l-1.8,1.8c-2.5,0-3.7,1.5-3.7,4.6c0,1.2,0.1,2.5,0.5,3.7c0.3,1.2,0.5,2.8,0.5,4.6
		c-2.5,1.2-4,1.9-4.6,1.9v1.8c3.7,4.9,4,9.6,0.9,13.9c-1.2,2.5-1.8,4.3-1.8,5.5s-0.3,2.2-0.9,2.8c-0.6,0.6-1.2,1.5-1.9,2.8
		c-1.2,3.1-2.5,6-3.7,8.8s-3.4,4.8-6.5,6c-1.8,1.2-2.8,2.8-2.8,4.6c-1.2,2.5-2.2,4.8-2.8,6.9c-0.6,2.2-1.5,4.8-2.8,7.9
		c-0.6,3.1-1.7,6.3-3.2,9.7s-2.9,6.6-4.2,9.7c-5.5,11.1-9.2,22.5-11.1,34.2v3.7c1.2,3.1,2.2,6.8,2.8,11.1c0.6,4.3,1.5,8,2.8,11.1
		c0,1.2,0.3,2,0.9,2.3s0.9,1.1,0.9,2.3c1.2,1.2,1.8,2.8,1.8,4.6c0,1.8,0.6,3.4,1.8,4.6c3.1,3.7,6,7.4,8.8,11.1
		c2.8,3.7,6,7.1,9.7,10.2c3.1,1.2,4.9,2.5,5.5,3.7c1.8,1.9,4,3.4,6.5,4.6c1.2,0.6,2.5,1.1,3.7,1.4c1.2,0.3,2.5,0.8,3.7,1.4
		c6.2,4.9,12.6,8.3,19.4,10.2c0.6,0,1.2,0.3,1.9,0.9v2.8l-0.9,0.9h-2.8c-8-3.7-16-7.7-24.1-12c-8-4.3-15.4-9.2-22.2-14.8
		c-3.7-3.1-6.9-6.6-9.7-10.6c-2.8-4-5.7-7.9-8.8-11.6c-1.2-1.2-2.2-2.5-2.8-3.7l-1.9,1.8v0.9c0,1.2,0.3,2.2,0.9,2.8
		c0.6,0.6,1.2,1.5,1.8,2.8c1.2,10.5,5.2,18.5,12,24.1c3.7,3.1,7.2,6.2,10.6,9.2c3.4,3.1,7.5,5.2,12.5,6.5c3.7,1.2,7.4,2.6,11.1,4.2
		c3.7,1.5,7.1,2.9,10.2,4.2c4.9,1.2,9.7,2.3,14.3,3.2c4.6,0.9,9.4,1.1,14.3,0.5c6.8,0,13.7-0.3,20.8-0.9
		C2378,978.5,2385,977.2,2391.8,975.4z M2035.6,867.2c1.2-1.2,1.9-2.2,1.9-2.8c1.2,0,1.8-0.3,1.8-0.9s-0.3-1.5-0.9-2.8
		C2036.6,862.5,2035.6,864.7,2035.6,867.2z M2062.5,730.3l0.9,0.9h-0.9l-0.9-0.9H2062.5z M2133.7,544.3l0.9,0.9h-0.9l-1.8-0.9
		H2133.7z M2145.7,734.9c2.5-0.6,2.8-3.4,0.9-8.3c-3.1,0.6-5.2,1.8-6.5,3.7c-1.2,1.8-2.5,4-3.7,6.5c-0.6,1.8-0.3,3.7,0.9,5.5
		C2139.2,738,2142,735.5,2145.7,734.9z M2155.9,691.4c3.1-1.2,4-2.8,2.8-4.6C2156.2,688.6,2155.3,690.2,2155.9,691.4z M2164.2,489.8
		c0.6,0,1.8-0.9,3.7-2.8l-0.9-0.9h-0.9C2164.8,486.7,2164.2,487.9,2164.2,489.8z M2184.6,689.6c0-0.6,0.3-0.9,0.9-0.9L2184.6,689.6z
		 M2306.7,514.7c0-1.8,0.6-2.8,1.9-2.8c5.5-3.7,10.6-7.9,15.3-12.5c4.7-4.6,9.4-9.1,14.3-13.4c4.3-3.7,8.3-7.2,12-10.6
		c3.7-3.4,7.7-6.6,12-9.7c1.2-1.8,2.5-2.5,3.7-1.8c-3.7,4.9-7.3,9.4-10.6,13.4c-3.4,4-7.3,7.6-11.6,10.6c-0.6,1.2-0.9,2.2-0.9,2.8
		v3.7c1.9-1.9,3.4-3.4,4.6-4.6c1.2-1.2,2.5-2.5,3.7-3.7c1.2-1.2,2.5-2.5,3.7-3.7c1.2-1.2,2.5-2.5,3.7-3.7c1.8-1.2,3.4-2.5,4.6-3.7
		s2.5-2.5,3.7-3.7s2.6-2.2,4.2-2.8c1.5-0.6,2.9-1.5,4.2-2.8c0,2.5-1.2,4.9-3.7,7.4h3.7c3.1-3.1,4.9-5.2,5.6-6.5
		c3.1-3.1,5.5-6.3,7.4-9.7s4-6.9,6.5-10.6c1.2-1.8,2.3-4,3.2-6.5c0.9-2.5,1.7-4.9,2.3-7.4c-3.1-3.1-6.5-4.6-10.2-4.6
		s-7.1-0.9-10.2-2.8c3.7-1.2,6.9-0.9,9.7,0.9c2.8,1.9,6,2.5,9.7,1.9c-0.6-3.1-2.2-5.2-4.6-6.5c-1.9-0.6-3.2-0.9-4.2-0.9
		s-2-0.3-3.2-0.9c-1.8-0.6-3.4-1.2-4.6-1.9c-1.2-0.6-2.5-0.9-3.7-0.9c-9.2-2.5-18.5-3.7-27.8-3.7h-4.6c-3.1-1.2-5.5-1.7-7.4-1.4
		c-1.8,0.3-4.3,0.8-7.4,1.4c-0.6,0.6-2.5,0.9-5.5,0.9c-1.2,0-2.5-0.1-3.7-0.5c-1.2-0.3-2.5-0.5-3.7-0.5c-1.2,0.6-2.5,1.4-3.7,2.3
		c-1.2,0.9-2.5,1.4-3.7,1.4c-2.5,0.6-4.9,1.1-7.4,1.4c-2.5,0.3-4.9,0.2-7.4-0.5c-6.8-1.2-12.6,0.3-17.6,4.6
		c-1.8,1.9-3.1,2.8-3.7,2.8c-3.1,0-5.2,0.6-6.5,1.9c-1.2,1.2-2.8,2.2-4.6,2.8v3.7l1.8,0.9c3.7-1.2,6.8-1.9,9.2-1.9
		c1.2-1.2,3.1-0.9,5.6,0.9l-3.7,1.8c-1.2,1.2-2.9,2-5.1,2.3c-2.2,0.3-4.2,0.8-6,1.4c-3.7,3.1-5.2,5.6-4.6,7.4c0.6,2.5,0.6,4.5,0,6
		s-0.9,3.2-0.9,5.1v1.9c2.5-1.2,4.6-1.9,6.5-1.9c1.2,1.2,1.9,2.3,1.9,3.2s0.3,2,0.9,3.2c0.6,2.5,0,4.6-1.8,6.5
		c-1.2,1.2-2.3,1.7-3.2,1.4c-0.9-0.3-2-0.8-3.2-1.4c-2.5-1.8-4.9-0.9-7.4,2.8c0,1.2-0.6,3.1-1.9,5.5c-1.8,5.5-4.9,9.9-9.2,13
		c-1.2,1.2-1.8,3.4-1.8,6.5c0,2.5-0.2,4.9-0.5,7.4c-0.3,2.5-1.4,4.6-3.2,6.5c0,0.6-0.3,1.2-0.9,1.9v0.9c0.6,3.7,0.5,7.1-0.5,10.2
		c-0.9,3.1-2,6.2-3.2,9.2c-2.5,4.3-4.5,8.5-6,12.5s-3.2,8.2-5.1,12.5v3.7c1.9,0,4,0.6,6.5,1.8c-0.6,1.2-1.1,2-1.4,2.3
		s-0.8,1.1-1.4,2.3c-1.2,1.2-2.5,2.5-3.7,3.7c-1.2,1.2-2.5,2.5-3.7,3.7c-1.9,1.8-1.9,3.1,0,3.7c3.7-2.5,7.7-4.5,12-6
		c4.3-1.5,8.3-3.8,12-6.9c1.8-1.2,4-2.5,6.5-3.7s4.9-2.8,7.4-4.6c3.1-1.9,6.8-3.8,11.1-6c4.3-2.2,8-5.1,11.1-8.8
		c5.5-3.7,10.5-8.3,14.8-13.9c2.5-3.1,4.9-5.7,7.4-7.9C2302.6,520.4,2304.8,517.8,2306.7,514.7z M2244.7,998.5
		c0.6,0,0.9-0.9,0.9-2.8c-2.5-3.7-4.8-7.3-6.9-10.6c-2.2-3.4-4.5-6.6-6.9-9.7c-1.2-1.2-2-2.2-2.3-2.8c-0.3-0.6-1.1-1.2-2.3-1.8
		c-1.9-3.1-4.3-4.6-7.4-4.6h-0.9c-0.6,3.1,0.1,5.2,2.3,6.5c2.2,1.2,3.2,3.4,3.2,6.5c0,0.6-0.8,1.1-2.3,1.4s-2,1.1-1.4,2.3
		c3.7-1.2,5.9-2.2,6.5-2.8c2.5,1.2,4.3,2.6,5.5,4.2c1.2,1.5,2.5,3.2,3.7,5.1c1.8,1.2,3.4,2.8,4.6,4.6
		C2242.2,995.7,2243.4,997.3,2244.7,998.5z M2231.7,555.4h1.8c-0.6,0.6-0.9,1.2-0.9,1.8c-0.6,0-0.9-0.1-0.9-0.5
		c0-0.3-0.6-0.5-1.9-0.5L2231.7,555.4z M2241,469.4c-0.6,3.1-1.2,5.7-1.9,7.9c-0.6,2.2-1.2,4.8-1.8,7.9c0,1.2,0.3,2.2,0.9,2.8h0.9
		c1.2,0,1.9-0.3,1.9-0.9c3.1-3.7,5.5-7.4,7.4-11.1c1.9-3.7,2.2-8.3,0.9-13.9h-3.7C2243.1,464.5,2241.6,467,2241,469.4z
		 M2290.9,624.8c1.2,1.2,2.2,2.3,2.8,3.2c0.6,0.9,1.5,2,2.8,3.2c4.3,3.1,7.5,6.8,9.7,11.1c2.2,4.3,3.8,8.9,5.1,13.9
		c0,1.2,0.5,2.9,1.4,5.1c0.9,2.2,1.7,3.9,2.3,5.1c0,1.9,0.6,3.4,1.8,4.6c0.6-0.6,0.9-1.2,0.9-1.8c0-4.9-0.6-9.2-1.9-13
		c-1.2-2.5-1.8-6.2-1.8-11.1c0-4.9-0.8-9.7-2.3-14.3s-2.9-9.1-4.2-13.4c-0.6-0.6-1.1-0.9-1.4-0.9s-0.8-0.3-1.4-0.9
		c-2.5,0.6-4.6,1.1-6.5,1.4c-1.8,0.3-4,0.8-6.5,1.4C2289.4,620.8,2289.1,623,2290.9,624.8z M2348.3,422.2c-1.2,0.6-1.8,1.2-1.8,1.9
		c0,0.6-0.3,0.9-0.9,0.9c-8-1.2-15.7-1.1-23.1,0.5c-7.4,1.5-14.8,2.9-22.2,4.2c-1.2,0.6-2.6,1.2-4.2,1.9c-1.5,0.6-3.2,0.3-5.1-0.9
		c1.2-2.5,3.7-4,7.4-4.6c6.2-1.2,12.3-2.3,18.5-3.2s12-1.1,17.6-0.5h9.2h4.6V422.2z M2298.3,795.9c-1.2,2.5-1.8,4.9-1.8,7.4
		C2297.7,800.9,2298.3,798.4,2298.3,795.9z M2303,777.4c0,0.6-0.6,0.9-1.8,0.9c0,0.6,0.1,1.1,0.5,1.4c0.3,0.3,0.5,0.8,0.5,1.4
		c1.2-1.2,2.2-1.9,2.8-1.9l-0.9-0.9C2303.3,778.4,2303,778.1,2303,777.4z M2307.6,525.8c0.6,0,0.9-0.3,0.9-0.9V524
		c0,0.6-0.3,0.9-0.9,0.9V525.8z M2359.4,425c-0.6,0-1.2-0.3-1.8-0.9c-0.6-0.6-1.5-0.9-2.8-0.9c4.9-1.9,10.5-1.2,16.7,1.9h-5.6
		L2359.4,425L2359.4,425z M2371.4,473.1c-1.9,1.8-2.2,3.4-0.9,4.6c0-0.6,0.1-1.2,0.5-1.9C2371.3,475.3,2371.4,474.4,2371.4,473.1z
		 M2371.4,459.2c0-0.6,0.3-0.9,0.9-0.9v0.9H2371.4z"/>
	<path class="st0" d="M2723.8,493.5c1.2,1.9,2.5,2.8,3.7,2.8s2.8,0.6,4.6,1.8c-0.6,3.1-2.2,4.9-4.6,5.6c-2.5,0.6-4,2.2-4.6,4.6
		c-0.6,0.6-1.2,0.6-1.8,0c-5.6-1.2-9.2,0.3-11.1,4.6c-1.8-0.6-2.8-1.9-2.8-3.7c-1.2-1.2-1.9-2.5-1.9-3.7s-0.6-2.5-1.8-3.7
		c-1.9,0-3.7,0.3-5.6,0.9c-0.6-2.5-1.5-5.5-2.8-9.2c-0.6-4.3-3.4-7.4-8.3-9.2c-6.8-1.8-13.6-3.4-20.3-4.6c-6.8-1.2-13.6-1.2-20.4,0
		c-6.2,1.2-13,1.9-20.4,1.9s-14.8-0.3-22.2-0.9h-3.7c-0.6,0-1.9,0.9-3.7,2.8c2.5,1.2,4.3,1.9,5.5,1.9s2.8,0.3,4.6,0.9l16.7,2.8
		c2.5,0,5.5,0.6,9.2,1.9c0.6,0,1.5,0.9,2.8,2.8c-2.5,0.6-4.9,0.9-7.4,0.9s-4.9-0.3-7.4-0.9c-5.5-1.8-10.5-1.5-14.8,0.9
		c-3.1,1.8-6.2,2.2-9.2,0.9c-4.3,0.6-8.3,0.3-12-0.9c-3.7-1.2-7.7-1.5-12-0.9c1.2,1.9,0.9,3.4-0.9,4.6l0.9-1.8v-2.8
		c-3.7,0-7.7,1.5-12,4.6c-1.8,1.2-3.4,1.9-4.6,1.9s-2.5,0.9-3.7,2.8c-2.5,0.6-4.6,2.8-6.5,6.5c-1.2,3.7-4,6.2-8.3,7.4l-1.9,0.9
		l-0.9,0.9c-2.5,3.1-1.5,5.5,2.8,7.4c0,1.2-0.3,2.2-0.9,2.8c0,0.6-0.6,0.9-1.9,0.9h-0.9l-0.9-0.9c-1.9-1.2-3.4-1.2-4.6,0
		c-1.9,1.9-3.4,4-4.6,6.5c0.6,1.2,1.5,1.8,2.8,1.8c1.2,0,2.2,0.3,2.8,0.9v1.9c-1.8,3.1-3.4,6.5-4.6,10.2c-1.2,3.7-2.5,7.4-3.7,11.1
		c-0.6,4.3,0.9,7.1,4.6,8.3c6.8,3.1,13.3,6.2,19.4,9.2c6.2,3.1,13,5.9,20.4,8.3c4.9,1.2,9.9,2.8,14.8,4.6s10.2,4,15.7,6.5
		c3.7,2.5,5.9,4.3,6.5,5.6c-3.1-0.6-5.9-1.2-8.3-1.9c-2.5-0.6-5.2-1.2-8.3-1.8c-2.5-1.2-4.9-2.5-7.4-3.7s-4.9-2.2-7.4-2.8
		c-2.5-1.2-4.6-1.5-6.5-0.9c-3.1,1.2-5.5,0.6-7.4-1.8c-2.5-1.9-5.2-2.8-8.3-2.8c1.2,1.8,2.5,3.1,3.7,3.7c1.2,0.6,2.5,2.5,3.7,5.5
		c-4.9-2.5-9.2-5.5-13-9.2c-2.5-3.7-5.2-5.2-8.3-4.6c-0.6,0-1.2-0.3-1.8-0.9c-0.6-0.6-1.5-1.2-2.8-1.9c-1.2-1.2-2.5-2.2-3.7-2.8
		c-1.2-0.6-3.1-1.2-5.5-1.9v4.6c0,1.2,0.6,3.1,1.9,5.6c0,6.8,4,12.3,12,16.6c5.5,2.5,11.1,4.9,16.7,7.4c5.5,2.5,11.1,5.2,16.7,8.3
		c4.9,1.2,9.6,3.1,13.9,5.5c4.3,2.5,8.9,4.9,13.9,7.4l19.4,8.3c1.2,0,2.5,0.3,3.7,0.9c0-1.2,0-2.2,0-2.8s-0.3-1.5-0.9-2.8
		c1.2,0.6,2.8,1.2,4.6,1.8c1.8,0.6,3.4,1.2,4.6,1.8c3.1,8,7.7,13.3,13.9,15.7c1.2,3.1,3.1,5.2,5.5,6.5c2.5,1.2,4.6,2.8,6.5,4.6
		c1.2,0.6,1.9,2.5,1.9,5.5v5.6c1.8-1.2,4-2.5,6.5-3.7c2.5,1.8,3.7,3.4,3.7,4.6c0,1.2,0.6,3.7,1.9,7.4c2.5,2.5,4.9,4.3,7.4,5.5
		s5.2,2.8,8.3,4.6c0-1.2,0.6-3.1,1.8-5.5c1.2-0.6,2.2-0.9,2.8-0.9c0.6,0,1.5-0.3,2.8-0.9c-0.6-0.6-0.9-1.5-0.9-2.8V684h2.8
		c0.6,1.2,1.5,3.7,2.8,7.4c-2.5,0.6-4.9,1.8-7.4,3.7l5.5,8.3h-1.8c0,1.2,0,2.2,0,2.8s-0.3,1.2-0.9,1.9c0.6,3.1,1.2,4.9,1.8,5.5
		s2.8,0.3,6.5-0.9c0,2.5,0.3,4.3,0.9,5.5c0.6,2.5,2.2,6.2,4.6,11.1c4.3,4.3,4.6,8.6,0.9,13c1.2,0.6,2.5,1.5,3.7,2.8
		c-0.6,3.1-0.9,6.5-0.9,10.2s-0.6,7.1-1.9,10.2c1.2,0.6,3.1,2.2,5.5,4.6c0.6-1.8,0.9-3.4,0.9-4.6c-0.6-1.2-1.2-2.2-1.9-2.8
		c-0.6-0.6-1.2-1.5-1.8-2.8l5.5-8.3c3.1,2.5,4.6,4.3,4.6,5.6c0,1.2,0,2.8,0,4.6v13.8c0,4.3-0.9,7.1-2.8,8.3
		c-1.2,0.6-2.5,2.2-3.7,4.6c-0.6,0.6-2.2,1.5-4.6,2.8c-0.6,1.9-0.9,4.6-0.9,8.3c-1.8,0.6-4,1.5-6.5,2.8l-0.9,1.8
		c1.8,3.1,2.2,5.5,0.9,7.4c-1.2,1.8-2.2,3.7-2.8,5.5c0,1.2-0.9,1.8-2.8,1.8c-3.7,1.9-5.6,4.3-5.6,7.4c0,3.1-0.6,5.2-1.8,6.5
		c-1.2,1.2-3.1,2.8-5.5,4.6c-3.1,2.5-6.2,4.6-9.2,6.5c-3.1,1.8-6.2,3.7-9.2,5.5c-1.2,1.2-2.5,2.2-3.7,2.8c-1.2,0.6-3.1,2.2-5.5,4.6
		c-3.7,3.7-6.5,6.2-8.3,7.4c-3.7,2.5-7.1,4.3-10.2,5.6c-3.1,1.2-6.2,3.4-9.3,6.5c-1.2-1.2-1.2-2.5,0-3.7s1.5-2.5,0.9-3.7
		c-1.2-1.2-2.5-3.1-3.7-5.5h-2.8c-4.9,1.2-8.3,2.5-10.2,3.7c-0.6,1.2-2.2,1.8-4.6,1.8c-1.2,1.2-1.8,1.5-1.8,0.9
		c-3.7,0.6-7.4,1.2-11.1,1.8c-3.7,0.6-6.5,2.5-8.3,5.5c-1.2,0-2.5-0.6-3.7-1.8c-1.2-1.2-2.5-0.9-3.7,0.9c-1.9,0.6-2.8,1.5-2.8,2.8
		c0,1.2-0.3,2.5-0.9,3.7c0,1.9-1.2,3.4-3.7,4.6c-1.8,1.2-3.7,0.9-5.5-0.9h-0.9c-2.5-3.1-4.3-4.6-5.6-4.6c-1.2,0-3.4,1.2-6.5,3.7
		c-3.1,3.1-6.8,4.9-11.1,5.5c-0.6-1.2-0.9-2.2-0.9-2.8c0-0.6-0.3-1.2-0.9-1.9c-2.5-0.6-4.6,0-6.5,1.9l-5.6,5.5l-2.8-2.8l-0.9,0.9
		h-1.9l-2.8-5.5c-3.1-1.2-5.2,0-6.5,3.7c-0.6,0.6-1.5,3.1-2.8,7.4c-3.1,0-6.5,0.9-10.2,2.8c0-3.7-0.3-6.2-0.9-7.4
		c0-1.9-1.2-2.8-3.7-2.8h-0.9l-0.9,0.9h-0.9c-1.2,1.9-0.9,3.7,0.9,5.5c0,0.6,0.3,1.2,0.9,1.9c-0.6,0-1.2,0.3-1.8,0.9
		c-0.6,0.6-1.2,0.9-1.9,0.9c-3.7-0.6-7.4-0.9-11.1-0.9s-7.1-0.6-10.2-1.8c-0.6-1.2-1.5-1.9-2.8-1.9c-1.2,0-2.5-0.3-3.7-0.9
		c-13-4.9-24.7-10.5-35.2-16.7c-9.9-5.5-18.5-11.4-25.9-17.6c-7.4-6.2-14.2-13.6-20.4-22.2c-1.2-1.2-1.8-2.5-1.8-3.7
		s-0.6-1.9-1.9-1.9c-3.7-3.7-6.8-7.7-9.2-12c-2.5-4.3-4.6-8.9-6.5-13.9l-0.9-1.9c-1.2-4.9-1.8-8.3-1.8-10.2c0-2.5,1.5-4.9,4.6-7.4
		c1.2-0.6,1.9-1.5,1.9-2.8c0-1.2,0.3-2.2,0.9-2.8c0.6-1.8,1.2-2.8,1.8-2.8c0.6,0,1.2-0.3,1.9-0.9l13.9,5.5c0-3.1-0.3-5.5-0.9-7.4
		s-1.5-3.7-2.8-5.5c-4.3-6.2-7.7-12.6-10.2-19.4c-2.5-6.8-4-13.6-4.6-20.3c-0.6-1.2-0.9-2.5-0.9-3.7s0.6-2.8,1.9-4.6
		c0.6,0,0.9-0.6,0.9-1.8c-2.5-0.6-3.4-2.2-2.8-4.6c0.6-2.5,0.6-4.6,0-6.5c-0.6-1.8-0.6-3.4,0-4.6c0.6-1.2,1.2-3.1,1.9-5.5
		c1.2-1.9,1.2-4.3,0-7.4c0-1.2,0-2.8,0-4.6s0-3.4,0-4.6l5.5-19.4c1.2-1.9,1.8-3.4,1.8-4.6c0-1.2,0.9-2.2,2.8-2.8h0.9
		c3.1-5.5,8-7.1,14.8-4.6c2.5,1.2,4.9,1.9,7.4,1.9s4.3,1.8,5.5,5.5c1.2-1.2,2.5-1.9,3.7-1.9c1.2,0,2.2-0.9,2.8-2.8l2.8,2.8
		c1.2-0.6,1.9-1.5,1.9-2.8c0-1.2,0.6-2.2,1.8-2.8c-1.2,3.7-1.8,7.4-1.8,11.1c0,3.7,0,7.1,0,10.2c0,3.1,0,5.9,0,8.3
		c0,2.5-0.3,4.9-0.9,7.4c0,1.9-0.3,3.7-0.9,5.6c-0.6,1.8-0.3,3.7,0.9,5.5v3.7c-1.2,7.4-0.6,13.6,1.8,18.5c0.6,1.2,0.9,2.5,0.9,3.7
		s0.3,2.8,0.9,4.6c0,1.8,0,3.4,0,4.6c0,1.2,0.9,2.8,2.8,4.6c0.6,0,0.9,0.9,0.9,2.8c2.5,4.9,4.6,8.3,6.5,10.2
		c1.2,1.2,1.8,2.5,1.8,3.7s0.9,2.5,2.8,3.7c-1.2,1.2-2.5,0.9-3.7-0.9l-6.5-6.5c-1.2-1.2-2.5-2.2-3.7-2.8c0.6,8,3.1,15.1,7.4,21.3
		c3.1,4.9,6.2,9.9,9.2,14.8c3.1,4.9,6.8,9.6,11.1,13.9l5.5,5.5c2.5,1.2,4.3,3.1,5.5,5.5l1.9,1.9l0.9,2.8c3.1,4.9,7.4,7.4,13,7.4
		c5.5,0.6,10.2,0.9,13.9,0.9c3.7,0,7.7,0.9,12,2.8c3.1,0,5.2,0.9,6.5,2.8c-2.5,1.2-4.9,1.2-7.4,0s-4.6-1.2-6.5,0s-4,1.2-6.5,0
		s-4.6-1.2-6.5,0c1.2,2.5,3.7,4.3,7.4,5.5c1.8,1.2,3.4,1.8,4.6,1.8s3.1,0,5.5,0h31.5c3.1,0,7.1-0.6,12-1.8c6.2-3.7,12-6.8,17.6-9.3
		c5.6-2.5,11.1-5.6,16.7-9.2c2.5-1.2,4.6-2.5,6.5-3.7c1.9-1.2,4-2.8,6.5-4.6c0-3.1-1.2-4-3.7-2.8c-1.2,0-2.5,0.6-3.7,1.9
		c-3.1,2.5-6.2,4-9.2,4.6c-3.1,0.6-6.2,1.2-9.2,1.8c-5.5,1.8-11.1,2.8-16.7,2.8c-5.5,0-11.1,0.6-16.6,1.8h-2.8
		c-4.3-1.2-8.3-1.5-12-0.9s-7.7,0.6-12,0h-4.6c1.2-3.7,3.1-5.2,5.5-4.6h4.6c3.1,0,6.2,0,9.2,0c17.3,0,34.2-2.8,50.9-8.3
		c4.9-1.8,9.2-3.4,13-4.6c3.7-1.2,7.4-3.4,11.1-6.5c0.6-0.6,1.2-0.9,1.8-0.9s1.2-0.3,1.9-0.9c3.1-3.1,5.2-5.2,6.5-6.5
		c1.2-1.2,1.2-5.2,0-12c-1.2-3.1-2.2-6.5-2.8-10.2s-1.2-7.4-1.8-11.1c0-4.9-1.8-9.2-5.5-13c-1.9-2.5-3.7-4.9-5.6-7.4
		c-1.8-2.5-3.1-5.2-3.7-8.3c0-1.8-0.6-2.8-1.9-2.8c-1.2,0-2.2-0.6-2.8-1.8c-3.7-2.5-6.2-4.9-7.4-7.4c-0.6-1.2-1.2-1.8-1.8-1.8
		c-0.6,0-1.5-0.9-2.8-2.8c-5.5-2.5-11.1-6.2-16.7-11.1c-1.2-1.2-2.8-2.2-4.6-2.8c-1.8-0.6-3.7-1.5-5.5-2.8
		c-3.7-2.5-7.4-4.6-11.1-6.5c-3.7-1.8-7.1-4-10.2-6.5c-4.3-3.1-8.3-5.9-12-8.3c-3.7-2.5-7.4-4.9-11.1-7.4c-4.9-3.7-8.9-6.2-12-7.4
		c-7.4-4.3-13-8.6-16.7-13c-1.2-1.2-2.2-2.2-2.8-2.8s-1.5-1.2-2.8-1.8c-1.9-1.9-3.4-3.4-4.6-4.6c-1.2-1.2-2.5-2.5-3.7-3.7
		s-2.5-3.1-3.7-5.5c-1.2-2.5-2.5-4.6-3.7-6.5c-1.8-1.2-2.8-2.8-2.8-4.6s-0.6-3.4-1.9-4.6c-3.1-5.5-5.2-11.4-6.5-17.6
		c-1.2-6.2-1.9-12.3-1.9-18.5c-0.6-4.9-0.3-9.6,0.9-13.9c1.2-4.3,1.5-8.9,0.9-13.9c0.6-0.6,0.9-1.2,0.9-1.8s0-1.5,0-2.8
		c2.5-4.3,4.9-8.3,7.4-12s5.5-7.4,9.2-11.1l1.8-0.9l0.9-0.9c1.9-3.7,4-6.8,6.5-9.2c2.5-2.5,5.5-5.2,9.2-8.3c2.5-3.1,4.6-5.9,6.5-8.3
		c1.9-2.5,3.7-5.2,5.5-8.3c2.5-3.1,4.6-6.5,6.5-10.2c1.8-3.7,4.6-6.8,8.3-9.2c0.6-3.7,2.2-6.2,4.6-7.4c2.5-1.2,4.6-2.8,6.5-4.6
		c1.2-1.2,2.5-2.2,3.7-2.8c3.1,0,5.9-0.9,8.3-2.8c2.5-1.9,4.6-3.4,6.5-4.6c4.3-2.5,8.3-4.9,12-7.4s7.4-5.2,11.1-8.3
		c2.5-2.5,6.2-4.3,11.1-5.5c3.7-0.6,7.4-2.2,11.1-4.6c3.7-2.5,7.4-4.3,11.1-5.6c0.6-0.6,0.9-1.5,0.9-2.8c0-1.2,0.6-2.5,1.8-3.7
		c3.1-1.8,6.5-3.1,10.2-3.7c3.7-0.6,8-1.5,12.9-2.8c3.1-0.6,5.9-0.9,8.3-0.9h4.6c4.3,0.6,8.6,1.5,13,2.8c8,1.9,15.1,4,21.3,6.5
		c3.1,1.9,5.9,2.2,8.3,0.9c1.2-1.2,2.5-1.5,3.7-0.9c1.2,0.6,2.5,0.9,3.7,0.9c2.5,0,3.7,1.5,3.7,4.6v2.8c3.7,3.1,8,5.5,13,7.4
		c4.9,1.9,8.9,5.2,12,10.2c-1.9,1.2-4,2.5-6.5,3.7c1.2,3.1,1.9,5.9,1.9,8.3c0,2.5,0.3,4.6,0.9,6.5l5.5,2.8c5.5,4.3,8.6,8.6,9.2,13
		c0,1.2,0.6,3.1,1.9,5.5c1.2,2.5,3.1,3.7,5.5,3.7c1.2,0,1.8,1.2,1.8,3.7c-0.6,2.5-1.5,4.9-2.8,7.4c-1.2,2.5-2.2,5.2-2.8,8.3
		c1.2,0.6,2.2,0.9,2.8,0.9c0.6,0,1.2,0.3,1.8,0.9C2720.7,491.6,2722.6,492.2,2723.8,493.5z M2459.3,878.3c2.5,0,2.8-0.9,0.9-2.8
		c0-1.2-0.9-1.9-2.8-1.9c-2.5-1.2-6.2-2.5-11.1-3.7c-1.2-0.6-2.5-0.9-3.7-0.9s-2.5,0-3.7,0h-3.7c-0.6,0-1.5,0.6-2.8,1.9
		c0.6,0,0.9,0.3,0.9,0.9c0,1.2,0.3,1.8,0.9,1.8h0.9l1.9,0.9c2.5,1.8,5.5,2.8,9.2,2.8s7.1,0.6,10.2,1.9
		C2457.7,879.2,2458.7,878.9,2459.3,878.3z M2437.1,766.3l0.9,1.8h-1.8l-0.9-1.8H2437.1z M2456.5,788.5c-2.5,0-3.7-1.2-3.7-3.7
		C2455.3,784.8,2456.5,786.1,2456.5,788.5z M2462.1,808.9l0.9,0.9v0.9l-0.9,0.9l-1.8-1.9L2462.1,808.9z M2475.9,804.3h-0.9
		c0,1.2,0.3,1.8,0.9,1.8c0.6,0,0.9-0.3,0.9-0.9C2476.9,804.6,2476.5,804.3,2475.9,804.3z M2492.6,815.4c0,0.6-0.3,0.9-0.9,0.9v-0.9
		v-0.9L2492.6,815.4z M2506.5,878.3v-0.9h-0.9v0.9H2506.5z M2511.1,827.4c2.5,1.9,5.2,1.5,8.3-0.9
		C2515.7,826.5,2512.9,826.8,2511.1,827.4z M2520.3,436.1v0.9l-0.9-0.9H2520.3z M2524,825.5c0,0.6-0.6,1.5-1.8,2.8l1.8,0.9h0.9
		c2.5-1.2,4.3-1.9,5.5-1.9c-0.6-1.2-1.5-1.8-2.8-1.8C2526.5,825.5,2525.3,825.5,2524,825.5z M2532.4,425.9h-1.9V425
		c0-0.6,0.6-1.5,1.9-2.8h0.9l0.9,0.9l-0.9,0.9L2532.4,425.9z M2545.3,822.8c-0.6-0.6-1.5-0.9-2.8-0.9c-1.2,0-2.2,0-2.8,0
		c-0.6,0-1.5,0.6-2.8,1.8v0.9l1.8,0.9h1.9c0.6-0.6,1.2-0.9,1.8-0.9C2543.1,824.6,2544.1,824,2545.3,822.8z M2550.9,415.8
		c-0.6,0.6-1.5,0.9-2.8,0.9c-0.6-0.6-0.9-1.5-0.9-2.8c1.2-1.9,3.1-2.5,5.5-1.9L2550.9,415.8z M2574.9,401c-2.5,1.2-6.2,3.7-11.1,7.4
		c-1.9-1.9-1.9-3.1,0-3.7c1.8-0.6,3.7-1.2,5.5-1.9C2571.2,402.2,2573.1,401.6,2574.9,401z M2567.5,602.6c1.2,0.6,2.2,0.9,2.8,0.9
		c0.6,0,2.2,1.2,4.6,3.7C2570.6,606.6,2568.1,605.1,2567.5,602.6z M2570.3,498.1h0.9H2570.3z M2611.9,625.7c1.9,1.2,3.4,2.5,4.6,3.7
		s1.2,3.1,0,5.6c-2.5,0-4.3-1.2-5.5-3.7s-3.4-4.3-6.5-5.6c-0.6-1.2-1.5-1.8-2.8-1.8c-1.2,0-2.5-0.9-3.7-2.8
		c-2.5-1.2-4.9-2.8-7.4-4.6s-5.2-3.4-8.3-4.6l5.5-2.8c1.9,1.2,2.8,2.2,2.8,2.8s0.6,1.2,1.8,1.9c0.6,0.6,2.8,1.5,6.5,2.8
		c0-0.6,0.9-1.5,2.8-2.8l11.1,5.5C2612.2,621.1,2611.9,623.3,2611.9,625.7z M2599.9,875.5c0,1.2-0.6,2.8-1.9,4.6
		c1.2,1.2,2.2,2.5,2.8,3.7c-1.2,0.6-3.7,1.5-7.4,2.8c1.2-3.7,2.2-6.2,2.8-7.4C2596.8,878,2598,876.7,2599.9,875.5z M2602.7,604.5
		c-0.6-0.6-0.9-0.6-0.9,0v-0.9C2602.3,603.5,2602.7,603.9,2602.7,604.5z M2616.5,610.9c-2.5,0-4.3-0.3-5.5-0.9
		c-1.2-0.6-4-2.5-8.3-5.5C2607.6,603.9,2612.2,606,2616.5,610.9z M2608.2,882h1.8c0.6-0.6,1.2-0.9,1.8-0.9h-0.9l-0.9-0.9L2608.2,882
		z M2623.9,613.7c7.4,2.5,13.3,8,17.6,16.6c-1.2-0.6-3.7-2.2-7.4-4.6c-3.7-2.5-8-6.2-13-11.1h1.9L2623.9,613.7z M2630.4,863.5
		c-0.6,1.9-0.3,3.1,0.9,3.7h1.8c1.2-1.8,3.1-3.4,5.5-4.6c2.5-1.2,4.3-2.5,5.6-3.7c0.6,0,0.9-0.3,0.9-0.9l0.9-0.9v-1.9l-1.8-0.9
		c-1.2,0.6-3.1,1.5-5.6,2.8c-2.5,1.2-4.6,2.5-6.5,3.7l-0.9,1.9L2630.4,863.5z M2642.4,472.2c0-2.5,1.2-3.7,3.7-3.7s3.1-1.5,1.8-4.6
		c-3.7-1.2-6.8-2.2-9.2-2.8c1.2,1.2,1.9,2.2,1.9,2.8s0,1.5,0,2.8c-0.6,0.6-2.2,1.5-4.6,2.8c0.6,0.6,1.5,0.9,2.8,0.9
		C2640,470.3,2641.2,471,2642.4,472.2z M2664.6,652.6c2.5,0,4.6,0.9,6.5,2.8c-0.6,3.1-0.9,6.2-0.9,9.2c0,3.1,0.3,6.2,0.9,9.2
		l-2.8-2.8c-2.5-7.4-7.1-14.5-13.9-21.3c-1.9-1.2-3.4-3.1-4.6-5.5c-1.2-2.5-3.1-4.9-5.5-7.4l1.8-1.8l2.8-0.9
		c3.1-1.2,4.6-0.6,4.6,1.9c-0.6,3.1-0.3,5.2,0.9,6.5c1.2,1.2,2.2,2.8,2.8,4.6C2657.8,650.7,2660.3,652.6,2664.6,652.6z
		 M2659.1,469.4c2.5,1.2,4.3,0.3,5.5-2.8c-1.8-1.2-4-1.5-6.5-0.9l-0.9,1.9C2657.2,468.8,2657.8,469.4,2659.1,469.4z M2673.9,471.3
		v-0.9l-0.9-0.9l-0.9,0.9C2672.6,471,2673.3,471.3,2673.9,471.3z M2673.9,684c-1.8-3.7-1.5-6.8,0.9-9.2c1.2-1.2,2.5-1.8,3.7-1.8
		s2.5-0.3,3.7-0.9c-1.8,2.5-3.4,4.6-4.6,6.5C2676.3,680.3,2675.1,682.2,2673.9,684z M2690.5,439.8v-0.9h-0.9h-0.9
		C2689.3,439.5,2689.9,439.8,2690.5,439.8z M2697,416.7l-1.8-2.8h-2.8l0.9,0.9l0.9,1.9L2697,416.7L2697,416.7z M2693.3,733
		c-1.8,4.3-0.6,8,3.7,11.1c3.1-4.9,4.3-7.7,3.7-8.3c-0.6-1.9-0.9-3.4-0.9-4.6c0-1.2-1.2-2.8-3.7-4.6c-1.2,0.6-1.8,1.5-1.8,2.8
		C2694.2,730.6,2693.9,731.8,2693.3,733z M2719.2,793.2c-0.6,3.1-1.5,4.6-2.8,4.6c-1.2,0-2.8,0.9-4.6,2.8c-2.5-0.6-3.1-1.5-1.9-2.8
		c1.2-1.2,2.5-2.5,3.7-3.7C2714.9,792.9,2716.7,792.6,2719.2,793.2z M2716.4,802.4l1.8-1.9l0.9,1.9c-0.6,0-1.2,0.3-1.8,0.9
		C2716.7,803.3,2716.4,803,2716.4,802.4z"/>
</g>
</svg>
