<?xml version="1.0" encoding="utf-8"?>
<!-- Generator: Adobe Illustrator 19.2.1, SVG Export Plug-In . SVG Version: 6.00 Build 0)  -->
<svg version="1.1" id="Layer_1" xmlns="http://www.w3.org/2000/svg" xmlns:xlink="http://www.w3.org/1999/xlink" x="0px" y="0px"
	 viewBox="0 0 61.6 59.2" style="enable-background:new 0 0 61.6 59.2;" xml:space="preserve">
<style type="text/css">
	.st0{display:none;fill:#F1F2F2;}
	.st1{display:none;fill:#A7A9AC;}
	.st2{fill:#E81F63;}
</style>
<rect x="-44.6" y="-1155.1" class="st0" width="590" height="7550"/>
<rect x="-0.6" y="-2.1" class="st1" width="64" height="64"/>
<g>
	<g>
		<g>
			<g>
				<g>
					<path class="st2" d="M61.1,25c-0.1,0-0.2,0.1,0,0.4c0.1,0,0.3,0,0.4,0.1C61.4,25.3,61.2,25.1,61.1,25z"/>
					<path class="st2" d="M61.1,27.4c0.1,0.4,0,1,0.4,0.9c0-0.6,0.1-0.7-0.2-1.2c0-0.3,0.1-0.6,0.2-0.6c-0.1-0.1-0.1-0.6-0.3-0.7
						c0,0.5,0,1,0.1,1.7C61.2,27.6,61.2,27.5,61.1,27.4z"/>
					<path class="st2" d="M38.4,28.5l0.2-0.1C38.6,28.4,38.5,28.5,38.4,28.5z"/>
					<path class="st2" d="M24.7,42c0.1-0.1,0.1-0.2,0.1-0.2C24.8,41.9,24.7,42,24.7,42z"/>
					<path class="st2" d="M22.2,44l0.2-0.1C22.2,44,22.2,44,22.2,44z"/>
					<path class="st2" d="M38.4,28.5L38,28.8C38.1,28.9,38.3,28.7,38.4,28.5z"/>
					<path class="st2" d="M58.9,31.2C59,31.1,59,31,59,30.9L58.9,31.2C58.9,31.1,58.9,31.2,58.9,31.2z"/>
					<path class="st2" d="M45.3,31.7l0.1,0.1c0.1,0,0.1,0,0.2,0L45.3,31.7z"/>
					<path class="st2" d="M49.9,36.3c0-0.1-0.3,0.1-0.4,0.1c0.1,0,0.3,0,0.3,0C49.8,36.4,49.8,36.3,49.9,36.3z"/>
					<path class="st2" d="M57,31.4l0.1-0.2L57,31.4z"/>
					<path class="st2" d="M42,28.4v-0.1V28.4z"/>
					<path class="st2" d="M56.2,19.2L56.2,19.2L56.2,19.2z"/>
					<path class="st2" d="M60.5,25.5L60.5,25.5c-0.1,0-0.2,0-0.2,0H60.5z"/>
					<path class="st2" d="M17.7,48L17.7,48C17.8,47.9,17.7,48,17.7,48z"/>
					<path class="st2" d="M22.7,29.6c-0.6,0.3,0.5-0.9-0.4-0.5C22.5,29.1,22.1,30,22.7,29.6z"/>
					<path class="st2" d="M58.7,31.3l-0.2,0.2C58.6,31.4,58.7,31.3,58.7,31.3z"/>
					<polygon class="st2" points="22.4,29.1 22.4,29.1 22.3,29.2 					"/>
					<path class="st2" d="M8,56.5l0.1,0.1C8.2,56.6,8.1,56.6,8,56.5z"/>
					<path class="st2" d="M15.6,50.9l-0.2,0.2C15.5,51,15.5,51,15.6,50.9z"/>
					<path class="st2" d="M3.9,55.3c-0.1-0.1-0.1-0.2-0.2-0.3c0,0,0,0,0,0.1C3.8,55.1,3.8,55.2,3.9,55.3z"/>
					<path class="st2" d="M2.2,51L2.2,51l-0.1,0.2L2.2,51z"/>
					<path class="st2" d="M48.8,5.8C48.9,5.9,49,6,49,6.1C48.9,5.9,49.9,6.3,48.8,5.8z"/>
					<path class="st2" d="M58.8,31.1c0,0.1,0,0.1,0,0.2V31.1L58.8,31.1z"/>
					<path class="st2" d="M2.2,56.7c-0.2-0.3-0.5-0.5-0.6-0.8C1.7,56.1,1.9,56.4,2.2,56.7z"/>
					<path class="st2" d="M10.5,7.4l0.2-0.2C10.6,7.3,10.6,7.3,10.5,7.4z"/>
					<path class="st2" d="M0.1,53c0.1-0.2,0.1-0.4,0.1-0.6l-0.1-0.1C0.1,52.5,0.1,52.7,0.1,53z"/>
					<path class="st2" d="M48.9,6.2L48.9,6.2L48.9,6.2z"/>
					<path class="st2" d="M53.9,10.8c-0.3-1-0.5-0.3-0.8-0.5c-0.6-1,0-0.6,0-1.1c-0.5-0.6-1.1-0.9-1.4-1.3c0-0.1,0-0.2,0.1-0.1
						c-0.4-0.2-0.8-0.6-1.2-0.9c-0.5-0.3-1-0.6-1.5-0.6c0-0.1-0.1-0.1-0.1-0.1c0.1,0.2,0,0.4-0.1,0.5c-0.4-0.2-0.8,0-0.8-0.3
						c0.2,0.1,0.3,0,0.4,0c-0.1,0-0.3,0-0.4,0c-0.3-0.4,0.6,0.1,0.7-0.2c-0.9-0.2-1.9-0.1-2.6-0.1c-0.1-0.2,0.3-0.2,0.6-0.2
						s0.5,0,0.1-0.2c0.4,0.1,0.7,0.2,1,0.3c-0.7-0.7,0.6,0.2,0-0.5c-0.7-0.2-1.2-0.2-1.6-0.1c-0.4,0.1-0.8,0.1-1.6,0.3
						c-0.3,0.3,0.2,0.2-0.1,0.5c-0.8,0.4-1.2,0.5-1.3,0.4S43.1,6.3,43,6.4c0,0,0,0-0.1,0.1s-0.2,0.2-0.3,0.3c-0.1,0-0.1,0-0.2,0
						c-0.1-0.1-0.2-0.2-0.4-0.4l0.5-0.1c-0.9-0.8-0.9,0-1.7-1c0.3,0,0.8,0.5,0.7,0.3c-0.5-0.7-0.6-0.2-1.1-0.5l0.1-0.4
						c-1.1-0.7-2.4-1.2-3.7-1.8c0.1-0.1,0.4,0,0.1-0.3c-1.7-0.7-3.5-1.6-5.2-2.2L31,0.5c-0.2,0-0.3-0.2-0.1-0.2
						c-0.7-0.2-0.1,0.2-0.4,0.2c-0.4-0.1-0.5-0.3-0.2-0.3c-1.3,0-3.5,0.1-4.8-0.1L25.7,0c-1-0.1-1.1,0.7-2,0.5l0.2-0.1
						c-2.2,0.2-4.3,1.2-6,1.6c-0.1,0.5-2,0.8-1.8,1.4c-1.2,0.4-1,0.1-2.5,1c-0.2,0.1-0.3,0.3-0.3,0.5c0,0.1-0.1,0.2-0.2,0.4
						c-0.1,0.1-0.2,0.3-0.3,0.4l-0.3-0.2c-0.2,0.3-0.4,0.6-0.5,0.9c-0.3,0.1-0.6,0.2-0.9,0.3l-0.5,0.6c0.3-0.2,0.7-0.5,0.8-0.4
						c-0.2,0.3-0.5,0.5-0.8,0.8l-0.5,0.4C10,8.2,9.9,8.2,9.8,8.3L9.6,8.5C9.9,8.7,10,8.8,9.9,8.8c1.3,0.3,2.5,0.5,3.5,0.7
						c-0.1,0.1-0.7,0-1.2-0.1c1,0.1,1,0.2,1,0.3c0,0,0,0.1,0.1,0.1c0.1,0.1,0.3,0.1,0.7,0.2c-0.2-0.1,0.2-0.1,0.2-0.2
						c0.4,0.3,1.3,0.7,2,0.9L16,10.8c1.2,0.6,2.7,1,4,1.8c-0.4-0.3-0.2-0.6,0.3-0.4v0.4c0.4,0-0.4-0.3,0.3-0.3
						c0.5,0.3,0.2,0.5-0.2,0.4l0.7,0.2c0,0.1-0.2,0.1-0.3,0.2c0.4,0,0.9,0.9,1.4,0.8V14c1.3,0.8,1.9,1.1,3,1.7
						c0.2-0.2,0.5,0.1,1,0.1c0.7,0.6,1.4,1.4,2.2,2.1c0.7,0.4,0.3,0,0.7,0.1c-0.1,0.1,0.1,0.4,0.2,0.5s0.1,0.1,0.1,0.2
						c0,0,0,0.1-0.1,0c0.2,0.2,0.3,0.2,0.5,0.4l0.1,0.1l-0.1,0.1l-0.2,0.4c0.1,0,0.3-0.1,0.3,0s-0.1,0.1-0.2,0.2
						c-0.1,0-0.2,0.1-0.3,0v-0.1c-1.1,1.6-3.7,2.6-4.4,4.1v-0.1l-0.9,1.3c-0.5,0.5,0.2-0.4-0.3-0.2c-0.9,1.5-2,1.9-2.8,3.1
						c-1.3,0.2-2.7,2.8-4.1,3.5l0.2,0.1C17,32,16.7,31.9,16.5,32c0.1,0.1,0.4-0.2,0.3,0.1c-2.1,2.4-4.9,4.5-7.4,6.8
						c-0.9,0.8,0.2,1.1-1.2,1.9l0.1-0.5c-1.5,2-3.5,3.5-5,5.5c0-0.2,0-0.2,0.1-0.4c-0.5,0.2-1.3,1.3-1.2,1.5C1.9,47.2,2,46.8,1.7,47
						c-0.5,0.4-0.7,1.4-1,1.5c-0.1,0,0-0.2,0.1-0.3c-0.2,0.4-0.8,1.7-0.4,1.4c-0.5,1-0.3,2.1-0.4,2.9c0.2,0.3,0.2,0.7,0.3,1.1
						c0.1,0.4,0.2,0.7,0.5,0.7c-0.2,0.1-0.1,0.5,0.2,1s0.8,1,1.1,1.1c-0.3-0.1,0.3,0.5,0,0.5c0.5,0.6,1.2,0.9,1.2,0.6
						c0.4,0.6,1.1,0.9,1.7,1.1c0.6,0.2,1.2,0.2,1.5,0.6c1.2,0,2.4-0.3,3.3-0.8c0.9-0.5,1.7-1.2,2.3-1.9c0.1,0.2-0.2,0.6-0.6,0.9
						c-0.4,0.3-0.9,0.6-0.7,0.8c0.8-0.6,1.3-1.2,1.7-1.8c0.4-0.5,0.8-1,1.4-1.6c0.3-0.3,0,0.3-0.1,0.5c1-1.3,2.3-2.2,3.1-3.4
						c0,0-0.1,0.2-0.1,0.3c0.2-0.2,0.5-0.4,0.4-0.5L17,51.9c-0.5,0.1,0.4-1.2,0.3-1.4c0.1,0.8,1.1-0.9,1.1,0.2
						c0.1-0.2,0.2-0.4,0.1-0.5c0.2-0.2,0.3-0.2,0.3,0.1c0.7-0.8,0.2-0.7,0.9-1.4c0.1,0.1,0,0.2,0,0.4c0.2-0.5,0.4-0.9,1-1.4
						c0,0.1,0.1,0.1,0,0.2c0.9-1,1.3-2,2.5-2.9c0,0.6,0.5-0.3,0.8-0.1l0.5-0.6l-0.4,0.1c0.5-0.5,0.7-1.1,1.3-1.5l-0.3,0.5l0.9-1
						L25.4,43c0.4-0.6-0.4-0.3,0.3-0.9c-0.1,0.2,0.5-0.5,0.9-0.6l0,0c0.2-0.3,0.3-0.7,0.8-1c0.2,0,0.2,0.4,0.3,0.4
						c0-0.5,1.1-1.2,1.2-1.8c0,0.2,0.1,0.3,0.1,0.3V39c0.3-0.2,0.3-0.2,0.4,0c0.7-0.7-0.6-0.1,0.4-0.8c0,0.1,0,0.1-0.1,0.2
						c0.9-0.7,1.5-1.7,2.3-2.4c0.5,0-0.6,0.7-0.1,0.7c1-1.1,1.9-2.6,3.1-3.6l-0.2,0.2c-0.2-0.5,1-0.6,1.3-1.3c-0.1,0.2,0,0.4,0,0.3
						c0.8-0.7,1.4-1.6,2.4-2.8v0.2c0.1-0.1,0.3-0.2,0.4-0.3l0.4-0.3c0.2-0.2,0.4-0.3,0.5-0.4c0-0.2,0.2-0.3,0.2-0.4l0,0v-0.1l0,0
						c0.5,1.5,2.7,2.1,3.5,3.8c-0.2-0.2-0.4-0.3-0.3-0.2l1.2,1c0.1-0.2,0-0.2-0.1-0.6c0.2,0,0.6,0.3,0.9,0.5
						c-0.6-0.4-0.3,0.3-0.1,0.6c0-0.1,0.1-0.1,0.2-0.1c0.3,0.9,0.4-0.2,1,0.7h-0.1c0.3,0.2,0.7,0.4,1,0.7c-0.1,0.3-0.4-0.2-0.6-0.1
						c0.4,0.4,1.2,0.5,1.4,1.1c-0.2-0.1-0.5-0.4-0.7-0.5c0.2,0.6,0.3,0.6,0.6,1l0,0l0.6,0.8l-0.1-0.2c0.5,0,0.8,0.3,1.2,0.6
						s1,0.5,1.5,0.2c-0.5,0.2-0.6,0.2-0.5,0.3s0.3,0.1,0.3,0.2c0.3,0.1,0.9,0.1,0.8,0.2c0.3-0.2,0.6-0.3,0.9-0.4
						c0.1-0.1,0.3-0.2,0.4-0.3s0.2-0.2,0.2-0.4c0.1,0,0.4-0.4,0.5-0.1c0.4-0.5-0.2,0-0.3-0.1c0.5-0.9,1.9-1.3,2.6-2.7
						c0.7-1,0.7-1.4,1.3-2.3c0.4-0.2,0,0.5,0,0.5c0.5-0.3,0.8-0.7,1.2-1.2c0,0.1,0.1,0.1,0.3,0.1c0.3-0.3,0-0.5,0.5-0.8
						c0,0.2,0,0.4,0,0.6c0.3-0.5,0.6-1,0.9-1.4c0.2,0-0.1,0.4-0.1,0.6c0.4-0.5,1.1-1.3,1-1.6l-0.4,0.2c0.2-0.2,0.2,0.1,0.2,0.2
						c-0.2,0.5-0.6,0.5-0.7,0.4l0.2-0.3c-0.7-0.1-1.1,1.2-1.7,1.8l-0.1-0.5l-0.3,0.8c-0.2,0-0.5,0-0.2-0.4c-0.6,0.3-0.3,0.5-0.8,0.7
						c-0.1,0-0.1,0,0-0.1L57,32c0-0.1-0.3-0.1,0-0.3c-0.9,0.6-0.9,1.4-1.4,1.4V33c-0.9,1.1,0.1,0.3-0.4,1.3h-1l0.1,0.3
						c-0.1,0.1-0.3,0.3-0.4,0.2c-0.2,0.5,0.2,0,0.1,0.4c-0.7,0.3-1.3,1.5-1.7,1.2c0,0.3,0.6-0.4,0.2,0.3c-0.3-0.1-0.4,0.1-0.5,0.2
						c-0.2,0.2-0.4,0.4-0.7,0.3c0.1-0.3,0.6-0.3,0.1-0.4c-0.1,0.3-0.4,0.3-0.6,0.1c-0.2-0.1-0.4-0.3-0.6-0.4
						c-0.2,0.3-0.9-0.7-1.6-1.2c0.1,0-1.1-1.4-1.6-2h0.1c-0.4,0.1-0.9-0.5-1.4-0.9c0.2-0.1,0.3-0.1,0.6,0.1l-0.4-0.4
						c-0.2,0-0.4-0.1-0.7-0.3l0.3-0.1c-0.6-0.6-1.4-0.9-2-1.8c-0.2,0.1,0.1,1.1-0.8,0.4c0.1-0.1,0.2-0.3,0.4-0.2
						c-0.1-0.1-0.3-0.2-0.4-0.3l0.5,0.1c-0.3-0.4-0.3,0-0.6-0.3c0.1-0.1-0.1-0.3,0.1-0.4c0.1,0.1,0.2,0.3,0.3,0.3
						c-0.3-0.3-0.5-0.8-0.6-1c-0.1,0.1-0.2,0.2-0.4,0c-0.7-0.7-0.1-0.4-0.5-1c-0.2-0.1-0.7-0.7-0.8-0.4c-0.1-0.1-0.2-0.2-0.2-0.3
						c-0.1,0-0.1-0.1-0.2-0.1c-0.4,0.6-1.9,2-1.3,1.8l0.1-0.1v0.1l0,0l0,0c-0.8,1.2-2.1,1.9-3,2.9L36,31.3c-0.5,0.6-1.2,1.3-1.5,1.9
						c-0.2,0.2-0.5,0.3-0.5,0.1c-0.4,0.5-0.3,0.6-1.1,1.1c0.3-0.6-0.3,0,0.4-0.5c-0.6,0.5-0.9,0.5-1.3,1.3c0-0.4-0.6,0.2-0.9,0.5
						l0.5-0.3c-0.3,0.3-0.6,0.6-0.8,0.8l-0.1-0.4c-1.4,0.9-1.6,2.6-2.9,3c-0.1,0.5,0.7-0.5,0.7,0c-0.6,0.5-1.4,0.7-1.6,0.9
						c-0.9,0.6-0.3,1-1.2,1.7c0.2,0,0.5,0.1,0,0.8c-0.6,0.5-1,0.3-0.7-0.1c0.1-0.1,0.2-0.2,0.2-0.1c0.1-0.2,0.3-0.5,0-0.3v0.2
						c-0.3,0.2-1.1,0.9-1,0.6c-0.3,0.5,0,0.3,0.3,0.1c-0.8,0.6-1.1,1.1-1.8,1.7c0.2-0.1,0.4-0.1,0.2,0c-1.1,0.9-0.3,0.6-0.9,1.3
						c-0.5,0.3-0.2-0.4-0.8,0.4c-0.5,0.3-0.3-0.1-0.2-0.4c-0.5,0.8-1.3,1.1-1.7,1.4l0.3-0.4c-0.2,0.2-0.3,0.4-0.5,0.6h0.4
						c-0.2,0.2-0.4,0.3-0.5,0.3c-0.1,0.3,0.4,0.1,0.2,0.7c-0.3,0.2-0.7,0.9-1,0.8c0.9-0.7-0.3-0.1,0.3-0.9c-0.1,0.2-0.3,0.3-0.5,0.5
						c-0.1,0,0-0.1,0-0.1c-1,0.6-0.1,0.6-0.9,1.4c0-0.2-0.4,0-0.5,0.1c0.3-0.3,0.4,0.1,0.2,0.4c-0.6,0.4-0.5,0.6-0.8,0.9l0.4-0.3
						c0,0.2-0.3,0.5-0.6,0.9c-0.1-0.1,0.3-0.4,0.1-0.3c-0.2,0.6-1.1,0.7-1.6,1.4c-0.3,0.2-0.3-0.2-0.5,0c-0.5,0.8-0.9,0.5-1.4,1.3
						c0.4,0,0.4-0.1,0,0.5l1-1.2l-0.5,0.9c0.3-0.3,0.6-0.8,0.8-1c-0.2,0.5-0.2,0.4,0.1,0.4c-0.7,0.2-0.8,1-1.4,1.4L12,54.9
						c-0.2,0.1-0.4,0.3-0.6,0.5c-0.2,0.2-0.3,0.3-0.4,0.5c-0.3,0.4-0.7,0.7-1.3,0.9c0.1,0,0.3,0,0.4-0.1c0,0.3-0.7,0.4-1.1,0.5
						C9,57,8.7,57,8.6,56.9c0,0.2-0.8,0.1-1,0.4c-0.2-0.1-0.3-0.2-0.5-0.3c-0.5-0.2-0.8-0.1-1.1-0.1s-0.7,0-1.1-0.3
						c0.4,0,0.1-0.4,0.7-0.2C5.3,56.2,5.1,56,5,56.1c-0.1-0.2-0.9-0.4-1-0.8c-0.2,0-0.4,0.1-0.6-0.3c0-0.1,0.1-0.1,0.1-0.1
						c-0.1,0.1-0.5-0.4-0.4,0C3,54.3,2.7,53.7,2.5,53s-0.3-1.4,0.1-1.8c0-0.7,0.3-1.6,0.6-2.1c0,0.1,0.1,0.1,0,0.2
						C3.9,48.7,3,48.5,4,47.8c0.6-0.2-0.3,0.5,0,0.4c0.5,0.4,0.9-1.1,1.7-1.3l-0.1,0.2c0.6-0.3,0.9-1.2,1.6-1.9c0,0,0,0.1,0.1,0.1
						c0.2-0.7,1.1-1.7,1.7-2.4c0,0.4-0.2,0.4,0.1,0.5c0.3-0.3-0.4-0.2,0.2-0.9c0.3-0.1,0.8-0.4,1.1-0.3l-0.6,0.6
						c0.5,0,0.7-0.7,1.1-1l0.1,0.1c0.8-0.9,0.6-1.2,1.5-2.1h-0.2c0.2-0.8,0.6-0.3,0.9-1l0.4,0.1c0.3-0.4,0.9-1.4,1.4-2.1
						c-0.1,0.5-0.7,1.4-1,1.9c0.3-0.3,1.1-1.1,1.1-1.5c-0.1,0.2-0.2,0.4-0.4,0.5c0.2-0.6,0.6-1.3,1.3-1.9c0.4,0.7,1.9-1.6,2.8-1.6
						c1-1.4,2.4-2.2,3.7-3.6c-0.9,0.1,0.4-0.4-0.1-0.8c0.3-0.3,0.4-0.5,0.5-0.5l1.2-0.7c0.4-0.1-0.2,0.4-0.1,0.5
						c0.7-0.7,0.5-0.1,1-0.5c-0.2-0.1,0-0.5,0.5-0.8l-0.8,0.4c0.7-1.2,1.2-0.5,1.9-1.7l-0.2,0.4c0.4-0.6,1.8-1.8,2-2.7
						c0.1,0,0.4,0,0.2,0.2c0.6-0.6,1.2-1.3,1.8-2c0.3-0.4,0.6-0.7,0.8-1l0.2-0.2l0.3-0.3c0.2-0.2,0.4-0.4,0.7-0.6v0.2
						c0.3-0.4,0.3-0.7,0.9-1.1c0.1,0,0,0.2,0.2,0l0.1-0.1c0,0,0.1-0.1,0-0.1l-0.5-0.4c-0.3-0.3-0.7-0.6-0.9-0.8l0.6,0.3
						c-0.4-0.5-0.9-1-1.3-1.3c-0.3-0.2-0.6-0.4-0.8-0.5c-0.6-0.3-1.1-0.5-1.7-0.9c0.3-0.3-0.7-1.3-1.2-1.7h0.1
						c-1.6-1.2-3-1.6-4.7-2.3c-0.7-1-3.3-2-4.9-2.9c0.2,0.2-0.2,0.3-0.5,0.2c-0.4-0.2-1.2-0.2-1-0.5l0.1,0.1
						c-0.1-0.2-0.3-0.4-0.6-0.6c-0.2-0.1-0.3-0.1-0.5-0.2l-0.4-0.1c-0.1,0.2-0.2,0.3-0.3,0.5c-0.2-0.4-0.3-0.4-0.7-0.5
						c-0.1-0.2,0.4-0.8,0.8-0.6c0,0,0.2-0.3,0.3-0.4c0.2-0.2,0.3-0.3,0.4-0.5l0.2,0.2l2.6-1.6L18.6,5c0.7-0.4,0.5-1.2,1.1-1.5
						l0.4,0.3c1.2-0.6,2.6-0.6,3.8-1.2c0,0.1,0,0.2-0.2,0.3c0.6-0.2,2.4-0.1,2.1-0.6c0,0.4,1.4-0.1,2.1-0.2l-0.1,0.3
						C28.4,2.1,28.5,2,29.3,2c0.2,0.1,0.2,0.2-0.1,0.1c0.7,0.2,0.6-0.2,1.4,0.1l-0.3,0.1c0.7,0.1,0.7,0,1.1-0.1
						c0.5,0,1.3,0.4,1.3,0.7c0.1-0.1,0.6-0.2,1,0C33.7,3,33.6,3,33.5,3c1.1,0.6,1.8,0.3,2.4,0.9c0,0.1,0,0.2,0.1,0.2
						c-0.9-0.4-1.6-0.7-1.5-0.7c-0.1,0.2,0.6,0.6-0.1,0.7c0.6,0,1.8,0.1,2.4,0.5v0.1h-0.1c0.1,0.1,0.3,0.2,0.4,0.2
						c0.2,0.1,0.3,0.2,0.5,0.4c0,0.2,0.7,0.5,1,0.7c0.1-0.3,0.5,0.1,0.2-0.4c0,0.1-0.1,0-0.3-0.1c-0.1,0-0.1-0.1-0.2-0.1l0,0
						l-0.8-0.5c0.3,0,0.7,0.1,1,0.4c0.3-0.1,0.5-0.1,0.7-0.1c0.2,0.6,0.9,1.4,0.9,1.6c0.5,0.2,1,0.6,1.4,0.9
						c0.2,0.1,0.6,0.4,0.9,0.7c0.3,0.2,0.6,0.4,0.8,0.5c0.1-0.1,0.2-0.2,0.3-0.4c0.4-0.3,0.4-0.1,0.6-0.2c-0.2,0.2-0.5,0.4-0.6,0.6
						c0.2-0.2,0.5-0.4,0.7-0.6c0.1-0.1,0.3-0.2,0.4-0.3l0.3-0.1c0.3-0.2,0.6-0.3,0.7-0.5c0.8,0-0.3,0.4,0.7,0.2l-0.1,0.1
						c1,0.2,1.7,0.1,2.6,0.2c0.9,0.1,1.9,0.6,2.3,1.8C51,9.5,51,9.5,51,9.4c0.7,1,1.3,2.1,1.4,3.3c0.1,0.6,0,1.2-0.2,1.8
						c0,0.1-0.1,0.3-0.2,0.4c-0.1,0.1-0.1,0.3-0.2,0.5c-0.2,0.4-0.5,0.7-0.8,1.1c0.2,0.3,0.5,0.6,0.7,1c0.2,0.2,0.4,0.4,0.5,0.5
						s0.2,0.1,0.3,0.2c0.2,0.1,0.4,0.1,0.6,0.2L53,18.7l0.9,0.4c1,0.7,1,2,2.4,2.8v-0.3c0.4,0.4,1.3,1.2,1.1,1.3
						c0.1,0,0.3,0,0.4,0.2l-0.1,0.1l1.2,0.8c0.7,0.8-0.6,0.3,0.5,1.4c0.4,0.4,1.5,0.8,1.4,0.6c-0.2-0.2-0.3-0.5-0.2-0.6l0.4,0.3
						c0.4-0.3,1-0.3,0.3-1.5l-0.8-0.4v-0.4l0.5,0.5c-0.2-0.5-0.5-0.5-0.8-0.6c0-0.1,0-0.3-0.1-0.4l-0.9-0.3c0.1-0.2,0.5,0,0.2-0.5
						c-0.4-0.1,0,0.6-0.6,0.2c-0.2-0.5,0.1-0.5-0.4-0.7c0-0.1,0.2-0.1,0.3,0c-0.4-0.2-0.9-0.8-1.2-0.8c-0.1-0.5-1.1-1-0.8-1.3
						c-0.2,0-0.8-0.3-1.1-0.6c0.9,0.2-1.1-1.1-0.5-1.4c-0.4,0-0.8-0.3-1.2-0.7c-0.3-0.2-0.3-0.2-0.4-0.3c-0.1-0.1-0.2-0.1-0.3-0.2
						c0.1,0,0.2,0,0.2,0.1c0,0-0.1-0.1,0-0.1c0.1-0.1,0.3-0.1,0.4-0.2c-0.1,0-0.2-0.1-0.2-0.1s0-0.1-0.1-0.1c0,0,0-0.1,0-0.2
						c0-0.3,0.1-0.7,0.1-1c0.6-0.7,0.3,0.6,0.7,0.5c-0.2,0-0.1-0.4-0.1-0.7s0-0.6-0.2-0.5c0.3-0.6,0.2-0.5,0.5-0.8
						c-0.5-0.1-0.1-0.6-0.5-1.1C54,11.2,54.4,11.8,53.9,10.8C53.4,9.9,53.9,10.7,53.9,10.8z M36.8,2.7L36.8,2.7l0.4,0.2L36.8,2.7z
						 M35.3,1.9L36,2.2c0,0.1-0.1,0.2-0.2,0.1C35.8,2.3,35.5,2.1,35.3,1.9z M37.5,5.2C37.3,5.1,37.2,5,37.2,5L37.5,5.2L37.5,5.2
						C37.6,5.2,37.6,5.2,37.5,5.2z"/>
					<path class="st2" d="M38.1,5.2L38.1,5.2C38.1,5.1,38.1,5.1,38.1,5.2L38.1,5.2L38.1,5.2z"/>
					<path class="st2" d="M38.7,28.4L38.7,28.4L38.7,28.4L38.7,28.4z"/>
					<polygon class="st2" points="12.6,5.3 12.6,5.3 12.8,5.1 					"/>
					<path class="st2" d="M45,33.3L45,33.3C45,33.4,45,33.3,45,33.3z"/>
					<path class="st2" d="M47.7,36.1l0.3,0.5C47.9,36.3,47.8,36.2,47.7,36.1z"/>
					<path class="st2" d="M50.5,38.1C50.6,38.1,50.6,38,50.5,38.1L50.5,38.1L50.5,38.1z"/>
					<path class="st2" d="M17.1,52.1C17,52.1,17,52.2,17.1,52.1C16.8,52.4,16.9,52.3,17.1,52.1z"/>
					<path class="st2" d="M26.7,41.5c-0.1,0.1-0.1,0.3-0.2,0.4C26.7,41.8,26.8,41.6,26.7,41.5z"/>
					<polygon class="st2" points="2.2,56.8 2.3,56.8 2.2,56.7 					"/>
					<path class="st2" d="M26,42.4c0.2-0.1,0.4-0.3,0.5-0.5C26.3,42.1,26.1,42.2,26,42.4z"/>
					<path class="st2" d="M60.8,29.3l0.1-0.1l0,0L60.8,29.3z"/>
					<path class="st2" d="M60.9,29.2l0.1-0.1C60.9,29.1,60.9,29.1,60.9,29.2z"/>
					<path class="st2" d="M61.2,28.7L61,29C61.1,28.9,61.2,28.8,61.2,28.7z"/>
					<path class="st2" d="M57.9,32L57.9,32C57.9,32.1,57.9,32.1,57.9,32z"/>
					<path class="st2" d="M57,32.9c0.2-0.2,0.7-0.4,0.9-0.7v-0.1C57.9,32.4,57.1,32.6,57,32.9z"/>
					<path class="st2" d="M52.6,35.6l0.8-0.7c-0.2,0-0.5,0.1-0.2-0.2C52,35.4,53.5,34.7,52.6,35.6z"/>
					<path class="st2" d="M50.4,36.7c0.4,0,0-0.2,0.1-0.2C50.2,36.5,50.1,36.5,50.4,36.7z"/>
					<path class="st2" d="M33.4,33.3l-0.1-0.2C33,33.4,33.4,33.1,33.4,33.3z"/>
					<polygon class="st2" points="31.3,37.3 31.7,37.1 31.7,36.8 					"/>
					<polygon class="st2" points="28.2,37.8 28.3,37.7 27.8,38.3 					"/>
					<path class="st2" d="M2.5,51.8l-0.3,0.1C2.2,52.2,2.6,52.2,2.5,51.8z"/>
					<path class="st2" d="M12,39.7c0.2,0,0.6-0.3,0.7-0.6C12.4,39.4,12.1,39.6,12,39.7z"/>
					<path class="st2" d="M14.7,7.4c0.1,0,0.1,0,0.2-0.1C14.8,7.3,14.8,7.3,14.7,7.4L14.7,7.4z"/>
				</g>
			</g>
		</g>
	</g>
</g>
<g>
	<g>
		<g>
			<g>
				<g>
					<path class="st2" d="M9.2,51.8C9.3,51.9,9.4,52,9.4,52L9.2,51.8L9.2,51.8z"/>
					<path class="st2" d="M9.7,52.2c-0.1-0.1-0.3-0.3-0.5-0.5c0.2,0.2,0.1,0.1,0.4,0.4c0,0-0.1-0.1-0.2-0.1c0.1,0.1-0.1,0,0.1,0.1
						C9.7,52.3,9.7,52.2,9.7,52.2C9.6,52.1,9.7,52.1,9.7,52.2z"/>
					<path class="st2" d="M10.7,50.5L10.7,50.5L10.7,50.5z"/>
					<path class="st2" d="M10.2,49.2C10.3,49.2,10.3,49.1,10.2,49.2C10.3,49.1,10.3,49.1,10.2,49.2z"/>
					<path class="st2" d="M10.3,48.7L10.3,48.7L10.3,48.7z"/>
					<path class="st2" d="M10.7,50.5L10.7,50.5C10.7,50.4,10.7,50.5,10.7,50.5z"/>
					<polygon class="st2" points="9.2,51.5 9.3,51.6 9.2,51.6 					"/>
					<polygon class="st2" points="11,51.1 11,51.1 11.1,51.1 					"/>
					<path class="st2" d="M10.9,51.6c0,0-0.3-0.1-0.4-0.1c0.1,0,0.2,0.1,0.2,0.1H10.9z"/>
					<path class="st2" d="M10.2,52.1L10.2,52.1L10.2,52.1z"/>
					<path class="st2" d="M11,50.7L11,50.7L11,50.7z"/>
					<path class="st2" d="M8.6,51.5L8.6,51.5L8.6,51.5z"/>
					<polygon class="st2" points="9.7,52.4 9.7,52.4 9.8,52.5 					"/>
					<path class="st2" d="M10.1,48.1L10.1,48.1L10.1,48.1z"/>
					<path class="st2" d="M5.6,49.2c0.2,0.1,0.2,0.2,0.5,0.3C6,49.5,5.8,49.2,5.6,49.2z"/>
					<path class="st2" d="M9.2,51.6L9.2,51.6L9.2,51.6z"/>
					<path class="st2" d="M6.1,49.5L6.1,49.5L6.1,49.5z"/>
					<path class="st2" d="M8.9,47.8L8.9,47.8C8.8,47.8,8.8,47.8,8.9,47.8z"/>
					<path class="st2" d="M9.6,48.4L9.6,48.4L9.6,48.4z"/>
					<path class="st2" d="M8.4,48.1C8.3,48.1,8.3,48,8.4,48.1L8.4,48.1C8.3,48.1,8.3,48.1,8.4,48.1z"/>
					<polygon class="st2" points="7.9,48.1 7.9,48.2 7.9,48.2 					"/>
					<path class="st2" d="M8.3,51.7V52C8.3,51.8,8.3,51.7,8.3,51.7z"/>
					<path class="st2" d="M9.3,51.6C9.3,51.6,9.2,51.6,9.3,51.6L9.3,51.6L9.3,51.6z"/>
					<path class="st2" d="M8.3,50.3L8.3,50.3L8.3,50.3z"/>
					<path class="st2" d="M7.5,51.3L7.5,51.3L7.5,51.3z"/>
					<polygon class="st2" points="8.2,50.3 8.2,50.1 8.2,50.2 					"/>
					<path class="st2" d="M8.4,52L8.4,52L8.4,52z"/>
					<path class="st2" d="M8.4,51.3c0,0,0.1,0.4,0.1,0.6c0,0.1-0.1-0.3-0.1-0.4c0,0.1,0.1,0.4,0,0.4v-0.2c0,0.3,0,0,0,0.4V52
						l0.1,0.5c0,0,0,0.2,0,0c0,0,0-0.1,0-0.2v0.1c0-0.3,0-0.1,0-0.4c0,0.1,0,0.4-0.1,0.3c0-0.3,0-0.1,0-0.4V52c-0.1-0.5,0,0,0-0.5
						c0-0.1,0,0.2,0,0.1v0.5c-0.1,0.3,0-0.9,0-0.4c0,0.2-0.1,0.6-0.1,0.4l0.1-0.4c0,0-0.1,0.5-0.1,0.3c0-0.1,0-0.1,0.1-0.2
						c0-0.3-0.1,0.2-0.1,0.2l0.1-0.3c0,0-0.1,0.3-0.2,0.3c0-0.1,0.1-0.2,0.1-0.3C8.2,51.8,8.2,51.6,8.4,51.3l-0.2,0.4
						c0,0,0.1-0.1,0.1-0.2c0-0.1-0.1,0.2-0.1,0.3l0.1-0.2c-0.1,0.2-0.4,0.4-0.2,0.1l0.1-0.1c0.1-0.1-0.4,0.5-0.2,0.2l0,0
						c0-0.1-0.2,0,0.1-0.3c-0.3,0.3,0.1-0.2-0.4,0.2c0.2-0.2,0.3-0.3,0.4-0.4c0,0-0.3,0.2-0.4,0.2L8,51.3l-0.3,0.2L8,51.3H7.9
						c0,0-0.1,0.1-0.2,0.1s0.2-0.2,0.3-0.2c-0.1,0-0.2,0.1-0.3,0.1l0.2-0.1c-0.3,0.1,0.3-0.1,0,0l-0.2,0.1c0.2-0.1,0.2-0.1,0.1-0.1
						L8,51.1c0,0-0.1,0-0.1-0.1c-0.1,0-0.5,0.1-0.5,0.1L7.7,51c-0.2,0-0.1,0-0.4,0.1c0,0,0.4-0.1,0.5-0.1H7.7H8c-0.2,0,0.3-0.1,0,0
						h0.1c0,0-0.1,0-0.1-0.1c-0.3,0-0.2,0-0.4,0c0.1,0,0.3,0,0.3-0.1c-0.1,0-0.2,0-0.4-0.1c0.3,0,0.2,0,0.4,0c0,0-0.1,0-0.2-0.1
						c-0.1,0-0.1,0-0.2,0c0,0,0.1,0,0.2,0l0,0c-0.4-0.2,0.7,0.1,0.2-0.1l0,0c-0.1,0-0.2-0.1-0.2-0.2c0,0,0.2,0.1,0.3,0.1
						c-0.4-0.2,0.1,0-0.1-0.2c0.6,0.4,0-0.1,0.4,0.2l-0.1-0.1c-0.1-0.1,0.1,0.1,0.1,0.1c-0.1-0.1-0.1-0.1-0.2-0.2
						C8,50,8.4,50.3,8.5,50.4c0,0-0.5-0.8-0.2-0.5l0.1,0.3c-0.1-0.4,0.1,0,0-0.4c0,0.1,0,0.2,0,0.2c0.1,0.2,0,0,0-0.2
						c0,0,0,0.2,0.1,0.3c0,0.1,0-0.3,0-0.1v0.1c0-0.1,0,0,0-0.2c0,0.1,0-0.1,0.1,0c0-0.3,0,0.1,0-0.3c0,0.5,0,0.4,0.1,0.2
						c0,0.1,0,0.1,0,0.3c0,0,0-0.1,0-0.3c0,0.5,0.1-0.4,0,0.3c0.1-0.2,0.2-0.4,0.3-0.5c-0.1,0.4-0.1,0-0.2,0.5
						C8.9,49.9,9,49.6,9,49.7S8.9,49.9,8.9,50c0.1-0.2,0,0.1,0.2-0.1L9,50c0,0,0,0.1,0.1-0.1l0,0c0.1-0.3,0.3-0.5,0.4-0.7
						c-0.3,0.5,0,0.2-0.4,0.8c0,0,0.1-0.1,0.2-0.2c0,0-0.1,0.1-0.1,0.2c0.1-0.1,0.2-0.3,0.2-0.2L9.2,50c0.1-0.2,0.2-0.3,0.2-0.2
						l-0.1,0.1c0,0,0.4-0.3,0.3-0.2c-0.3,0.3-0.1,0.1-0.3,0.4L9.4,50l0.1-0.1c0,0,0.2-0.1,0.2,0L9.6,50h0.1l0.1-0.1
						c0.2-0.1,0.4-0.3,0.3-0.2c0,0,0,0-0.1,0.2l0,0c0.1-0.1,0.2-0.1,0.2,0l-0.4,0.3c0.3-0.2,0.1,0,0.4-0.2c-0.1,0-0.2,0.1-0.3,0.2
						l0.2-0.1c-0.1,0.1-0.1,0.1-0.2,0.2c0,0.1,0.4-0.3,0.2-0.1H10c-0.1,0.1,0.2,0,0.1,0.1c-0.3,0.2-0.1,0-0.4,0.2
						c0.1,0,0.5-0.1,0.4,0l0,0c0.5-0.2-0.2,0.1,0,0.1c0,0-0.3,0.1-0.2,0.1c-0.1,0.1,0.1,0,0.3,0.1h-0.1c-0.1,0-0.1,0.1-0.1,0.1
						c0.1,0,0.1,0,0.3,0c-0.8,0.1,0.4,0.2-0.2,0.2H10l0.1,0.1c0.2,0,0.1,0,0.3,0c0.1,0,0.2,0.1,0.2,0.1c-0.2-0.1-0.4,0-0.5,0h0.2
						c-0.4,0,0.5,0.1,0.2,0.1h-0.1c0.1,0,0.2,0.1,0.2,0.1c-0.3,0-0.1,0-0.3-0.1c0,0,0.5,0.2,0.2,0.1c-0.1,0-0.1,0-0.1-0.1
						c-0.3,0-0.2,0-0.3,0l0,0H10h0.1c0.7,0.2,0.1,0.1,0.5,0.3c-0.4-0.2-0.2-0.1-0.5-0.2c-0.1,0-0.2,0-0.3-0.1c0.2,0.1-0.2,0,0.1,0.1
						c-0.1,0,0,0-0.2-0.1c0.1,0,0.2,0.1,0.3,0.1c0.3,0.2-0.4-0.1,0,0.2c0.1,0.1,0.4,0.3,0.5,0.4c-0.1-0.1-0.3-0.2-0.3-0.2
						c-0.1-0.1-0.1,0,0,0.1c-0.1-0.1-0.1-0.1-0.2-0.1c0,0,0.3,0.2,0.1,0.2l-0.3-0.2C9.9,52,10,52.1,10,52.2C9.9,52.1,9.8,52,9.7,52
						c0,0.1,0.1,0.1,0.3,0.3h0.1c0,0-0.2-0.1-0.2-0.2c-0.2-0.1,0.1,0,0.2,0.1v0.1c0.5,0.3,0-0.1,0-0.1l0.3,0.3l-0.3-0.2
						c0.1,0.1,0.3,0.2,0.3,0.2c0.2,0.1-0.1-0.1,0.1,0c0,0,0,0,0.1,0l-0.1-0.1c0.1,0.1,0.3,0.1,0.2,0.1c0.2,0.1-0.2-0.2,0.1-0.1l0,0
						c-0.1-0.1-0.3-0.2-0.6-0.4l0.7,0.3l-0.3-0.1c0,0,0,0,0.2,0c-0.2-0.1-0.1-0.1-0.3-0.1c0.3,0.1-0.1-0.2,0.4,0
						c-0.2-0.1-0.2,0-0.3-0.1c0.5,0.2-0.1-0.1,0.2,0s0.1,0.1,0.3,0.1c-0.4-0.2,0.1-0.1,0-0.1c-0.3-0.1-0.1-0.1-0.2-0.2
						c0.1,0,0.2-0.1,0.4-0.1h0.1c-0.4-0.1-0.3-0.1-0.4-0.2c0.2,0,0.3,0,0.4,0.1l0,0c-0.1,0-0.2,0-0.2-0.1h0.3c0-0.1-0.3-0.1-0.1-0.2
						c-0.3,0-0.7,0.1-0.9,0c0.1,0,0.4,0,0.4,0h-0.1H11c0.1,0-0.2,0-0.2,0c0.2,0,0.1,0,0.3,0c0,0-0.1,0,0,0c0,0,0.1-0.1,0.3-0.1
						c-0.1,0-0.3,0-0.3,0c0-0.1,0.2,0,0.3-0.1c-0.1,0,0-0.1-0.3,0c0,0,0.1,0,0.2-0.1c-0.1,0-0.1-0.1-0.4-0.1l0,0l0,0l0,0l0,0
						c-0.3,0,0.1-0.2,0-0.3H11c-0.1,0-0.1-0.1-0.3-0.1c0,0,0.2-0.1,0.3-0.1c-0.1,0-0.2,0-0.1-0.1c0.2,0,0.1-0.1,0.1,0
						c0.1-0.1,0.2-0.2-0.1-0.1c0.2-0.1,0.3-0.2,0.2-0.2L11,50.1c0,0,0,0,0-0.1l0.3-0.1c0.3-0.3-0.7,0.1-0.2-0.3
						c-0.2,0.1-0.1,0.1-0.3,0.3c0-0.1,0.4-0.4,0.3-0.4c0.1-0.2-0.4,0.2-0.4,0.1c-0.1,0.1-0.3,0.3-0.4,0.3c0-0.1,0.3-0.4,0.4-0.4
						c0,0,0,0,0,0.1c0,0,0.1,0,0.2-0.1l-0.1,0.1c0.1-0.1,0-0.2,0.2-0.3c-0.1,0-0.2,0.1-0.2,0.2c0.1-0.2-0.1-0.1-0.1-0.2
						c0,0.1-0.1,0.2-0.1,0.2c0-0.2-0.2,0.1-0.3,0.1c0.1-0.2,0.3-0.3,0.1-0.3c0-0.1,0.2-0.2,0.3-0.3c-0.2,0.1,0-0.2,0-0.3h0.1
						c-0.1,0-0.1,0-0.1,0l-0.1,0.2v-0.1c-0.1,0.1-0.2,0.3-0.4,0.5c0-0.1-0.1,0.1,0-0.2c0,0.1,0.2-0.3,0.3-0.3h-0.1
						c0,0,0-0.1,0.1-0.1c0.1-0.3-0.2,0.3-0.3,0.2c0.1-0.1,0.2-0.3,0.1-0.3c0,0-0.1,0.3-0.2,0.4c0-0.2-0.1,0.1-0.1,0v0.1
						c-0.1,0.1-0.1,0.1-0.2,0.1c0.1-0.1,0.1-0.1,0.1-0.1c-0.2,0.3,0-0.3-0.1-0.2c0-0.1,0.1-0.3,0.1-0.4c-0.2,0.2,0-0.3-0.1-0.1
						s0,0.2-0.2,0.4l0.2-0.1L9.6,49l0.1-0.1c-0.1,0.2-0.1,0.1-0.1,0.3c0.1-0.3-0.2,0.2-0.1-0.1l0.2-0.6c0-0.3-0.3,0.2-0.3,0.1v0.1
						c-0.1,0.2-0.1,0-0.1,0.1c0-0.2,0-0.3,0-0.4c0,0.1-0.1,0-0.2,0.4v-0.3C9,48.4,8.9,49,8.9,49c0-0.2,0-0.4,0.1-0.5
						c0,0-0.1,0-0.1,0.1c0-0.1-0.1,0.3-0.1,0.1c0,0.1,0,0.3-0.1,0.3v-0.1c0,0.1,0,0.1,0,0.4c-0.1-0.6-0.2,0-0.3-0.5
						c-0.1,0.1-0.1,0.1-0.2,0.2c0-0.1,0-0.1,0-0.1c-0.1-0.2,0.1,0.6,0,0.4c-0.1-0.3,0-0.2-0.1-0.3c-0.2-0.6-0.1,0.1-0.2-0.2l0,0
						c-0.1-0.2,0,0.3-0.1,0.3V49c0.1,0.3,0,0.5,0,0.6c-0.1-0.2,0-0.1-0.2-0.4c0,0,0.2,0.4,0.2,0.5c-0.1-0.1-0.2-0.2-0.3-0.4h0.1
						c-0.2-0.3-0.1,0-0.1,0l-0.1-0.1c-0.1,0.1,0.1,0.4,0,0.5l0.1,0.1c0.2,0.4-0.2-0.2,0,0.1l-0.2-0.3c0,0.1,0.1,0.4,0.1,0.5
						c-0.2-0.2-0.2-0.4-0.3-0.6c0,0-0.1,0.1,0,0.3c0,0-0.1-0.1,0-0.1c0.2,0.3,0.2,0.4,0.2,0.5c-0.5-0.6-0.3,0-0.7-0.4
						c0.1,0.3-0.3,0.1-0.4,0.3c0.5,0.3,0,0.1,0.5,0.4c0,0,0,0.1,0,0c-0.1,0-0.2-0.1-0.4-0.1c-0.2-0.1-0.1-0.1-0.2-0.2
						c-0.1,0.1-0.2-0.1-0.4-0.1c0.2,0.1,0.3,0.2,0.2,0.2l0.3,0.1c0.2,0.3-0.5-0.1-0.3,0.1l-0.2-0.1c0.1,0.1-0.1,0.2,0.3,0.5
						c-0.1,0-0.2-0.1-0.3-0.1c-0.1,0.1,0.4,0.5,0.1,0.5H5.7c0,0,0.3,0.1,0.1,0.1c-0.1,0-0.1,0-0.2,0l0.2,0.1l-0.2-0.1
						c-0.2,0.1,0.4,0.3,0.5,0.4c-0.4,0-0.6,0.1-0.7,0.2H5.3c0,0.2,0.4,0.3,0.6,0.4c-0.5,0.2-0.1,0.4-0.3,0.6
						c0.1-0.1,0.3-0.1,0.4-0.1c-0.1,0.1,0.3,0-0.1,0.1l0,0c-0.4,0.2-0.2,0.2-0.2,0.3l0.5-0.2c-0.6,0.5,0.4,0.2-0.1,0.6
						c0.1,0,0.2,0,0.3,0l-0.2,0.2c0,0.1,0,0.2,0.2,0.3l-0.2,0.1c0,0.1,0.7-0.5,0.7-0.4l-0.3,0.3c0.1,0.1-0.1,0.4,0.3,0.2
						c0,0-0.1,0.1-0.2,0.1c0,0.1,0,0.4,0.3-0.1c-0.2,0.3,0.1,0.1,0.2,0L7,54.6c0.2-0.3,0.3-0.4,0.4-0.4c0,0-0.1,0.2-0.1,0.1
						c0,0.2,0.2-0.2,0.2,0l-0.1,0.1c0,0,0.1,0,0.2-0.2c0.1-0.1,0.1,0.1,0,0.3c0.1-0.1,0.2-0.3,0.2-0.2s-0.1,0.1-0.1,0.2
						c0,0.2,0.2-0.3,0.2,0c0,0.1,0,0.1,0,0.2c-0.1,0-0.1-0.1-0.1-0.1c-0.1,0.2,0,0.3-0.2,0.6C7.7,55,8,54.7,8,54.8v0.1l0,0
						c0,0,0,0,0.1,0V55c0,0.2,0.1,0.1,0.1,0.1c0.1-0.3,0.1-0.2,0.1-0.5l0,0l0,0l0,0H8.2c0.1-0.1,0.1-0.2,0.1-0.1l0.1-0.4
						c-0.1,0.4,0,0.6,0,0.9c0.1-0.1,0.3-0.1,0.4-0.6c0-0.1,0,0.2,0,0.2c0,0.1,0,0-0.1,0.1c0.1-0.1,0.2,0,0.2-0.4
						c0.1,0.2,0,0.3,0.1,0.3v0.1c0.1,0.3,0.2,0.1,0.2-0.2c0.1-0.2,0.1-0.4,0.2-0.1v-0.1c0.3,0.3,0.3-0.4,0.7,0c0.1,0.1,0-0.1,0-0.3
						l0.2,0.3L10.2,54c-0.1-0.3,0.5,0.6,0.4,0.1l-0.1-0.2c0.1,0,0-0.2,0.2,0c0,0-0.1-0.2,0-0.1l0.1,0.1c0-0.1-0.1-0.2-0.1-0.3
						c0.1,0,0.4,0.5,0.5,0.4c0-0.1-0.2-0.4-0.3-0.5c0,0-0.1,0-0.2-0.2v-0.1c-0.3-0.3-0.7-0.7-0.9-0.9l0.2,0.2l-0.2-0.2l0,0
						c-0.2-0.1,0,0,0,0.1l-0.2-0.2l0.3,0.4c-0.1-0.1-0.2-0.3-0.3-0.4c0.1,0.2,0.3,0.3,0.3,0.4c-0.1-0.2-0.2-0.3-0.1-0.1
						c-0.1-0.1-0.1-0.2-0.1-0.2c0.1,0.1,0,0.1,0.2,0.3c-0.2-0.2,0,0.1-0.2-0.3c0.1,0.1,0.2,0.3,0.2,0.3c-0.3-0.5-0.1,0-0.3-0.5
						c0.2,0.4,0.1,0.2,0.2,0.5v-0.1l-0.1-0.2c0.1,0.4,0.2,0.5,0.2,0.7C8.6,51.8,8.6,51.7,8.4,51.3c0.2,0.4,0.2,0.4,0.2,0.6
						c-0.1-0.2,0-0.1-0.2-0.4c0.1,0.5,0,0.1,0.1,0.4c-0.1-0.2-0.1-0.4-0.1-0.3C8.4,51.5,8.4,51.3,8.4,51.3z M7.9,52.1L7.9,52.1
						L7.9,52.1L7.9,52.1z M7.8,52.1L7.8,52.1c0,0.1,0,0.2,0,0.2C7.8,52.2,7.8,52.2,7.8,52.1z M7.4,54L7.4,54
						C7.4,53.9,7.4,53.9,7.4,54L7.4,54L7.4,54z"/>
					<path class="st2" d="M7.6,53.6L7.6,53.6L7.6,53.6z"/>
					<path class="st2" d="M10.6,50.5L10.6,50.5L10.6,50.5z"/>
					<path class="st2" d="M7.6,51.3L7.6,51.3L7.6,51.3z"/>
					<path class="st2" d="M9.7,51L9.7,51L9.7,51z"/>
					<path class="st2" d="M9.6,51.2L9.6,51.2L9.6,51.2z"/>
					<polygon class="st2" points="9.5,51.3 9.6,51.3 9.6,51.3 					"/>
					<path class="st2" d="M8.7,50.1L8.7,50.1C8.6,50.1,8.7,50.1,8.7,50.1z"/>
					<path class="st2" d="M9.5,49.9L9.4,50C9.4,50,9.4,50,9.5,49.9z"/>
					<path class="st2" d="M8.3,50.3L8.3,50.3L8.3,50.3z"/>
					<path class="st2" d="M9.4,50C9.3,50,9.3,50,9.4,50C9.4,50,9.4,49.9,9.4,50z"/>
					<polygon class="st2" points="9.1,51.6 9.1,51.6 9.2,51.6 					"/>
					<path class="st2" d="M9.2,51.6L9.2,51.6C9.2,51.7,9.2,51.6,9.2,51.6z"/>
					<path class="st2" d="M9.2,51.7L9.2,51.7L9.2,51.7z"/>
					<path class="st2" d="M9.3,51.6L9.3,51.6L9.3,51.6z"/>
					<path class="st2" d="M9.3,51.5c0,0-0.2-0.1-0.2,0H9.3C9.1,51.4,9.5,51.6,9.3,51.5z"/>
					<path class="st2" d="M10.6,51.8L10.6,51.8c0,0,0.1,0.1,0.2,0.1C11.1,52,10.5,51.9,10.6,51.8z"/>
					<path class="st2" d="M10.8,51.7c0,0.1,0.2,0,0.2,0.1C10.9,51.7,10.9,51.7,10.8,51.7z"/>
					<path class="st2" d="M10.7,50l0.2-0.1C10.9,49.8,10.9,49.9,10.7,50z"/>
					<polygon class="st2" points="9.4,50.3 9.3,50.4 9.5,50.3 					"/>
					<polygon class="st2" points="10.9,49.2 10.9,49.2 10.8,49.2 					"/>
					<path class="st2" d="M8,47.9v0.3C8,48.1,8,47.8,8,47.9z"/>
					<path class="st2" d="M6.8,48.6C6.7,48.4,6.6,48.4,6.8,48.6L6.8,48.6z"/>
					<path class="st2" d="M5.3,52.3L5.3,52.3L5.3,52.3z"/>
				</g>
			</g>
		</g>
	</g>
</g>
<g>
	<g>
		<g>
			<g>
				<g>
					<path class="st2" d="M14.2,41.2c0.1,0.1,0.2,0.2,0.2,0.2L14.2,41.2L14.2,41.2z"/>
					<path class="st2" d="M14.7,41.5c-0.1-0.1-0.3-0.4-0.5-0.6c0.2,0.3,0.1,0.2,0.3,0.5c0,0.1-0.1,0-0.2-0.1c0.1,0.1-0.1,0,0,0.1
						c0.2,0.2,0.3,0.1,0.1-0.1C14.6,41.4,14.7,41.5,14.7,41.5z"/>
					<path class="st2" d="M17.4,39.6L17.4,39.6L17.4,39.6z"/>
					<path class="st2" d="M19,38.3L19,38.3L19,38.3z"/>
					<path class="st2" d="M19.5,38.3L19.5,38.3L19.5,38.3z"/>
					<path class="st2" d="M17.4,39.6h0.1C17.5,39.5,17.4,39.6,17.4,39.6z"/>
					<path class="st2" d="M14.5,40.6C14.5,40.6,14.5,40.7,14.5,40.6C14.5,40.7,14.5,40.7,14.5,40.6L14.5,40.6z"/>
					<polygon class="st2" points="17,40.4 17,40.4 17,40.5 					"/>
					<path class="st2" d="M16.5,40.9c0,0-0.2-0.2-0.3-0.3c0.1,0.1,0.1,0.1,0.1,0.2L16.5,40.9z"/>
					<path class="st2" d="M15.4,41.3L15.4,41.3L15.4,41.3z"/>
					<path class="st2" d="M17.4,40.1L17.4,40.1L17.4,40.1z"/>
					<path class="st2" d="M29.4,25.1L29.4,25.1L29.4,25.1z"/>
					<polygon class="st2" points="30.9,25.5 30.9,25.5 31,25.6 					"/>
					<path class="st2" d="M20.2,38.1L20.2,38.1L20.2,38.1z"/>
					<path class="st2" d="M24.1,33.8c-0.2-0.1-0.2-0.3-0.4-0.4C23.8,33.5,24,33.8,24.1,33.8z"/>
					<path class="st2" d="M14.5,40.6L14.5,40.6L14.5,40.6z"/>
					<path class="st2" d="M23.7,33.4L23.7,33.4L23.7,33.4z"/>
					<path class="st2" d="M21.1,36.9L21.1,36.9C21,36.9,21,36.9,21.1,36.9z"/>
					<path class="st2" d="M20,37.4L20,37.4C20.1,37.4,20,37.4,20,37.4z"/>
					<path class="st2" d="M21.2,36.3C21.2,36.3,21.3,36.3,21.2,36.3L21.2,36.3L21.2,36.3z"/>
					<path class="st2" d="M21.6,35.8L21.6,35.8L21.6,35.8z"/>
					<path class="st2" d="M28.2,26.4c0.1,0,0.1,0.1,0.2,0.2C28.3,26.4,28.3,26.3,28.2,26.4z"/>
					<path class="st2" d="M14.6,40.7C14.6,40.7,14.5,40.7,14.6,40.7L14.6,40.7L14.6,40.7z"/>
					<path class="st2" d="M19.6,34.7L19.6,34.7C19.7,34.6,19.7,34.7,19.6,34.7z"/>
					<path class="st2" d="M25.3,29.4L25.3,29.4L25.3,29.4z"/>
					<path class="st2" d="M19.9,34.4c0.1,0.1,0.1,0.1,0.2,0.1v-0.1H19.9z"/>
					<path class="st2" d="M28.4,26.6L28.4,26.6L28.4,26.6z"/>
					<path class="st2" d="M28.4,25.7c-0.1,0.1,0.2,0.3,0.4,0.4C28.8,26.2,28.6,25.9,28.4,25.7c0,0.2,0.2,0.5,0.2,0.5s-0.1,0-0.1-0.1
						c0.2,0.3-0.1,0.2,0.1,0.5l-0.1-0.1c0.1,0.1,0.3,0.3,0.4,0.4c0,0,0.1,0.2-0.1,0.1c0,0,0-0.1-0.1-0.1V27c-0.3-0.2,0-0.1-0.2-0.3
						c0,0.1,0.2,0.4,0,0.4c-0.2-0.2,0-0.2-0.2-0.3h0.2c-0.4-0.3,0.1,0-0.4-0.4c-0.2,0,0,0.2-0.1,0.2c0.1,0.2,0.2,0.2,0.3,0.3
						c0.1,0.4-0.7-0.5-0.5-0.1c0.1,0.2,0.4,0.5,0.2,0.4l-0.2-0.3c-0.1,0.1,0.3,0.4,0.1,0.3c-0.1-0.1,0-0.2-0.1-0.2
						c-0.3-0.2,0.1,0.2,0.1,0.2L27.7,27c-0.1,0.1,0,0.4,0,0.6c-0.1-0.1-0.1-0.2-0.2-0.2c0,0.2-0.3,0.2-0.6,0.2l0.2,0.3L27,27.8
						c-0.1,0,0.1,0.1,0.2,0.2c0,0-0.2-0.1-0.2-0.2c0.1,0.3,0.1,0.6-0.2,0.5v-0.1c-0.2,0,0.3,0.5,0.1,0.4l0,0
						c-0.2,0.1-0.2,0.4-0.7,0.2c0.3,0.3-0.3,0,0.1,0.4C26,29.1,26,29,25.7,29c-0.1,0,0.2,0.3,0.2,0.4l-0.2-0.2l0.2,0.3l-0.3-0.2v0.1
						c0,0,0.1,0.1,0.2,0.1c0,0.2-0.3,0-0.4-0.1v0.3c-0.1-0.1-0.1-0.1-0.1-0.2c0.1,0.3-0.2-0.2-0.1,0.1c0.1,0,0.1,0.1,0.2,0.2
						c-0.2-0.1-0.2,0-0.2,0.1l-0.1-0.2C25,29.8,25,30,24.8,30.1c0.1,0,0.4,0.3,0.4,0.4L25,30.3c0.1,0.2,0.1,0.1,0.3,0.3
						c-0.1,0-0.3-0.2-0.3-0.3v0.1c-0.1-0.1-0.1-0.1-0.2-0.2c0.1,0.2-0.3-0.1-0.1,0.1l-0.1-0.1c-0.1,0.1-0.1,0.2-0.2,0.4
						c0.2,0.2,0.1,0.2,0.2,0.4c-0.1,0-0.4-0.1-0.4,0c0,0.2,0.2,0.2,0.2,0.3c-0.2-0.2-0.3-0.1-0.3-0.2C24,31.2,24,31.3,24,31.5
						c0.1,0.1,0.1,0.1,0.2,0.1c0,0.1-0.1,0-0.2-0.1l0,0c0.1,0.4-0.9-0.2-0.6,0.3l0,0l0.1,0.3c-0.1,0-0.1-0.2-0.3-0.2
						c0.2,0.4-0.2,0.2-0.1,0.5c-0.6-0.5-0.3,0.3-0.7,0.1l0.1,0.1c0.1,0.2-0.1,0-0.2,0c0.1,0.1,0.1,0.1,0.2,0.2
						c-0.1,0.4-0.7,0.3-1,0.4c-0.1,0.1,0.6,0.7,0.2,0.5l-0.2-0.3c0.1,0.5-0.4,0.4-0.3,0.8c0-0.1-0.1-0.1-0.1-0.2
						c-0.2-0.1-0.1,0.1,0,0.3c0,0-0.1-0.1-0.2-0.2c-0.1-0.1,0.1,0.3-0.1,0.2c0,0,0-0.1-0.1-0.1c0.1,0.1-0.1,0.1,0.1,0.3
						c-0.2,0,0,0.2-0.2,0.2c0.2,0.3-0.2,0,0.1,0.3c-0.3-0.3-0.4-0.1-0.3,0.1c-0.1-0.1-0.1-0.1-0.3-0.2c0,0.1,0,0.2,0.1,0.3
						c-0.5-0.3,0.1,0.5-0.4,0c0,0.3,0,0.6,0,0.8c-0.3-0.3,0.1-0.2-0.2-0.5c0,0.3,0.2,0.6,0,0.6c-0.1,0-0.1-0.2-0.2-0.2
						c0,0.3-0.3,0.2-0.2,0.5l-0.1-0.1c0,0-0.1,0,0.1,0.1v-0.1c0.2,0.2,0.4,0.5,0.5,0.6c-0.4-0.5-0.2,0-0.7-0.6c0,0,0.1,0.1,0.2,0.2
						c0,0-0.1-0.1-0.2-0.2c0,0.2,0.2,0.3,0.1,0.3c-0.1-0.1-0.1-0.1-0.2-0.2c0.1,0.2,0.2,0.3,0.1,0.3l-0.1-0.1
						c-0.1,0.1,0.2,0.5-0.1,0.5c-0.3-0.3-0.1-0.1-0.4-0.3v0.1l0.2,0.1c-0.1,0,0.1,0.3,0,0.2l-0.1-0.1v0.1h0.2
						c0.1,0.2,0.3,0.3,0.2,0.3c0,0-0.1,0-0.2-0.1l0,0c0.1,0.1,0.1,0.2,0,0.2c-0.1-0.1-0.3-0.3-0.3-0.4c0.2,0.2-0.1,0.2,0.1,0.5
						c0-0.1-0.2-0.2-0.2-0.2l0.2,0.2c-0.1,0-0.1-0.1-0.2-0.2c-0.1,0,0.4,0.3,0.1,0.3c0,0,0,0-0.1-0.1c-0.2,0-0.1,0.3-0.2,0.3
						c-0.3-0.2,0-0.1-0.2-0.3c-0.1,0.2,0.1,0.6-0.1,0.6l0,0c0.4,0.4-0.3-0.1-0.1,0.1l-0.2-0.2c-0.1,0-0.1,0.2-0.1,0.5l-0.1-0.1
						c-0.1,0-0.2,0.1-0.3,0.1c0.1,0.1,0,0.1,0.2,0.2c-0.7-0.4,0,0.6-0.6,0.3c0,0,0-0.1-0.1-0.1v0.2c0.2,0.2,0.1,0.1,0.3,0.2
						c0.1,0.1,0.1,0.2,0.1,0.2c-0.1-0.2-0.3-0.3-0.4-0.3c0.1,0,0.1,0.1,0.2,0.2c-0.3-0.2,0.3,0.3,0,0.2l-0.1-0.1
						c0,0.1,0.1,0.2,0,0.2c-0.2-0.2-0.1-0.1-0.2-0.3c0,0.1,0.3,0.4,0,0.3c0-0.1,0-0.1,0-0.2c-0.3-0.2-0.2-0.1-0.3-0.1l0,0h-0.2H16
						c0.4,0.6,0,0.2,0.2,0.6C16,39.8,16,40,15.8,39.8c-0.1,0-0.2-0.1-0.2-0.1c0.1,0.2-0.2-0.1,0,0.2c-0.1-0.1,0,0-0.2-0.1
						c0,0.1,0.1,0.1,0.2,0.2c0.2,0.3-0.5-0.1-0.2,0.3c0,0.2,0.3,0.5,0.3,0.7c-0.1-0.1-0.2-0.3-0.2-0.3c-0.1-0.1-0.2,0-0.1,0.1
						c-0.1-0.1-0.1-0.1-0.2-0.2c0,0.1,0.2,0.3,0.1,0.2s-0.2-0.2-0.2-0.3c0,0.1,0.1,0.3,0.1,0.4c-0.1-0.1-0.2-0.2-0.2-0.3
						c0,0.1,0,0.2,0.2,0.4h0.1l-0.2-0.2c-0.1-0.2,0.1,0,0.2,0.1V41c0.4,0.4,0.1-0.2,0.1-0.2l0.3,0.3l-0.2-0.3
						c0.1,0.1,0.3,0.2,0.3,0.3c0.2,0.1-0.1-0.1,0.1,0c0,0,0,0,0,0.1v-0.1c0.1,0.1,0.2,0.2,0.1,0.2c0.2,0.1-0.1-0.3,0.2-0.1l0,0
						c0-0.2-0.2-0.2-0.4-0.6l0.6,0.5l-0.2-0.2c0,0,0.1,0,0.1,0.1c-0.1-0.2-0.1-0.1-0.2-0.2c0.2,0.1,0.1-0.2,0.4,0.1
						c-0.1-0.2-0.2-0.1-0.2-0.2c0.4,0.4,0-0.1,0.2,0c0.2,0.2,0,0.1,0.2,0.3c-0.3-0.4,0.2,0,0.1-0.1c-0.3-0.3,0-0.2,0-0.3
						c0.1,0.1,0.3,0,0.4,0l0,0c-0.2-0.3-0.1-0.3-0.1-0.4c0.2,0.2,0.2,0.2,0.2,0.3l0,0c-0.1-0.1-0.1-0.2-0.1-0.2l0.2,0.2
						c0-0.1-0.1-0.3,0.1-0.3c-0.2-0.2-0.6-0.4-0.6-0.6c0.1,0.1,0.3,0.3,0.3,0.3s-0.1-0.1,0-0.1l0.1,0.2c0.1,0-0.1-0.2-0.1-0.2
						c0.1,0.1,0.1,0.1,0.2,0.2c0,0-0.1,0,0,0s0.2,0,0.3,0.1c-0.1-0.1-0.2-0.2-0.2-0.2c0-0.1,0.2,0.1,0.3,0.2c-0.1-0.1,0.1,0-0.2-0.3
						c0,0,0.1,0.1,0.2,0.1c-0.1-0.1,0.1-0.2-0.1-0.4l0,0l0,0l0,0l0,0c-0.1-0.3,0.3-0.1,0.3-0.3l0.1,0.1c0-0.1,0.1-0.2,0-0.4
						c0,0,0.2,0.1,0.2,0.2c0-0.1-0.1-0.2,0.1-0.1c0.1,0.2,0.1,0.1,0,0.1c0.1,0,0.2,0.1,0.1-0.2c0.2,0.2,0.3,0.2,0.2,0.1l-0.2-0.1
						c0-0.1,0-0.1,0.1-0.1l0.2,0.3c0.4,0.2-0.3-0.7,0.3-0.3c-0.1-0.2-0.2-0.1-0.3-0.3c0.1,0,0.5,0.3,0.5,0.2
						c0.2,0.1-0.3-0.4-0.1-0.4c-0.1-0.1-0.3-0.3-0.3-0.4c0.1,0,0.4,0.3,0.5,0.4c0,0,0,0-0.1,0c0,0,0,0.1,0.1,0.2l-0.1-0.1
						c0.1,0.1,0.2,0,0.3,0.1c0-0.1-0.1-0.2-0.2-0.2c0.2,0.1,0.1-0.1,0.3-0.1c-0.1,0-0.2-0.1-0.2-0.1c0.2,0-0.1-0.2-0.1-0.3
						c0.2,0.1,0.3,0.3,0.3,0.1c0.1,0,0.2,0.2,0.3,0.3c-0.1-0.2,0.2,0,0.3,0v0.1c0-0.1,0-0.1,0-0.1l-0.2-0.1c0,0,0.1,0,0.1,0.1
						c-0.1-0.1-0.3-0.3-0.4-0.5c0.1,0.1,0-0.2,0.2,0c-0.2,0,0.2,0.2,0.2,0.3c0,0,0-0.1,0.1,0c0,0,0,0,0.1,0.1
						c0.3,0.1-0.2-0.3-0.1-0.4c0.1,0.1,0.3,0.2,0.2,0.2c0,0-0.2-0.2-0.3-0.3c0.2,0,0-0.1,0-0.1h-0.1C20,37.4,20,37.4,20,37.3
						c0.1,0.1,0,0.1,0.1,0.1c-0.2-0.3,0.3,0.1,0.2-0.1c0.1,0.1,0.2,0.2,0.3,0.3c-0.1-0.2,0.2,0.1,0.2-0.1c-0.2-0.1-0.2-0.1-0.3-0.3
						v0.2l-0.2-0.3v0.2c-0.1-0.2-0.1-0.1-0.2-0.3c0.3,0.2-0.1-0.2,0.2-0.1l0.4,0.4c0.3,0.1-0.1-0.4,0.1-0.4h-0.1
						c-0.2-0.2,0-0.1,0-0.2c0.1,0.1,0.2,0.2,0.3,0.2c-0.1-0.1,0.1-0.1-0.2-0.4l0.2,0.1c0.2,0-0.3-0.5-0.2-0.5
						c0.1,0.2,0.3,0.2,0.3,0.4c0,0,0.1,0,0-0.1c0.1,0.1-0.1-0.3,0-0.2C21,36.1,20.9,36,21,36l0.1,0.1c-0.1-0.1,0-0.1-0.2-0.3
						c0.5,0.3,0.2-0.3,0.7,0c0-0.1,0-0.2,0.1-0.3c0,0,0.1,0.1,0,0.1c0.2,0.1-0.4-0.4-0.1-0.4c0.3,0.2,0.1,0.2,0.2,0.2
						c0.5,0.4,0-0.2,0.4,0l0,0c0.2,0.1-0.1-0.3,0-0.3c0,0,0,0,0.1,0.1c-0.2-0.3-0.2-0.5-0.2-0.6c0.2,0.2,0.1,0.1,0.3,0.3
						c0-0.1-0.3-0.3-0.3-0.4c0.1,0.1,0.2,0.1,0.5,0.3v0.1c0.3,0.2,0.1-0.1,0.1-0.1l0.1,0.1c0.1-0.1-0.2-0.4-0.1-0.5l-0.1-0.1
						c-0.2-0.3,0.2,0.1,0-0.1l0.3,0.3c0-0.1-0.1-0.4-0.1-0.5c0.2,0.2,0.2,0.4,0.3,0.6c0,0,0.1-0.1,0-0.3c0,0,0.1,0.1,0,0.1
						c-0.2-0.3-0.2-0.4-0.2-0.5c0.5,0.6,0.3,0,0.8,0.3c-0.1-0.3,0.3-0.2,0.4-0.3c-0.5-0.4,0-0.1-0.4-0.5c0-0.1,0-0.1,0.1,0l0.4,0.2
						c0.2,0.1,0.1,0.1,0.2,0.2c0.1,0,0.2,0.2,0.4,0.2c-0.2-0.1-0.2-0.2-0.1-0.2l-0.3-0.1c-0.1-0.3,0.5,0.3,0.3-0.1l0.1,0.2
						c0-0.1,0.2-0.2-0.1-0.6c0.1,0,0.2,0.1,0.2,0.2c0.2-0.1-0.1-0.6,0.2-0.5l0.1,0.1c0-0.1-0.2-0.2,0-0.2l0.1,0.1c0,0-0.1-0.2,0-0.2
						l0.1,0.1c0.3,0-0.1-0.5-0.1-0.7c0.3,0.3,0.5,0.3,0.6,0.3l0,0c0.2-0.1,0-0.5,0-0.8c0.4,0.3,0.4-0.1,0.7-0.1
						c-0.1,0-0.2-0.2-0.2-0.3c0.1,0-0.1-0.3,0.2,0l0,0c0.3,0.3,0.3,0.1,0.3,0.1l-0.4-0.4c0.7,0.4,0.1-0.5,0.7-0.1
						c-0.1-0.1,0-0.2-0.1-0.3l0.2,0.2c0.1,0,0.2-0.1,0.3-0.2l0.1,0.2c0.1,0-0.5-0.7-0.5-0.7l0.3,0.3c0.1-0.1,0.5,0,0.3-0.3
						c0,0,0.1,0.1,0.1,0.2c0.1,0,0.4,0,0-0.4c0.3,0.3,0.1-0.1,0.1-0.3l0.2,0.2c-0.2-0.3-0.3-0.4-0.3-0.5c0,0,0.2,0.1,0.1,0.1
						c0.2,0.1-0.1-0.2,0-0.2l0.1,0.1c0.1,0,0-0.1-0.1-0.3c0-0.1,0.2-0.1,0.3,0.1c-0.1-0.1-0.2-0.3-0.1-0.3c0.1,0.1,0.1,0.1,0.1,0.1
						c0.2,0-0.1-0.4,0.2-0.2c0.1,0.1,0.1,0.1,0.1,0.1c-0.1,0.1-0.1,0.1-0.2,0.1c0.2,0.2,0.3,0.2,0.5,0.5c-0.1-0.2-0.3-0.6-0.2-0.5
						l0.1,0.1l0,0c0,0,0,0,0-0.1h0.1c0.2,0.1,0.1,0,0.2,0c-0.2-0.2-0.1-0.2-0.3-0.3c0,0,0,0,0,0.1l0,0l0,0c0,0,0,0.1-0.1,0.1
						c-0.1-0.1-0.1-0.2,0-0.2l-0.3-0.4c0.3,0.2,0.5,0.3,0.7,0.5c0-0.2,0.1-0.3-0.2-0.7c0-0.1,0.1,0.1,0.2,0.1c0,0.1,0,0.1,0,0.1
						c0-0.1,0.1-0.2-0.1-0.5c0.2,0.1,0.2,0.3,0.2,0.1l0.1,0.1c0.6,0.2-0.4-0.9,0.3-0.6c0,0-0.1,0-0.1-0.1c0.5,0,0.2-0.7,0.8-0.5
						c0.1,0,0-0.2-0.1-0.3l0.2,0.2l-0.2-0.3c-0.1-0.3,0.7,0.4,0.5-0.1L30.5,26c0.1,0,0-0.2,0.2,0c0,0-0.1-0.2,0-0.1l0.1,0.1
						l-0.1-0.3c0.2,0,0.4,0.5,0.6,0.4c0-0.1-0.2-0.4-0.3-0.5c0,0-0.1,0-0.2-0.1v-0.1c-0.3-0.3-0.6-0.7-1-0.8l0.1,0.3l-0.2-0.1v-0.1
						c-0.2-0.1-0.1,0,0,0.1c-0.1-0.1-0.2-0.1-0.2-0.1l0.2,0.4c-0.1-0.1-0.2-0.3-0.3-0.3c0.1,0.2,0.3,0.3,0.4,0.4
						c-0.2-0.1-0.3-0.2-0.2-0.1c-0.1-0.1-0.1-0.1-0.2-0.2c0.1,0.1,0,0.1,0.1,0.3c-0.2-0.2-0.1,0.2-0.4-0.2c0.1,0.1,0.2,0.3,0.2,0.3
						c-0.3-0.4-0.1,0.1-0.5-0.3c0.3,0.4,0,0.3,0.1,0.6c0,0-0.1-0.1,0-0.1c-0.1,0-0.2-0.1-0.3-0.1c0.3,0.3,0.3,0.4,0.4,0.6
						c-0.3-0.2-0.3-0.4-0.6-0.6c0.2,0.2,0.1,0.3,0.3,0.5c-0.2-0.1-0.1,0-0.4-0.3c0.3,0.4,0,0.1,0.2,0.3c-0.2-0.1-0.3-0.3-0.3-0.1
						C28.5,25.9,28.4,25.7,28.4,25.7z M27.5,27.7L27.5,27.7L27.5,27.7L27.5,27.7z M27.4,27.9C27.4,27.9,27.4,27.8,27.4,27.9
						c0.1,0,0.2,0.1,0.2,0.1C27.5,27.9,27.5,27.9,27.4,27.9z M29,29L29,29C29,29,29,28.9,29,29l-0.1-0.1L29,29z"/>
					<path class="st2" d="M28.8,28.7L28.8,28.7L28.8,28.7L28.8,28.7L28.8,28.7z"/>
					<polygon class="st2" points="17.4,39.6 17.4,39.6 17.3,39.5 					"/>
					<path class="st2" d="M25.3,29.2h0.1H25.3z"/>
					<path class="st2" d="M16,39.5L16,39.5L16,39.5z"/>
					<path class="st2" d="M15.7,39.8L15.7,39.8C15.6,39.8,15.6,39.8,15.7,39.8z"/>
					<polygon class="st2" points="15.3,39.9 15.4,40 15.4,40 					"/>
					<path class="st2" d="M18.7,36.1L18.7,36.1C18.7,36,18.7,36.1,18.7,36.1z"/>
					<path class="st2" d="M18.1,37.6c0,0,0-0.1-0.1-0.1C18,37.5,18,37.5,18.1,37.6z"/>
					<path class="st2" d="M19.6,34.7L19.6,34.7L19.6,34.7z"/>
					<path class="st2" d="M18.1,37.5C18,37.4,18,37.5,18.1,37.5L18.1,37.5z"/>
					<path class="st2" d="M14.3,40.8L14.3,40.8L14.3,40.8z"/>
					<path class="st2" d="M14.3,40.8L14.3,40.8C14.3,40.9,14.3,40.9,14.3,40.8z"/>
					<path class="st2" d="M14.3,41L14.3,41C14.3,40.9,14.3,40.9,14.3,41z"/>
					<path class="st2" d="M14.7,40.6L14.7,40.6L14.7,40.6z"/>
					<path class="st2" d="M14.7,40.5c0,0-0.2-0.1-0.2,0H14.7C14.5,40.4,14.8,40.6,14.7,40.5z"/>
					<path class="st2" d="M16,41h-0.1c0.1,0.1,0.2,0.1,0.2,0.2C16.4,41.4,15.9,41.1,16,41z"/>
					<path class="st2" d="M16.4,40.9c0,0.1,0.1,0.1,0.2,0.2C16.5,40.9,16.4,40.9,16.4,40.9z"/>
					<path class="st2" d="M18.1,39.2l0.2,0.2C18.2,39.3,18.2,39.3,18.1,39.2z"/>
					<polygon class="st2" points="17.4,37.9 17.3,37.8 17.5,38 					"/>
					<polygon class="st2" points="18.9,39 18.9,39.1 18.9,38.9 					"/>
					<path class="st2" d="M21.7,36.1l-0.2-0.2C21.5,35.9,21.7,36.2,21.7,36.1z"/>
					<path class="st2" d="M22.7,34.6C22.8,34.7,22.9,34.7,22.7,34.6C22.8,34.7,22.7,34.6,22.7,34.6z"/>
					<path class="st2" d="M26.8,31.3L26.8,31.3L26.8,31.3z"/>
				</g>
			</g>
		</g>
	</g>
</g>
<g>
	<g>
		<g>
			<g>
				<g>
					<path class="st2" d="M35.6,20.7c-0.1,0.1-0.2,0.2-0.2,0.2L35.6,20.7L35.6,20.7z"/>
					<path class="st2" d="M35.2,21.2c0.1-0.1,0.3-0.3,0.5-0.5l-0.4,0.4c0,0,0.1-0.1,0.2-0.2c-0.1,0.1,0-0.1-0.1,0.1
						c-0.2,0.2-0.2,0.2,0,0.1L35.2,21.2z"/>
					<path class="st2" d="M35.2,22L35.2,22L35.2,22z"/>
					<path class="st2" d="M35.3,22.3C35.3,22.3,35.3,22.4,35.3,22.3L35.3,22.3z"/>
					<path class="st2" d="M35.1,22.6L35.1,22.6C35.1,22.6,35.1,22.7,35.1,22.6z"/>
					<path class="st2" d="M35.2,22L35.2,22L35.2,22z"/>
					<path class="st2" d="M35.8,20.7L35.8,20.7L35.8,20.7z"/>
					<polygon class="st2" points="34.9,22 34.9,22 34.8,22.1 					"/>
					<polygon class="st2" points="34.8,22 35.1,21.7 34.9,21.8 					"/>
					<path class="st2" d="M35,21.5L35,21.5L35,21.5z"/>
					<path class="st2" d="M34.9,22.1L34.9,22.1L34.9,22.1z"/>
					<path class="st2" d="M38.8,23L38.8,23L38.8,23z"/>
					<polygon class="st2" points="37.9,24.1 37.9,24.1 37.8,24.2 					"/>
					<path class="st2" d="M35,23L35,23C34.9,23,34.9,23,35,23z"/>
					<path class="st2" d="M35.8,23.5c0.2-0.2,0.2-0.2,0.4-0.4C36.2,23.2,35.9,23.4,35.8,23.5z"/>
					<path class="st2" d="M35.8,20.7L35.8,20.7L35.8,20.7z"/>
					<polygon class="st2" points="36.2,23.1 36.2,23.1 36.3,23.1 					"/>
					<path class="st2" d="M35.3,23L35.3,23L35.3,23z"/>
					<path class="st2" d="M35.4,22.6L35.4,22.6L35.4,22.6z"/>
					<path class="st2" d="M35.6,22.8C35.6,22.8,35.6,22.9,35.6,22.8L35.6,22.8L35.6,22.8z"/>
					<path class="st2" d="M35.7,22.9L35.7,22.9L35.7,22.9z"/>
					<path class="st2" d="M38.5,22.9l-0.2,0.2C38.4,22.9,38.5,22.9,38.5,22.9z"/>
					<polygon class="st2" points="35.7,20.8 35.8,20.7 35.8,20.7 					"/>
					<path class="st2" d="M37.2,21.2L37.2,21.2C37.2,21.3,37.2,21.3,37.2,21.2z"/>
					<path class="st2" d="M37.9,22.4L37.9,22.4C38,22.4,38,22.4,37.9,22.4z"/>
					<polygon class="st2" points="37.2,21.3 37.1,21.4 37.1,21.4 					"/>
					<path class="st2" d="M38.3,23.1L38.3,23.1L38.3,23.1z"/>
					<path class="st2" d="M38.8,22.7c0,0-0.3,0.2-0.4,0.4C38.3,23.1,38.6,22.9,38.8,22.7c-0.2,0.1-0.4,0.4-0.4,0.3l0.1-0.1
						c-0.2,0.2,0,0-0.3,0.2l0.1-0.1l-0.4,0.4c0,0-0.2,0.2,0,0l0.1-0.1l-0.1,0.1c0.2-0.2,0.1-0.1,0.3-0.3c-0.1,0.1-0.3,0.3-0.2,0.2
						c0.2-0.2,0.1-0.1,0.3-0.3l-0.1,0.1l0.4-0.4c0.1-0.1-0.1,0.1-0.1,0L38.2,23c-0.3,0.2,0.6-0.6,0.2-0.3c-0.2,0.2-0.5,0.5-0.3,0.3
						l0.3-0.3c0,0-0.4,0.4-0.2,0.2c0.1-0.1,0.1-0.1,0.1-0.1c0.2-0.2-0.2,0.1-0.2,0.1l0.2-0.2c-0.1,0-0.2,0.2-0.3,0.2
						c0.1-0.1,0.2-0.1,0.2-0.2c-0.1,0.1,0-0.1,0.1-0.2l-0.2,0.2l0.1-0.1c0.1-0.1-0.1,0.1-0.2,0.2c0,0,0.1-0.1,0.2-0.2
						c-0.2,0.2-0.4,0.3-0.2,0.1l0.1-0.1c0.1-0.1-0.4,0.4-0.3,0.2l0,0c0.1-0.1-0.2,0,0.1-0.3c-0.3,0.3,0.1-0.2-0.3,0.3
						c0.2-0.2,0.3-0.3,0.4-0.5l-0.3,0.3l0.2-0.2l-0.2,0.2l0.3-0.3l-0.1,0.1c0,0-0.1,0.1-0.2,0.2c-0.1,0.1,0.1-0.2,0.2-0.3l-0.2,0.2
						l0.2-0.2c-0.2,0.2,0.2-0.2,0,0l-0.2,0.2c0.1-0.1,0.1-0.2,0-0.1l0.2-0.1c0-0.1-0.1,0-0.1,0c-0.1,0.1-0.3,0.3-0.4,0.4l0.2-0.2
						c-0.1,0.1-0.1,0.1-0.3,0.3l0.3-0.3l-0.1,0.1l0.2-0.2c-0.1,0.1,0.2-0.2,0,0l0.1-0.1h-0.1c-0.2,0.2-0.2,0.1-0.3,0.3
						c0.1-0.1,0.2-0.2,0.2-0.2c-0.1,0.1-0.2,0.2-0.3,0.3c0.2-0.2,0.1-0.2,0.3-0.3c0,0-0.1,0-0.2,0.1l-0.2,0.2c0,0,0.1-0.1,0.2-0.2
						l0,0c-0.3,0.2,0.5-0.6,0.1-0.2l0,0l-0.2,0.2c0,0,0.1-0.1,0.2-0.2c-0.3,0.3,0-0.1-0.2,0.1c0.5-0.5-0.1,0,0.2-0.4l-0.1,0.1
						c-0.1,0.1,0.1-0.1,0.1-0.1c-0.1,0.1-0.1,0.1-0.2,0.2c-0.2,0.1,0.1-0.3,0.2-0.4c0-0.1-0.7,0.6-0.4,0.3l0.2-0.2
						C37,22.1,37.2,21.8,37,22c0.1-0.1,0.1-0.1,0.1-0.1c0.2-0.2,0,0-0.2,0.1c0,0,0.1-0.1,0.2-0.2c0.1-0.1-0.2,0.2-0.1,0l0.1-0.1
						c-0.1,0.1,0,0-0.2,0.2c0.1-0.1-0.1,0.1,0-0.1C36.7,22,37,21.7,36.7,22c0.3-0.3,0.2-0.3,0.1-0.1l0.2-0.2c0,0-0.1,0-0.2,0.2
						c0.4-0.4-0.3,0.3,0.1-0.2c-0.2,0.1-0.3,0.2-0.4,0.3c0.3-0.3,0.1,0,0.4-0.3c-0.2,0.1-0.4,0.4-0.4,0.3c0,0,0.1-0.1,0.2-0.2
						c-0.2,0.1,0-0.1-0.2,0.1l0.1-0.1c0,0,0-0.1-0.1,0.1l0,0c-0.2,0.2-0.5,0.4-0.6,0.5c0.4-0.4,0.1-0.1,0.6-0.6c0,0-0.1,0.1-0.2,0.2
						c0,0,0.1-0.1,0.2-0.2c-0.1,0.1-0.2,0.2-0.2,0.2l0.2-0.2c-0.1,0.1-0.3,0.3-0.2,0.2l0.1-0.1c0,0-0.4,0.3-0.3,0.2
						c0.3-0.3,0.1-0.1,0.4-0.4l-0.1,0.1l-0.1,0.1c0,0-0.2,0.2-0.1,0.1l0.1-0.1h-0.1L36.1,22c-0.1,0.1-0.3,0.3-0.3,0.2
						c0,0,0,0,0.1-0.2l0,0c-0.1,0.1-0.2,0.2-0.1,0.1l0.3-0.3c-0.2,0.2-0.1,0-0.3,0.3l0.2-0.2l-0.2,0.2c0.1-0.1,0.1-0.1,0.2-0.2
						c0,0-0.3,0.3-0.2,0.2l0.1-0.1c0.1-0.1-0.1,0.1-0.1,0c0.3-0.3,0.1-0.1,0.3-0.3c-0.1,0-0.4,0.3-0.3,0.2l0,0c-0.4,0.4,0.2-0.2,0,0
						l0.2-0.2c0-0.1-0.1,0.1-0.3,0.2l0.1-0.1c0.1-0.1,0-0.1,0.1-0.1c-0.1,0.1-0.1,0.1-0.2,0.2c0.5-0.6-0.3,0.2,0.1-0.2l0.1-0.1
						l-0.1,0.1l-0.2,0.2c-0.1,0.1-0.2,0.2-0.2,0.2c0.1-0.1,0.3-0.3,0.3-0.4l-0.2,0.2c0.3-0.3-0.3,0.3-0.1,0.1l0.1-0.1
						c0,0-0.2,0.1-0.1,0.1c0.2-0.2,0.1-0.1,0.2-0.2c0,0-0.4,0.3-0.2,0.1l0.1-0.1c0.2-0.2,0.2-0.2,0.2-0.2l0,0l0.1-0.1l-0.1,0.1
						c-0.5,0.5-0.1,0.1-0.4,0.4c0.3-0.3,0.2-0.2,0.4-0.4c0.1-0.1,0.1-0.1,0.2-0.2c-0.2,0.2,0.1-0.1-0.1,0.1c0.1-0.1,0,0,0.2-0.2
						c-0.1,0-0.1,0.1-0.2,0.2c-0.2,0.2,0.3-0.3-0.1,0l-0.5,0.4c0.1-0.1,0.3-0.2,0.3-0.2c0.1-0.1,0.1-0.1,0,0l0.2-0.2
						c0,0-0.3,0.2-0.2,0.1l0.3-0.3l-0.3,0.2c0.1-0.1,0.2-0.2,0.3-0.3c-0.1,0-0.1,0.1-0.3,0.3l-0.1,0.1l0.2-0.2
						c0.2-0.1-0.1,0.1-0.1,0.1l0,0c-0.4,0.4,0.1,0,0.1,0l-0.3,0.3l0.3-0.2c-0.1,0.1-0.2,0.2-0.3,0.3c-0.1,0.2,0.1-0.1,0,0.1
						l-0.1,0.1l0.1-0.1c-0.1,0.1-0.2,0.2-0.2,0.2c-0.2,0.2,0.2-0.2,0,0l0,0c0.1-0.1,0.2-0.2,0.5-0.5l-0.5,0.5l0.2-0.2
						c0,0,0,0-0.1,0.1l0.2-0.2c-0.2,0.2,0.1-0.1-0.2,0.3c0.2-0.2,0.1-0.1,0.2-0.2c-0.4,0.4,0.1-0.1-0.1,0.1
						c-0.2,0.2-0.1,0.1-0.3,0.3c0.3-0.3-0.1,0.1,0,0c0.3-0.3,0.1-0.1,0.2-0.2c-0.1,0.1-0.1,0.2-0.2,0.3l0,0c0.3-0.3,0.2-0.2,0.3-0.2
						c-0.2,0.2-0.2,0.2-0.3,0.3l0,0c0.1-0.1,0.1-0.1,0.2-0.1L35,22.7c0,0,0.2-0.2,0.1-0.1c0.2-0.2,0.5-0.5,0.6-0.6l-0.3,0.3
						c0,0,0.1-0.1,0,0l-0.2,0.2c-0.1,0.1,0.1-0.1,0.1-0.1l-0.2,0.2c0,0,0.1-0.1,0,0c0,0-0.1,0.1-0.2,0.2c0.1-0.1,0.2-0.2,0.2-0.2
						l-0.2,0.2c0.1-0.1,0,0,0.2-0.2c0,0-0.1,0.1-0.1,0.2c0.1-0.1,0.1,0,0.3-0.2l0,0l0,0l0,0l0,0c0.2-0.2-0.1,0.2,0,0.1l-0.1,0.1
						c0.1-0.1,0.1,0,0.2-0.2c0,0-0.1,0.1-0.2,0.2c0.1,0,0.1-0.1,0,0s-0.1,0.1-0.1,0.1c-0.1,0.1-0.2,0.2,0,0
						c-0.2,0.2-0.2,0.2-0.2,0.2L35,23l0,0l-0.2,0.2c-0.3,0.3,0.5-0.4,0.1,0c0.2-0.2,0.1-0.1,0.3-0.3l-0.3,0.4
						c-0.1,0.1,0.4-0.3,0.3-0.2c0.1-0.1,0.3-0.3,0.4-0.4c0,0-0.3,0.4-0.4,0.4c0,0,0,0,0-0.1c0,0-0.1,0.1-0.2,0.2l0.1-0.1
						c-0.1,0.1-0.1,0.1-0.2,0.2c0.1-0.1,0.1-0.1,0.2-0.2c-0.1,0.1,0,0-0.1,0.1l0.1-0.1c-0.1,0.1,0.2-0.1,0.2-0.2
						c-0.1,0.1-0.3,0.3-0.2,0.2c-0.1,0.1-0.2,0.2-0.3,0.3c0.2-0.1-0.1,0.1-0.1,0.2l-0.1,0.1l0,0l0.2-0.2c0,0,0,0-0.1,0.1l0.4-0.4
						c-0.1,0.1,0.1-0.1-0.1,0.1c0.1-0.1-0.2,0.2-0.3,0.2l0,0l-0.1,0.1c-0.2,0.2,0.3-0.2,0.3-0.2c-0.1,0.1-0.2,0.2-0.2,0.2
						s0.2-0.2,0.3-0.3c-0.1,0.1,0.1-0.1,0.1,0v-0.1c0.1-0.1,0.1-0.1,0.2-0.1l-0.1,0.1c0.2-0.2-0.2,0.2-0.1,0.1l-0.3,0.3
						c0.2-0.2-0.2,0.2,0,0.1c0.2-0.2,0.1-0.1,0.3-0.3L35,23.5l0.3-0.2l-0.1,0.1c0.1-0.1,0.1-0.1,0.2-0.2c-0.2,0.3,0.2-0.1,0,0.1
						L35,23.7c-0.2,0.2,0.2-0.2,0.2-0.1l0.1-0.1c0.2-0.2,0,0,0.1-0.1l-0.3,0.3c0.1-0.1,0,0,0.3-0.3l-0.2,0.2
						c-0.1,0.1,0.4-0.4,0.4-0.3c-0.2,0.1-0.2,0.3-0.4,0.4c0,0,0,0,0.1-0.1c-0.1,0.1,0.2-0.2,0.1,0c0.1-0.1,0.2-0.2,0.2-0.2l-0.1,0.1
						c0.1-0.1,0.1-0.1,0.3-0.2c-0.4,0.4,0.1,0-0.3,0.4c0.1,0,0.1-0.1,0.1-0.1l-0.1,0.1c-0.1,0.1,0.4-0.4,0.3-0.2
						c-0.2,0.2-0.1,0.1-0.2,0.2c-0.5,0.5,0.1,0-0.2,0.2l0,0c-0.1,0.2,0.2-0.2,0.2-0.1l-0.1,0.1c0.2-0.2,0.3-0.3,0.4-0.3
						c-0.2,0.2-0.1,0.1-0.3,0.3c0,0,0.3-0.3,0.4-0.3L35.6,24l0,0c-0.2,0.3,0,0,0,0.1l-0.1,0.1c0.1,0,0.3-0.3,0.3-0.3l0.1-0.1
						c0.3-0.3-0.1,0.2,0.1,0l-0.3,0.3c0.1-0.1,0.3-0.2,0.4-0.3c-0.2,0.2-0.3,0.3-0.5,0.4c0,0,0,0,0.2-0.1c0,0-0.1,0.1-0.1,0
						c0.2-0.2,0.3-0.3,0.4-0.3c-0.5,0.5-0.1,0.2-0.5,0.6c0.2-0.2,0,0.1,0,0.1c0.4-0.4,0,0,0.4-0.4l0,0l-0.2,0.3
						c-0.1,0.1-0.1,0.1-0.2,0.2c0,0-0.2,0.2-0.3,0.3c0.2-0.2,0.2-0.2,0.2-0.2l0.2-0.2c0.2-0.2-0.3,0.4-0.1,0.2l-0.1,0.1
						c0.1-0.1,0,0,0.4-0.3c0,0.1-0.2,0.2-0.2,0.2c0,0.1,0.4-0.3,0.2-0.1l-0.1,0.1c0,0,0.2-0.2,0.1-0.1l-0.1,0.1c0,0,0.2-0.2,0.1-0.1
						l-0.1,0.1c-0.1,0.2,0.3-0.3,0.4-0.3c-0.3,0.3-0.4,0.4-0.4,0.5l0,0c0,0.1,0.3-0.2,0.4-0.3c-0.3,0.4-0.1,0.2-0.3,0.4
						c0.1-0.1,0.2-0.2,0.3-0.3c-0.1,0.1,0.2-0.2-0.1,0.1l0,0c-0.3,0.3-0.2,0.2-0.2,0.2l0.4-0.4c-0.5,0.6,0.3-0.1-0.2,0.4l0.2-0.2
						L36.1,25c0,0.1-0.1,0.1,0,0.1L36,25.2l0.6-0.6l-0.3,0.3c0,0-0.2,0.3,0.1,0L36.3,25c0,0-0.2,0.2,0.2-0.2c-0.3,0.3,0,0,0.1-0.1
						l-0.2,0.2c0.3-0.2,0.3-0.3,0.4-0.4c0,0-0.2,0.2-0.1,0.1c-0.1,0.1,0.2-0.2,0.1-0.1l-0.1,0.1c0,0,0.1,0,0.2-0.2
						c0.1-0.1,0,0.1-0.2,0.2c0.1-0.1,0.3-0.2,0.2-0.2l-0.1,0.1c-0.1,0.2,0.3-0.2,0.1,0l-0.1,0.1c0,0,0,0,0-0.1
						c-0.2,0.2-0.2,0.2-0.5,0.5c0.1-0.1,0.5-0.4,0.4-0.3l-0.1,0.1l0,0l0,0v0.1c-0.1,0.2-0.1,0.1-0.1,0.1c0.2-0.2,0.2-0.2,0.3-0.3
						l0,0l0,0l0,0l0,0c0.1-0.1,0.2-0.2,0.1-0.1l0.3-0.3l-0.6,0.6c0.1-0.1,0.1,0,0.5-0.4c0.1,0-0.1,0.1-0.2,0.2c0,0,0,0-0.1,0.1
						c0.1-0.1,0.1,0,0.3-0.3c-0.1,0.1-0.2,0.2-0.2,0.2l-0.1,0.1c-0.4,0.4,0.7-0.6,0.2,0l0.1-0.1c-0.2,0.3,0.3-0.1,0,0.3
						c-0.1,0.1,0.1-0.1,0.2-0.2L37.1,25l0.3-0.2c0.2-0.2-0.5,0.6-0.1,0.2l0.1-0.1c0,0,0.1-0.1-0.1,0.1c0,0,0.2-0.1,0.1-0.1L37.3,25
						l0.2-0.2c-0.1,0.1-0.4,0.4-0.4,0.5c0.1,0,0.3-0.3,0.4-0.4c0,0,0.1-0.1,0.2-0.2l0.1-0.1c0.3-0.3,0.7-0.7,0.9-0.9l-0.2,0.2
						l0.2-0.2l0,0c0.1-0.2,0,0-0.1,0.1l0.2-0.2l-0.3,0.3c0.1-0.1,0.3-0.3,0.3-0.3c-0.2,0.1-0.3,0.3-0.4,0.4c0.1-0.2,0.3-0.3,0.1-0.2
						l0.2-0.2c-0.1,0.1-0.1,0-0.2,0.2c0.2-0.2-0.1,0,0.2-0.3c-0.1,0.1-0.3,0.2-0.3,0.2c0.4-0.4,0,0,0.4-0.4
						c-0.3,0.3-0.2,0.1-0.4,0.3l0.1-0.1c0,0,0.1-0.1,0.2-0.2c-0.3,0.3-0.4,0.3-0.5,0.5c0.3-0.3,0.3-0.3,0.6-0.6
						c-0.2,0.2-0.2,0.2-0.4,0.4l0.3-0.3c-0.3,0.3-0.1,0.1-0.3,0.3c0.2-0.2,0.3-0.3,0.2-0.2C38.7,22.8,38.8,22.7,38.8,22.7z M38,23
						L38,23L38,23L38,23z M38,23L38,23c-0.1,0.1-0.1,0.2-0.1,0.2C37.9,23.1,37.9,23,38,23z M36.6,24.4L36.6,24.4L36.6,24.4l0.1-0.1
						L36.6,24.4z"/>
					<polygon class="st2" points="36.9,24.2 36.9,24.1 37,24.1 					"/>
					<path class="st2" d="M35.3,21.9L35.3,21.9L35.3,21.9z"/>
					<polygon class="st2" points="38.1,22.3 38,22.4 38,22.3 					"/>
					<path class="st2" d="M35.8,21.1L35.8,21.1L35.8,21.1z"/>
					<path class="st2" d="M35.8,21L35.8,21L35.8,21z"/>
					<polygon class="st2" points="35.9,20.9 35.8,21 35.8,21 					"/>
					<path class="st2" d="M36.7,21.3L36.7,21.3C36.8,21.2,36.8,21.2,36.7,21.3z"/>
					<path class="st2" d="M36.1,21.6L36.1,21.6C36.2,21.4,36.2,21.4,36.1,21.6z"/>
					<path class="st2" d="M37.2,21.2L37.2,21.2L37.2,21.2z"/>
					<path class="st2" d="M36.2,21.5C36.2,21.4,36.2,21.4,36.2,21.5L36.2,21.5z"/>
					<path class="st2" d="M35.8,20.6L35.8,20.6L35.8,20.6z"/>
					<path class="st2" d="M35.8,20.6L35.8,20.6C35.7,20.7,35.7,20.7,35.8,20.6z"/>
					<path class="st2" d="M35.7,20.7L35.7,20.7L35.7,20.7z"/>
					<path class="st2" d="M35.8,20.8L35.8,20.8L35.8,20.8z"/>
					<path class="st2" d="M35.8,20.8c0,0,0.1-0.2,0.1-0.1L35.8,20.8C35.9,20.6,35.7,20.9,35.8,20.8z"/>
					<path class="st2" d="M35,21.7L35,21.7c0,0-0.1,0.1-0.2,0.1C34.6,22.1,35,21.7,35,21.7z"/>
					<path class="st2" d="M34.9,21.9c0,0-0.1,0.1-0.2,0.2C34.8,22,34.8,21.9,34.9,21.9z"/>
					<path class="st2" d="M35.2,22.2L35,22.4C35,22.3,35.1,22.3,35.2,22.2z"/>
					<polygon class="st2" points="36.2,21.3 36.3,21.2 36.1,21.3 					"/>
					<polygon class="st2" points="34.9,22.6 34.9,22.6 35,22.6 					"/>
					<path class="st2" d="M35.5,23l0.2-0.2C35.7,22.9,35.4,23.1,35.5,23z"/>
					<path class="st2" d="M35.9,23C35.8,23.1,35.8,23.2,35.9,23C35.9,23.1,36,23,35.9,23z"/>
					<polygon class="st2" points="36.2,24 36.1,24.1 36.2,24.1 					"/>
				</g>
			</g>
		</g>
	</g>
</g>
<g>
	<g>
		<g>
			<g>
				<g>
					<path class="st2" d="M46.9,10.8c-0.1,0.1-0.2,0.2-0.2,0.2L46.9,10.8L46.9,10.8z"/>
					<path class="st2" d="M46.5,11.3l0.5-0.5l-0.4,0.4c0,0,0.1-0.1,0.2-0.2c-0.1,0.1,0-0.1-0.1,0.1c-0.2,0.2-0.2,0.2,0,0L46.5,11.3z
						"/>
					<path class="st2" d="M46.3,11.8L46.3,11.8L46.3,11.8z"/>
					<path class="st2" d="M46.3,12.1L46.3,12.1L46.3,12.1z"/>
					<path class="st2" d="M46.1,12.4L46.1,12.4L46.1,12.4z"/>
					<path class="st2" d="M46.3,11.8L46.3,11.8C46.3,11.8,46.3,11.9,46.3,11.8z"/>
					<polygon class="st2" points="47.1,10.7 47,10.8 47,10.8 					"/>
					<polygon class="st2" points="46.1,12 46.1,12 46,12.1 					"/>
					<polygon class="st2" points="46,12 46.3,11.7 46.1,11.8 					"/>
					<path class="st2" d="M46.3,11.6L46.3,11.6L46.3,11.6z"/>
					<path class="st2" d="M46.1,12L46.1,12L46.1,12z"/>
					<path class="st2" d="M48.7,11.7L48.7,11.7L48.7,11.7z"/>
					<polygon class="st2" points="47.8,12.8 47.8,12.8 47.7,12.9 					"/>
					<path class="st2" d="M45.9,12.7L45.9,12.7C45.8,12.7,45.9,12.7,45.9,12.7z"/>
					<path class="st2" d="M46.4,12.9l0.4-0.4L46.4,12.9z"/>
					<path class="st2" d="M47.1,10.8L47.1,10.8L47.1,10.8z"/>
					<polygon class="st2" points="46.8,12.5 46.8,12.4 46.8,12.4 					"/>
					<path class="st2" d="M46.1,12.6L46.1,12.6L46.1,12.6z"/>
					<path class="st2" d="M46.3,12.3L46.3,12.3L46.3,12.3z"/>
					<path class="st2" d="M46.4,12.4L46.4,12.4L46.4,12.4L46.4,12.4z"/>
					<polygon class="st2" points="46.4,12.4 46.5,12.4 46.5,12.4 					"/>
					<path class="st2" d="M48.5,11.7l-0.2,0.2C48.5,11.8,48.6,11.7,48.5,11.7z"/>
					<polygon class="st2" points="47,10.9 47.1,10.8 47,10.8 					"/>
					<path class="st2" d="M48,10.8L48,10.8L48,10.8z"/>
					<path class="st2" d="M48.2,11.5L48.2,11.5C48.3,11.5,48.3,11.5,48.2,11.5z"/>
					<polygon class="st2" points="48,10.8 47.9,11 47.9,10.9 					"/>
					<path class="st2" d="M48.4,11.9L48.4,11.9L48.4,11.9z"/>
					<path class="st2" d="M48.9,11.5c0,0-0.3,0.3-0.4,0.4C48.4,11.9,48.6,11.7,48.9,11.5l-0.4,0.4l0.1-0.1c-0.2,0.2,0,0-0.3,0.3
						l0.1-0.1L48,12.4c0,0-0.2,0.2,0,0l0.1-0.1L48,12.4l0.3-0.3c-0.1,0.1-0.3,0.3-0.2,0.2c0.2-0.2,0.1-0.1,0.3-0.3l-0.1,0.1l0.4-0.4
						c0.1-0.1-0.1,0.1-0.1,0L48.3,12c-0.3,0.2,0.6-0.6,0.3-0.3c-0.2,0.2-0.5,0.5-0.3,0.3l0.3-0.3c0,0-0.4,0.4-0.2,0.2l0.1-0.1
						c0.2-0.2-0.2,0.1-0.2,0.1l0.2-0.2l-0.3,0.2l0.2-0.2c-0.1,0.1,0-0.1,0.1-0.2l-0.2,0.2l0.1-0.1c0.1-0.1-0.1,0.1-0.2,0.2
						c0,0,0.1-0.1,0.2-0.2c-0.2,0.2-0.4,0.4-0.2,0.1l0.1-0.1c0.1-0.1-0.4,0.4-0.2,0.2l0,0c0.1-0.1-0.1,0.1,0.2-0.3
						c-0.3,0.3,0.1-0.1-0.3,0.3c0.2-0.2,0.3-0.3,0.4-0.4l-0.3,0.3l0.2-0.2l-0.2,0.2l0.3-0.3l-0.1,0.1l-0.2,0.2
						c-0.1,0.1,0.1-0.2,0.2-0.3l-0.2,0.2l0.2-0.2c-0.2,0.2,0.2-0.2,0,0l-0.2,0.2c0.1-0.1,0.1-0.1,0.1-0.1l0.2-0.1c0,0-0.1,0.1-0.1,0
						l-0.4,0.4l0.2-0.2l-0.3,0.3l0.3-0.3L48,11.7l0.2-0.2c-0.1,0.1,0.2-0.2,0,0l0.1-0.1l-0.1,0.1l-0.3,0.3c0.1-0.1,0.2-0.2,0.2-0.2
						l-0.3,0.3c0.2-0.2,0.2-0.2,0.3-0.3c0,0,0,0-0.2,0.2L47.7,12c0,0,0.1-0.1,0.2-0.2l0,0c-0.3,0.3,0.5-0.6,0.1-0.2l0,0l-0.2,0.2
						c0,0,0.1-0.1,0.2-0.2c-0.3,0.3,0-0.1-0.2,0.1c0.5-0.5-0.1,0,0.3-0.3L48,11.5c-0.1,0.1,0.1-0.1,0.1-0.1l-0.2,0.2
						c-0.2,0.1,0.1-0.2,0.2-0.4c0,0-0.7,0.6-0.4,0.3l0.2-0.2c-0.3,0.3,0,0-0.3,0.2l0.1-0.1c0.2-0.2,0,0-0.1,0.1l0.2-0.2
						c0.1-0.1-0.2,0.2-0.1,0l0.1-0.1c-0.1,0.1,0,0-0.2,0.2c0.1-0.1-0.1,0.1,0,0c-0.2,0.2,0.1-0.1-0.2,0.2c0.3-0.3,0.2-0.3,0.1-0.1
						l0.2-0.2c0,0-0.1,0.1-0.2,0.2c0.4-0.4-0.3,0.3,0.2-0.2c-0.2,0.2-0.3,0.3-0.4,0.3c0.3-0.3,0,0,0.4-0.4c-0.1,0.1-0.4,0.4-0.4,0.3
						l0.2-0.2c-0.1,0.1,0-0.1-0.2,0.1l0.1-0.1c0,0,0-0.1-0.1,0.1l0,0l-0.6,0.5l0.6-0.6l-0.2,0.2l0.2-0.2c-0.1,0.1-0.2,0.2-0.2,0.2
						l0.2-0.2c-0.1,0.1-0.3,0.3-0.2,0.2l0.1-0.1c0,0-0.4,0.3-0.3,0.2l0.4-0.4l-0.1,0.1l-0.1,0.1c0,0-0.2,0.2-0.1,0.1l0.1-0.1H47
						l-0.1,0.1c-0.1,0.1-0.3,0.3-0.3,0.3l0.2-0.2l0,0c-0.1,0.1-0.2,0.2-0.1,0.1l0.3-0.3l-0.3,0.3l0.2-0.2l-0.2,0.2l0.2-0.2
						c0,0-0.3,0.3-0.2,0.2l0.1-0.1c0.1-0.1-0.1,0.1,0,0l0.3-0.3c-0.1,0-0.3,0.3-0.3,0.2l0,0c-0.4,0.4,0.2-0.2,0,0l0.2-0.2
						c0.1-0.1-0.1,0.1-0.2,0.2l0.1-0.1c0.1-0.1,0-0.1,0.1-0.1l-0.2,0.2c0.5-0.6-0.3,0.3,0.1-0.2l0.1-0.1l-0.1,0.1l-0.2,0.2
						c-0.1,0.1-0.2,0.2-0.2,0.2c0.1-0.1,0.3-0.3,0.4-0.4l-0.2,0.2c0.3-0.3-0.3,0.3-0.1,0.1l0.1-0.1c0,0-0.2,0.2-0.1,0.1l0.2-0.2
						c0,0-0.4,0.4-0.2,0.2l0.1-0.1c0.2-0.2,0.2-0.2,0.2-0.2l0,0l0.1-0.1l-0.1,0.1c-0.5,0.5-0.1,0.1-0.4,0.4l0.4-0.4l0.2-0.2
						c-0.2,0.2,0.1-0.1-0.1,0.1l0.2-0.2c-0.1,0.1-0.1,0.1-0.2,0.2c-0.2,0.2,0.3-0.3-0.1,0l-0.5,0.5l0.3-0.2c0.1-0.1,0.1-0.1,0,0
						l0.2-0.2c0,0-0.3,0.2-0.2,0.1l0.3-0.3l-0.3,0.2L47,11c-0.1,0.1-0.1,0.1-0.3,0.3l-0.1,0.1l0.2-0.2c0.2-0.1-0.1,0.1-0.1,0.1l0,0
						c-0.4,0.4,0.1-0.1,0.1,0l-0.3,0.3l0.2-0.2l-0.3,0.3c-0.1,0.1,0.1-0.1-0.1,0.1l-0.1,0.1l0.1-0.1c-0.1,0.1-0.2,0.2-0.2,0.2
						c-0.2,0.2,0.2-0.2,0,0l0,0c0.1-0.1,0.2-0.2,0.5-0.5L46.1,12l0.2-0.2l-0.1,0.1l0.2-0.2c-0.2,0.2,0.1-0.1-0.2,0.3l0.2-0.2
						c-0.4,0.4,0.1-0.1-0.1,0.1c-0.2,0.2-0.1,0.1-0.3,0.3c0.3-0.3-0.1,0.1,0,0c0.3-0.3,0.1-0.1,0.2-0.2c-0.1,0.1-0.1,0.2-0.2,0.3
						l0,0c0.3-0.3,0.2-0.2,0.3-0.3L46,12.3l0,0l0.2-0.2L46,12.3c0,0,0.2-0.2,0.1-0.1c0.2-0.2,0.5-0.5,0.6-0.6l-0.3,0.3
						c0,0,0.1-0.1,0,0l-0.2,0.2c-0.1,0.1,0.1-0.1,0.1-0.1l-0.2,0.2c0,0,0.1-0.1,0,0l-0.2,0.2l0.2-0.2l-0.2,0.2l0.2-0.2l-0.2,0.2
						c0.1-0.1,0,0,0.3-0.2l0,0l0,0l0,0l0,0c0.2-0.2-0.1,0.1,0,0.1l-0.1,0.1c0.1-0.1,0.1,0,0.2-0.2l-0.2,0.2c0.1,0,0.1-0.1,0,0
						S46,12.5,46,12.5c-0.1,0.1-0.2,0.2,0,0c-0.2,0.2-0.2,0.2-0.2,0.2l0.1-0.1l0,0l-0.2,0.2c-0.3,0.3,0.5-0.5,0,0l0.3-0.3l-0.4,0.4
						c-0.1,0.1,0.3-0.3,0.3-0.2l0.4-0.4c0,0-0.3,0.4-0.4,0.4c0,0,0,0,0-0.1l-0.2,0.2l0.1-0.1c-0.1,0.1-0.1,0.1-0.2,0.2
						c0.1-0.1,0.1-0.1,0.2-0.2c-0.1,0.1,0,0-0.1,0.1l0.1-0.1c-0.1,0.1,0.2-0.2,0.2-0.2c-0.1,0.1-0.3,0.3-0.2,0.2L45.5,13
						c0.2-0.2-0.1,0.1-0.1,0.1l-0.1,0.1l0,0l0.2-0.2l-0.1,0.1l0.4-0.4c-0.1,0.1,0.1-0.1-0.1,0.1c0.1-0.1-0.2,0.2-0.3,0.3l0,0
						l-0.1,0.1c-0.2,0.2,0.3-0.2,0.3-0.2c-0.1,0.1-0.2,0.2-0.2,0.2s0.2-0.2,0.3-0.3c-0.1,0.1,0.1-0.1,0.1-0.1l0,0
						c0.1-0.1,0.1-0.1,0.2-0.1l-0.1,0.1c0.2-0.2-0.2,0.2-0.1,0.1l-0.3,0.3c0.2-0.2-0.2,0.2,0,0.1c0.2-0.2,0.1-0.1,0.3-0.3l-0.1,0.1
						l0.3-0.2L45.9,13l0.2-0.2c-0.2,0.3,0.2-0.1,0,0l-0.4,0.4c-0.2,0.2,0.2-0.2,0.1-0.1l0.1-0.1c0.2-0.2,0,0,0.1-0.1l-0.3,0.3
						c0.1-0.1,0,0,0.3-0.3l-0.2,0.2c-0.1,0.1,0.4-0.4,0.4-0.3l-0.4,0.4c0,0,0,0,0.1-0.1c-0.1,0.1,0.2-0.2,0.1,0
						c0.1-0.1,0.2-0.2,0.2-0.2L46.1,13l0.2-0.2c-0.4,0.4,0.1,0-0.3,0.4c0.1,0,0.1-0.1,0.1-0.1L46,13.2c-0.1,0.1,0.4-0.4,0.3-0.2
						c-0.2,0.2-0.1,0.1-0.2,0.2c-0.5,0.5,0.1-0.1-0.2,0.2l0,0c-0.2,0.2,0.2-0.2,0.2-0.1L46,13.4c0.2-0.2,0.3-0.3,0.4-0.4l-0.3,0.3
						l0.3-0.3L46,13.4l0,0c-0.2,0.3,0,0,0,0l-0.1,0.1l0.3-0.3l0.1-0.1c0.3-0.3-0.2,0.2,0.1,0l-0.3,0.3l0.3-0.3L46,13.5
						c0,0,0,0,0.2-0.1c0,0-0.1,0.1-0.1,0c0.2-0.2,0.3-0.3,0.3-0.3c-0.5,0.5-0.1,0.2-0.5,0.6c0.2-0.2-0.1,0.1,0,0.1l0.4-0.4l0,0
						l-0.2,0.3l-0.2,0.2c0,0-0.2,0.2-0.3,0.3c0.2-0.2,0.2-0.2,0.2-0.2l0.2-0.2c0.2-0.2-0.4,0.4-0.1,0.2l-0.1,0.1
						c0.1-0.1,0,0,0.4-0.3L46,14c0,0.1,0.4-0.3,0.2-0.1L46.1,14c0,0,0.2-0.2,0.1-0.1L46.1,14c0,0,0.2-0.2,0.1-0.1L46.1,14
						c-0.1,0.1,0.3-0.3,0.4-0.3c-0.3,0.3-0.4,0.4-0.4,0.5l0,0c0,0.1,0.3-0.2,0.4-0.3c-0.3,0.3-0.1,0.2-0.3,0.4l0.3-0.3
						c-0.1,0.1,0.2-0.2-0.1,0.1l0,0c-0.3,0.3-0.2,0.2-0.2,0.2l0.4-0.4c-0.5,0.6,0.2-0.2-0.3,0.3l0.2-0.2l-0.2,0.2c0,0.1-0.1,0.1,0,0
						l-0.1,0.1l0.6-0.6L46.5,14c0,0-0.2,0.3,0,0l-0.1,0.1c0,0-0.2,0.2,0.2-0.2c-0.3,0.3,0,0,0.1-0.1L46.5,14
						c0.3-0.2,0.3-0.3,0.4-0.4c0,0-0.2,0.2-0.1,0.1c-0.1,0.1,0.2-0.2,0.1-0.1l-0.1,0.1c0,0,0.1,0,0.2-0.2c0.1-0.1,0,0.1-0.2,0.2
						c0.1-0.1,0.3-0.2,0.2-0.2l-0.1,0.1c-0.1,0.1,0.2-0.2,0.1,0l-0.1,0.1l0,0l-0.5,0.5c0.1-0.1,0.4-0.4,0.4-0.3L46.7,14l0,0l0,0
						c0,0,0,0.1-0.1,0.1c-0.2,0.1-0.1,0.1-0.1,0.1l0.3-0.3l0,0l0,0l0,0l0,0c0.1-0.1,0.2-0.2,0.1-0.1l0.3-0.3l-0.6,0.6
						c0.1-0.1,0.1-0.1,0.5-0.4c0,0-0.1,0.1-0.2,0.2L46.8,14c0.1-0.1,0.1,0,0.3-0.3c-0.1,0.1-0.2,0.2-0.2,0.2L46.8,14
						c-0.4,0.4,0.7-0.6,0.2-0.1l0.1-0.1c-0.2,0.3,0.3-0.2-0.1,0.2c-0.1,0.1,0.1-0.1,0.2-0.2L47,14l0.3-0.2c0.2-0.2-0.5,0.5-0.2,0.2
						l0.1-0.1c0,0,0.1-0.1-0.1,0.1c0,0,0.2-0.1,0.1-0.1L47.1,14l0.2-0.2c-0.1,0.1-0.4,0.4-0.5,0.5l0.4-0.4l0.2-0.2l0.1-0.1
						c0.3-0.3,0.7-0.7,0.9-0.9l-0.2,0.2l0.2-0.2l0,0c0.1-0.2,0,0-0.1,0.1l0.2-0.2l-0.3,0.3l0.3-0.3L48.1,13c0.1-0.2,0.3-0.3,0.1-0.1
						l0.2-0.2c-0.1,0.1-0.1,0-0.2,0.2c0.2-0.2-0.1,0,0.3-0.3l-0.3,0.2c0.4-0.4,0,0,0.4-0.4c-0.3,0.3-0.2,0.1-0.4,0.3l0.1-0.1
						l0.2-0.2L48,12.9l0.6-0.6l-0.4,0.4l0.3-0.3c-0.3,0.3-0.1,0.1-0.3,0.3c0.2-0.2,0.3-0.3,0.2-0.2L48.9,11.5z M48.1,11.9L48.1,11.9
						L48.1,11.9L48.1,11.9z M48.1,11.9L48.1,11.9L48,12L48.1,11.9z M46.8,13.3C46.7,13.4,46.8,13.3,46.8,13.3L46.8,13.3l0.1-0.1
						L46.8,13.3z"/>
					<polygon class="st2" points="47,13.1 47,13.1 47.1,13 					"/>
					<path class="st2" d="M46.4,11.8L46.4,11.8L46.4,11.8z"/>
					<path class="st2" d="M48.4,11.4l-0.1,0.1L48.4,11.4z"/>
					<path class="st2" d="M47,11.1L47,11.1L47,11.1z"/>
					<path class="st2" d="M47,11L47,11L47,11z"/>
					<polygon class="st2" points="47.1,10.9 47,11 47,11 					"/>
					<path class="st2" d="M47.6,11L47.6,11C47.7,10.9,47.7,10.9,47.6,11z"/>
					<path class="st2" d="M47.1,11.3L47.1,11.3C47.2,11.2,47.2,11.2,47.1,11.3z"/>
					<path class="st2" d="M48,10.8L48,10.8L48,10.8z"/>
					<path class="st2" d="M47.2,11.2L47.2,11.2C47.2,11.3,47.1,11.3,47.2,11.2z"/>
					<path class="st2" d="M47.1,10.7L47.1,10.7L47.1,10.7z"/>
					<path class="st2" d="M47.1,10.7L47.1,10.7C47,10.7,47,10.7,47.1,10.7z"/>
					<path class="st2" d="M47,10.8L47,10.8C47,10.7,47,10.7,47,10.8z"/>
					<path class="st2" d="M47,10.8L47,10.8L47,10.8z"/>
					<path class="st2" d="M47,10.8c0,0,0.1-0.2,0.1-0.1L47,10.8C47.2,10.6,46.9,10.9,47,10.8z"/>
					<path class="st2" d="M46.2,11.7L46.2,11.7l-0.1,0.1C45.8,12.1,46.2,11.7,46.2,11.7z"/>
					<path class="st2" d="M46.1,11.9c0,0-0.1,0.1-0.2,0.2C46,12,46,11.9,46.1,11.9z"/>
					<path class="st2" d="M46.2,12L46,12.2L46.2,12z"/>
					<polygon class="st2" points="47.2,11.1 47.3,11 47.2,11.2 					"/>
					<polygon class="st2" points="45.9,12.4 45.9,12.4 46,12.4 					"/>
					<path class="st2" d="M46.2,12.6l0.2-0.2C46.4,12.4,46.2,12.7,46.2,12.6z"/>
					<path class="st2" d="M46.6,12.5C46.5,12.6,46.4,12.7,46.6,12.5C46.5,12.5,46.6,12.4,46.6,12.5z"/>
					<path class="st2" d="M46.5,13.2L46.5,13.2L46.5,13.2z"/>
				</g>
			</g>
		</g>
	</g>
</g>
</svg>
